<svg xmlns="http://www.w3.org/2000/svg" viewBox="0 0 28.35 11.4">
  <defs>
    <style>
      .a {
        fill: #de3335;
      }
    </style>
  </defs>
  <g>
    <path class="a" d="M13.77,4.65l2.32-2.32a0.55,0.55,0,0,0,0-.78L15.51,1a0.57,0.57,0,0,0-.79,0L12.4,3.28,10.08,1a0.57,0.57,0,0,0-.79,0l-0.58.58a0.55,0.55,0,0,0,0,.78L11,4.65,8.71,7a0.55,0.55,0,0,0,0,.78L9.29,8.33a0.56,0.56,0,0,0,.79,0L12.4,6l2.32,2.32a0.56,0.56,0,0,0,.79,0l0.58-.58a0.55,0.55,0,0,0,0-.78Z"/>
    <path class="a" d="M21.94,0a7.28,7.28,0,0,0-3.52,1.34L18,1.62V11.4h1.76V8.72a5.33,5.33,0,0,0,2.14.55,3.12,3.12,0,0,0,3.3-2.78V2.78A3.12,3.12,0,0,0,21.94,0Zm1.54,4.53v2a1.44,1.44,0,0,1-1.54,1,4.93,4.93,0,0,1-2.14-.78V2.54a5,5,0,0,1,2.14-.78,1.44,1.44,0,0,1,1.54,1V4.53Z"/>
    <circle class="a" cx="27.34" cy="8.26" r="1.01"/>
    <path class="a" d="M5.42,3.1L1.75,4.31V2.8a1.43,1.43,0,0,1,1.54-1H3.88a1.43,1.43,0,0,1,1.54,1V3.1ZM3.88,0H3.29A3.11,3.11,0,0,0,0,2.8v3.7A3.11,3.11,0,0,0,3.29,9.27h0.2a6.58,6.58,0,0,0,2.28-.55l0.74-.3L5.83,6.8l-0.93.38a4.6,4.6,0,0,1-1.61.34H3.14a1.38,1.38,0,0,1-1.39-1V6.15L6.57,4.56a0.88,0.88,0,0,0,.6-0.83V2.8A3.11,3.11,0,0,0,3.88,0Z"/>
  </g>
</svg>
