<?xml version="1.0" standalone="no"?>
<!DOCTYPE svg PUBLIC "-//W3C//DTD SVG 1.1//EN" "http://www.w3.org/Graphics/SVG/1.1/DTD/svg11.dtd" >
<svg xmlns="http://www.w3.org/2000/svg">
<metadata>
Created by FontPrep 20130207 at Thu Mar  3 16:00:54 2016
 By Devon
Copyright (c) 2014-2015 by Ryoichi Tsunekawa. All rights reserved.
</metadata>
<defs>
<font id="d3b12a96e84f64941fda1870d0646ec9" horiz-adv-x='1024' >
  <font-face 
    font-family="Siro-SemiBold"
    font-weight="600"
    font-stretch="normal"
    units-per-em="2048"
    panose-1="2 11 6 4 2 2 4 3 2 4"
    ascent="1638"
    descent="-410"
    x-height="1036"
    cap-height="1393"
    bbox="-381 -543 2500 2269"
    underline-thickness="116"
    underline-position="-90"
    unicode-range="U+000D-FB02"
  />
<missing-glyph horiz-adv-x="1472" 
d="M434 156h602l-301 399zM1149 285v825l-309 -414zM324 285l309 411l-309 414v-825zM735 838l301 399h-602zM166 0v1393h1141v-1393h-1141z" />
    <glyph glyph-name="fi" unicode="fi" horiz-adv-x="1280" 
d="M887 0v1036h237v-1036h-237zM879 1227v223h251v-223h-251zM199 0v848h-183v188h183v111q0 197 87 285t281 88q102 0 178 -23v-194q-63 20 -148 20t-123 -37t-38 -133v-117h287v-188h-287v-848h-237z" />
    <glyph glyph-name="fl" unicode="fl" horiz-adv-x="1280" 
d="M887 0v1495h237v-1495h-237zM199 0v848h-183v188h183v111q0 197 87 285t281 88q102 0 178 -23v-194q-63 20 -148 20t-123 -37t-38 -133v-117h287v-188h-287v-848h-237z" />
    <glyph glyph-name=".notdef" horiz-adv-x="1472" 
d="M434 156h602l-301 399zM1149 285v825l-309 -414zM324 285l309 411l-309 414v-825zM735 838l301 399h-602zM166 0v1393h1141v-1393h-1141z" />
    <glyph glyph-name=".null" horiz-adv-x="0" 
 />
    <glyph glyph-name="nonmarkingreturn" horiz-adv-x="681" 
 />
    <glyph glyph-name="CR" unicode="&#xd;" horiz-adv-x="505" 
 />
    <glyph glyph-name="space" unicode=" " horiz-adv-x="505" 
 />
    <glyph glyph-name="exclam" unicode="!" horiz-adv-x="661" 
d="M199 0v254h266v-254h-266zM225 432l-30 961h272l-31 -961h-211z" />
    <glyph glyph-name="quotedbl" unicode="&#x22;" horiz-adv-x="976" 
d="M608 850l-39 543h258l-39 -543h-180zM186 850l-39 543h259l-39 -543h-181z" />
    <glyph glyph-name="numbersign" unicode="#" horiz-adv-x="1277" 
d="M465 522h293l57 371h-293zM72 350v172h196l58 371h-166v172h194l52 328h196l-51 -328h293l51 328h197l-52 -328h168v-172h-196l-58 -371h166v-172h-194l-56 -350h-196l55 350h-293l-55 -350h-197l56 350h-168z" />
    <glyph glyph-name="dollar" unicode="$" horiz-adv-x="1277" 
d="M907 386q0 70 -36 110t-140 69v-348q94 14 135 56q41 43 41 113zM385 1012q0 -66 32 -100q32 -36 122 -60v322q-154 -27 -154 -162zM1151 406q0 -360 -420 -400v-203h-192v199q-260 12 -408 117v231q176 -119 408 -137v389l-39 8q-186 39 -273 129q-86 90 -86 250
q0 354 398 397v203h192v-198q221 -14 350 -95v-225q-154 92 -350 109v-369l49 -10q193 -41 282 -134t89 -261z" />
    <glyph glyph-name="percent" unicode="%" horiz-adv-x="1742" 
d="M1319 143q84 1 122 51t38 158t-38 159q-38 50 -122 50t-122 -50t-38 -159t38 -159t122 -50zM1319 -25q-176 -1 -270 97t-95 280q0 182 94 280t271 97q176 0 269 -97q93 -98 93 -280t-93 -280t-269 -97zM424 831q84 1 122 51t38 158t-38 159q-38 50 -122 50t-122 -50
t-38 -159t38 -159t122 -50zM317 -25l902 1442h208l-901 -1442h-209zM425 664q-177 0 -270 97t-94 279t93 280t271 97q177 0 270 -97q93 -98 93 -280t-93 -279t-270 -97z" />
    <glyph glyph-name="ampersand" unicode="&#x26;" horiz-adv-x="1419" 
d="M610 172q141 0 244 59l-381 369q-135 -94 -135 -215q0 -213 272 -213zM754 1081q0 147 -171 147t-171 -161q0 -55 25 -101t95 -114l48 25q98 53 136 98t38 106zM599 -25q-247 -1 -374 97t-127 286q0 231 234 381q-84 90 -119 166t-35 166q0 168 104 257t298 89
q192 0 292 -84t101 -237q-1 -115 -61 -201t-203 -162l-35 -18l334 -326q72 131 71 322h228q0 -162 -33 -272t-113 -199l248 -240h-317l-91 88q-155 -113 -402 -113z" />
    <glyph glyph-name="quotesingle" unicode="'" horiz-adv-x="583" 
d="M201 850l-39 543h258l-39 -543h-180z" />
    <glyph glyph-name="parenleft" unicode="(" horiz-adv-x="690" 
d="M119 626q0 264 91 494q91 229 245 375h250q-353 -336 -353 -868t353 -869h-250q-154 144 -245 374t-91 494z" />
    <glyph glyph-name="parenright" unicode=")" horiz-adv-x="690" 
d="M338 626q0 532 -354 869h249q156 -143 247 -373t91 -495t-91 -495t-247 -374h-249q354 336 354 868z" />
    <glyph glyph-name="asterisk" unicode="*" horiz-adv-x="862" 
d="M252 561l-141 107l190 252l-299 90l53 172l295 -105l-8 316h178l-8 -316l295 105l53 -172l-299 -90l191 -252l-144 -107l-178 262z" />
    <glyph glyph-name="plus" unicode="+" horiz-adv-x="1277" 
d="M532 66v442h-432v207h432v440h213v-440h433v-207h-433v-442h-213z" />
    <glyph glyph-name="comma" unicode="," horiz-adv-x="612" 
d="M170 0v264h272v-254l-174 -332h-141l131 322h-88z" />
    <glyph glyph-name="hyphen" unicode="-" horiz-adv-x="776" 
d="M72 489v226h633v-226h-633z" />
    <glyph glyph-name="period" unicode="." horiz-adv-x="612" 
d="M170 0v264h272v-264h-272z" />
    <glyph glyph-name="slash" unicode="/" horiz-adv-x="868" 
d="M-4 -287l645 1782h219l-643 -1782h-221z" />
    <glyph glyph-name="zero" unicode="0" horiz-adv-x="1277" 
d="M639 186q163 0 231 116t68 394t-69 395q-69 115 -231 115t-230 -116t-68 -394t68 -394t231 -116zM639 -25q-287 0 -417 171t-130 550t130 550t417 171t418 -172t131 -549t-131 -549t-418 -172z" />
    <glyph glyph-name="one" unicode="1" horiz-adv-x="1277" 
d="M303 0v209h287v926l-324 -174v221l379 211h189v-1184h286v-209h-817z" />
    <glyph glyph-name="two" unicode="2" horiz-adv-x="1277" 
d="M1135 219v-219h-1022v190l469 402q174 150 233 230t59 169q0 215 -270 215q-242 0 -448 -176v240q190 147 460 147t389 -101q120 -101 119 -306q0 -154 -81 -271t-332 -319l-248 -201h672z" />
    <glyph glyph-name="three" unicode="3" horiz-adv-x="1277" 
d="M594 -25q-315 0 -483 125v236q188 -150 462 -150q328 0 328 213q0 205 -299 205h-254v211h230q274 0 274 199q0 98 -67 145t-207 47q-248 0 -424 -139v233q172 117 439 117t384 -92t117 -283q0 -236 -181 -311v-4q236 -76 236 -338q0 -414 -555 -414z" />
    <glyph glyph-name="four" unicode="4" horiz-adv-x="1277" 
d="M346 524h455l8 559zM799 0v317h-731v195l741 881h233v-869h187v-207h-187v-317h-243z" />
    <glyph glyph-name="five" unicode="5" horiz-adv-x="1277" 
d="M602 -25q-301 0 -448 115v234q168 -137 428 -138q336 0 336 244q0 123 -82 183q-82 61 -274 61t-374 -78v797h906v-217h-684v-328q117 35 254 35q502 0 501 -445q0 -463 -563 -463z" />
    <glyph glyph-name="six" unicode="6" horiz-adv-x="1277" 
d="M666 186q130 0 200 67t70 187t-65 184q-65 62 -185 62q-221 0 -321 -199q33 -301 301 -301zM1184 448q0 -222 -131 -348t-397 -125q-542 0 -541 684q0 758 651 758q217 0 332 -65v-224q-123 78 -316 78q-410 0 -422 -456q134 147 362 147t345 -114q117 -113 117 -335z
" />
    <glyph glyph-name="seven" unicode="7" horiz-adv-x="1277" 
d="M123 1174v219h1028v-191l-670 -1202h-284l669 1174h-743z" />
    <glyph glyph-name="eight" unicode="8" horiz-adv-x="1277" 
d="M639 184q313 0 313 205q0 199 -313 223q-313 -25 -313 -223q0 -205 313 -205zM909 1018q0 190 -269 190t-269 -190q0 -180 268 -205q270 25 270 205zM1202 369q0 -394 -562 -394t-562 394q0 274 252 350v4q-199 80 -199 319q0 182 130 278t379 97q249 0 379 -96t130 -279
q0 -240 -199 -319v-4q252 -76 252 -350z" />
    <glyph glyph-name="nine" unicode="9" horiz-adv-x="1277" 
d="M592 707q219 0 319 198q-33 301 -299 301q-134 0 -202 -66t-68 -188q0 -121 64 -183t186 -62zM510 -25q-215 0 -330 66v223q123 -78 316 -78q410 0 422 459q-134 -149 -362 -149t-345 114t-117 335q0 222 131 347t397 125q542 0 541 -684q0 -758 -653 -758z" />
    <glyph glyph-name="colon" unicode=":" horiz-adv-x="612" 
d="M170 0v264h272v-264h-272zM170 764v264h272v-264h-272z" />
    <glyph glyph-name="semicolon" unicode=";" horiz-adv-x="612" 
d="M170 0v264h272v-254l-174 -332h-141l131 322h-88zM170 764v264h272v-264h-272z" />
    <glyph glyph-name="less" unicode="&#x3c;" horiz-adv-x="1277" 
d="M1178 72l-1078 444v193l1078 444v-223l-783 -318l783 -317v-223z" />
    <glyph glyph-name="equal" unicode="=" horiz-adv-x="1277" 
d="M100 252v207h1078v-207h-1078zM100 764v207h1078v-207h-1078z" />
    <glyph glyph-name="greater" unicode="&#x3e;" horiz-adv-x="1277" 
d="M100 72v221l783 317l-783 320v221l1078 -444v-193z" />
    <glyph glyph-name="question" unicode="?" horiz-adv-x="966" 
d="M260 0v254h266v-254h-266zM293 432v39q0 115 34 183t115 130l95 70q81 57 109 96t28 94q0 172 -218 172t-403 -172v234q160 139 428 139q434 0 434 -364q0 -105 -43 -179t-155 -149l-101 -68q-70 -47 -94 -91t-24 -120v-14h-205z" />
    <glyph glyph-name="at" unicode="@" horiz-adv-x="1619" 
d="M787 383q89 0 149 84v76q-66 8 -102 8q-135 0 -136 -90q0 -78 89 -78zM850 -160q-752 0 -752 740q0 372 190 570t542 198q350 0 523 -168t173 -492q0 -467 -344 -467q-156 0 -207 107q-91 -106 -223 -106q-256 -1 -256 224q0 238 292 238q80 0 148 -10q0 82 -36 114
t-142 33q-106 0 -205 -63v178q113 53 273 53q160 -1 236 -69q75 -68 75 -228v-194q0 -100 67 -101q121 1 121 263t-120 387q-121 125 -377 125t-394 -149q-138 -148 -137 -438q0 -290 140 -429q141 -140 407 -140t463 107v-197q-211 -86 -457 -86z" />
    <glyph glyph-name="A" unicode="A" horiz-adv-x="1339" 
d="M449 532h430l-215 603zM4 0l531 1393h268l532 -1393h-264l-115 317h-585l-115 -317h-252z" />
    <glyph glyph-name="B" unicode="B" horiz-adv-x="1359" 
d="M422 213h352q141 0 200 42q58 43 58 151t-61 151t-215 43h-334v-387zM422 813h287q150 0 210 42t60 143q0 102 -57 142t-197 40h-303v-367zM174 0v1393h576q248 0 362 -87t113 -272q0 -229 -189 -297v-4q128 -33 188 -117t60 -227q0 -201 -116 -295t-365 -94h-629z" />
    <glyph glyph-name="C" unicode="C" horiz-adv-x="1167" 
d="M762 -25q-338 0 -498 176.5t-160 545t160 544.5t494 176q213 0 342 -67v-228q-143 78 -345 78q-201 0 -299 -116t-98 -386t98.5 -387.5t323.5 -117.5q180 0 320 77v-227q-125 -68 -338 -68z" />
    <glyph glyph-name="D" unicode="D" horiz-adv-x="1386" 
d="M422 215h194q233 0 322.5 104.5t89.5 377t-89 377t-323 104.5h-194v-963zM174 0v1393h455q348 0 500.5 -163t152.5 -533.5t-152.5 -533.5t-500.5 -163h-455z" />
    <glyph glyph-name="E" unicode="E" horiz-adv-x="1296" 
d="M174 0v1393h1022v-215h-774v-363h657v-215h-657v-385h786v-215h-1034z" />
    <glyph glyph-name="F" unicode="F" horiz-adv-x="1169" 
d="M174 0v1393h952v-215h-704v-379h627v-213h-627v-586h-248z" />
    <glyph glyph-name="G" unicode="G" horiz-adv-x="1355" 
d="M782 -25q-344 0 -511 177.5t-167 543.5t172.5 543.5t526.5 177.5q227 0 387 -76v-225q-176 86 -398 86t-328 -118t-106 -388t100.5 -388t332.5 -118q115 0 206 27v383h-276v215h518v-719q-168 -121 -457 -121z" />
    <glyph glyph-name="H" unicode="H" horiz-adv-x="1482" 
d="M174 0v1393h248v-574h639v574h248v-1393h-248v596h-639v-596h-248z" />
    <glyph glyph-name="I" unicode="I" horiz-adv-x="595" 
d="M174 0v1393h248v-1393h-248z" />
    <glyph glyph-name="J" unicode="J" horiz-adv-x="960" 
d="M346 -25q-182 0 -309 74v227q135 -84 272 -84t192.5 65t55.5 216v920h248v-920q0 -264 -107.5 -381t-351.5 -117z" />
    <glyph glyph-name="K" unicode="K" horiz-adv-x="1286" 
d="M174 0v1393h248v-645l579 645h297l-505 -564l514 -829h-289l-402 647l-194 -215v-432h-248z" />
    <glyph glyph-name="L" unicode="L" horiz-adv-x="1103" 
d="M174 0v1393h248v-1176h657v-217h-905z" />
    <glyph glyph-name="M" unicode="M" horiz-adv-x="1884" 
d="M174 0v1393h367l397 -1033l397 1033h375v-1393h-248v1122l-434 -1122h-190l-430 1112v-1112h-234z" />
    <glyph glyph-name="N" unicode="N" horiz-adv-x="1484" 
d="M174 0v1393h293l610 -963v963h234v-1393h-230l-673 1061v-1061h-234z" />
    <glyph glyph-name="O" unicode="O" horiz-adv-x="1452" 
d="M725 190q193 0 280 120t87 386.5t-87 386t-280 119.5t-280 -119.5t-87 -386t87 -386.5t280 -120zM726.5 -25q-320.5 0 -471.5 175.5t-151 546t151 545.5t471.5 175t471 -174t150.5 -546.5t-150.5 -547t-471 -174.5z" />
    <glyph glyph-name="P" unicode="P" horiz-adv-x="1306" 
d="M422 731h311q145 0 205 50q59 50 59 174t-59 173t-205 50h-311v-447zM174 0v1393h580q262 -1 379 -105t117 -334t-118 -333q-116 -104 -378 -105h-332v-516h-248z" />
    <glyph glyph-name="Q" unicode="Q" horiz-adv-x="1449" 
d="M358 696.5q0 -266.5 87 -386.5t280 -120t280 120t87 386.5t-87 386t-280 119.5t-280 -119.5t-87 -386zM1348 696q0 -436 -211 -604l211 -280h-287l-135 184q-88 -20 -201 -21q-319 0 -470 175.5t-151 546t151 545.5t471 175t471 -174t151 -547z" />
    <glyph glyph-name="R" unicode="R" horiz-adv-x="1345" 
d="M422 760h301q135 0 193.5 47t58.5 161t-58.5 162t-193.5 48h-301v-418zM174 0v1393h563q254 0 371 -101.5t117 -320.5q0 -326 -267 -398l355 -573h-293l-334 547h-264v-547h-248z" />
    <glyph glyph-name="S" unicode="S" horiz-adv-x="1150" 
d="M96 997q0 420 521 420q261 0 395 -86v-233q-164 106 -389 106q-276 0 -277 -190q0 -68 46 -110t175 -70l156 -35q197 -43 282 -140.5t85 -259.5q-1 -424 -533 -424q-311 0 -473 113v238q207 -137 469 -138q287 0 287 203q0 72 -49.5 114t-190.5 75l-156 34
q-188 41 -268 134.5t-80 248.5z" />
    <glyph glyph-name="T" unicode="T" horiz-adv-x="1142" 
d="M446 0v1176h-421v217h1093v-217h-424v-1176h-248z" />
    <glyph glyph-name="U" unicode="U" horiz-adv-x="1390" 
d="M696.5 -25q-284.5 0 -412.5 129t-128 414v875h247v-889q0 -162 71 -236.5t226.5 -74.5t226 74.5t70.5 236.5v889h238v-875q0 -287 -127 -415t-411.5 -128z" />
    <glyph glyph-name="V" unicode="V" horiz-adv-x="1232" 
d="M485 0l-481 1393h262l357 -1080l356 1080h250l-481 -1393h-263z" />
    <glyph glyph-name="W" unicode="W" horiz-adv-x="1843" 
d="M389 0l-379 1393h256l260 -1022l283 1022h238l280 -1018l260 1018h246l-381 -1393h-248l-280 1014l-283 -1014h-252z" />
    <glyph glyph-name="X" unicode="X" horiz-adv-x="1228" 
d="M4 0l447 719l-439 674h295l328 -506l307 506h272l-438 -705l449 -688h-295l-338 522l-318 -522h-270z" />
    <glyph glyph-name="Y" unicode="Y" horiz-adv-x="1136" 
d="M444 0v578l-493 815h289l338 -574l340 574h268l-494 -815v-578h-248z" />
    <glyph glyph-name="Z" unicode="Z" horiz-adv-x="1175" 
d="M72 0v184l716 994h-686v215h1006v-185l-717 -993h727v-215h-1046z" />
    <glyph glyph-name="bracketleft" unicode="[" horiz-adv-x="690" 
d="M188 -242v1737h461v-178h-237v-1380h237v-179h-461z" />
    <glyph glyph-name="backslash" unicode="\" horiz-adv-x="866" 
d="M651 -287l-643 1782h215l645 -1782h-217z" />
    <glyph glyph-name="bracketright" unicode="]" horiz-adv-x="690" 
d="M41 -242v179h238v1380h-238v178h461v-1737h-461z" />
    <glyph glyph-name="asciicircum" unicode="^" horiz-adv-x="1277" 
d="M76 678l463 715h198l465 -715h-241l-322 498l-322 -498h-241z" />
    <glyph glyph-name="underscore" unicode="_" horiz-adv-x="1064" 
d="M0 -283v183h1065v-183h-1065z" />
    <glyph glyph-name="grave" unicode="`" horiz-adv-x="1064" 
d="M510 1182l-301 319h258l262 -319h-219z" />
    <glyph glyph-name="a" unicode="a" horiz-adv-x="1130" 
d="M481 172q164 0 277 139v135q-137 14 -211 15q-229 0 -230 -152q0 -137 164 -137zM420 -25q-166 0 -254 84t-88 238q0 336 432 336q123 0 248 -17v11q0 129 -57.5 181t-222 52t-328.5 -98v219q160 80 394 80t342.5 -97.5t108.5 -320.5v-643h-198l-17 125
q-149 -150 -360 -150z" />
    <glyph glyph-name="b" unicode="b" horiz-adv-x="1224" 
d="M631 176q135 0 194 84t59 259t-58 258t-191 83t-242 -137v-416q103 -131 238 -131zM1126 520q0 -266 -110 -406t-313 -139q-204 0 -345 136l-24 -111h-178v1495h237v-555q129 121 325 121t302 -138q106 -137 106 -403z" />
    <glyph glyph-name="c" unicode="c" horiz-adv-x="960" 
d="M342 519q0 -339 304 -339q150 0 261 60v-213q-104 -52 -264 -52q-545 0 -545 543t527 543q158 0 282 -53v-213q-117 61 -265.5 61t-224 -81t-75.5 -256z" />
    <glyph glyph-name="d" unicode="d" horiz-adv-x="1226" 
d="M594 860q-136 0 -194 -84q-60 -84 -60 -259t58 -258t194 -83q135 0 242 139v412q-104 133 -240 133zM516 -25q-205 1 -311 139q-107 138 -107 403t110 405t322 139q176 0 304 -107v541h237v-1495h-190l-19 125q-141 -150 -346 -150z" />
    <glyph glyph-name="e" unicode="e" horiz-adv-x="1157" 
d="M602 864q-121 0 -183.5 -57t-76.5 -182h502q-8 125 -64.5 182t-177.5 57zM664 -25q-289 0 -427.5 133.5t-138.5 415.5q0 537 500 537q471 0 471 -475q0 -68 -10 -140h-719q10 -139 94 -204.5t253 -65.5t323 80v-207q-137 -74 -346 -74z" />
    <glyph glyph-name="f" unicode="f" horiz-adv-x="731" 
d="M199 0v848h-183v188h183v111q0 197 87 285t281 88q102 0 178 -23v-194q-63 20 -148 20t-123 -37t-38 -133v-117h287v-188h-287v-848h-237z" />
    <glyph glyph-name="g" unicode="g" horiz-adv-x="1224" 
d="M582 225q143 0 249 135v371q-104 129 -243 129q-248 0 -248 -318t242 -317zM539 -403q-205 0 -359 65v211q154 -80 329 -80t248.5 66.5t73.5 218.5v67q-129 -121 -323 -121t-302 136.5t-108 382.5t112 382t312 136t344 -137l27 112h176v-923q0 -268 -128 -392t-402 -124z
" />
    <glyph glyph-name="h" unicode="h" horiz-adv-x="1206" 
d="M156 0v1495h237v-555q141 121 326 121q350 0 350 -393v-668h-238v629q0 117 -41.5 169t-140.5 52q-145 0 -256 -131v-719h-237z" />
    <glyph glyph-name="i" unicode="i" horiz-adv-x="548" 
d="M156 0v1036h237v-1036h-237zM147 1227v223h252v-223h-252z" />
    <glyph glyph-name="j" unicode="j" horiz-adv-x="546" 
d="M92 -403q-68 0 -115 12v194q37 -10 68 -10q109 0 109 125v1118h237v-1095q0 -184 -69.5 -264t-229.5 -80zM147 1227v223h252v-223h-252z" />
    <glyph glyph-name="k" unicode="k" horiz-adv-x="1118" 
d="M156 0v1495h237v-936l436 477h289l-385 -418l391 -618h-278l-287 459l-166 -176v-283h-237z" />
    <glyph glyph-name="l" unicode="l" horiz-adv-x="548" 
d="M156 0v1495h237v-1495h-237z" />
    <glyph glyph-name="m" unicode="m" horiz-adv-x="1785" 
d="M156 0v1036h190l19 -123q139 147 333 147t275 -147q145 147 323 147q352 1 353 -372v-688h-238v653q0 197 -178 197q-117 0 -213 -115q2 -16 2 -53v-682h-238v651q0 199 -168 199q-125 0 -223 -135v-715h-237z" />
    <glyph glyph-name="n" unicode="n" horiz-adv-x="1206" 
d="M156 0v1036h190l19 -123q154 147 354 148q350 0 350 -393v-668h-238v629q0 117 -41.5 169t-140.5 52q-145 0 -256 -131v-719h-237z" />
    <glyph glyph-name="o" unicode="o" horiz-adv-x="1218" 
d="M608 176q137 0 204 83t67 258t-65.5 259t-204 84t-204 -84t-65.5 -259t65.5 -258t202.5 -83zM1120 518q0 -543 -511 -543t-511 543t511 543t511 -543z" />
    <glyph glyph-name="p" unicode="p" horiz-adv-x="1224" 
d="M631 176q135 0 194 84t59 259t-58 258t-191 83t-242 -137v-416q103 -131 238 -131zM156 -379v1415h190l19 -127q139 152 344 152t311 -138q106 -137 106 -403t-110 -405t-322 -140q-172 0 -301 105v-459h-237z" />
    <glyph glyph-name="q" unicode="q" horiz-adv-x="1226" 
d="M580 176q147 0 254 139v412q-104 133 -238 133t-196 -83q-60 -83 -60 -259q0 -342 240 -342zM834 -379v475q-129 -121 -326 -121q-197 1 -303 139q-107 138 -107 403t110 405t314 139q204 0 346 -139l27 114h176v-1415h-237z" />
    <glyph glyph-name="r" unicode="r" horiz-adv-x="774" 
d="M156 0v1036h190l23 -162q123 186 317 187q43 0 74 -8v-232q-49 8 -86 8q-180 0 -281 -153v-676h-237z" />
    <glyph glyph-name="s" unicode="s" horiz-adv-x="983" 
d="M854 784q-160 82 -345 82t-185 -108q0 -53 32.5 -76t132.5 -43l132 -29q164 -37 230.5 -105.5t66.5 -195.5q-1 -334 -441 -334q-252 0 -397 86v213q180 -104 401 -104q111 0 159 28.5t48 86t-37 82t-137 45.5l-135 28q-156 33 -220.5 101.5t-64.5 191.5q0 328 426 328
q211 0 334 -64v-213z" />
    <glyph glyph-name="t" unicode="t" horiz-adv-x="761" 
d="M541 -25q-178 0 -260 73t-82 237v563h-183v188h187l22 289h211v-289h287v-188h-287v-529q0 -82 35 -114.5t114 -32.5t136 25v-197q-69 -25 -180 -25z" />
    <glyph glyph-name="u" unicode="u" horiz-adv-x="1216" 
d="M492 -25q-354 0 -355 394v667h238v-630q0 -115 44 -167.5t142 -52.5q145 0 262 131v719h238v-1036h-191l-18 125q-157 -150 -360 -150z" />
    <glyph glyph-name="v" unicode="v" horiz-adv-x="1028" 
d="M391 0l-377 1036h252l252 -751l252 751h244l-375 -1036h-248z" />
    <glyph glyph-name="w" unicode="w" horiz-adv-x="1576" 
d="M338 0l-322 1036h248l205 -723l223 723h207l221 -714l201 714h240l-322 -1036h-223l-223 723l-226 -723h-229z" />
    <glyph glyph-name="x" unicode="x" horiz-adv-x="1038" 
d="M4 0l356 541l-348 495h285l246 -354l221 354h262l-348 -526l358 -510h-286l-254 367l-230 -367h-262z" />
    <glyph glyph-name="y" unicode="y" horiz-adv-x="1030" 
d="M250 -403q-76 0 -131 18v195q39 -16 100 -16.5t93 26t61 104.5t28.5 94t-10.5 48l-377 970h254l262 -723l242 723h244l-420 -1153q-57 -158 -133 -222t-213 -64z" />
    <glyph glyph-name="z" unicode="z" horiz-adv-x="991" 
d="M70 0v168l538 674h-506v194h813v-170l-538 -671h547v-195h-854z" />
    <glyph glyph-name="braceleft" unicode="{" horiz-adv-x="690" 
d="M512 -242q-162 0 -234 82t-73 264v283q0 90 -30 121t-118 31v176q88 1 118 31t30 120v285q0 180 73 262t234 82h137v-178h-78q-79 0 -111 -38t-32 -128v-270q0 -207 -137 -252v-4q137 -45 137 -250v-271q0 -92 32 -130t111 -37h78v-179h-137z" />
    <glyph glyph-name="bar" unicode="|" horiz-adv-x="620" 
d="M207 -465v2048h207v-2048h-207z" />
    <glyph glyph-name="braceright" unicode="}" horiz-adv-x="690" 
d="M41 -242v179h78q79 -1 111 37t32 130v271q0 205 137 250v4q-137 45 -137 252v270q0 90 -32 128t-111 38h-78v178h137q162 0 235 -81t72 -263v-285q0 -90 30 -121t118 -30v-176q-88 0 -118 -31t-30 -121v-283q-1 -182 -73 -264t-234 -82h-137z" />
    <glyph glyph-name="asciitilde" unicode="~" horiz-adv-x="1277" 
d="M866 418q-117 0 -253 90q-137 90 -199 90t-103 -33t-88 -112l-151 110q129 242 340 242q117 0 253 -90t198 -90t104 32q41 33 84 113l155 -111q-127 -241 -340 -241z" />
    <glyph glyph-name="uni00A0" unicode="&#xa0;" horiz-adv-x="505" 
 />
    <glyph glyph-name="exclamdown" unicode="&#xa1;" horiz-adv-x="661" 
d="M195 -356l30 960h211l31 -960h-272zM199 782v254h266v-254h-266z" />
    <glyph glyph-name="cent" unicode="&#xa2;" horiz-adv-x="1277" 
d="M664 371v653q-144 -20 -204 -95t-60 -230t60 -231q61 -76 204 -97zM664 -41v203q-262 26 -385 156t-123 380t124 380t384 153v203h192v-199q147 -6 264 -49v-207q-129 47 -264 53v-672q150 6 281 56v-211q-115 -43 -281 -49v-197h-192z" />
    <glyph glyph-name="sterling" unicode="&#xa3;" horiz-adv-x="1277" 
d="M168 0v186q115 68 158 127t43 130t-25 143h-235v200h161q-31 102 -30 199q0 432 518 432q250 0 389 -104v-230q-154 123 -359 123q-303 0 -303 -241q0 -76 35 -179h531v-200h-467q12 -57 12 -109q0 -145 -123 -254h694v-223h-999z" />
    <glyph glyph-name="currency" unicode="&#xa4;" horiz-adv-x="1277" 
d="M639 473q99 -1 161 61t62 162t-62 162t-160 62t-162 -62q-62 -62 -62 -162t62 -162t161 -61zM207 697q0 120 61 221l-239 241l145 146l242 -244q96 59 220 59t226 -57l242 242l145 -146l-239 -241q61 -100 61 -220t-61 -225l239 -240l-145 -145l-242 244
q-96 -60 -220 -60t-226 60l-242 -244l-145 145l239 240q-61 104 -61 224z" />
    <glyph glyph-name="yen" unicode="&#xa5;" horiz-adv-x="1277" 
d="M518 0v227h-360v174h360v140h-360v174h311l-422 678h272l326 -555l326 555h260l-422 -678h313v-174h-360v-140h360v-174h-360v-227h-244z" />
    <glyph glyph-name="brokenbar" unicode="&#xa6;" horiz-adv-x="620" 
d="M207 -465v819h207v-819h-207zM207 764v819h207v-819h-207z" />
    <glyph glyph-name="section" unicode="&#xa7;" horiz-adv-x="1103" 
d="M811 504q0 76 -50 118t-157 64l-137 29q-166 -66 -166 -197q0 -68 45 -110t152 -64l159 -33q154 61 154 193zM528 -403q-281 0 -442 94v209q186 -106 443 -106t257 157q0 61 -44 93t-156 54l-178 37q-172 35 -253 118t-81 220q0 211 178 305q-160 82 -160 277
q0 362 477 362q244 0 375 -69v-213q-154 86 -369 86q-252 0 -251 -148q0 -57 43 -89t151 -54l178 -35q340 -66 340 -346q0 -209 -174 -305q154 -86 154 -281q-1 -366 -488 -366z" />
    <glyph glyph-name="dieresis" unicode="&#xa8;" horiz-adv-x="1064" 
d="M608 1227v223h238v-223h-238zM221 1227v223h238v-223h-238z" />
    <glyph glyph-name="copyright" unicode="&#xa9;" horiz-adv-x="1634" 
d="M850 309q-193 0 -285 94t-92 293t92 293t287 94q121 0 192 -34v-164q-76 35 -180 35t-154 -52q-48 -52 -48 -172q0 -119 49 -171t152 -52t181 33v-162q-71 -35 -194 -35zM817 139q248 0 393 151q146 150 146 406t-146 407t-393 151q-248 0 -392 -152q-144 -150 -144 -406
t144 -406t392 -151zM817 -25q-323 0 -521 199q-198 198 -198 522t198 523t522 199t522 -200q198 -198 198 -522t-198 -522t-523 -199z" />
    <glyph glyph-name="ordfeminine" unicode="&#xaa;" horiz-adv-x="890" 
d="M258 856q0 -94 115 -94t211 94v88q-88 12 -168 12t-119 -24t-39 -76zM322 592q-133 0 -202 64t-69 184q0 260 344 260q88 0 189 -13v5q0 84 -48 120t-179 37q-131 0 -246 -73v184q127 57 315 57t278 -75q88 -75 89 -242v-484h-175l-14 89q-112 -113 -282 -113z" />
    <glyph glyph-name="guillemotleft" unicode="&#xab;" horiz-adv-x="976" 
d="M727 129l-256 383l256 383h227l-249 -383l249 -383h-227zM281 129l-256 383l256 383h227l-250 -383l250 -383h-227z" />
    <glyph glyph-name="logicalnot" unicode="&#xac;" horiz-adv-x="1277" 
d="M965 244v442h-865v205h1078v-647h-213z" />
    <glyph glyph-name="uni00AD" unicode="&#xad;" horiz-adv-x="776" 
d="M72 489v226h633v-226h-633z" />
    <glyph glyph-name="registered" unicode="&#xae;" horiz-adv-x="1634" 
d="M705 727h114q59 0 85 22q26 21 26 71t-26 73t-85 22h-114v-188zM520 330v733h322q272 0 272 -238q0 -162 -119 -215l166 -280h-205l-145 254h-106v-254h-185zM817 139q248 0 393 151q146 150 146 406t-146 407t-393 151q-248 0 -392 -152q-144 -150 -144 -406t144 -406
t392 -151zM817 -25q-323 0 -521 199q-198 198 -198 522t198 523t522 199t522 -200q198 -198 198 -522t-198 -522t-523 -199z" />
    <glyph glyph-name="macron" unicode="&#xaf;" horiz-adv-x="1064" 
d="M231 1253v168h603v-168h-603z" />
    <glyph glyph-name="degree" unicode="&#xb0;" horiz-adv-x="790" 
d="M395 983q70 0 112 44t42 116t-42 117t-112 45q-71 0 -113 -45t-42 -117t42 -116t113 -44zM737 1144q0 -146 -96 -242q-97 -96 -245 -95q-148 0 -245 95q-97 96 -97 242t96 241q98 95 246 95t245 -94q96 -96 96 -242z" />
    <glyph glyph-name="plusminus" unicode="&#xb1;" horiz-adv-x="1277" 
d="M100 0v207h1078v-207h-1078zM532 297v367h-432v204h432v396h213v-396h433v-204h-433v-367h-213z" />
    <glyph glyph-name="uni00B2" unicode="&#xb2;" 
d="M80 850v151l311 240q92 70 124 112t32 91q0 112 -157 112t-284 -100v184q117 84 314 84q330 0 330 -258q0 -102 -54 -177t-200 -177l-129 -90h391v-172h-678z" />
    <glyph glyph-name="uni00B3" unicode="&#xb3;" 
d="M76 1079q125 -86 312 -86t187 107q0 53 -38 76q-39 23 -134 22h-178v166h160q88 0 124 22t36 74q0 98 -161 97t-284 -74v176q116 65 302 65t263 -56t77 -189t-109 -181v-4q145 -49 145 -209q1 -260 -372 -260q-211 0 -330 72v182z" />
    <glyph glyph-name="acute" unicode="&#xb4;" horiz-adv-x="1064" 
d="M338 1182l262 319h258l-301 -319h-219z" />
    <glyph glyph-name="uni00B5" unicode="&#xb5;" horiz-adv-x="1226" 
d="M156 -379v1415h237v-630q0 -115 43 -167t142 -53q143 0 256 133v717h237v-1036h-190l-19 125q-156 -150 -352 -150q-68 0 -117 15v-369h-237z" />
    <glyph glyph-name="paragraph" unicode="&#xb6;" horiz-adv-x="1277" 
d="M492 -379v881q-418 27 -418 442q0 227 119 338t362 111h539v-1772h-215v1585h-172v-1585h-215z" />
    <glyph glyph-name="periodcentered" unicode="&#xb7;" horiz-adv-x="612" 
d="M170 469v264h272v-264h-272z" />
    <glyph glyph-name="cedilla" unicode="&#xb8;" horiz-adv-x="1064" 
d="M541 -109q117 -1 170 -37t53 -116t-62 -122t-217 -42q-154 0 -227 35v129q88 -41 196 -41t107 49q0 29 -31 38t-120 9h-35l98 227h115l-56 -129h9z" />
    <glyph glyph-name="uni00B9" unicode="&#xb9;" 
d="M176 850v166h195v479l-224 -100v176l271 129h151v-684h197v-166h-590z" />
    <glyph glyph-name="ordmasculine" unicode="&#xba;" horiz-adv-x="935" 
d="M467 766q100 0 146 57t46 181t-46 182q-46 57 -146 57t-146 -57q-47 -57 -47 -181q0 -123 46 -181t147 -58zM873 1004q-1 -412 -405 -412t-404 413t403 412q406 -1 406 -413z" />
    <glyph glyph-name="guillemotright" unicode="&#xbb;" horiz-adv-x="976" 
d="M471 129l250 383l-250 383h227l256 -383l-256 -383h-227zM25 129l249 383l-249 383h227l256 -383l-256 -383h-227z" />
    <glyph glyph-name="onequarter" unicode="&#xbc;" horiz-adv-x="1984" 
d="M1399 338h250l8 293zM1647 0v178h-463v146l467 526h194v-512h115v-160h-115v-178h-198zM176 543v166h195v479l-224 -101v177l271 129h151v-684h197v-166h-590zM604 -25l756 1442h199l-758 -1442h-197z" />
    <glyph glyph-name="onehalf" unicode="&#xbd;" horiz-adv-x="1984" 
d="M1204 0v152l312 239q92 70 124 112t31 91q-1 113 -157 113t-283 -101v185q117 84 313 83q330 0 330 -258q0 -102 -53 -177t-201 -177l-129 -90h391v-172h-678zM176 543v166h195v479l-224 -101v177l271 129h151v-684h197v-166h-590zM516 -25l756 1442h198l-757 -1442h-197
z" />
    <glyph glyph-name="threequarters" unicode="&#xbe;" horiz-adv-x="1984" 
d="M1399 338h250l8 293zM1647 0v178h-463v146l467 526h194v-512h115v-160h-115v-178h-198zM604 -25l756 1442h199l-758 -1442h-197zM76 772q125 -86 312 -86t187 107q-1 53 -39 75t-133 23h-178v166h160q88 1 124 23t36 73q0 98 -161 97t-284 -74v176q116 66 302 66t263 -57
q77 -56 77 -189t-109 -181v-4q145 -49 145 -209q1 -260 -372 -260q-211 0 -330 72v182z" />
    <glyph glyph-name="questiondown" unicode="&#xbf;" horiz-adv-x="966" 
d="M487 -381q-434 0 -434 365q0 104 44 177t155 148l100 70q70 47 94 91t25 120v14h205v-39q0 -115 -34 -183t-116 -130l-94 -70q-80 -57 -108 -96t-29 -94q0 -172 218 -172t402 172v-236q-162 -137 -428 -137zM440 782v254h267v-254h-267z" />
    <glyph glyph-name="Agrave" unicode="&#xc0;" horiz-adv-x="1339" 
d="M449 532h430l-215 603zM4 0l531 1393h268l532 -1393h-264l-115 317h-585l-115 -317h-252zM645 1526l-301 319h258l262 -319h-219z" />
    <glyph glyph-name="Aacute" unicode="&#xc1;" horiz-adv-x="1339" 
d="M449 532h430l-215 603zM4 0l531 1393h268l532 -1393h-264l-115 317h-585l-115 -317h-252zM473 1526l262 319h258l-301 -319h-219z" />
    <glyph glyph-name="Acircumflex" unicode="&#xc2;" horiz-adv-x="1339" 
d="M449 532h430l-215 603zM4 0l531 1393h268l532 -1393h-264l-115 317h-585l-115 -317h-252zM287 1526l268 319h225l269 -319h-218l-163 174l-164 -174h-217z" />
    <glyph glyph-name="Atilde" unicode="&#xc3;" horiz-adv-x="1339" 
d="M449 532h430l-215 603zM4 0l531 1393h268l532 -1393h-264l-115 317h-585l-115 -317h-252zM807 1720q90 0 158 109v-184q-59 -98 -168 -99q-59 0 -144.5 48t-124.5 48q-89 1 -157 -108v184q59 98 168 99q59 0 145 -48.5t123 -48.5z" />
    <glyph glyph-name="Adieresis" unicode="&#xc4;" horiz-adv-x="1339" 
d="M449 532h430l-215 603zM4 0l531 1393h268l532 -1393h-264l-115 317h-585l-115 -317h-252zM743 1571v223h238v-223h-238zM356 1571v223h238v-223h-238z" />
    <glyph glyph-name="Aring" unicode="&#xc5;" horiz-adv-x="1339" 
d="M449 532h430l-215 603zM4 0l531 1393h268l532 -1393h-264l-115 317h-585l-115 -317h-252zM667.5 1649q67.5 0 67.5 72.5t-67.5 72.5t-67.5 -72.5t67.5 -72.5zM667 1511q-97 0 -157.5 57.5t-60.5 152t60 152.5t157.5 58t158 -58t60.5 -152.5t-60.5 -152t-157.5 -57.5z" />
    <glyph glyph-name="AE" unicode="&#xc6;" horiz-adv-x="1961" 
d="M899 532v631l-364 -631h364zM1862 1393v-217h-715v-361h598v-215h-598v-383h727v-217h-975v317h-491l-191 -317h-266l837 1393h1074z" />
    <glyph glyph-name="Ccedilla" unicode="&#xc7;" horiz-adv-x="1167" 
d="M754.5 1200q-201.5 0 -299 -116.5t-97.5 -386t98.5 -387t323.5 -117.5q180 0 320 77v-227q-125 -68 -338 -68h-4l-37 -84h8q117 0 170 -36.5t53 -116.5t-62.5 -122t-216 -42t-227.5 35v129q88 -41 195.5 -41t108.5 49q0 29 -31 38t-121 9h-35l82 189
q-276 29 -408.5 203.5t-132.5 527t160 528.5t494 176q213 0 342 -67v-228q-144 78 -345.5 78z" />
    <glyph glyph-name="Egrave" unicode="&#xc8;" horiz-adv-x="1296" 
d="M174 0v1393h1022v-215h-774v-363h657v-215h-657v-385h786v-215h-1034zM664 1526l-302 319h259l262 -319h-219z" />
    <glyph glyph-name="Eacute" unicode="&#xc9;" horiz-adv-x="1296" 
d="M174 0v1393h1022v-215h-774v-363h657v-215h-657v-385h786v-215h-1034zM492 1526l262 319h258l-301 -319h-219z" />
    <glyph glyph-name="Ecircumflex" unicode="&#xca;" horiz-adv-x="1296" 
d="M174 0v1393h1022v-215h-774v-363h657v-215h-657v-385h786v-215h-1034zM305 1526l268 319h226l268 -319h-217l-164 174l-164 -174h-217z" />
    <glyph glyph-name="Edieresis" unicode="&#xcb;" horiz-adv-x="1296" 
d="M174 0v1393h1022v-215h-774v-363h657v-215h-657v-385h786v-215h-1034zM762 1571v223h237v-223h-237zM375 1571v223h237v-223h-237z" />
    <glyph glyph-name="Igrave" unicode="&#xcc;" horiz-adv-x="595" 
d="M174 0v1393h248v-1393h-248zM276 1526l-301 319h258l263 -319h-220z" />
    <glyph glyph-name="Iacute" unicode="&#xcd;" horiz-adv-x="595" 
d="M174 0v1393h248v-1393h-248zM104 1526l263 319h258l-301 -319h-220z" />
    <glyph glyph-name="Icircumflex" unicode="&#xce;" horiz-adv-x="595" 
d="M174 0v1393h248v-1393h-248zM-61 1526l247 319h226l247 -319h-213l-147 174l-147 -174h-213z" />
    <glyph glyph-name="Idieresis" unicode="&#xcf;" horiz-adv-x="595" 
d="M174 0v1393h248v-1393h-248zM365 1571v223h235v-223h-235zM-2 1571v223h235v-223h-235z" />
    <glyph glyph-name="Eth" unicode="&#xd0;" horiz-adv-x="1404" 
d="M635 215q233 0 322.5 104.5t89.5 377t-89.5 377t-322.5 104.5h-195v-365h312v-211h-312v-387h195zM647 1393q348 0 500.5 -163t152.5 -533.5t-152.5 -533.5t-500.5 -163h-454v602h-142v211h142v580h454z" />
    <glyph glyph-name="Ntilde" unicode="&#xd1;" horiz-adv-x="1484" 
d="M174 0v1393h293l610 -963v963h234v-1393h-230l-673 1061v-1061h-234zM881 1720q90 0 157 109v-184q-59 -98 -168 -99q-59 0 -144 48t-124 48q-90 1 -158 -108v184q59 98 168 99q59 0 145.5 -48.5t123.5 -48.5z" />
    <glyph glyph-name="Ograve" unicode="&#xd2;" horiz-adv-x="1452" 
d="M725 190q193 0 280 120t87 386.5t-87 386t-280 119.5t-280 -119.5t-87 -386t87 -386.5t280 -120zM726.5 -25q-320.5 0 -471.5 175.5t-151 546t151 545.5t471.5 175t471 -174t150.5 -546.5t-150.5 -547t-471 -174.5zM702 1526l-301 319h258l263 -319h-220z" />
    <glyph glyph-name="Oacute" unicode="&#xd3;" horiz-adv-x="1452" 
d="M725 190q193 0 280 120t87 386.5t-87 386t-280 119.5t-280 -119.5t-87 -386t87 -386.5t280 -120zM726.5 -25q-320.5 0 -471.5 175.5t-151 546t151 545.5t471.5 175t471 -174t150.5 -546.5t-150.5 -547t-471 -174.5zM530 1526l263 319h258l-301 -319h-220z" />
    <glyph glyph-name="Ocircumflex" unicode="&#xd4;" horiz-adv-x="1452" 
d="M725 190q193 0 280 120t87 386.5t-87 386t-280 119.5t-280 -119.5t-87 -386t87 -386.5t280 -120zM726.5 -25q-320.5 0 -471.5 175.5t-151 546t151 545.5t471.5 175t471 -174t150.5 -546.5t-150.5 -547t-471 -174.5zM344 1526l268 319h226l268 -319h-217l-164 174
l-164 -174h-217z" />
    <glyph glyph-name="Otilde" unicode="&#xd5;" horiz-adv-x="1452" 
d="M725 190q193 0 280 120t87 386.5t-87 386t-280 119.5t-280 -119.5t-87 -386t87 -386.5t280 -120zM726.5 -25q-320.5 0 -471.5 175.5t-151 546t151 545.5t471.5 175t471 -174t150.5 -546.5t-150.5 -547t-471 -174.5zM864 1720q90 0 158 109v-184q-59 -98 -168 -99
q-59 0 -144 48t-124 48q-90 1 -158 -108v184q59 98 168 99q59 0 145.5 -48.5t122.5 -48.5z" />
    <glyph glyph-name="Odieresis" unicode="&#xd6;" horiz-adv-x="1452" 
d="M725 190q193 0 280 120t87 386.5t-87 386t-280 119.5t-280 -119.5t-87 -386t87 -386.5t280 -120zM726.5 -25q-320.5 0 -471.5 175.5t-151 546t151 545.5t471.5 175t471 -174t150.5 -546.5t-150.5 -547t-471 -174.5zM801 1571v223h237v-223h-237zM414 1571v223h237v-223
h-237z" />
    <glyph glyph-name="multiply" unicode="&#xd7;" horiz-adv-x="1277" 
d="M260 90l-143 143l379 379l-379 377l143 144l379 -379l379 379l143 -144l-379 -377l379 -379l-143 -143l-379 379z" />
    <glyph glyph-name="Oslash" unicode="&#xd8;" horiz-adv-x="1449" 
d="M1092 696q0 186 -41 295l-525 -755q78 -45 199 -46q193 0 280 120t87 386zM358 696q0 -186 41 -295l525 756q-78 45 -199 45q-193 0 -280 -120t-87 -386zM725 -25q-201 0 -332 68l-47 -68h-242l136 195q-135 174 -135.5 535.5t150.5 536.5t470 175q201 0 332 -67l47 67
h244l-136 -194q135 -174 135.5 -537t-150 -537t-472.5 -174z" />
    <glyph glyph-name="Ugrave" unicode="&#xd9;" horiz-adv-x="1390" 
d="M696.5 -25q-284.5 0 -412.5 129t-128 414v875h247v-889q0 -162 71 -236.5t226.5 -74.5t226 74.5t70.5 236.5v889h238v-875q0 -287 -127 -415t-411.5 -128zM674 1526l-301 319h258l262 -319h-219z" />
    <glyph glyph-name="Uacute" unicode="&#xda;" horiz-adv-x="1390" 
d="M696.5 -25q-284.5 0 -412.5 129t-128 414v875h247v-889q0 -162 71 -236.5t226.5 -74.5t226 74.5t70.5 236.5v889h238v-875q0 -287 -127 -415t-411.5 -128zM502 1526l262 319h258l-301 -319h-219z" />
    <glyph glyph-name="Ucircumflex" unicode="&#xdb;" horiz-adv-x="1390" 
d="M696.5 -25q-284.5 0 -412.5 129t-128 414v875h247v-889q0 -162 71 -236.5t226.5 -74.5t226 74.5t70.5 236.5v889h238v-875q0 -287 -127 -415t-411.5 -128zM315 1526l269 319h225l268 -319h-217l-164 174l-164 -174h-217z" />
    <glyph glyph-name="Udieresis" unicode="&#xdc;" horiz-adv-x="1390" 
d="M696.5 -25q-284.5 0 -412.5 129t-128 414v875h247v-889q0 -162 71 -236.5t226.5 -74.5t226 74.5t70.5 236.5v889h238v-875q0 -287 -127 -415t-411.5 -128zM772 1571v223h238v-223h-238zM385 1571v223h238v-223h-238z" />
    <glyph glyph-name="Yacute" unicode="&#xdd;" horiz-adv-x="1136" 
d="M444 0v578l-493 815h289l338 -574l340 574h268l-494 -815v-578h-248zM373 1526l262 319h258l-301 -319h-219z" />
    <glyph glyph-name="Thorn" unicode="&#xde;" horiz-adv-x="1306" 
d="M422 506h311q145 0 205 50q59 50 59 174t-59 174t-205 50h-311v-448zM174 0v1393h248v-226h332q262 0 379 -104q117 -105 117 -333t-117 -333q-117 -104 -379 -104h-332v-293h-248z" />
    <glyph glyph-name="germandbls" unicode="&#xdf;" horiz-adv-x="1216" 
d="M723 -25q-121 0 -223 45v207q90 -51 182 -51q217 0 217 242q0 139 -71 205t-220 65h-59v201h33q209 0 209 223q1 109 -47 158t-154 49t-151 -57q-46 -57 -46 -193v-1069h-237v1047q0 253 101 363t333 110q434 0 434 -383q0 -225 -150 -316v-4q268 -84 269 -414
q-1 -211 -107 -319t-313 -109z" />
    <glyph glyph-name="agrave" unicode="&#xe0;" horiz-adv-x="1130" 
d="M481 172q164 0 277 139v135q-137 14 -211 15q-229 0 -230 -152q0 -137 164 -137zM420 -25q-166 0 -254 84t-88 238q0 336 432 336q123 0 248 -17v11q0 129 -57.5 181t-222 52t-328.5 -98v219q160 80 394 80t342.5 -97.5t108.5 -320.5v-643h-198l-17 125
q-149 -150 -360 -150zM535 1182l-302 319h259l262 -319h-219z" />
    <glyph glyph-name="aacute" unicode="&#xe1;" horiz-adv-x="1130" 
d="M481 172q164 0 277 139v135q-137 14 -211 15q-229 0 -230 -152q0 -137 164 -137zM420 -25q-166 0 -254 84t-88 238q0 336 432 336q123 0 248 -17v11q0 129 -57.5 181t-222 52t-328.5 -98v219q160 80 394 80t342.5 -97.5t108.5 -320.5v-643h-198l-17 125
q-149 -150 -360 -150zM362 1182l263 319h258l-301 -319h-220z" />
    <glyph glyph-name="acircumflex" unicode="&#xe2;" horiz-adv-x="1130" 
d="M481 172q164 0 277 139v135q-137 14 -211 15q-229 0 -230 -152q0 -137 164 -137zM420 -25q-166 0 -254 84t-88 238q0 336 432 336q123 0 248 -17v11q0 129 -57.5 181t-222 52t-328.5 -98v219q160 80 394 80t342.5 -97.5t108.5 -320.5v-643h-198l-17 125
q-149 -150 -360 -150zM176 1182l268 319h226l268 -319h-217l-164 174l-164 -174h-217z" />
    <glyph glyph-name="atilde" unicode="&#xe3;" horiz-adv-x="1130" 
d="M481 172q164 0 277 139v135q-137 14 -211 15q-229 0 -230 -152q0 -137 164 -137zM420 -25q-166 0 -254 84t-88 238q0 336 432 336q123 0 248 -17v11q0 129 -57.5 181t-222 52t-328.5 -98v219q160 80 394 80t342.5 -97.5t108.5 -320.5v-643h-198l-17 125
q-149 -150 -360 -150zM696 1376q90 0 158 109v-185q-59 -98 -168 -98q-59 0 -144 48t-124 48q-90 1 -158 -108v184q59 98 168 99q59 0 145.5 -48.5t122.5 -48.5z" />
    <glyph glyph-name="adieresis" unicode="&#xe4;" horiz-adv-x="1130" 
d="M481 172q164 0 277 139v135q-137 14 -211 15q-229 0 -230 -152q0 -137 164 -137zM420 -25q-166 0 -254 84t-88 238q0 336 432 336q123 0 248 -17v11q0 129 -57.5 181t-222 52t-328.5 -98v219q160 80 394 80t342.5 -97.5t108.5 -320.5v-643h-198l-17 125
q-149 -150 -360 -150zM633 1227v223h237v-223h-237zM246 1227v223h237v-223h-237z" />
    <glyph glyph-name="aring" unicode="&#xe5;" horiz-adv-x="1130" 
d="M481 172q164 0 277 139v135q-137 14 -211 15q-229 0 -230 -152q0 -137 164 -137zM420 -25q-166 0 -254 84t-88 238q0 336 432 336q123 0 248 -17v11q0 129 -57.5 181t-222 52t-328.5 -98v219q160 80 394 80t342.5 -97.5t108.5 -320.5v-643h-198l-17 125
q-149 -150 -360 -150zM557 1305q68 0 68 72.5t-68 72.5t-68 -72.5t68 -72.5zM556 1167q-97 0 -157.5 57.5t-60.5 151.5t60.5 152.5t157.5 58.5t157.5 -58.5t60.5 -152.5t-60.5 -151.5t-157.5 -57.5z" />
    <glyph glyph-name="ae" unicode="&#xe6;" horiz-adv-x="1816" 
d="M490 172q173 0 288 166q-8 39 -16 108q-137 14 -215 15q-229 0 -230 -152q0 -137 173 -137zM1263.5 864q-120.5 0 -184.5 -57t-78 -182h502q-6 125 -62.5 182t-177 57zM438 -25q-178 0 -269 83t-91 239q0 336 434 336q121 0 246 -17v11q0 129 -57.5 181t-222 52
t-328.5 -98v219q160 80 362 80q291 0 385 -176q115 176 383 176q219 0 334 -120t115 -355q0 -68 -11 -140h-719q10 -139 94.5 -204.5t253.5 -65.5t322 80v-207q-137 -74 -346 -74q-336 0 -469 185q-176 -185 -416 -185z" />
    <glyph glyph-name="ccedilla" unicode="&#xe7;" horiz-adv-x="960" 
d="M342 519q0 -339 304 -339q150 0 261 60v-213q-104 -51 -264 -52h-20l-37 -84h8q117 0 170 -36.5t53 -116.5t-62.5 -122t-216 -42t-227.5 35v129q88 -41 195.5 -41t107.5 49q0 29 -30.5 38t-120.5 9h-35l82 191q-412 61 -412 534q0 543 527 543q158 0 282 -53v-213
q-117 61 -265.5 61t-224 -81t-75.5 -256z" />
    <glyph glyph-name="egrave" unicode="&#xe8;" horiz-adv-x="1157" 
d="M602 864q-121 0 -183.5 -57t-76.5 -182h502q-8 125 -64.5 182t-177.5 57zM664 -25q-289 0 -427.5 133.5t-138.5 415.5q0 537 500 537q471 0 471 -475q0 -68 -10 -140h-719q10 -139 94 -204.5t253 -65.5t323 80v-207q-137 -74 -346 -74zM573 1182l-301 319h258l263 -319
h-220z" />
    <glyph glyph-name="eacute" unicode="&#xe9;" horiz-adv-x="1157" 
d="M602 864q-121 0 -183.5 -57t-76.5 -182h502q-8 125 -64.5 182t-177.5 57zM664 -25q-289 0 -427.5 133.5t-138.5 415.5q0 537 500 537q471 0 471 -475q0 -68 -10 -140h-719q10 -139 94 -204.5t253 -65.5t323 80v-207q-137 -74 -346 -74zM401 1182l263 319h258l-301 -319
h-220z" />
    <glyph glyph-name="ecircumflex" unicode="&#xea;" horiz-adv-x="1157" 
d="M602 864q-121 0 -183.5 -57t-76.5 -182h502q-8 125 -64.5 182t-177.5 57zM664 -25q-289 0 -427.5 133.5t-138.5 415.5q0 537 500 537q471 0 471 -475q0 -68 -10 -140h-719q10 -139 94 -204.5t253 -65.5t323 80v-207q-137 -74 -346 -74zM215 1182l268 319h226l268 -319
h-217l-164 174l-164 -174h-217z" />
    <glyph glyph-name="edieresis" unicode="&#xeb;" horiz-adv-x="1157" 
d="M602 864q-121 0 -183.5 -57t-76.5 -182h502q-8 125 -64.5 182t-177.5 57zM664 -25q-289 0 -427.5 133.5t-138.5 415.5q0 537 500 537q471 0 471 -475q0 -68 -10 -140h-719q10 -139 94 -204.5t253 -65.5t323 80v-207q-137 -74 -346 -74zM672 1227v223h237v-223h-237z
M285 1227v223h237v-223h-237z" />
    <glyph glyph-name="igrave" unicode="&#xec;" horiz-adv-x="548" 
d="M156 0v1036h237v-1036h-237zM252 1182l-301 319h258l262 -319h-219z" />
    <glyph glyph-name="iacute" unicode="&#xed;" horiz-adv-x="548" 
d="M156 0v1036h237v-1036h-237zM80 1182l262 319h258l-301 -319h-219z" />
    <glyph glyph-name="icircumflex" unicode="&#xee;" horiz-adv-x="548" 
d="M156 0v1036h237v-1036h-237zM-86 1182l248 319h225l248 -319h-213l-148 174l-147 -174h-213z" />
    <glyph glyph-name="idieresis" unicode="&#xef;" horiz-adv-x="548" 
d="M156 0v1036h237v-1036h-237zM340 1227v223h235v-223h-235zM-27 1227v223h236v-223h-236z" />
    <glyph glyph-name="eth" unicode="&#xf0;" horiz-adv-x="1185" 
d="M584 176q135 0 198 85t64 265q0 55 -6 105q-98 147 -265 147q-243 0 -243 -301t252 -301zM1087 504q-1 -258 -129 -394t-373 -135q-245 0 -370 130t-125 372t113 372t319 130q129 0 228 -59q-66 117 -175 229l-301 -117l-55 156l221 86q-123 102 -301 221h336
q84 -55 180 -137l228 88l55 -156l-152 -59q301 -326 301 -727z" />
    <glyph glyph-name="ntilde" unicode="&#xf1;" horiz-adv-x="1206" 
d="M156 0v1036h190l19 -123q154 147 354 148q350 0 350 -393v-668h-238v629q0 117 -41.5 169t-140.5 52q-145 0 -256 -131v-719h-237zM748 1376q90 0 157 109v-185q-57 -98 -168 -98q-59 0 -144 48t-124 48q-90 1 -158 -108v184q57 98 168 99q59 0 145.5 -48.5t123.5 -48.5z
" />
    <glyph glyph-name="ograve" unicode="&#xf2;" horiz-adv-x="1218" 
d="M608 176q137 0 204 83t67 258t-65.5 259t-204 84t-204 -84t-65.5 -259t65.5 -258t202.5 -83zM1120 518q0 -543 -511 -543t-511 543t511 543t511 -543zM586 1182l-301 319h258l262 -319h-219z" />
    <glyph glyph-name="oacute" unicode="&#xf3;" horiz-adv-x="1218" 
d="M608 176q137 0 204 83t67 258t-65.5 259t-204 84t-204 -84t-65.5 -259t65.5 -258t202.5 -83zM1120 518q0 -543 -511 -543t-511 543t511 543t511 -543zM414 1182l262 319h258l-301 -319h-219z" />
    <glyph glyph-name="ocircumflex" unicode="&#xf4;" horiz-adv-x="1218" 
d="M608 176q137 0 204 83t67 258t-65.5 259t-204 84t-204 -84t-65.5 -259t65.5 -258t202.5 -83zM1120 518q0 -543 -511 -543t-511 543t511 543t511 -543zM227 1182l269 319h225l268 -319h-217l-164 174l-164 -174h-217z" />
    <glyph glyph-name="otilde" unicode="&#xf5;" horiz-adv-x="1218" 
d="M608 176q137 0 204 83t67 258t-65.5 259t-204 84t-204 -84t-65.5 -259t65.5 -258t202.5 -83zM1120 518q0 -543 -511 -543t-511 543t511 543t511 -543zM748 1376q90 0 157 109v-185q-57 -98 -168 -98q-59 0 -144 48t-124 48q-90 1 -158 -108v184q57 98 168 99
q59 0 145.5 -48.5t123.5 -48.5z" />
    <glyph glyph-name="odieresis" unicode="&#xf6;" horiz-adv-x="1218" 
d="M608 176q137 0 204 83t67 258t-65.5 259t-204 84t-204 -84t-65.5 -259t65.5 -258t202.5 -83zM1120 518q0 -543 -511 -543t-511 543t511 543t511 -543zM684 1227v223h238v-223h-238zM297 1227v223h238v-223h-238z" />
    <glyph glyph-name="divide" unicode="&#xf7;" horiz-adv-x="1277" 
d="M518 59v236h240v-236h-240zM100 508v207h1078v-207h-1078zM518 926v235h240v-235h-240z" />
    <glyph glyph-name="oslash" unicode="&#xf8;" horiz-adv-x="1218" 
d="M608 176q137 0 204 83t67 257q0 111 -25 184l-371 -501q55 -23 125 -23zM608 860q-137 0 -202.5 -84t-65.5 -260q0 -106 25 -178l368 500q-55 22 -125 22zM610 -25q-145 0 -256 48l-35 -48h-221l113 154q-113 137 -113 389q0 543 512 543q147 0 254 -47l35 47h221
l-112 -154q113 -137 112 -389q0 -543 -510 -543z" />
    <glyph glyph-name="ugrave" unicode="&#xf9;" horiz-adv-x="1216" 
d="M492 -25q-354 0 -355 394v667h238v-630q0 -115 44 -167.5t142 -52.5q145 0 262 131v719h238v-1036h-191l-18 125q-157 -150 -360 -150zM578 1182l-302 319h259l262 -319h-219z" />
    <glyph glyph-name="uacute" unicode="&#xfa;" horiz-adv-x="1216" 
d="M492 -25q-354 0 -355 394v667h238v-630q0 -115 44 -167.5t142 -52.5q145 0 262 131v719h238v-1036h-191l-18 125q-157 -150 -360 -150zM406 1182l262 319h258l-301 -319h-219z" />
    <glyph glyph-name="ucircumflex" unicode="&#xfb;" horiz-adv-x="1216" 
d="M492 -25q-354 0 -355 394v667h238v-630q0 -115 44 -167.5t142 -52.5q145 0 262 131v719h238v-1036h-191l-18 125q-157 -150 -360 -150zM219 1182l268 319h226l268 -319h-217l-164 174l-164 -174h-217z" />
    <glyph glyph-name="udieresis" unicode="&#xfc;" horiz-adv-x="1216" 
d="M492 -25q-354 0 -355 394v667h238v-630q0 -115 44 -167.5t142 -52.5q145 0 262 131v719h238v-1036h-191l-18 125q-157 -150 -360 -150zM676 1227v223h237v-223h-237zM289 1227v223h237v-223h-237z" />
    <glyph glyph-name="yacute" unicode="&#xfd;" horiz-adv-x="1030" 
d="M250 -403q-76 0 -131 18v195q39 -16 100 -16.5t93 26t61 104.5t28.5 94t-10.5 48l-377 970h254l262 -723l242 723h244l-420 -1153q-57 -158 -133 -222t-213 -64zM319 1182l263 319h258l-301 -319h-220z" />
    <glyph glyph-name="thorn" unicode="&#xfe;" horiz-adv-x="1224" 
d="M631 176q135 0 194 84t59 259t-58 258t-191 83t-242 -137v-416q103 -131 238 -131zM156 -379v1874h237v-555q129 121 325 121t302 -138q106 -137 106 -403t-110 -405t-322 -140q-172 0 -301 105v-459h-237z" />
    <glyph glyph-name="ydieresis" unicode="&#xff;" horiz-adv-x="1030" 
d="M250 -403q-76 0 -131 18v195q39 -16 100 -16.5t93 26t61 104.5t28.5 94t-10.5 48l-377 970h254l262 -723l242 723h244l-420 -1153q-57 -158 -133 -222t-213 -64zM590 1227v223h237v-223h-237zM203 1227v223h237v-223h-237z" />
    <glyph glyph-name="Amacron" unicode="&#x100;" horiz-adv-x="1339" 
d="M449 532h430l-215 603zM4 0l531 1393h268l532 -1393h-264l-115 317h-585l-115 -317h-252zM367 1597v168h602v-168h-602z" />
    <glyph glyph-name="amacron" unicode="&#x101;" horiz-adv-x="1130" 
d="M481 172q164 0 277 139v135q-137 14 -211 15q-229 0 -230 -152q0 -137 164 -137zM420 -25q-166 0 -254 84t-88 238q0 336 432 336q123 0 248 -17v11q0 129 -57.5 181t-222 52t-328.5 -98v219q160 80 394 80t342.5 -97.5t108.5 -320.5v-643h-198l-17 125
q-149 -150 -360 -150zM256 1253v168h602v-168h-602z" />
    <glyph glyph-name="Abreve" unicode="&#x102;" horiz-adv-x="1339" 
d="M449 532h430l-215 603zM4 0l531 1393h268l532 -1393h-264l-115 317h-585l-115 -317h-252zM667.5 1518q-143.5 0 -231.5 80.5t-100 232.5h170q14 -137 160 -137t165 137h168q-12 -152 -100 -232.5t-231.5 -80.5z" />
    <glyph glyph-name="abreve" unicode="&#x103;" horiz-adv-x="1130" 
d="M481 172q164 0 277 139v135q-137 14 -211 15q-229 0 -230 -152q0 -137 164 -137zM420 -25q-166 0 -254 84t-88 238q0 336 432 336q123 0 248 -17v11q0 129 -57.5 181t-222 52t-328.5 -98v219q160 80 394 80t342.5 -97.5t108.5 -320.5v-643h-198l-17 125
q-149 -150 -360 -150zM557 1174q-143 0 -231 80.5t-101 232.5h170q14 -137 160.5 -137t165.5 137h168q-12 -152 -100.5 -232.5t-231.5 -80.5z" />
    <glyph glyph-name="Aogonek" unicode="&#x104;" horiz-adv-x="1339" 
d="M449 532h430l-215 603zM1128 -170q0 -80 95 -80q59 0 112 31v-156q-55 -29 -153 -28q-248 0 -248 182q0 125 137 221l-115 317h-585l-115 -317h-252l531 1393h268l532 -1393h-75q-132 -78 -132 -170z" />
    <glyph glyph-name="aogonek" unicode="&#x105;" horiz-adv-x="1130" 
d="M481 172q164 0 277 139v135q-137 14 -211 15q-229 0 -230 -152q0 -137 164 -137zM885 -250q61 0 112 31v-156q-55 -29 -153 -28q-248 0 -248 182q0 141 197 260l-13 86q-150 -150 -360 -150q-166 0 -254 84t-88 238q0 336 432 336q123 0 248 -17v11q0 129 -57.5 181
t-222 52t-328.5 -98v219q160 80 394 80t342.5 -97.5t108.5 -320.5v-643h-73q-131 -78 -131 -170q0 -80 94 -80z" />
    <glyph glyph-name="Cacute" unicode="&#x106;" horiz-adv-x="1167" 
d="M762 -25q-338 0 -498 176.5t-160 545t160 544.5t494 176q213 0 342 -67v-228q-143 78 -345 78q-201 0 -299 -116t-98 -386t98.5 -387.5t323.5 -117.5q180 0 320 77v-227q-125 -68 -338 -68zM496 1526l262 319h258l-301 -319h-219z" />
    <glyph glyph-name="cacute" unicode="&#x107;" horiz-adv-x="960" 
d="M342 519q0 -339 304 -339q150 0 261 60v-213q-104 -52 -264 -52q-545 0 -545 543t527 543q158 0 282 -53v-213q-117 61 -265.5 61t-224 -81t-75.5 -256zM375 1182l262 319h258l-301 -319h-219z" />
    <glyph glyph-name="Ccircumflex" unicode="&#x108;" horiz-adv-x="1167" 
d="M762 -25q-338 0 -498 176.5t-160 545t160 544.5t494 176q213 0 342 -67v-228q-143 78 -345 78q-201 0 -299 -116t-98 -386t98.5 -387.5t323.5 -117.5q180 0 320 77v-227q-125 -68 -338 -68zM309 1526l269 319h225l268 -319h-217l-164 174l-164 -174h-217z" />
    <glyph glyph-name="ccircumflex" unicode="&#x109;" horiz-adv-x="960" 
d="M342 519q0 -339 304 -339q150 0 261 60v-213q-104 -52 -264 -52q-545 0 -545 543t527 543q158 0 282 -53v-213q-117 61 -265.5 61t-224 -81t-75.5 -256zM188 1182l269 319h225l268 -319h-217l-164 174l-163 -174h-218z" />
    <glyph glyph-name="Cdotaccent" unicode="&#x10a;" horiz-adv-x="1167" 
d="M762 -25q-338 0 -498 176.5t-160 545t160 544.5t494 176q213 0 342 -67v-228q-143 78 -345 78q-201 0 -299 -116t-98 -386t98.5 -387.5t323.5 -117.5q180 0 320 77v-227q-125 -68 -338 -68zM567 1571v221h246v-221h-246z" />
    <glyph glyph-name="cdotaccent" unicode="&#x10b;" horiz-adv-x="960" 
d="M342 519q0 -339 304 -339q150 0 261 60v-213q-104 -52 -264 -52q-545 0 -545 543t527 543q158 0 282 -53v-213q-117 61 -265.5 61t-224 -81t-75.5 -256zM446 1227v221h246v-221h-246z" />
    <glyph glyph-name="Ccaron" unicode="&#x10c;" horiz-adv-x="1167" 
d="M762 -25q-338 0 -498 176.5t-160 545t160 544.5t494 176q213 0 342 -67v-228q-143 78 -345 78q-201 0 -299 -116t-98 -386t98.5 -387.5t323.5 -117.5q180 0 320 77v-227q-125 -68 -338 -68zM578 1526l-269 319h217l164 -174l164 174h217l-268 -319h-225z" />
    <glyph glyph-name="ccaron" unicode="&#x10d;" horiz-adv-x="960" 
d="M342 519q0 -339 304 -339q150 0 261 60v-213q-104 -52 -264 -52q-545 0 -545 543t527 543q158 0 282 -53v-213q-117 61 -265.5 61t-224 -81t-75.5 -256zM457 1182l-269 319h218l163 -174l164 174h217l-268 -319h-225z" />
    <glyph glyph-name="Dcaron" unicode="&#x10e;" horiz-adv-x="1386" 
d="M422 215h194q233 0 322.5 104.5t89.5 377t-89 377t-323 104.5h-194v-963zM174 0v1393h455q348 0 500.5 -163t152.5 -533.5t-152.5 -533.5t-500.5 -163h-455zM532 1526l-268 319h217l164 -174l164 174h217l-268 -319h-226z" />
    <glyph glyph-name="dcaron" unicode="&#x10f;" horiz-adv-x="1308" 
d="M594 860q-136 0 -194 -84q-60 -84 -60 -259t58 -258t194 -83q135 0 242 139v412q-104 133 -240 133zM1147 1044l84 451h225l-145 -451h-164zM516 -25q-205 1 -311 139q-107 138 -107 403t110 405t322 139q176 0 304 -107v541h237v-1495h-190l-19 125q-141 -150 -346 -150
z" />
    <glyph glyph-name="Dcroat" unicode="&#x110;" horiz-adv-x="1404" 
d="M635 215q233 0 322.5 104.5t89.5 377t-89.5 377t-322.5 104.5h-195v-365h312v-211h-312v-387h195zM647 1393q348 0 500.5 -163t152.5 -533.5t-152.5 -533.5t-500.5 -163h-454v602h-142v211h142v580h454z" />
    <glyph glyph-name="dcroat" unicode="&#x111;" horiz-adv-x="1232" 
d="M594 860q-136 0 -194 -84q-60 -84 -60 -259t58 -258t194 -83t242 139v412q-104 133 -240 133zM1227 1327v-158h-156v-1169h-190l-19 125q-141 -150 -346 -150q-205 1 -311 139q-107 138 -107 403t110 405t322 139q176 0 304 -107v215h-252v158h252v168h237v-168h156z" />
    <glyph glyph-name="Emacron" unicode="&#x112;" horiz-adv-x="1296" 
d="M174 0v1393h1022v-215h-774v-363h657v-215h-657v-385h786v-215h-1034zM385 1597v168h602v-168h-602z" />
    <glyph glyph-name="emacron" unicode="&#x113;" horiz-adv-x="1157" 
d="M602 864q-121 0 -183.5 -57t-76.5 -182h502q-8 125 -64.5 182t-177.5 57zM664 -25q-289 0 -427.5 133.5t-138.5 415.5q0 537 500 537q471 0 471 -475q0 -68 -10 -140h-719q10 -139 94 -204.5t253 -65.5t323 80v-207q-137 -74 -346 -74zM295 1253v168h602v-168h-602z" />
    <glyph glyph-name="Ebreve" unicode="&#x114;" horiz-adv-x="1296" 
d="M174 0v1393h1022v-215h-774v-363h657v-215h-657v-385h786v-215h-1034zM686 1518q-143 0 -231 80.5t-101 232.5h170q14 -137 160 -137t166 137h168q-12 -152 -100.5 -232.5t-231.5 -80.5z" />
    <glyph glyph-name="ebreve" unicode="&#x115;" horiz-adv-x="1157" 
d="M602 864q-121 0 -183.5 -57t-76.5 -182h502q-8 125 -64.5 182t-177.5 57zM664 -25q-289 0 -427.5 133.5t-138.5 415.5q0 537 500 537q471 0 471 -475q0 -68 -10 -140h-719q10 -139 94 -204.5t253 -65.5t323 80v-207q-137 -74 -346 -74zM596 1174q-143 0 -231.5 80.5
t-100.5 232.5h170q14 -137 160.5 -137t165.5 137h168q-12 -152 -100.5 -232.5t-231.5 -80.5z" />
    <glyph glyph-name="Edotaccent" unicode="&#x116;" horiz-adv-x="1296" 
d="M174 0v1393h1022v-215h-774v-363h657v-215h-657v-385h786v-215h-1034zM563 1571v221h246v-221h-246z" />
    <glyph glyph-name="edotaccent" unicode="&#x117;" horiz-adv-x="1157" 
d="M602 864q-121 0 -183.5 -57t-76.5 -182h502q-8 125 -64.5 182t-177.5 57zM664 -25q-289 0 -427.5 133.5t-138.5 415.5q0 537 500 537q471 0 471 -475q0 -68 -10 -140h-719q10 -139 94 -204.5t253 -65.5t323 80v-207q-137 -74 -346 -74zM473 1227v221h246v-221h-246z" />
    <glyph glyph-name="Eogonek" unicode="&#x118;" horiz-adv-x="1296" 
d="M1096 -250q59 0 112 31v-156q-55 -29 -153 -28q-248 0 -248 182q0 121 137 221h-770v1393h1022v-215h-774v-363h657v-215h-657v-385h786v-215h-75q-131 -78 -132 -170q0 -80 95 -80z" />
    <glyph glyph-name="eogonek" unicode="&#x119;" horiz-adv-x="1157" 
d="M602 864q-121 0 -183.5 -57t-76.5 -182h502q-8 125 -64.5 182t-177.5 57zM1069 586q0 -68 -10 -140h-719q10 -139 94 -204.5t253 -65.5t323 80v-207q-57 -29 -131 -49q-119 -82 -119 -170q0 -80 94 -80q63 0 113 31v-156q-61 -29 -154 -28q-248 0 -248 182q0 106 99 196
q-289 0 -427.5 133.5t-138.5 415.5q0 537 500 537q471 0 471 -475z" />
    <glyph glyph-name="Ecaron" unicode="&#x11a;" horiz-adv-x="1296" 
d="M174 0v1393h1022v-215h-774v-363h657v-215h-657v-385h786v-215h-1034zM573 1526l-268 319h217l164 -174l164 174h217l-268 -319h-226z" />
    <glyph glyph-name="ecaron" unicode="&#x11b;" horiz-adv-x="1157" 
d="M602 864q-121 0 -183.5 -57t-76.5 -182h502q-8 125 -64.5 182t-177.5 57zM664 -25q-289 0 -427.5 133.5t-138.5 415.5q0 537 500 537q471 0 471 -475q0 -68 -10 -140h-719q10 -139 94 -204.5t253 -65.5t323 80v-207q-137 -74 -346 -74zM483 1182l-268 319h217l164 -174
l164 174h217l-268 -319h-226z" />
    <glyph glyph-name="Gcircumflex" unicode="&#x11c;" horiz-adv-x="1355" 
d="M782 -25q-344 0 -511 177.5t-167 543.5t172.5 543.5t526.5 177.5q227 0 387 -76v-225q-176 86 -398 86t-328 -118t-106 -388t100.5 -388t332.5 -118q115 0 206 27v383h-276v215h518v-719q-168 -121 -457 -121zM352 1526l269 319h225l268 -319h-217l-164 174l-164 -174
h-217z" />
    <glyph glyph-name="gcircumflex" unicode="&#x11d;" horiz-adv-x="1224" 
d="M582 225q143 0 249 135v371q-104 129 -243 129q-248 0 -248 -318t242 -317zM539 -403q-205 0 -359 65v211q154 -80 329 -80t248.5 66.5t73.5 218.5v67q-129 -121 -323 -121t-302 136.5t-108 382.5t112 382t312 136t344 -137l27 112h176v-923q0 -268 -128 -392t-402 -124z
M215 1182l268 319h226l268 -319h-217l-164 174l-164 -174h-217z" />
    <glyph glyph-name="Gbreve" unicode="&#x11e;" horiz-adv-x="1355" 
d="M782 -25q-344 0 -511 177.5t-167 543.5t172.5 543.5t526.5 177.5q227 0 387 -76v-225q-176 86 -398 86t-328 -118t-106 -388t100.5 -388t332.5 -118q115 0 206 27v383h-276v215h518v-719q-168 -121 -457 -121zM733.5 1518q-143.5 0 -231.5 80.5t-101 232.5h170
q15 -137 161 -137t165 137h168q-12 -152 -100 -232.5t-231.5 -80.5z" />
    <glyph glyph-name="gbreve" unicode="&#x11f;" horiz-adv-x="1224" 
d="M582 225q143 0 249 135v371q-104 129 -243 129q-248 0 -248 -318t242 -317zM539 -403q-205 0 -359 65v211q154 -80 329 -80t248.5 66.5t73.5 218.5v67q-129 -121 -323 -121t-302 136.5t-108 382.5t112 382t312 136t344 -137l27 112h176v-923q0 -268 -128 -392t-402 -124z
M596 1174q-143 0 -231.5 80.5t-100.5 232.5h170q14 -137 160 -137t166 137h168q-12 -152 -100.5 -232.5t-231.5 -80.5z" />
    <glyph glyph-name="Gdotaccent" unicode="&#x120;" horiz-adv-x="1355" 
d="M782 -25q-344 0 -511 177.5t-167 543.5t172.5 543.5t526.5 177.5q227 0 387 -76v-225q-176 86 -398 86t-328 -118t-106 -388t100.5 -388t332.5 -118q115 0 206 27v383h-276v215h518v-719q-168 -121 -457 -121zM610 1571v221h246v-221h-246z" />
    <glyph glyph-name="gdotaccent" unicode="&#x121;" horiz-adv-x="1224" 
d="M582 225q143 0 249 135v371q-104 129 -243 129q-248 0 -248 -318t242 -317zM539 -403q-205 0 -359 65v211q154 -80 329 -80t248.5 66.5t73.5 218.5v67q-129 -121 -323 -121t-302 136.5t-108 382.5t112 382t312 136t344 -137l27 112h176v-923q0 -268 -128 -392t-402 -124z
M473 1227v221h246v-221h-246z" />
    <glyph glyph-name="Gcommaaccent" unicode="&#x122;" horiz-adv-x="1355" 
d="M637 -367v199h250v-190l-139 -185h-127l108 176h-92zM782 -25q-344 0 -511 177.5t-167 544t172.5 543.5t526.5 177q227 0 387 -76v-225q-176 86 -398.5 86t-328 -117.5t-105.5 -388t100.5 -388.5t332.5 -118q115 0 206 27v383h-276v215h518v-719q-168 -121 -457 -121z
" />
    <glyph glyph-name="gcommaaccent" unicode="&#x123;" horiz-adv-x="1224" 
d="M582 225q143 0 249 135v371q-104 129 -243 129q-248 0 -248 -317.5t242 -317.5zM539 -403q-205 0 -359 65v211q154 -80 329 -80t248.5 66.5t73.5 218.5v67q-129 -121 -322.5 -120.5t-302 136.5t-108.5 382t112 382t312.5 136t343.5 -137l27 112h176v-923
q0 -268 -128 -392t-402 -124zM721 1403v-199h-250v191l139 184h127l-108 -176h92z" />
    <glyph glyph-name="Hcircumflex" unicode="&#x124;" horiz-adv-x="1482" 
d="M174 0v1393h248v-574h639v574h248v-1393h-248v596h-639v-596h-248zM362 1526l269 319h225l268 -319h-217l-164 174l-163 -174h-218z" />
    <glyph glyph-name="hcircumflex" unicode="&#x125;" horiz-adv-x="1206" 
d="M156 0v1495h237v-555q141 121 326 121q350 0 350 -393v-668h-238v629q0 117 -41.5 169t-140.5 52q-145 0 -256 -131v-719h-237zM-106 1628l268 320h225l268 -320h-217l-164 174l-163 -174h-217z" />
    <glyph glyph-name="Hbar" unicode="&#x126;" horiz-adv-x="1519" 
d="M1079 819v191h-639v-191h639zM1468 1184v-174h-141v-1010h-248v596h-639v-596h-247v1010h-142v174h142v209h247v-209h639v209h248v-209h141z" />
    <glyph glyph-name="hbar" unicode="&#x127;" horiz-adv-x="1214" 
d="M727 1061q350 0 350 -393v-668h-237v629q0 117 -42 169t-141 52q-145 0 -256 -131v-719h-237v1169h-156v158h156v168h237v-168h252v-158h-252v-229q142 121 326 121z" />
    <glyph glyph-name="Itilde" unicode="&#x128;" horiz-adv-x="595" 
d="M174 0v1393h248v-1393h-248zM428 1720q82 0 147 107v-180q-55 -98 -159 -99q-47 0 -130 47t-118 47q-80 0 -148 -106v182q59 96 160 97q53 0 132 -47.5t116 -47.5z" />
    <glyph glyph-name="itilde" unicode="&#x129;" horiz-adv-x="548" 
d="M156 0v1036h237v-1036h-237zM156 1470q53 0 132 -47t115 -47q82 0 148 107v-180q-55 -98 -160 -99q-47 0 -130 47t-118 47q-79 0 -147 -106v182q59 96 160 96z" />
    <glyph glyph-name="Imacron" unicode="&#x12a;" horiz-adv-x="595" 
d="M174 0v1393h248v-1393h-248zM27 1597v168h542v-168h-542z" />
    <glyph glyph-name="imacron" unicode="&#x12b;" horiz-adv-x="548" 
d="M156 0v1036h237v-1036h-237zM2 1253v168h543v-168h-543z" />
    <glyph glyph-name="Ibreve" unicode="&#x12c;" horiz-adv-x="595" 
d="M174 0v1393h248v-1393h-248zM299 1518q-139 0 -222 80.5t-87 232.5h162q12 -137 149 -137t145 137h162q-4 -152 -87 -232.5t-222 -80.5z" />
    <glyph glyph-name="ibreve" unicode="&#x12d;" horiz-adv-x="548" 
d="M156 0v1036h237v-1036h-237zM274.5 1174q-139.5 0 -222.5 80.5t-87 232.5h162q12 -137 149 -137t146 137h162q-4 -152 -87 -232.5t-222.5 -80.5z" />
    <glyph glyph-name="Iogonek" unicode="&#x12e;" horiz-adv-x="595" 
d="M369 -250q61 0 112 31v-154q-59 -31 -155 -30q-246 0 -246 184q0 123 127 219h-33v1393h248v-1393h-19q-129 -74 -129 -170q1 -80 95 -80z" />
    <glyph glyph-name="iogonek" unicode="&#x12f;" horiz-adv-x="548" 
d="M342 -250q59 0 113 31v-154q-57 -31 -156 -30q-246 0 -246 184q0 123 127 219h-24v1036h237v-1036h-16q-129 -74 -129 -170q0 -80 94 -80zM399 1450v-223h-252v223h252z" />
    <glyph glyph-name="Idotaccent" unicode="&#x130;" horiz-adv-x="595" 
d="M174 0v1393h248v-1393h-248zM176 1571v221h246v-221h-246z" />
    <glyph glyph-name="dotlessi" unicode="&#x131;" horiz-adv-x="548" 
d="M156 0v1036h237v-1036h-237z" />
    <glyph glyph-name="IJ" unicode="&#x132;" horiz-adv-x="1556" 
d="M942 -25q-182 0 -309 74v227q135 -84 272 -84t192.5 65t55.5 216v920h248v-920q0 -264 -107.5 -381t-351.5 -117zM174 0v1393h248v-1393h-248z" />
    <glyph glyph-name="ij" unicode="&#x133;" horiz-adv-x="1095" 
d="M641 -403q-68 0 -115 12v194q37 -10 68 -10q109 0 108 125v1118h238v-1095q0 -184 -69.5 -264t-229.5 -80zM156 0v1036h237v-1036h-237zM696 1227v223h252v-223h-252zM147 1227v223h252v-223h-252z" />
    <glyph glyph-name="Jcircumflex" unicode="&#x134;" horiz-adv-x="960" 
d="M346 -25q-182 0 -309 74v227q135 -84 272 -84t192.5 65t55.5 216v920h248v-920q0 -264 -107.5 -381t-351.5 -117zM299 1526l268 319h226l268 -319h-217l-164 174l-164 -174h-217z" />
    <glyph glyph-name="jcircumflex" unicode="&#x135;" horiz-adv-x="546" 
d="M92 -403q-68 0 -115 12v194q37 -10 68 -10q109 0 109 125v1118h237v-1095q0 -184 -69.5 -264t-229.5 -80zM-86 1182l248 319h225l248 -319h-213l-148 174l-147 -174h-213z" />
    <glyph glyph-name="Kcommaaccent" unicode="&#x136;" horiz-adv-x="1286" 
d="M573 -367v199h250v-190l-139 -185h-127l109 176h-93zM174 0v1393h248v-645l579 645h297l-505 -564l514 -829h-289l-402 647l-194 -215v-432h-248z" />
    <glyph glyph-name="kcommaaccent" unicode="&#x137;" horiz-adv-x="1118" 
d="M483 -367v199h250v-190l-139 -185h-127l108 176h-92zM156 0v1495h237v-936l436 477h289l-385 -418l391 -618h-278l-287 459l-166 -176v-283h-237z" />
    <glyph glyph-name="kgreenlandic" unicode="&#x138;" horiz-adv-x="1118" 
d="M156 0v1036h237v-477l436 477h289l-385 -418l391 -618h-278l-287 459l-166 -176v-283h-237z" />
    <glyph glyph-name="Lacute" unicode="&#x139;" horiz-adv-x="1103" 
d="M174 0v1393h248v-1176h657v-217h-905zM104 1526l263 319h258l-301 -319h-220z" />
    <glyph glyph-name="lacute" unicode="&#x13a;" horiz-adv-x="548" 
d="M156 0v1495h237v-1495h-237zM80 1628l262 320h258l-301 -320h-219z" />
    <glyph glyph-name="Lcommaaccent" unicode="&#x13b;" horiz-adv-x="1103" 
d="M502 -367v199h250v-190l-140 -185h-127l109 176h-92zM174 0v1393h248v-1176h657v-217h-905z" />
    <glyph glyph-name="lcommaaccent" unicode="&#x13c;" horiz-adv-x="548" 
d="M150 -367v199h249v-190l-139 -185h-127l109 176h-92zM156 0v1495h237v-1495h-237z" />
    <glyph glyph-name="Lcaron" unicode="&#x13d;" horiz-adv-x="1103" 
d="M512 942l84 451h225l-145 -451h-164zM174 0v1393h248v-1176h657v-217h-905z" />
    <glyph glyph-name="lcaron" unicode="&#x13e;" horiz-adv-x="630" 
d="M469 1044l84 451h225l-145 -451h-164zM156 0v1495h237v-1495h-237z" />
    <glyph glyph-name="Ldot" unicode="&#x13f;" horiz-adv-x="1103" 
d="M721 649v250h258v-250h-258zM174 0v1393h248v-1176h657v-217h-905z" />
    <glyph glyph-name="ldot" unicode="&#x140;" horiz-adv-x="702" 
d="M502 629v250h250v-250h-250zM156 0v1495h237v-1495h-237z" />
    <glyph glyph-name="Lslash" unicode="&#x141;" horiz-adv-x="1122" 
d="M440 217h658v-217h-905v381l-142 -96v237l142 96v775h247v-607l414 283v-235l-414 -283v-334z" />
    <glyph glyph-name="lslash" unicode="&#x142;" horiz-adv-x="616" 
d="M428 0h-238v582l-180 -125v229l180 125v684h238v-518l180 125v-230l-180 -124v-748z" />
    <glyph glyph-name="Nacute" unicode="&#x143;" horiz-adv-x="1484" 
d="M174 0v1393h293l610 -963v963h234v-1393h-230l-673 1061v-1061h-234zM547 1526l262 319h258l-301 -319h-219z" />
    <glyph glyph-name="nacute" unicode="&#x144;" horiz-adv-x="1206" 
d="M156 0v1036h190l19 -123q154 147 354 148q350 0 350 -393v-668h-238v629q0 117 -41.5 169t-140.5 52q-145 0 -256 -131v-719h-237zM414 1182l262 319h258l-301 -319h-219z" />
    <glyph glyph-name="Ncommaaccent" unicode="&#x145;" horiz-adv-x="1484" 
d="M616 -367v199h250v-190l-139 -185h-127l109 176h-93zM174 0v1393h293l610 -963v963h234v-1393h-230l-673 1061v-1061h-234z" />
    <glyph glyph-name="ncommaaccent" unicode="&#x146;" horiz-adv-x="1206" 
d="M487 -367v199h250v-190l-139 -185h-127l109 176h-93zM156 0v1036h190l19 -123q154 147 354 148q350 0 350 -393v-668h-238v629q0 117 -41.5 169t-140.5 52q-145 0 -256 -131v-719h-237z" />
    <glyph glyph-name="Ncaron" unicode="&#x147;" horiz-adv-x="1484" 
d="M174 0v1393h293l610 -963v963h234v-1393h-230l-673 1061v-1061h-234zM629 1526l-269 319h218l163 -174l164 174h217l-268 -319h-225z" />
    <glyph glyph-name="ncaron" unicode="&#x148;" horiz-adv-x="1206" 
d="M156 0v1036h190l19 -123q154 147 354 148q350 0 350 -393v-668h-238v629q0 117 -41.5 169t-140.5 52q-145 0 -256 -131v-719h-237zM496 1182l-269 319h217l164 -174l164 174h217l-268 -319h-225z" />
    <glyph glyph-name="napostrophe" unicode="&#x149;" horiz-adv-x="1275" 
d="M225 0v1036h191l18 -123q154 147 354 148q350 0 351 -393v-668h-238v629q0 117 -42 169t-140 52q-145 0 -256 -131v-719h-238zM0 1262v233h242v-223l-136 -236h-129l107 226h-84z" />
    <glyph glyph-name="Eng" unicode="&#x14a;" horiz-adv-x="1484" 
d="M1018 -403q-66 0 -121 14v194q37 -10 70 -10q113 0 112 127v82l-671 1057v-1061h-234v1393h293l612 -965v965h232v-1452q0 -184 -68.5 -264t-224.5 -80z" />
    <glyph glyph-name="eng" unicode="&#x14b;" horiz-adv-x="1206" 
d="M719 1061q350 0 350 -393v-727q0 -184 -70.5 -264t-230.5 -80q-66 0 -113 12v196q35 -10 68 -10q109 0 108 123v711q0 117 -41.5 169t-140.5 52q-145 0 -256 -131v-719h-237v1036h190l19 -123q153 148 354 148z" />
    <glyph glyph-name="Omacron" unicode="&#x14c;" horiz-adv-x="1452" 
d="M725 190q193 0 280 120t87 386.5t-87 386t-280 119.5t-280 -119.5t-87 -386t87 -386.5t280 -120zM726.5 -25q-320.5 0 -471.5 175.5t-151 546t151 545.5t471.5 175t471 -174t150.5 -546.5t-150.5 -547t-471 -174.5zM424 1597v168h602v-168h-602z" />
    <glyph glyph-name="omacron" unicode="&#x14d;" horiz-adv-x="1218" 
d="M608 176q137 0 204 83t67 258t-65.5 259t-204 84t-204 -84t-65.5 -259t65.5 -258t202.5 -83zM1120 518q0 -543 -511 -543t-511 543t511 543t511 -543zM307 1253v168h602v-168h-602z" />
    <glyph glyph-name="Obreve" unicode="&#x14e;" horiz-adv-x="1452" 
d="M725 190q193 0 280 120t87 386.5t-87 386t-280 119.5t-280 -119.5t-87 -386t87 -386.5t280 -120zM726.5 -25q-320.5 0 -471.5 175.5t-151 546t151 545.5t471.5 175t471 -174t150.5 -546.5t-150.5 -547t-471 -174.5zM725 1518q-143 0 -231 80.5t-101 232.5h170
q14 -137 160.5 -137t165.5 137h168q-12 -152 -100.5 -232.5t-231.5 -80.5z" />
    <glyph glyph-name="obreve" unicode="&#x14f;" horiz-adv-x="1218" 
d="M608 176q137 0 204 83t67 258t-65.5 259t-204 84t-204 -84t-65.5 -259t65.5 -258t202.5 -83zM1120 518q0 -543 -511 -543t-511 543t511 543t511 -543zM608.5 1174q-143.5 0 -231.5 80.5t-101 232.5h170q14 -137 160.5 -137t165.5 137h168q-12 -152 -100 -232.5
t-231.5 -80.5z" />
    <glyph glyph-name="Ohungarumlaut" unicode="&#x150;" horiz-adv-x="1452" 
d="M725 190q193 0 280 120t87 386.5t-87 386t-280 119.5t-280 -119.5t-87 -386t87 -386.5t280 -120zM726.5 -25q-320.5 0 -471.5 175.5t-151 546t151 545.5t471.5 175t471 -174t150.5 -546.5t-150.5 -547t-471 -174.5zM748 1526l223 319h252l-262 -319h-213zM358 1526
l222 319h251l-260 -319h-213z" />
    <glyph glyph-name="ohungarumlaut" unicode="&#x151;" horiz-adv-x="1218" 
d="M608 176q137 0 204 83t67 258t-65.5 259t-204 84t-204 -84t-65.5 -259t65.5 -258t202.5 -83zM1120 518q0 -543 -511 -543t-511 543t511 543t511 -543zM631 1182l223 319h252l-262 -319h-213zM242 1182l221 319h252l-260 -319h-213z" />
    <glyph glyph-name="OE" unicode="&#x152;" horiz-adv-x="2007" 
d="M788 215h175v963h-175q-244 0 -336 -104t-94 -378q0 -272 93 -376t337 -105zM774 0q-358 0 -514 163t-156 533t156 534q156 163 514 163h1133v-215h-697v-363h582v-215h-582v-385h709v-215h-1145z" />
    <glyph glyph-name="oe" unicode="&#x153;" horiz-adv-x="1937" 
d="M340 516q0 -176 66 -258t203 -82q138 0 204 82t66 258t-66 260t-204 84q-137 0 -203 -84t-66 -260zM1384 864q-122 0 -184 -57t-76 -182h502q-8 125 -64 182t-178 57zM588 -25q-240 -1 -365 137t-125 406t125 406t365 137q287 0 409 -197q113 197 402 197q451 0 450 -475
q0 -63 -8 -140h-719q10 -138 94 -204t252 -66q166 0 324 80v-207q-141 -74 -336 -74q-332 0 -455 205q-118 -205 -413 -205z" />
    <glyph glyph-name="Racute" unicode="&#x154;" horiz-adv-x="1345" 
d="M422 760h301q135 0 193.5 47t58.5 161t-58.5 162t-193.5 48h-301v-418zM174 0v1393h563q254 0 371 -101.5t117 -320.5q0 -326 -267 -398l355 -573h-293l-334 547h-264v-547h-248zM446 1526l263 319h258l-301 -319h-220z" />
    <glyph glyph-name="racute" unicode="&#x155;" horiz-adv-x="774" 
d="M156 0v1036h190l23 -162q123 186 317 187q43 0 74 -8v-232q-49 8 -86 8q-180 0 -281 -153v-676h-237zM236 1182l262 319h258l-301 -319h-219z" />
    <glyph glyph-name="Rcommaaccent" unicode="&#x156;" horiz-adv-x="1345" 
d="M575 -367v199h250v-190l-139 -185h-127l109 176h-93zM422 760h301q135 0 193.5 47t58.5 161t-58.5 162t-193.5 48h-301v-418zM174 0v1393h563q254 0 371 -101.5t117 -320.5q0 -326 -267 -398l355 -573h-293l-334 547h-264v-547h-248z" />
    <glyph glyph-name="rcommaaccent" unicode="&#x157;" horiz-adv-x="774" 
d="M150 -367v199h249v-190l-139 -185h-127l109 176h-92zM156 0v1036h190l23 -162q123 186 317 187q43 0 74 -8v-232q-49 8 -86 8q-180 0 -281 -153v-676h-237z" />
    <glyph glyph-name="Rcaron" unicode="&#x158;" horiz-adv-x="1345" 
d="M422 760h301q135 0 193.5 47t58.5 161t-58.5 162t-193.5 48h-301v-418zM174 0v1393h563q254 0 371 -101.5t117 -320.5q0 -326 -267 -398l355 -573h-293l-334 547h-264v-547h-248zM528 1526l-268 319h217l164 -174l164 174h217l-268 -319h-226z" />
    <glyph glyph-name="rcaron" unicode="&#x159;" horiz-adv-x="774" 
d="M156 0v1036h190l23 -162q123 186 317 187q43 0 74 -8v-232q-49 8 -86 8q-180 0 -281 -153v-676h-237zM317 1182l-268 319h217l164 -174l164 174h217l-268 -319h-226z" />
    <glyph glyph-name="Sacute" unicode="&#x15a;" horiz-adv-x="1150" 
d="M96 997q0 420 521 420q261 0 395 -86v-233q-164 106 -389 106q-276 0 -277 -190q0 -68 46 -110t175 -70l156 -35q197 -43 282 -140.5t85 -259.5q-1 -424 -533 -424q-311 0 -473 113v238q207 -137 469 -138q287 0 287 203q0 72 -49.5 114t-190.5 75l-156 34
q-188 41 -268 134.5t-80 248.5zM389 1526l262 319h258l-301 -319h-219z" />
    <glyph glyph-name="sacute" unicode="&#x15b;" horiz-adv-x="983" 
d="M854 784q-160 82 -345 82t-185 -108q0 -53 32.5 -76t132.5 -43l132 -29q164 -37 230.5 -105.5t66.5 -195.5q-1 -334 -441 -334q-252 0 -397 86v213q180 -104 401 -104q111 0 159 28.5t48 86t-37 82t-137 45.5l-135 28q-156 33 -220.5 101.5t-64.5 191.5q0 328 426 328
q211 0 334 -64v-213zM293 1180l262 319h258l-301 -319h-219z" />
    <glyph glyph-name="Scircumflex" unicode="&#x15c;" horiz-adv-x="1150" 
d="M96 997q0 420 521 420q261 0 395 -86v-233q-164 106 -389 106q-276 0 -277 -190q0 -68 46 -110t175 -70l156 -35q197 -43 282 -140.5t85 -259.5q-1 -424 -533 -424q-311 0 -473 113v238q207 -137 469 -138q287 0 287 203q0 72 -49.5 114t-190.5 75l-156 34
q-188 41 -268 134.5t-80 248.5zM203 1526l268 319h225l269 -319h-217l-164 174l-164 -174h-217z" />
    <glyph glyph-name="scircumflex" unicode="&#x15d;" horiz-adv-x="983" 
d="M854 784q-160 82 -345 82t-185 -108q0 -53 32.5 -76t132.5 -43l132 -29q164 -37 230.5 -105.5t66.5 -195.5q-1 -334 -441 -334q-252 0 -397 86v213q180 -104 401 -104q111 0 159 28.5t48 86t-37 82t-137 45.5l-135 28q-156 33 -220.5 101.5t-64.5 191.5q0 328 426 328
q211 0 334 -64v-213zM106 1180l269 319h225l268 -319h-217l-164 174l-163 -174h-218z" />
    <glyph glyph-name="Scedilla" unicode="&#x15e;" horiz-adv-x="1150" 
d="M96 997q0 420 521 420q261 0 395 -86v-233q-164 106 -389 106q-276 0 -277 -190q0 -68 46 -110t175 -70l156 -35q197 -43 282 -140.5t85 -259.5q0 -399 -474 -422l-36 -86h8q117 0 170 -36.5t53 -116.5t-62.5 -122t-216.5 -42t-227 35v129q88 -41 195.5 -41t107.5 49
q0 29 -30.5 38t-120.5 9h-35l80 184q-276 10 -418 111v238q207 -137 469 -138q287 0 287 203q0 72 -49.5 114t-190.5 75l-156 34q-188 41 -268 134.5t-80 248.5z" />
    <glyph glyph-name="scedilla" unicode="&#x15f;" horiz-adv-x="983" 
d="M854 784q-160 82 -345 82t-185 -108q0 -53 32.5 -76t132.5 -43l132 -29q164 -37 230.5 -105.5t66.5 -195.5q0 -311 -381 -332l-37 -86h8q117 0 170 -36.5t53 -116.5t-62.5 -122t-216 -42t-227.5 35v129q88 -41 195.5 -41t107.5 49q0 29 -30.5 38t-120.5 9h-35l80 184
q-215 10 -342 84v213q180 -104 401 -104q111 0 159 28.5t48 86t-37 82t-137 45.5l-135 28q-156 33 -220.5 101.5t-64.5 191.5q0 328 426 328q211 0 334 -64v-213z" />
    <glyph glyph-name="Scaron" unicode="&#x160;" horiz-adv-x="1150" 
d="M96 997q0 420 521 420q261 0 395 -86v-233q-164 106 -389 106q-276 0 -277 -190q0 -68 46 -110t175 -70l156 -35q197 -43 282 -140.5t85 -259.5q-1 -424 -533 -424q-311 0 -473 113v238q207 -137 469 -138q287 0 287 203q0 72 -49.5 114t-190.5 75l-156 34
q-188 41 -268 134.5t-80 248.5zM471 1526l-268 319h217l164 -174l164 174h217l-269 -319h-225z" />
    <glyph glyph-name="scaron" unicode="&#x161;" horiz-adv-x="983" 
d="M854 784q-160 82 -345 82t-185 -108q0 -53 32.5 -76t132.5 -43l132 -29q164 -37 230.5 -105.5t66.5 -195.5q-1 -334 -441 -334q-252 0 -397 86v213q180 -104 401 -104q111 0 159 28.5t48 86t-37 82t-137 45.5l-135 28q-156 33 -220.5 101.5t-64.5 191.5q0 328 426 328
q211 0 334 -64v-213zM375 1180l-269 319h218l163 -174l164 174h217l-268 -319h-225z" />
    <glyph glyph-name="uni0162" unicode="&#x162;" horiz-adv-x="1142" 
d="M694 0h-59l-53 -109q115 0 168 -36.5t53 -116.5t-62.5 -122t-216.5 -42t-227 35v129q87 -41 195 -41t108 49q0 29 -30.5 38t-120.5 9h-35l102 207h-70v1176h-421v217h1093v-217h-424v-1176z" />
    <glyph glyph-name="uni0163" unicode="&#x163;" horiz-adv-x="761" 
d="M723 848h-287v-529q0 -82 35 -114.5t114 -32.5t136 25v-197q-70 -25 -180 -25h-41l-37 -84h8q117 0 170 -36.5t53 -116.5t-62 -122t-216 -42t-228 35v129q88 -41 196 -41t108 49q0 29 -31 38t-121 9h-35l86 199q-193 51 -192 293v563h-183v188h187l22 289h211v-289h287
v-188z" />
    <glyph glyph-name="Tcaron" unicode="&#x164;" horiz-adv-x="1142" 
d="M446 0v1176h-421v217h1093v-217h-424v-1176h-248zM459 1526l-269 319h218l163 -174l164 174h217l-268 -319h-225z" />
    <glyph glyph-name="tcaron" unicode="&#x165;" horiz-adv-x="761" 
d="M541 -25q-178 0 -260 73t-82 237v563h-183v188h187l22 289h211v-289h287v-188h-287v-529q0 -82 35 -114.5t114 -32.5t136 25v-197q-69 -25 -180 -25zM512 1135l84 374h225l-145 -374h-164z" />
    <glyph glyph-name="Tbar" unicode="&#x166;" horiz-adv-x="1142" 
d="M1118 1176h-424v-392h244v-194h-244v-590h-248v590h-239v194h239v392h-421v217h1093v-217z" />
    <glyph glyph-name="tbar" unicode="&#x167;" horiz-adv-x="761" 
d="M723 848h-287v-180h260v-158h-260v-191q0 -82 35 -114.5t114 -32.5t136 25v-197q-70 -25 -180 -25q-178 0 -260 73t-82 237v225h-168v158h168v180h-183v188h187l22 289h211v-289h287v-188z" />
    <glyph glyph-name="Utilde" unicode="&#x168;" horiz-adv-x="1390" 
d="M696.5 -25q-284.5 0 -412.5 129t-128 414v875h247v-889q0 -162 71 -236.5t226.5 -74.5t226 74.5t70.5 236.5v889h238v-875q0 -287 -127 -415t-411.5 -128zM836 1720q90 0 157 109v-184q-59 -98 -168 -99q-59 0 -144 48t-124 48q-90 1 -158 -108v184q57 98 168 99
q59 0 145.5 -48.5t123.5 -48.5z" />
    <glyph glyph-name="utilde" unicode="&#x169;" horiz-adv-x="1216" 
d="M492 -25q-354 0 -355 394v667h238v-630q0 -115 44 -167.5t142 -52.5q145 0 262 131v719h238v-1036h-191l-18 125q-157 -150 -360 -150zM739 1376q90 0 158 109v-185q-57 -98 -168 -98q-59 0 -144 48t-124 48q-90 1 -158 -108v184q57 98 168 99q59 0 145.5 -48.5
t122.5 -48.5z" />
    <glyph glyph-name="Umacron" unicode="&#x16a;" horiz-adv-x="1390" 
d="M696.5 -25q-284.5 0 -412.5 129t-128 414v875h247v-889q0 -162 71 -236.5t226.5 -74.5t226 74.5t70.5 236.5v889h238v-875q0 -287 -127 -415t-411.5 -128zM395 1597v168h602v-168h-602z" />
    <glyph glyph-name="umacron" unicode="&#x16b;" horiz-adv-x="1216" 
d="M492 -25q-354 0 -355 394v667h238v-630q0 -115 44 -167.5t142 -52.5q145 0 262 131v719h238v-1036h-191l-18 125q-157 -150 -360 -150zM299 1253v168h602v-168h-602z" />
    <glyph glyph-name="Ubreve" unicode="&#x16c;" horiz-adv-x="1390" 
d="M696.5 -25q-284.5 0 -412.5 129t-128 414v875h247v-889q0 -162 71 -236.5t226.5 -74.5t226 74.5t70.5 236.5v889h238v-875q0 -287 -127 -415t-411.5 -128zM696.5 1518q-143.5 0 -231.5 80.5t-100 232.5h170q14 -137 160 -137t165 137h168q-12 -152 -100 -232.5
t-231.5 -80.5z" />
    <glyph glyph-name="ubreve" unicode="&#x16d;" horiz-adv-x="1216" 
d="M492 -25q-354 0 -355 394v667h238v-630q0 -115 44 -167.5t142 -52.5q145 0 262 131v719h238v-1036h-191l-18 125q-157 -150 -360 -150zM600 1174q-143 0 -231 80.5t-101 232.5h170q14 -137 160 -137t166 137h168q-12 -152 -100.5 -232.5t-231.5 -80.5z" />
    <glyph glyph-name="Uring" unicode="&#x16e;" horiz-adv-x="1390" 
d="M696.5 -25q-284.5 0 -412.5 129t-128 414v875h247v-889q0 -162 71 -236.5t226.5 -74.5t226 74.5t70.5 236.5v889h238v-875q0 -287 -127 -415t-411.5 -128zM696.5 1649q67.5 0 67.5 72.5t-67.5 72.5t-67.5 -72.5t67.5 -72.5zM695 1511q-97 0 -157.5 57.5t-60.5 152
t60.5 152.5t157.5 58t157.5 -58t60.5 -152.5t-60.5 -152t-157.5 -57.5z" />
    <glyph glyph-name="uring" unicode="&#x16f;" horiz-adv-x="1216" 
d="M492 -25q-354 0 -355 394v667h238v-630q0 -115 44 -167.5t142 -52.5q145 0 262 131v719h238v-1036h-191l-18 125q-157 -150 -360 -150zM600 1305q68 0 68 72.5t-68 72.5t-68 -72.5t68 -72.5zM599 1167q-97 0 -157.5 57.5t-60.5 151.5t60.5 152.5t157.5 58.5t157.5 -58.5
t60.5 -152.5t-60.5 -151.5t-157.5 -57.5z" />
    <glyph glyph-name="Uhungarumlaut" unicode="&#x170;" horiz-adv-x="1390" 
d="M696.5 -25q-284.5 0 -412.5 129t-128 414v875h247v-889q0 -162 71 -236.5t226.5 -74.5t226 74.5t70.5 236.5v889h238v-875q0 -287 -127 -415t-411.5 -128zM719 1526l223 319h252l-262 -319h-213zM330 1526l221 319h252l-260 -319h-213z" />
    <glyph glyph-name="uhungarumlaut" unicode="&#x171;" horiz-adv-x="1216" 
d="M492 -25q-354 0 -355 394v667h238v-630q0 -115 44 -167.5t142 -52.5q145 0 262 131v719h238v-1036h-191l-18 125q-157 -150 -360 -150zM623 1182l223 319h252l-262 -319h-213zM233 1182l222 319h252l-261 -319h-213z" />
    <glyph glyph-name="Uogonek" unicode="&#x172;" horiz-adv-x="1390" 
d="M997 1393h238v-875q0 -236 -84 -362.5t-268 -163.5q-119 -76 -119 -162q0 -80 94 -80q59 0 113 31v-156q-55 -29 -154 -28q-248 0 -248 182q0 109 105 196q-272 4 -395 133.5t-123 409.5v875h247v-889q0 -162 71 -236.5t226.5 -74.5t226 74.5t70.5 236.5v889z" />
    <glyph glyph-name="uogonek" unicode="&#x173;" horiz-adv-x="1216" 
d="M854 -170q0 -80 94 -80q59 0 113 31v-156q-55 -29 -154 -28q-248 0 -248 182q0 76 47.5 138.5t157.5 127.5l-12 80q-158 -150 -360 -150q-354 0 -355 394v667h238v-630q0 -115 44 -167.5t142 -52.5q145 0 262 131v719h238v-1036h-76q-131 -78 -131 -170z" />
    <glyph glyph-name="Wcircumflex" unicode="&#x174;" horiz-adv-x="1843" 
d="M389 0l-379 1393h256l260 -1022l283 1022h238l280 -1018l260 1018h246l-381 -1393h-248l-280 1014l-283 -1014h-252zM541 1526l268 319h225l269 -319h-218l-163 174l-164 -174h-217z" />
    <glyph glyph-name="wcircumflex" unicode="&#x175;" horiz-adv-x="1576" 
d="M338 0l-322 1036h248l205 -723l223 723h207l221 -714l201 714h240l-322 -1036h-223l-223 723l-226 -723h-229zM410 1182l268 319h225l268 -319h-217l-163 174l-164 -174h-217z" />
    <glyph glyph-name="Ycircumflex" unicode="&#x176;" horiz-adv-x="1136" 
d="M444 0v578l-493 815h289l338 -574l340 574h268l-494 -815v-578h-248zM186 1526l269 319h225l268 -319h-217l-164 174l-164 -174h-217z" />
    <glyph glyph-name="ycircumflex" unicode="&#x177;" horiz-adv-x="1030" 
d="M250 -403q-76 0 -131 18v195q39 -16 100 -16.5t93 26t61 104.5t28.5 94t-10.5 48l-377 970h254l262 -723l242 723h244l-420 -1153q-57 -158 -133 -222t-213 -64zM133 1182l268 319h226l268 -319h-217l-164 174l-164 -174h-217z" />
    <glyph glyph-name="Ydieresis" unicode="&#x178;" horiz-adv-x="1136" 
d="M444 0v578l-493 815h289l338 -574l340 574h268l-494 -815v-578h-248zM643 1571v223h238v-223h-238zM256 1571v223h238v-223h-238z" />
    <glyph glyph-name="Zacute" unicode="&#x179;" horiz-adv-x="1175" 
d="M72 0v184l716 994h-686v215h1006v-185l-717 -993h727v-215h-1046zM406 1526l262 319h258l-301 -319h-219z" />
    <glyph glyph-name="zacute" unicode="&#x17a;" horiz-adv-x="991" 
d="M70 0v168l538 674h-506v194h813v-170l-538 -671h547v-195h-854zM309 1182l262 319h258l-301 -319h-219z" />
    <glyph glyph-name="Zdotaccent" unicode="&#x17b;" horiz-adv-x="1175" 
d="M72 0v184l716 994h-686v215h1006v-185l-717 -993h727v-215h-1046zM477 1571v221h246v-221h-246z" />
    <glyph glyph-name="zdotaccent" unicode="&#x17c;" horiz-adv-x="991" 
d="M70 0v168l538 674h-506v194h813v-170l-538 -671h547v-195h-854zM381 1227v221h246v-221h-246z" />
    <glyph glyph-name="Zcaron" unicode="&#x17d;" horiz-adv-x="1175" 
d="M72 0v184l716 994h-686v215h1006v-185l-717 -993h727v-215h-1046zM487 1526l-268 319h217l164 -174l164 174h217l-268 -319h-226z" />
    <glyph glyph-name="zcaron" unicode="&#x17e;" horiz-adv-x="991" 
d="M70 0v168l538 674h-506v194h813v-170l-538 -671h547v-195h-854zM391 1182l-268 319h217l164 -174l164 174h217l-269 -319h-225z" />
    <glyph glyph-name="florin" unicode="&#x192;" horiz-adv-x="1277" 
d="M270 -229q-100 0 -180 20l19 199q61 -18 140 -18t128 40q49 41 61 138l70 544h-342v195h366l21 155q25 190 120 282t288 91q98 0 180 -20l-19 -199q-179 49 -267 -20q-50 -39 -62 -140l-21 -149h340v-195h-364l-72 -551q-24 -195 -120 -283t-286 -89z" />
    <glyph glyph-name="Aringacute" unicode="&#x1fa;" horiz-adv-x="1339" 
d="M449 532h430l-215 603zM4 0l531 1393h268l532 -1393h-264l-115 317h-585l-115 -317h-252zM665.5 1606q67.5 0 67.5 72.5t-67.5 72.5t-67.5 -72.5t67.5 -72.5zM665 1468q-97 0 -158 57.5t-61 152t60.5 152.5t158 58t158 -58t60.5 -152.5t-60.5 -152t-157.5 -57.5z
M471 1950l262 319h258l-301 -319h-219z" />
    <glyph glyph-name="aringacute" unicode="&#x1fb;" horiz-adv-x="1130" 
d="M481 172q164 0 277 139v135q-137 14 -211 15q-229 0 -230 -152q0 -137 164 -137zM420 -25q-166 0 -254 84t-88 238q0 336 432 336q123 0 248 -17v11q0 129 -57.5 181t-222 52t-328.5 -98v219q160 80 394 80t342.5 -97.5t108.5 -320.5v-643h-198l-17 125
q-149 -150 -360 -150zM557 1260q68 0 68 72.5t-68 72.5t-68 -72.5t68 -72.5zM556 1122q-97 0 -157.5 57.5t-60.5 151.5t60.5 152.5t157.5 58.5t157.5 -58.5t60.5 -152.5t-60.5 -151.5t-157.5 -57.5zM362 1604l263 319h258l-301 -319h-220z" />
    <glyph glyph-name="AEacute" unicode="&#x1fc;" horiz-adv-x="1961" 
d="M899 532v631l-364 -631h364zM1862 1393v-217h-715v-361h598v-215h-598v-383h727v-217h-975v317h-491l-191 -317h-266l837 1393h1074zM764 1526l262 319h258l-301 -319h-219z" />
    <glyph glyph-name="aeacute" unicode="&#x1fd;" horiz-adv-x="1816" 
d="M490 172q173 0 288 166q-8 39 -16 108q-137 14 -215 15q-229 0 -230 -152q0 -137 173 -137zM1263.5 864q-120.5 0 -184.5 -57t-78 -182h502q-6 125 -62.5 182t-177 57zM438 -25q-178 0 -269 83t-91 239q0 336 434 336q121 0 246 -17v11q0 129 -57.5 181t-222 52
t-328.5 -98v219q160 80 362 80q291 0 385 -176q115 176 383 176q219 0 334 -120t115 -355q0 -68 -11 -140h-719q10 -139 94.5 -204.5t253.5 -65.5t322 80v-207q-137 -74 -346 -74q-336 0 -469 185q-176 -185 -416 -185zM702 1182l263 319h258l-301 -319h-220z" />
    <glyph glyph-name="Oslashacute" unicode="&#x1fe;" horiz-adv-x="1449" 
d="M1092 696q0 186 -41 295l-525 -755q78 -45 199 -46q193 0 280 120t87 386zM358 696q0 -186 41 -295l525 756q-78 45 -199 45q-193 0 -280 -120t-87 -386zM725 -25q-201 0 -332 68l-47 -68h-242l136 195q-135 174 -135.5 535.5t150.5 536.5t470 175q201 0 332 -67l47 67
h244l-136 -194q135 -174 135.5 -537t-150 -537t-472.5 -174zM1051 1845l-301 -319h-220l263 319h258z" />
    <glyph glyph-name="oslashacute" unicode="&#x1ff;" horiz-adv-x="1218" 
d="M608 176q137 0 204 83t67 257q0 111 -25 184l-371 -501q55 -23 125 -23zM608 860q-137 0 -202.5 -84t-65.5 -260q0 -106 25 -178l368 500q-55 22 -125 22zM610 -25q-145 0 -256 48l-35 -48h-221l113 154q-113 137 -113 389q0 543 512 543q147 0 254 -47l35 47h221
l-112 -154q113 -137 112 -389q0 -543 -510 -543zM934 1501l-301 -319h-219l262 319h258z" />
    <glyph glyph-name="Scommaaccent" unicode="&#x218;" horiz-adv-x="1150" 
d="M455 -367v199h250v-190l-140 -185h-127l109 176h-92zM96 997q0 420 521 420q261 0 395 -86v-233q-164 106 -389 106q-276 0 -277 -190q0 -68 46 -110t175 -70l156 -35q197 -43 282 -140.5t85 -259.5q-1 -424 -533 -424q-311 0 -473 113v238q207 -137 469 -138
q287 0 287 203q0 72 -49.5 114t-190.5 75l-156 34q-188 41 -268 134.5t-80 248.5z" />
    <glyph glyph-name="scommaaccent" unicode="&#x219;" horiz-adv-x="983" 
d="M375 -367v199h250v-190l-140 -185h-127l109 176h-92zM854 784q-160 82 -345 82t-185 -108q0 -53 32.5 -76t132.5 -43l132 -29q164 -37 230.5 -105.5t66.5 -195.5q-1 -334 -441 -334q-252 0 -397 86v213q180 -104 401 -104q111 0 159 28.5t48 86t-37 82t-137 45.5l-135 28
q-156 33 -220.5 101.5t-64.5 191.5q0 328 426 328q211 0 334 -64v-213z" />
    <glyph glyph-name="uni021A" unicode="&#x21a;" horiz-adv-x="1142" 
d="M446 -367v199h250v-190l-139 -185h-127l109 176h-93zM446 0v1176h-421v217h1093v-217h-424v-1176h-248z" />
    <glyph glyph-name="uni021B" unicode="&#x21b;" horiz-adv-x="761" 
d="M338 -367v199h250v-190l-139 -185h-127l108 176h-92zM541 -25q-178 0 -260 73t-82 237v563h-183v188h187l22 289h211v-289h287v-188h-287v-529q0 -82 35 -114.5t114 -32.5t136 25v-197q-69 -25 -180 -25z" />
    <glyph glyph-name="uni0237" unicode="&#x237;" horiz-adv-x="546" 
d="M92 -403q-68 0 -115 12v194q37 -10 68 -10q109 0 109 125v1118h237v-1095q0 -184 -69.5 -264t-229.5 -80z" />
    <glyph glyph-name="uni02BC" unicode="&#x2bc;" horiz-adv-x="376" 
d="M80 1206v275h242v-262l-136 -279h-129l107 266h-84z" />
    <glyph glyph-name="circumflex" unicode="&#x2c6;" horiz-adv-x="1064" 
d="M152 1182l268 319h225l268 -319h-217l-164 174l-163 -174h-217z" />
    <glyph glyph-name="caron" unicode="&#x2c7;" horiz-adv-x="1064" 
d="M420 1182l-268 319h217l163 -174l164 174h217l-268 -319h-225z" />
    <glyph glyph-name="uni02C9" unicode="&#x2c9;" horiz-adv-x="1064" 
d="M231 1253v168h603v-168h-603z" />
    <glyph glyph-name="breve" unicode="&#x2d8;" horiz-adv-x="1064" 
d="M532 1174q-143 0 -231 80t-100 233h170q14 -137 160 -137t165 137h168q-12 -152 -100 -233q-89 -80 -232 -80z" />
    <glyph glyph-name="dotaccent" unicode="&#x2d9;" horiz-adv-x="1064" 
d="M410 1227v221h245v-221h-245z" />
    <glyph glyph-name="ring" unicode="&#x2da;" horiz-adv-x="1064" 
d="M532 1305q68 1 68 73t-68 72t-68 -72t68 -73zM531 1587q97 0 157 -58q60 -59 62 -153q0 -94 -61 -152t-158 -57q-97 -1 -157 57t-61 152q1 94 61 152t157 59z" />
    <glyph glyph-name="ogonek" unicode="&#x2db;" horiz-adv-x="1064" 
d="M580 -403q-248 0 -248 182q0 92 71 166q72 74 242 157l72 -69q-190 -94 -191 -203q0 -80 95 -80q59 0 112 31v-156q-55 -28 -153 -28z" />
    <glyph glyph-name="tilde" unicode="&#x2dc;" horiz-adv-x="1064" 
d="M672 1376q90 0 157 109v-185q-59 -98 -167 -98q-58 0 -144 48t-125 48q-89 1 -157 -108v184q59 98 167 99q59 -1 145 -49t124 -48z" />
    <glyph glyph-name="hungarumlaut" unicode="&#x2dd;" horiz-adv-x="1064" 
d="M555 1182l223 319h252l-262 -319h-213zM166 1182l221 319h252l-260 -319h-213z" />
    <glyph glyph-name="gravecomb" unicode="&#x300;" horiz-adv-x="0" 
d="M-23 1182l-301 319h258l263 -319h-220z" />
    <glyph glyph-name="acutecomb" unicode="&#x301;" horiz-adv-x="0" 
d="M-195 1182l263 319h258l-301 -319h-220z" />
    <glyph glyph-name="uni0302" unicode="&#x302;" horiz-adv-x="0" 
d="M-381 1182l268 319h226l268 -319h-217l-164 174l-164 -174h-217z" />
    <glyph glyph-name="tildecomb" unicode="&#x303;" horiz-adv-x="0" 
d="M139 1376q90 0 158 109v-185q-57 -98 -168 -98q-59 0 -144 48t-124 48q-90 1 -158 -108v184q57 98 168 99q59 0 145.5 -48.5t122.5 -48.5z" />
    <glyph glyph-name="uni0304" unicode="&#x304;" horiz-adv-x="0" 
d="M-301 1253v168h602v-168h-602z" />
    <glyph glyph-name="uni0306" unicode="&#x306;" horiz-adv-x="0" 
d="M0 1174q-143 0 -231 80.5t-101 232.5h170q14 -137 160 -137t166 137h168q-12 -152 -100.5 -232.5t-231.5 -80.5z" />
    <glyph glyph-name="uni0307" unicode="&#x307;" horiz-adv-x="0" 
d="M-123 1227v221h246v-221h-246z" />
    <glyph glyph-name="uni0308" unicode="&#x308;" horiz-adv-x="0" 
d="M76 1227v223h237v-223h-237zM-311 1227v223h237v-223h-237z" />
    <glyph glyph-name="uni030A" unicode="&#x30a;" horiz-adv-x="0" 
d="M0 1305q68 0 68 72.5t-68 72.5t-68 -72.5t68 -72.5zM-1 1167q-97 0 -157.5 57.5t-60.5 151.5t60.5 152.5t157.5 58.5t157.5 -58.5t60.5 -152.5t-60.5 -151.5t-157.5 -57.5z" />
    <glyph glyph-name="uni030B" unicode="&#x30b;" horiz-adv-x="0" 
d="M23 1182l223 319h252l-262 -319h-213zM-367 1182l222 319h251l-260 -319h-213z" />
    <glyph glyph-name="uni030C" unicode="&#x30c;" horiz-adv-x="0" 
d="M-113 1182l-268 319h217l164 -174l164 174h217l-268 -319h-226z" />
    <glyph glyph-name="uni0312" unicode="&#x312;" horiz-adv-x="0" 
d="M-125 1204v191l137 184h127l-106 -176h92v-199h-250z" />
    <glyph glyph-name="uni0326" unicode="&#x326;" horiz-adv-x="0" 
d="M-125 -367v199h250v-190l-139 -185h-127l108 176h-92z" />
    <glyph glyph-name="uni0327" unicode="&#x327;" horiz-adv-x="0" 
d="M-47 -426q-154 0 -227 35v129q88 -41 195 -41t108 49q0 29 -31 38t-121 9h-35l99 227h114l-55 -129h8q117 0 170 -36.5t53 -116.5t-62 -122t-216 -42z" />
    <glyph glyph-name="uni0328" unicode="&#x328;" horiz-adv-x="0" 
d="M47 -403q-248 0 -248 182q0 92 72 165.5t242 157.5l71 -69q-190 -94 -190 -203q0 -80 94 -80q59 0 113 31v-156q-56 -28 -154 -28z" />
    <glyph glyph-name="uni0394" unicode="&#x394;" horiz-adv-x="1318" 
d="M334 221h637l-318 903zM4 0l522 1393h265l524 -1393h-1311z" />
    <glyph glyph-name="uni03A9" unicode="&#x3a9;" horiz-adv-x="1476" 
d="M104 0v221h261q-260 180 -261 559q0 301 166 469t468 168t468 -168t166 -469q0 -379 -260 -559h260v-221h-528v207q139 98 206 227t66 318q0 451 -377 450q-379 0 -379 -452q0 -186 67 -316t208 -227v-207h-531z" />
    <glyph glyph-name="uni03BC" unicode="&#x3bc;" horiz-adv-x="1226" 
d="M156 -379v1415h237v-630q0 -115 43 -167t142 -53q143 0 256 133v717h237v-1036h-190l-19 125q-156 -150 -352 -150q-68 0 -117 15v-369h-237z" />
    <glyph glyph-name="pi" unicode="&#x3c0;" horiz-adv-x="1284" 
d="M1090 -25q-141 0 -209 65t-68 200v596h-358v-836h-238v836h-201v200h1229v-200h-194v-562q0 -98 98 -98q47 0 88 23v-199q-63 -25 -147 -25z" />
    <glyph glyph-name="Wgrave" unicode="&#x1e80;" horiz-adv-x="1843" 
d="M389 0l-379 1393h256l260 -1022l283 1022h238l280 -1018l260 1018h246l-381 -1393h-248l-280 1014l-283 -1014h-252zM899 1526l-301 319h258l262 -319h-219z" />
    <glyph glyph-name="wgrave" unicode="&#x1e81;" horiz-adv-x="1576" 
d="M338 0l-322 1036h248l205 -723l223 723h207l221 -714l201 714h240l-322 -1036h-223l-223 723l-226 -723h-229zM768 1182l-301 319h258l262 -319h-219z" />
    <glyph glyph-name="Wacute" unicode="&#x1e82;" horiz-adv-x="1843" 
d="M389 0l-379 1393h256l260 -1022l283 1022h238l280 -1018l260 1018h246l-381 -1393h-248l-280 1014l-283 -1014h-252zM727 1526l262 319h258l-301 -319h-219z" />
    <glyph glyph-name="wacute" unicode="&#x1e83;" horiz-adv-x="1576" 
d="M338 0l-322 1036h248l205 -723l223 723h207l221 -714l201 714h240l-322 -1036h-223l-223 723l-226 -723h-229zM596 1182l262 319h258l-301 -319h-219z" />
    <glyph glyph-name="Wdieresis" unicode="&#x1e84;" horiz-adv-x="1843" 
d="M389 0l-379 1393h256l260 -1022l283 1022h238l280 -1018l260 1018h246l-381 -1393h-248l-280 1014l-283 -1014h-252zM997 1571v223h238v-223h-238zM610 1571v223h238v-223h-238z" />
    <glyph glyph-name="wdieresis" unicode="&#x1e85;" horiz-adv-x="1576" 
d="M338 0l-322 1036h248l205 -723l223 723h207l221 -714l201 714h240l-322 -1036h-223l-223 723l-226 -723h-229zM866 1227v223h238v-223h-238zM479 1227v223h238v-223h-238z" />
    <glyph glyph-name="uni1E9E" unicode="&#x1e9e;" horiz-adv-x="1384" 
d="M856 -25q-145 0 -258 43v226q106 -53 223 -54q254 0 254 222q0 121 -78 176t-249 55h-89v170l283 365h-520v-1178h-248v1393h1065v-189l-289 -370q375 -59 375 -431q0 -428 -469 -428z" />
    <glyph glyph-name="Ygrave" unicode="&#x1ef2;" horiz-adv-x="1136" 
d="M444 0v578l-493 815h289l338 -574l340 574h268l-494 -815v-578h-248zM545 1526l-301 319h258l262 -319h-219z" />
    <glyph glyph-name="ygrave" unicode="&#x1ef3;" horiz-adv-x="1030" 
d="M250 -403q-76 0 -131 18v195q39 -16 100 -16.5t93 26t61 104.5t28.5 94t-10.5 48l-377 970h254l262 -723l242 723h244l-420 -1153q-57 -158 -133 -222t-213 -64zM492 1182l-302 319h259l262 -319h-219z" />
    <glyph glyph-name="uni2002" unicode="&#x2002;" horiz-adv-x="1064" 
 />
    <glyph glyph-name="uni2003" unicode="&#x2003;" horiz-adv-x="1884" 
 />
    <glyph glyph-name="uni2007" unicode="&#x2007;" horiz-adv-x="1277" 
 />
    <glyph glyph-name="uni2008" unicode="&#x2008;" horiz-adv-x="612" 
 />
    <glyph glyph-name="uni200B" unicode="&#x200b;" horiz-adv-x="0" 
 />
    <glyph glyph-name="figuredash" unicode="&#x2012;" horiz-adv-x="1275" 
d="M72 506v192h1132v-192h-1132z" />
    <glyph glyph-name="endash" unicode="&#x2013;" horiz-adv-x="1064" 
d="M72 506v192h921v-192h-921z" />
    <glyph glyph-name="emdash" unicode="&#x2014;" horiz-adv-x="1884" 
d="M72 506v192h1740v-192h-1740z" />
    <glyph glyph-name="quoteleft" unicode="&#x2018;" horiz-adv-x="583" 
d="M156 807v252l174 334h141l-131 -322h86v-264h-270z" />
    <glyph glyph-name="quoteright" unicode="&#x2019;" horiz-adv-x="583" 
d="M156 1128v265h272v-252l-174 -334h-141l131 321h-88z" />
    <glyph glyph-name="quotesinglbase" unicode="&#x201a;" horiz-adv-x="583" 
d="M156 0v264h272v-252l-174 -334h-141l131 322h-88z" />
    <glyph glyph-name="quotedblleft" unicode="&#x201c;" horiz-adv-x="997" 
d="M586 807v252l174 334h141l-131 -322h86v-264h-270zM145 807v252l174 334h142l-131 -322h86v-264h-271z" />
    <glyph glyph-name="quotedblright" unicode="&#x201d;" horiz-adv-x="997" 
d="M580 1128v265h272v-252l-174 -334h-141l131 321h-88zM139 1128v265h273v-252l-174 -334h-142l131 321h-88z" />
    <glyph glyph-name="quotedblbase" unicode="&#x201e;" horiz-adv-x="997" 
d="M580 0v264h272v-252l-174 -334h-141l131 322h-88zM139 0v264h273v-252l-174 -334h-142l131 322h-88z" />
    <glyph glyph-name="dagger" unicode="&#x2020;" horiz-adv-x="1075" 
d="M430 -379l-12 887l10 293l-383 -4v200l383 -6l-10 402h239l-10 -402l381 6v-200l-381 4l10 -293l-12 -887h-215z" />
    <glyph glyph-name="daggerdbl" unicode="&#x2021;" horiz-adv-x="1075" 
d="M418 -379l10 402l-383 -5v199l383 -4l-10 295l10 293l-383 -4v200l383 -6l-10 402h239l-10 -402l381 6v-200l-381 4l10 -293l-10 -295l381 4v-199l-381 5l10 -402h-239z" />
    <glyph glyph-name="bullet" unicode="&#x2022;" horiz-adv-x="1064" 
d="M313 383v440h439v-440h-439z" />
    <glyph glyph-name="ellipsis" unicode="&#x2026;" horiz-adv-x="1884" 
d="M1440 0v262h262v-262h-262zM811 0v262h262v-262h-262zM182 0v262h262v-262h-262z" />
    <glyph glyph-name="perthousand" unicode="&#x2030;" horiz-adv-x="2562" 
d="M2138 143q84 1 122 51t38 158t-38 159q-38 50 -122 50t-122 -50t-38 -159t38 -159t122 -50zM1319 143q84 1 122 51t38 158t-38 159q-38 50 -122 50t-122 -50t-38 -159t38 -159t122 -50zM2138 -25q-176 -1 -270 97t-94 280t94 280t270 97q176 0 269 -97q93 -98 93 -280
t-92 -280q-94 -98 -270 -97zM1319 -25q-176 -1 -270 97t-95 280q0 182 94 280t271 97q176 0 269 -97q93 -98 93 -280t-93 -280t-269 -97zM424 831q84 1 122 51t38 158t-38 159q-38 50 -122 50t-122 -50t-38 -159t38 -159t122 -50zM317 -25l902 1442h208l-901 -1442h-209z
M425 664q-177 0 -270 97t-94 279t93 280t271 97q177 0 270 -97q93 -98 93 -280t-93 -279t-270 -97z" />
    <glyph glyph-name="guilsinglleft" unicode="&#x2039;" horiz-adv-x="530" 
d="M281 129l-256 383l256 383h227l-250 -383l250 -383h-227z" />
    <glyph glyph-name="guilsinglright" unicode="&#x203a;" horiz-adv-x="530" 
d="M25 129l249 383l-249 383h227l256 -383l-256 -383h-227z" />
    <glyph glyph-name="fraction" unicode="&#x2044;" horiz-adv-x="264" 
d="M-344 -25l756 1442h198l-757 -1442h-197z" />
    <glyph glyph-name="uni2070" unicode="&#x2070;" 
d="M266 1275q0 -159 37 -221t128 -61q91 -1 127 61t36 221t-36 220t-128 61t-128 -61t-36 -220zM430 825q-194 0 -280 108q-86 109 -86 343t86 342q88 108 280 106q192 0 280 -108q87 -108 87 -341q0 -234 -87 -342t-280 -108z" />
    <glyph glyph-name="uni2074" unicode="&#x2074;" 
d="M274 1188h250l8 293zM522 850v178h-463v146l467 526h195v-512h115v-160h-115v-178h-199z" />
    <glyph glyph-name="uni2075" unicode="&#x2075;" 
d="M408 825q-193 0 -302 66v172q131 -70 287 -70q195 0 195 119q0 63 -47 89t-173 26t-241 -37v510h614v-168h-438v-164q70 18 162 18q324 0 323 -272q1 -289 -380 -289z" />
    <glyph glyph-name="uni2076" unicode="&#x2076;" 
d="M459 989q145 0 145 128t-131 128t-190 -96q12 -160 176 -160zM448 825q-364 0 -364 430q0 469 440 469q147 0 219 -41v-170q-84 43 -208 43q-248 0 -252 -239q86 86 227 86t216 -73t75 -212t-86 -216q-87 -77 -267 -77z" />
    <glyph glyph-name="uni2077" unicode="&#x2077;" 
d="M76 1528v172h708v-146l-426 -704h-231l420 678h-471z" />
    <glyph glyph-name="uni2078" unicode="&#x2078;" 
d="M430 989q172 -1 172 101t-172 114q-172 -12 -172 -114t172 -101zM573 1466q0 94 -143 94t-143 -94q0 -88 143 -108q143 20 143 108zM803 1069q0 -244 -374 -244t-374 244q0 172 166 219v4q-131 47 -131 197q0 235 339 235t339 -235q0 -150 -131 -197v-4q166 -47 166 -219
z" />
    <glyph glyph-name="uni2079" unicode="&#x2079;" 
d="M403 1561q-145 0 -145 -128t129 -128t191 94q-10 162 -175 162zM338 825q-147 0 -219 41v170q80 -43 209 -43q246 0 250 240q-82 -86 -224 -86t-218 73q-75 74 -75 212t86 216q85 78 265 76q366 -1 366 -430q0 -469 -440 -469z" />
    <glyph glyph-name="uni2080" unicode="&#x2080;" 
d="M431 -143q91 0 127 61t36 220t-36 220q-36 62 -128 62t-128 -62t-36 -220q0 -159 37 -220t128 -61zM430 -311q-194 -1 -280 107t-86 342t86 342q88 108 280 108t280 -108q87 -108 87 -342t-87 -342t-280 -107z" />
    <glyph glyph-name="uni2081" unicode="&#x2081;" 
d="M176 -287v166h195v479l-224 -100v176l271 129h151v-684h197v-166h-590z" />
    <glyph glyph-name="uni2082" unicode="&#x2082;" 
d="M80 -287v152l311 239q92 70 124 112t32 91q0 113 -157 113t-284 -101v185q117 84 314 84q330 0 330 -258q0 -102 -54 -177t-200 -178l-129 -90h391v-172h-678z" />
    <glyph glyph-name="uni2083" unicode="&#x2083;" 
d="M76 -57q125 -86 312 -86t187 106q0 53 -38 76q-39 23 -134 22h-178v166h160q88 0 124 23t36 73q0 49 -37 73t-123 24q-162 0 -285 -74v176q116 66 302 66t263 -56t77 -190q0 -133 -109 -180v-4q145 -49 145 -209q1 -260 -372 -260q-211 0 -330 71v183z" />
    <glyph glyph-name="uni2084" unicode="&#x2084;" 
d="M274 51h250l8 293zM522 -287v178h-463v146l467 526h195v-512h115v-160h-115v-178h-199z" />
    <glyph glyph-name="uni2085" unicode="&#x2085;" 
d="M408 -311q-193 0 -302 65v172q131 -70 287 -69q195 0 195 118q0 63 -47 89t-173 26t-241 -37v510h614v-168h-438v-164q70 18 162 19q324 0 323 -273q1 -288 -380 -288z" />
    <glyph glyph-name="uni2086" unicode="&#x2086;" 
d="M459 -147q145 0 145 128t-131 128t-190 -97q12 -159 176 -159zM448 -311q-364 0 -364 430q0 469 440 469q147 0 219 -41v-170q-84 43 -208 43q-248 0 -252 -240q86 86 227 86t216 -72t75 -212q0 -139 -86 -216q-87 -77 -267 -77z" />
    <glyph glyph-name="uni2087" unicode="&#x2087;" 
d="M76 391v172h708v-145l-426 -705h-231l420 678h-471z" />
    <glyph glyph-name="uni2088" unicode="&#x2088;" 
d="M430 -147q172 0 172 101t-172 114q-172 -12 -172 -114t172 -101zM573 330q0 94 -143 94t-143 -94q0 -89 143 -109q143 20 143 109zM803 -68q0 -243 -374 -243t-374 243q0 172 166 220v4q-131 47 -131 196q0 236 339 236t339 -236q0 -150 -131 -196v-4q166 -47 166 -220z
" />
    <glyph glyph-name="uni2089" unicode="&#x2089;" 
d="M403 424q-145 0 -145 -128t129 -128t191 94q-10 162 -175 162zM338 -311q-147 0 -219 41v170q80 -43 209 -43q246 0 250 239q-82 -86 -224 -86t-218 73q-75 73 -75 212t86 216q85 77 265 77q366 0 366 -430q0 -469 -440 -469z" />
    <glyph glyph-name="Euro" unicode="&#x20ac;" horiz-adv-x="1277" 
d="M872 -25q-262 0 -408 115t-190 359h-159v174h141q-2 25 -2 77t2 80h-141v174h159q44 236 188 350t400 113q199 0 312 -69v-220q-133 78 -291 78t-242 -58t-117 -194h477v-174h-497q-2 -27 -2 -80t2 -77h497v-174h-477q33 -141 118 -201t249 -62q164 0 301 78v-221
q-123 -68 -320 -68z" />
    <glyph glyph-name="uni20B9" unicode="&#x20b9;" horiz-adv-x="1277" 
d="M158 676h241q197 0 284 44t103 150h-665l69 183h586q-26 83 -106 119t-242 36h-307l69 185h1027l-70 -185h-191q49 -66 68 -155h193l-70 -183h-115q-16 -184 -139 -275t-377 -99l606 -496h-342l-622 516v160z" />
    <glyph glyph-name="uni2113" unicode="&#x2113;" horiz-adv-x="960" 
d="M647 1135q0 96 -26 140q-27 44 -91 44t-90 -49t-26 -164v-444q233 197 233 473zM612 -25q-358 0 -422 308q-14 -6 -51 -25t-82 -39v221q57 27 119 62v614q0 195 89 299t265 105q336 0 336 -379q0 -420 -450 -725q8 -132 62 -186t162 -54t214 60v-213q-101 -48 -242 -48z
" />
    <glyph glyph-name="uni2116" unicode="&#x2116;" horiz-adv-x="2443" 
d="M1505 131v174h809v-174h-809zM1909 629q100 0 146 57t46 181q0 123 -46 181t-146 58q-101 0 -147 -57t-46 -181t46 -182q46 -57 147 -57zM1910 455q-404 1 -404 413t404 412q405 0 405 -412q-1 -412 -405 -413zM174 0v1393h293l610 -963v963h234v-1393h-230l-673 1061
v-1061h-234z" />
    <glyph glyph-name="uni2117" unicode="&#x2117;" horiz-adv-x="1634" 
d="M739 717h117q61 -1 84 21t23 77t-24 78t-83 22h-117v-198zM555 330v733h319q143 -1 208 -61t65 -186t-66 -187t-207 -62h-135v-237h-184zM817 139q248 0 393 151q146 150 146 406t-146 407t-393 151q-248 0 -392 -152q-144 -150 -144 -406t144 -406t392 -151zM817 -25
q-323 0 -521 199q-198 198 -198 522t198 523t522 199t522 -200q198 -198 198 -522t-198 -522t-523 -199z" />
    <glyph glyph-name="uni2120" unicode="&#x2120;" horiz-adv-x="1613" 
d="M725 725v668h240l151 -437l154 437h248v-668h-164v500l-176 -500h-129l-172 487v-487h-152zM319 707q-158 0 -233 53v145q112 -63 228 -63t116 69q0 27 -18 42t-76 30l-76 18q-90 23 -132 68t-42 123q0 219 268 219q129 0 201 -39v-147q-84 51 -194 51t-109 -68
q0 -27 18 -41t74 -28l76 -19q88 -20 131 -66t43 -130q-1 -217 -275 -217z" />
    <glyph glyph-name="trademark" unicode="&#x2122;" horiz-adv-x="1595" 
d="M707 725v668h239l152 -437l153 437h248v-668h-164v500l-176 -500h-129l-172 487v-487h-151zM227 725v526h-192v142h549v-142h-193v-526h-164z" />
    <glyph glyph-name="uni2126" unicode="&#x2126;" horiz-adv-x="1476" 
d="M104 0v221h261q-260 180 -261 559q0 301 166 469t468 168t468 -168t166 -469q0 -379 -260 -559h260v-221h-528v207q139 98 206 227t66 318q0 451 -377 450q-379 0 -379 -452q0 -186 67 -316t208 -227v-207h-531z" />
    <glyph glyph-name="estimated" unicode="&#x212e;" horiz-adv-x="1691" 
d="M385 719h944q12 0 12 12v395q0 25 -20 45q-193 203 -465 203t-463 -211q-18 -23 -18 -45v-389q0 -10 10 -10zM856 -25q-315 0 -538 211q-222 211 -222 510t222 510t538 211t538 -211t222 -510v-18h-1231q-10 0 -10 -10v-392q0 -20 18 -43q182 -215 467 -215q141 0 270 65
t220 175h110q-106 -131 -265 -207t-339 -76z" />
    <glyph glyph-name="uni2153" unicode="&#x2153;" horiz-adv-x="1984" 
d="M1200 229q128 -86 314 -86t186 107q0 53 -39 76t-133 22h-178v166h159q88 0 124 23t36 73t-37 73q-37 24 -123 24q-162 0 -284 -74v176q115 65 301 65t263 -56t77 -189t-109 -180v-5q145 -49 146 -208q0 -261 -373 -261q-211 0 -330 72v182zM176 543v166h195v479
l-224 -101v177l271 129h151v-684h197v-166h-590zM516 -25l756 1442h198l-757 -1442h-197z" />
    <glyph glyph-name="uni2154" unicode="&#x2154;" horiz-adv-x="1984" 
d="M1200 229q128 -86 314 -86t186 107q0 53 -39 76t-133 22h-178v166h159q88 0 124 23t36 73t-37 73q-37 24 -123 24q-162 0 -284 -74v176q115 65 301 65t263 -56t77 -189t-109 -180v-5q145 -49 146 -208q0 -261 -373 -261q-211 0 -330 72v182zM516 -25l756 1442h198
l-757 -1442h-197zM80 543v151l311 240q92 70 124 112t32 91q0 113 -157 113t-284 -101v184q117 84 314 84q330 0 330 -258q0 -102 -54 -177t-200 -177l-129 -90h391v-172h-678z" />
    <glyph glyph-name="uni2155" unicode="&#x2155;" horiz-adv-x="1984" 
d="M1532 -25q-193 0 -301 66v172q131 -70 287 -70q195 0 194 119q0 63 -47 89t-174 26t-240 -37v510h615v-168h-439v-164q72 18 162 19q324 0 324 -273q0 -289 -381 -289zM176 543v166h195v479l-224 -101v177l271 129h151v-684h197v-166h-590zM516 -25l756 1442h198
l-757 -1442h-197z" />
    <glyph glyph-name="uni2156" unicode="&#x2156;" horiz-adv-x="1984" 
d="M1532 -25q-193 0 -301 66v172q131 -70 287 -70q195 0 194 119q0 63 -47 89t-174 26t-240 -37v510h615v-168h-439v-164q72 18 162 19q324 0 324 -273q0 -289 -381 -289zM516 -25l756 1442h198l-757 -1442h-197zM80 543v151l311 240q92 70 124 112t32 91q0 113 -157 113
t-284 -101v184q117 84 314 84q330 0 330 -258q0 -102 -54 -177t-200 -177l-129 -90h391v-172h-678z" />
    <glyph glyph-name="uni2157" unicode="&#x2157;" horiz-adv-x="1984" 
d="M1532 -25q-193 0 -301 66v172q131 -70 287 -70q195 0 194 119q0 63 -47 89t-174 26t-240 -37v510h615v-168h-439v-164q72 18 162 19q324 0 324 -273q0 -289 -381 -289zM516 -25l756 1442h198l-757 -1442h-197zM76 772q125 -86 312 -86t187 107q-1 53 -39 75t-133 23h-178
v166h160q88 1 124 23t36 73q0 98 -161 97t-284 -74v176q116 66 302 66t263 -57q77 -56 77 -189t-109 -181v-4q145 -49 145 -209q1 -260 -372 -260q-211 0 -330 72v182z" />
    <glyph glyph-name="uni2158" unicode="&#x2158;" horiz-adv-x="1984" 
d="M1532 -25q-193 0 -301 66v172q131 -70 287 -70q195 0 194 119q0 63 -47 89t-174 26t-240 -37v510h615v-168h-439v-164q72 18 162 19q324 0 324 -273q0 -289 -381 -289zM274 881h250l8 293zM522 543v178h-463v145l467 527h195v-512h115v-160h-115v-178h-199zM516 -25
l756 1442h198l-757 -1442h-197z" />
    <glyph glyph-name="uni2159" unicode="&#x2159;" horiz-adv-x="1984" 
d="M1583 139q145 0 146 127q1 129 -131 129t-191 -96q12 -160 176 -160zM1572 -25q-364 0 -364 431q0 469 441 468q147 0 219 -40v-170q-82 43 -209 43q-250 0 -252 -240q86 86 227 86t216 -73t75 -212t-86 -216q-87 -77 -267 -77zM176 543v166h195v479l-224 -101v177
l271 129h151v-684h197v-166h-590zM516 -25l756 1442h198l-757 -1442h-197z" />
    <glyph glyph-name="uni215A" unicode="&#x215a;" horiz-adv-x="1984" 
d="M1583 139q145 0 146 127q1 129 -131 129t-191 -96q12 -160 176 -160zM1572 -25q-364 0 -364 431q0 469 441 468q147 0 219 -40v-170q-82 43 -209 43q-250 0 -252 -240q86 86 227 86t216 -73t75 -212t-86 -216q-87 -77 -267 -77zM408 518q-193 0 -302 66v172
q131 -70 287 -70q195 0 195 119q0 63 -47 89t-173 26t-241 -37v510h614v-168h-438v-164q72 18 162 18q324 0 323 -272q1 -289 -380 -289zM516 -25l756 1442h198l-757 -1442h-197z" />
    <glyph glyph-name="oneeighth" unicode="&#x215b;" horiz-adv-x="1984" 
d="M1554 139q172 -1 172 101t-172 114q-172 -12 -172 -114t172 -101zM1411 616q0 -88 143 -108q143 20 144 108q0 94 -144 94t-143 -94zM1927 219q0 -244 -374 -244t-373 244q0 172 166 219v4q-131 47 -132 197q0 235 339 235t339 -235q0 -150 -131 -197v-4
q166 -47 166 -219zM176 543v166h195v479l-224 -101v177l271 129h151v-684h197v-166h-590zM516 -25l756 1442h198l-757 -1442h-197z" />
    <glyph glyph-name="threeeighths" unicode="&#x215c;" horiz-adv-x="1984" 
d="M1554 139q172 -1 172 101t-172 114q-172 -12 -172 -114t172 -101zM1411 616q0 -88 143 -108q143 20 144 108q0 94 -144 94t-143 -94zM1927 219q0 -244 -374 -244t-373 244q0 172 166 219v4q-131 47 -132 197q0 235 339 235t339 -235q0 -150 -131 -197v-4
q166 -47 166 -219zM516 -25l756 1442h198l-757 -1442h-197zM76 772q125 -86 312 -86t187 107q-1 53 -39 75t-133 23h-178v166h160q88 1 124 23t36 73q0 98 -161 97t-284 -74v176q116 66 302 66t263 -57q77 -56 77 -189t-109 -181v-4q145 -49 145 -209q1 -260 -372 -260
q-211 0 -330 72v182z" />
    <glyph glyph-name="fiveeighths" unicode="&#x215d;" horiz-adv-x="1984" 
d="M1554 139q172 -1 172 101t-172 114q-172 -12 -172 -114t172 -101zM1411 616q0 -88 143 -108q143 20 144 108q0 94 -144 94t-143 -94zM1927 219q0 -244 -374 -244t-373 244q0 172 166 219v4q-131 47 -132 197q0 235 339 235t339 -235q0 -150 -131 -197v-4
q166 -47 166 -219zM408 518q-193 0 -302 66v172q131 -70 287 -70q195 0 195 119q0 63 -47 89t-173 26t-241 -37v510h614v-168h-438v-164q72 18 162 18q324 0 323 -272q1 -289 -380 -289zM516 -25l756 1442h198l-757 -1442h-197z" />
    <glyph glyph-name="seveneighths" unicode="&#x215e;" horiz-adv-x="1984" 
d="M1554 139q172 -1 172 101t-172 114q-172 -12 -172 -114t172 -101zM1411 616q0 -88 143 -108q143 20 144 108q0 94 -144 94t-143 -94zM1927 219q0 -244 -374 -244t-373 244q0 172 166 219v4q-131 47 -132 197q0 235 339 235t339 -235q0 -150 -131 -197v-4
q166 -47 166 -219zM76 1221v172h708v-146l-426 -704h-231l420 678h-471zM428 -25l756 1442h198l-757 -1442h-197z" />
    <glyph glyph-name="arrowleft" unicode="&#x2190;" horiz-adv-x="1464" 
d="M1442 801v-209h-1051l428 -420l-133 -135l-659 659l659 660l133 -135l-428 -420h1051z" />
    <glyph glyph-name="arrowup" unicode="&#x2191;" horiz-adv-x="1464" 
d="M623 0v1044l-406 -411l-135 133l651 651l651 -651l-135 -133l-407 414v-1047h-219z" />
    <glyph glyph-name="arrowright" unicode="&#x2192;" horiz-adv-x="1464" 
d="M23 592v209h1050l-428 420l135 135l658 -660l-658 -659l-135 135l428 420h-1050z" />
    <glyph glyph-name="arrowdown" unicode="&#x2193;" horiz-adv-x="1464" 
d="M623 1393h219v-1047l407 414l135 -133l-651 -652l-651 652l135 133l406 -412v1045z" />
    <glyph glyph-name="arrowboth" unicode="&#x2194;" horiz-adv-x="1894" 
d="M621 100l-596 596l596 596l135 -135l-365 -356h1112l-364 356l135 135l596 -596l-596 -596l-135 136l364 356h-1112l365 -356z" />
    <glyph glyph-name="arrowupdn" unicode="&#x2195;" horiz-adv-x="1464" 
d="M733 -172l-590 590l136 135l344 -350v987l-344 -350l-136 135l590 590l590 -590l-133 -135l-348 352v-991l348 352l133 -135z" />
    <glyph glyph-name="uni2196" unicode="&#x2196;" horiz-adv-x="1464" 
d="M190 297v948h945v-186l-615 6l826 -827l-150 -148l-817 817l6 -610h-195z" />
    <glyph glyph-name="uni2197" unicode="&#x2197;" horiz-adv-x="1464" 
d="M330 1245h944v-948h-195l6 610l-817 -817l-149 148l825 827l-614 -6v186z" />
    <glyph glyph-name="uni2198" unicode="&#x2198;" horiz-adv-x="1464" 
d="M330 147v187l614 -6l-825 827l149 148l817 -818l-6 611h195v-949h-944z" />
    <glyph glyph-name="uni2199" unicode="&#x2199;" horiz-adv-x="1464" 
d="M190 147v949h195l-6 -611l817 818l150 -148l-826 -827l615 6v-187h-945z" />
    <glyph glyph-name="partialdiff" unicode="&#x2202;" horiz-adv-x="1300" 
d="M920 549q-86 184 -319 184q-115 0 -185 -76q-70 -75 -70 -205t68 -203t190 -73q266 0 316 373zM592 -25q-229 0 -359 126q-129 125 -129 349t127 353t351 129t352 -135q-4 258 -86 378t-285 119q-164 0 -289 -82v220q141 70 332 69q297 0 433 -171q137 -171 137 -555
t-148 -592t-436 -208z" />
    <glyph glyph-name="emptyset" unicode="&#x2205;" horiz-adv-x="1716" 
d="M858 176q222 0 364 144t142 376q0 160 -72 287l-725 -723q125 -84 291 -84zM858 1217q-223 -1 -363 -145t-141 -376q0 -161 74 -286l723 723q-127 84 -293 84zM137 696q0 313 204 517t517 204q256 0 440 -137l138 137l145 -145l-137 -137q137 -184 137 -439
q0 -313 -205 -517t-518 -204q-254 0 -438 138l-137 -138l-146 146l137 137q-137 184 -137 438z" />
    <glyph glyph-name="uni2206" unicode="&#x2206;" horiz-adv-x="1318" 
d="M334 221h637l-318 903zM4 0l522 1393h265l524 -1393h-1311z" />
    <glyph glyph-name="product" unicode="&#x220f;" horiz-adv-x="1699" 
d="M182 -379v1938h1334v-1938h-234v1725h-866v-1725h-234z" />
    <glyph glyph-name="summation" unicode="&#x2211;" horiz-adv-x="1312" 
d="M45 -379v195l662 774l-662 774v195h1225v-203h-926l655 -766l-655 -766h926v-203h-1225z" />
    <glyph glyph-name="minus" unicode="&#x2212;" horiz-adv-x="1277" 
d="M100 508v207h1078v-207h-1078z" />
    <glyph glyph-name="uni2215" unicode="&#x2215;" horiz-adv-x="886" 
d="M-27 -25l709 1442h231l-706 -1442h-234z" />
    <glyph glyph-name="uni2219" unicode="&#x2219;" horiz-adv-x="612" 
d="M170 469v264h272v-264h-272z" />
    <glyph glyph-name="radical" unicode="&#x221a;" horiz-adv-x="1224" 
d="M100 508v207h344l156 -408l455 1252h219l-578 -1559h-194l-199 508h-203z" />
    <glyph glyph-name="infinity" unicode="&#x221e;" horiz-adv-x="1810" 
d="M518 371q96 0 155 50q58 50 124 169q-68 127 -130 190q-63 64 -161 64t-150 -62t-51 -178q0 -233 213 -233zM1306 381q97 0 148 61t51 176q0 236 -213 236q-96 0 -154 -51t-124 -170q68 -125 131 -189q64 -63 161 -63zM498 172q-186 0 -295 118t-109 320t111 322
q111 119 301 119q146 0 242 -65t167 -179q74 117 167 180t231 64q186 0 295 -118q108 -118 108 -321q0 -204 -110 -322t-301 -118q-147 0 -242 65q-94 65 -168 179q-155 -244 -397 -244z" />
    <glyph glyph-name="integral" unicode="&#x222b;" horiz-adv-x="657" 
d="M160 -401q-82 0 -150 22v205q53 -20 125 -20q148 -1 148 219q0 150 -71 561q-71 410 -71 602q0 396 351 397q74 0 151 -22v-207q-51 22 -123 22q-148 -1 -149 -221q1 -143 71 -555t70 -607q0 -196 -85 -296t-267 -100z" />
    <glyph glyph-name="approxequal" unicode="&#x2248;" horiz-adv-x="1277" 
d="M866 176q-117 0 -253 90q-137 90 -199 90t-103 -32t-88 -113l-151 111q129 242 340 241q117 0 253 -90t198 -90t104 33q41 33 84 112l155 -110q-127 -242 -340 -242zM866 659q-117 1 -253 91q-137 90 -199 90t-103 -33t-88 -113l-151 111q129 242 340 242q117 0 266 -101
q123 -80 185 -80t104 33q41 33 84 113l155 -111q-127 -242 -340 -242z" />
    <glyph glyph-name="notequal" unicode="&#x2260;" horiz-adv-x="1277" 
d="M1178 764h-322l-199 -305h521v-207h-656l-137 -213h-231l137 213h-191v207h326l199 305h-525v207h658l137 211h231l-137 -211h189v-207z" />
    <glyph glyph-name="lessequal" unicode="&#x2264;" horiz-adv-x="1277" 
d="M100 0v207h1078v-207h-1078zM1178 297l-1078 383v188l1078 383v-219l-760 -258l760 -258v-219z" />
    <glyph glyph-name="greaterequal" unicode="&#x2265;" horiz-adv-x="1277" 
d="M100 0v207h1078v-207h-1078zM100 297v219l760 258l-760 258v219l1078 -383v-188z" />
    <glyph glyph-name="lozenge" unicode="&#x25ca;" horiz-adv-x="1277" 
d="M639 274l326 422l-326 422l-326 -422zM639 -66l-584 762l584 762l586 -762z" />
    <glyph glyph-name="uniF8FF" unicode="&#xf8ff;" horiz-adv-x="1353" 
d="M569 420q147 0 148 188v109h-101q-182 0 -182 -156q0 -65 36 -103t99 -38zM1038 612q0 -238 -130 -374t-341 -136t-338 125t-127 333t132 335t380 127h103v238h321v-238h271v-305h-271v-105z" />
    <glyph glyph-name="Iacute_J.loclNLD" horiz-adv-x="1556" 
d="M942 -25q-182 0 -309 74v227q135 -84 272 -84t192.5 65t55.5 216v920h248v-920q0 -264 -107.5 -381t-351.5 -117zM174 0v1393h248v-1393h-248zM1081 1526l262 319h259l-302 -319h-219zM104 1526l263 319h258l-301 -319h-220z" />
    <glyph glyph-name="iacute_j.loclNLD" horiz-adv-x="1095" 
d="M641 -403q-68 0 -115 12v194q37 -10 68 -10q109 0 108 125v1118h238v-1095q0 -184 -69.5 -264t-229.5 -80zM156 0v1036h237v-1036h-237zM629 1182l262 319h258l-301 -319h-219zM80 1182l262 319h258l-301 -319h-219z" />
    <glyph glyph-name="i.loclTRK" horiz-adv-x="548" 
d="M156 0v1036h237v-1036h-237zM147 1227v223h252v-223h-252z" />
    <glyph glyph-name="germandbls.calt" horiz-adv-x="1384" 
d="M856 -25q-145 0 -258 43v226q106 -53 223 -54q254 0 254 222q0 121 -78 176t-249 55h-89v170l283 365h-520v-1178h-248v1393h1065v-189l-289 -370q375 -59 375 -431q0 -428 -469 -428z" />
    <glyph glyph-name="zero.pf" horiz-adv-x="1347" 
d="M674 186q162 0 230 116t69 394q0 278 -69 395q-68 115 -230 115t-231 -116t-69 -394t70 -394q68 -116 230 -116zM674 -25q-287 0 -417 171t-130 550t130 550t417 171t418 -172t131 -549t-131 -549t-418 -172z" />
    <glyph glyph-name="one.pf" horiz-adv-x="1110" 
d="M225 0v209h287v926l-324 -174v221l379 211h189v-1184h286v-209h-817z" />
    <glyph glyph-name="two.pf" horiz-adv-x="1204" 
d="M1098 219v-219h-1022v190l469 402q174 150 233 230t60 169q0 215 -271 215q-242 0 -448 -176v240q189 147 459 147t390 -101t119 -306q-1 -154 -81 -271t-332 -319l-248 -201h672z" />
    <glyph glyph-name="three.pf" horiz-adv-x="1239" 
d="M569 -25q-315 0 -483 125v236q188 -150 463 -150q328 0 328 213q0 205 -299 205h-254v211h229q274 0 274 199q0 98 -66 145q-67 47 -208 47q-248 0 -424 -139v233q171 117 439 117t384 -92t117 -283q0 -236 -180 -311v-4q236 -76 235 -338q0 -414 -555 -414z" />
    <glyph glyph-name="four.pf" horiz-adv-x="1292" 
d="M348 524h455l8 559zM801 0v317h-731v195l741 881h233v-869h187v-207h-187v-317h-243z" />
    <glyph glyph-name="five.pf" horiz-adv-x="1212" 
d="M567 -25q-301 0 -448 115v234q168 -137 428 -138q336 0 336 244q0 123 -82 183q-83 61 -275 61t-372 -78v797h905v-217h-684v-328q117 35 254 35q502 0 501 -445q0 -463 -563 -463z" />
    <glyph glyph-name="six.pf" horiz-adv-x="1302" 
d="M678 186q131 0 201 67q69 67 69 187t-64 184q-65 62 -186 62q-221 0 -321 -199q33 -301 301 -301zM734 897q228 0 346 -114q116 -113 116 -335t-131 -348t-397 -125q-542 0 -541 684q0 758 651 758q217 0 332 -65v-224q-123 78 -315 78q-410 0 -422 -456q133 147 361 147
z" />
    <glyph glyph-name="seven.pf" horiz-adv-x="1142" 
d="M53 1174v219h1028v-191l-669 -1202h-285l670 1174h-744z" />
    <glyph glyph-name="eight.pf" horiz-adv-x="1347" 
d="M674 184q313 0 313 205q0 199 -313 223q-313 -25 -314 -223q1 -205 314 -205zM944 1018q0 190 -269 190t-269 -190q0 -180 268 -205q270 25 270 205zM1237 369q0 -394 -562 -394t-562 394q0 274 252 350v4q-199 80 -199 319q0 182 130 278t379 97q249 0 379 -96t130 -279
q0 -240 -199 -319v-4q252 -76 252 -350z" />
    <glyph glyph-name="nine.pf" horiz-adv-x="1302" 
d="M606 707q219 0 320 198q-33 301 -299 301q-133 0 -202 -66t-69 -188q0 -121 64 -183t186 -62zM524 -25q-215 0 -329 66v223q123 -78 315 -78q410 0 422 459q-134 -149 -362 -149t-345 114t-117 335q0 222 132 347q130 125 396 125q540 0 542 -684q-1 -758 -654 -758z" />
    <glyph glyph-name="zero.numr" 
d="M266 968q0 -158 37 -220t128 -62t127 62t36 220q0 159 -36 220t-128 61t-128 -61t-36 -220zM430 518q-194 0 -280 108t-86 342t86 342q88 108 280 108t280 -108q87 -108 87 -342t-87 -342t-280 -108z" />
    <glyph glyph-name="one.numr" 
d="M176 543v166h195v479l-224 -101v177l271 129h151v-684h197v-166h-590z" />
    <glyph glyph-name="two.numr" 
d="M80 543v151l311 240q92 70 124 112t32 91q0 113 -157 113t-284 -101v184q117 84 314 84q330 0 330 -258q0 -102 -54 -177t-200 -177l-129 -90h391v-172h-678z" />
    <glyph glyph-name="three.numr" 
d="M76 772q125 -86 312 -86t187 107q-1 53 -39 75t-133 23h-178v166h160q88 1 124 23t36 73q0 98 -161 97t-284 -74v176q116 66 302 66t263 -57q77 -56 77 -189t-109 -181v-4q145 -49 145 -209q1 -260 -372 -260q-211 0 -330 72v182z" />
    <glyph glyph-name="four.numr" 
d="M274 881h250l8 293zM522 543v178h-463v145l467 527h195v-512h115v-160h-115v-178h-199z" />
    <glyph glyph-name="five.numr" 
d="M408 518q-193 0 -302 66v172q131 -70 287 -70q195 0 195 119q0 63 -47 89t-173 26t-241 -37v510h614v-168h-438v-164q72 18 162 18q324 0 323 -272q1 -289 -380 -289z" />
    <glyph glyph-name="six.numr" 
d="M459 682q145 0 145 128t-131 128t-190 -96q12 -160 176 -160zM448 518q-364 0 -364 430q0 469 440 469q147 0 219 -41v-170q-84 43 -208 43q-248 0 -252 -239q86 86 227 86t216 -73t75 -212t-86 -216q-87 -77 -267 -77z" />
    <glyph glyph-name="seven.numr" 
d="M76 1221v172h708v-146l-426 -704h-231l420 678h-471z" />
    <glyph glyph-name="eight.numr" 
d="M430 682q172 0 172 101t-172 114q-172 -11 -172 -113t172 -102zM573 1159q0 94 -143 94t-143 -94q0 -88 143 -108q143 20 143 108zM803 762q0 -244 -374 -244t-374 244q0 172 166 219v4q-131 47 -131 197q0 236 339 236t339 -236q0 -150 -131 -197v-4q166 -47 166 -219z
" />
    <glyph glyph-name="nine.numr" 
d="M258 1125q0 -128 129 -128t191 95q-10 162 -175 161q-145 0 -145 -128zM338 518q-147 0 -219 41v170q80 -43 209 -43q246 0 250 240q-82 -86 -224 -86t-218 72q-75 72 -75 212q0 139 86 216q85 77 265 77q366 0 366 -430q0 -469 -440 -469z" />
    <glyph glyph-name="zero.dnom" 
d="M266 425q0 -159 37 -221t128 -61q91 -1 127 61t36 221t-36 220t-128 61t-128 -60q-36 -62 -36 -221zM430 -25q-194 0 -280 108q-86 109 -86 343t86 342q88 108 280 106q192 0 280 -108q87 -108 87 -341q0 -234 -87 -342t-280 -108z" />
    <glyph glyph-name="one.dnom" 
d="M176 0v166h195v479l-224 -100v176l271 129h151v-684h197v-166h-590z" />
    <glyph glyph-name="two.dnom" 
d="M80 0v152l311 239q92 70 124 112t32 91q0 113 -157 113t-284 -101v185q117 84 314 83q330 0 330 -258q0 -102 -54 -177t-200 -177l-129 -90h391v-172h-678z" />
    <glyph glyph-name="three.dnom" 
d="M76 229q127 -86 313 -86t186 107q0 53 -38 76q-39 23 -134 22h-178v166h160q88 0 124 23t36 73t-37 73q-37 24 -123 24q-162 0 -285 -74v176q116 65 302 65t263 -56t77 -189t-109 -180v-5q145 -49 145 -208q1 -261 -372 -261q-211 0 -330 72v182z" />
    <glyph glyph-name="four.dnom" 
d="M274 338h250l8 293zM522 0v178h-463v146l467 526h195v-512h115v-160h-115v-178h-199z" />
    <glyph glyph-name="five.dnom" 
d="M408 -25q-193 0 -302 66v172q131 -70 287 -70q195 0 195 119q0 63 -47 89t-173 26t-241 -37v510h614v-168h-438v-164q70 18 162 19q324 0 323 -273q1 -289 -380 -289z" />
    <glyph glyph-name="six.dnom" 
d="M459 139q145 0 145 128t-131 128t-190 -96q12 -160 176 -160zM448 -25q-364 0 -364 431q0 469 440 468q147 0 219 -40v-170q-84 43 -208 43q-248 0 -252 -240q86 86 227 86t216 -73t75 -212t-86 -216q-87 -77 -267 -77z" />
    <glyph glyph-name="seven.dnom" 
d="M76 678v172h708v-145l-426 -705h-231l420 678h-471z" />
    <glyph glyph-name="eight.dnom" 
d="M430 139q172 -1 172 101t-172 114q-172 -12 -172 -114t172 -101zM573 616q0 94 -143 94t-143 -94q0 -88 143 -108q143 20 143 108zM803 219q0 -244 -374 -244t-374 244q0 172 166 219v4q-131 47 -131 197q0 235 339 235t339 -235q0 -150 -131 -197v-4q166 -47 166 -219z
" />
    <glyph glyph-name="nine.dnom" 
d="M403 711q-145 0 -145 -128t129 -128t191 94q-10 162 -175 162zM338 -25q-147 0 -219 41v170q80 -43 209 -43q246 0 250 240q-82 -86 -224 -86t-218 73q-75 73 -75 212t86 216q85 76 265 76q366 -1 366 -430q0 -469 -440 -469z" />
    <glyph glyph-name="exclamdown.case" horiz-adv-x="661" 
d="M195 0l30 961h211l31 -961h-272zM199 1139v254h266v-254h-266z" />
    <glyph glyph-name="questiondown.case" horiz-adv-x="966" 
d="M487 -25q-434 0 -434 365q0 104 44 177t155 149l100 69q70 47 94 91t25 120v15h205v-39q0 -115 -34 -184t-116 -130l-94 -69q-80 -57 -108 -97t-29 -94q0 -172 218 -172t402 172v-235q-162 -138 -428 -138zM440 1139v254h267v-254h-267z" />
    <glyph glyph-name="at.case" horiz-adv-x="1619" 
d="M787 485q89 0 149 84v76q-66 8 -102 8q-135 0 -136 -90q0 -78 89 -78zM297 687q1 -568 547 -568q266 0 463 106v-196q-211 -86 -457 -86q-752 0 -752 739q0 372 190 570t542 198q350 0 523 -168t173 -491q0 -467 -344 -467q-156 0 -207 106q-91 -106 -223 -106
q-256 0 -256 225q0 238 292 237q80 0 148 -10q0 82 -36 115t-142 33t-205 -64v178q113 54 273 54t236 -69q75 -69 75 -228v-195q0 -100 67 -100q121 0 121 262t-120 387q-121 125 -377 125t-394 -148t-137 -439z" />
    <glyph glyph-name="parenleft.case" horiz-adv-x="690" 
d="M119 696q0 264 91 494t245 375h250q-353 -337 -353 -869t353 -868h-250q-154 144 -245 374t-91 494z" />
    <glyph glyph-name="parenright.case" horiz-adv-x="690" 
d="M338 696q0 532 -354 869h249q156 -143 247 -373t91 -496t-91 -495t-247 -373h-249q354 336 354 868z" />
    <glyph glyph-name="braceleft.case" horiz-adv-x="690" 
d="M512 -172q-162 0 -234 82t-73 264v283q0 90 -30 121t-118 30v176q88 0 118 31t30 121v285q0 180 73 262t234 82h137v-179h-78q-79 0 -111 -38t-32 -127v-271q0 -207 -137 -252v-4q137 -45 137 -250v-270q0 -92 32 -130t111 -38h78v-178h-137z" />
    <glyph glyph-name="braceright.case" horiz-adv-x="690" 
d="M41 -172v178h78q79 0 111 38t32 130v270q0 205 137 250v4q-137 45 -137 252v271q0 90 -32 128t-111 37h-78v179h137q162 0 235 -81t72 -263v-285q0 -90 30 -121t118 -31v-176q-88 0 -118 -30t-30 -121v-283q-1 -182 -73 -264t-234 -82h-137z" />
    <glyph glyph-name="bracketleft.case" horiz-adv-x="690" 
d="M188 -172v1737h461v-179h-237v-1380h237v-178h-461z" />
    <glyph glyph-name="bracketright.case" horiz-adv-x="690" 
d="M41 -172v178h238v1380h-238v179h461v-1737h-461z" />
    <glyph glyph-name="bar.case" horiz-adv-x="620" 
d="M207 -328v2048h207v-2048h-207z" />
    <glyph glyph-name="brokenbar.case" horiz-adv-x="620" 
d="M207 -328v820h207v-820h-207zM207 901v819h207v-819h-207z" />
    <glyph glyph-name="periodcentered.case" horiz-adv-x="612" 
d="M170 563v264h272v-264h-272z" />
    <glyph glyph-name="bullet.case" horiz-adv-x="1064" 
d="M313 477v441h439v-441h-439z" />
    <glyph glyph-name="hyphen.case" horiz-adv-x="776" 
d="M72 584v225h633v-225h-633z" />
    <glyph glyph-name="uni00AD.case" horiz-adv-x="776" 
d="M72 584v225h633v-225h-633z" />
    <glyph glyph-name="figuredash.case" horiz-adv-x="1275" 
d="M72 600v193h1132v-193h-1132z" />
    <glyph glyph-name="endash.case" horiz-adv-x="1064" 
d="M72 600v193h921v-193h-921z" />
    <glyph glyph-name="emdash.case" horiz-adv-x="1884" 
d="M72 600v193h1740v-193h-1740z" />
    <glyph glyph-name="guillemotleft.case" horiz-adv-x="976" 
d="M727 313l-256 383l256 383h227l-249 -383l249 -383h-227zM281 313l-256 383l256 383h227l-250 -383l250 -383h-227z" />
    <glyph glyph-name="guillemotright.case" horiz-adv-x="976" 
d="M471 313l250 383l-250 383h227l256 -383l-256 -383h-227zM25 313l249 383l-249 383h227l256 -383l-256 -383h-227z" />
    <glyph glyph-name="guilsinglleft.case" horiz-adv-x="530" 
d="M281 313l-256 383l256 383h227l-250 -383l250 -383h-227z" />
    <glyph glyph-name="guilsinglright.case" horiz-adv-x="530" 
d="M25 313l249 383l-249 383h227l256 -383l-256 -383h-227z" />
    <glyph glyph-name="caron.alt" horiz-adv-x="376" 
d="M49 1044l84 451h225l-145 -451h-164z" />
    <glyph glyph-name="ringacute" horiz-adv-x="1064" 
d="M532 1260q68 0 68 72t-68 73q-68 -1 -68 -73t68 -72zM531 1542q97 0 157 -58t62 -152q0 -94 -61 -152t-158 -58t-157 58t-61 151q1 95 61 153t157 58zM338 1604l262 319h258l-301 -319h-219z" />
    <glyph glyph-name="NULL" horiz-adv-x="0" 
 />
    </font>
</defs>
</svg>
