<?xml version="1.0" standalone="no"?>
<!DOCTYPE svg PUBLIC "-//W3C//DTD SVG 1.1//EN" "http://www.w3.org/Graphics/SVG/1.1/DTD/svg11.dtd" >
<svg xmlns="http://www.w3.org/2000/svg">
<metadata>
Created by FontPrep 20130207 at Thu Apr 28 12:36:32 2016
 By Devon
Copyright (c) 2014-2015 by Ryoichi Tsunekawa. All rights reserved.
</metadata>
<defs>
<font id="ea65036af5ad290328ecb472380b3dde" horiz-adv-x='1024' >
  <font-face 
    font-family="Siro-ExtraLight"
    font-weight="250"
    font-stretch="normal"
    units-per-em="2048"
    panose-1="2 11 3 4 2 2 4 3 2 4"
    ascent="1638"
    descent="-410"
    x-height="1014"
    cap-height="1393"
    bbox="-299 -465 2396 2159"
    underline-thickness="49"
    underline-position="-156"
    unicode-range="U+000D-FB02"
  />
<missing-glyph horiz-adv-x="1507" 
d="M313 55h881l-440 598zM1231 100v1192l-436 -596zM276 100l437 596l-437 596v-1192zM754 739l440 598h-881zM217 0v1393h1073v-1393h-1073z" />
    <glyph glyph-name="fi" unicode="fi" horiz-adv-x="1130" 
d="M868 0v1014h62v-1014h-62zM862 1278v115h74v-115h-74zM244 0v963h-215v51h215v200q0 160 68 233q69 73 220 73q70 0 132 -19v-55q-51 18 -123 18q-129 0 -183 -57t-53 -195v-198h340v-51h-340v-963h-61z" />
    <glyph glyph-name="fl" unicode="fl" horiz-adv-x="1130" 
d="M868 0v1495h62v-1495h-62zM244 0v963h-215v51h215v200q0 160 68 233q69 73 220 73q70 0 132 -19v-55q-51 18 -123 18q-129 0 -183 -57t-53 -195v-198h340v-51h-340v-963h-61z" />
    <glyph glyph-name=".notdef" horiz-adv-x="1507" 
d="M313 55h881l-440 598zM1231 100v1192l-436 -596zM276 100l437 596l-437 596v-1192zM754 739l440 598h-881zM217 0v1393h1073v-1393h-1073z" />
    <glyph glyph-name=".null" horiz-adv-x="0" 
 />
    <glyph glyph-name="nonmarkingreturn" horiz-adv-x="681" 
 />
    <glyph glyph-name="CR" unicode="&#xd;" horiz-adv-x="557" 
 />
    <glyph glyph-name="space" unicode=" " horiz-adv-x="557" 
 />
    <glyph glyph-name="exclam" unicode="!" horiz-adv-x="600" 
d="M252 0v113h96v-113h-96zM274 362l-8 1031h68l-8 -1031h-52z" />
    <glyph glyph-name="quotedbl" unicode="&#x22;" horiz-adv-x="774" 
d="M522 973l-22 420h86l-23 -420h-41zM211 973l-23 420h86l-22 -420h-41z" />
    <glyph glyph-name="numbersign" unicode="#" horiz-adv-x="1277" 
d="M383 449h434l82 516h-434zM90 395v54h232l81 516h-225v53h234l59 375h61l-59 -375h434l60 375h61l-59 -375h219v-53h-227l-82 -516h221v-54h-230l-63 -395h-62l64 395h-434l-62 -395h-63l63 395h-223z" />
    <glyph glyph-name="dollar" unicode="$" horiz-adv-x="1277" 
d="M1063 369q0 129 -77 197t-243 100l-81 16v-627q401 12 401 314zM231 1036q0 -109 67 -172t234 -96l72 -14v583q-373 -16 -373 -301zM604 -197v197q-289 4 -465 135v68q178 -141 465 -148v637l-86 17q-194 37 -270 113t-76 206q0 170 112 263t320 102v196h58v-196
q250 -4 403 -103v-65q-154 109 -403 112v-594l94 -18q206 -39 286 -125t80 -221q0 -362 -460 -379v-197h-58z" />
    <glyph glyph-name="percent" unicode="%" horiz-adv-x="1671" 
d="M1255 31q127 0 201 82t74 224t-74 224t-201 82t-201 -82t-73 -224q-1 -142 73 -224t201 -82zM1255 -25q-155 1 -245 99t-90 263t91 263t245 98t244 -98q91 -98 91 -263t-91 -263t-245 -99zM416 750q126 0 200 82t74 224t-74 224t-200 82t-201 -82q-74 -82 -74 -224
t74 -224t201 -82zM342 -25l920 1442h67l-919 -1442h-68zM416 694q-154 0 -245 98t-91 264q0 165 91 263t245 98t244 -98t92 -263q0 -166 -91 -264t-245 -98z" />
    <glyph glyph-name="ampersand" unicode="&#x26;" horiz-adv-x="1347" 
d="M594 31q287 0 426 170l-565 499q-145 -84 -204 -165q-58 -82 -58 -191q0 -313 401 -313zM864 1137q0 225 -286 225q-150 0 -230 -66t-80 -190q0 -84 44 -159t155 -177l135 72q147 78 205 142q57 65 57 153zM594 -25q-463 0 -463 367q0 125 65 217t216 180
q-111 103 -157 187t-46 180q0 147 95 229t267 82t263 -72q90 -73 90 -208q0 -100 -64 -176t-229 -166l-119 -64l541 -485q92 152 92 405h63q0 -283 -110 -444l229 -207h-82l-182 162q-158 -187 -469 -187z" />
    <glyph glyph-name="quotesingle" unicode="'" horiz-adv-x="503" 
d="M231 973l-22 420h86l-23 -420h-41z" />
    <glyph glyph-name="parenleft" unicode="(" horiz-adv-x="598" 
d="M139 626q0 270 93 503q93 232 253 366h74q-170 -135 -264 -361t-94 -507t94 -507t264 -362h-74q-160 134 -253 366t-93 502z" />
    <glyph glyph-name="parenright" unicode=")" horiz-adv-x="598" 
d="M397 627q0 281 -94 507t-264 361h74q160 -133 253 -365t93 -503t-93 -503t-253 -366h-74q170 136 264 362t94 507z" />
    <glyph glyph-name="asterisk" unicode="*" horiz-adv-x="802" 
d="M184 627l-45 32l223 306l-358 116l16 54l357 -121l-4 379h57l-4 -379l356 121l17 -54l-359 -116l224 -306l-46 -32l-217 307z" />
    <glyph glyph-name="plus" unicode="+" horiz-adv-x="1277" 
d="M608 98v484h-489v57h489v483h62v-483h489v-57h-489v-484h-62z" />
    <glyph glyph-name="comma" unicode="," horiz-adv-x="544" 
d="M223 0v113h99v-103l-93 -317h-47l76 307h-35z" />
    <glyph glyph-name="hyphen" unicode="-" horiz-adv-x="731" 
d="M72 561v62h587v-62h-587z" />
    <glyph glyph-name="period" unicode="." horiz-adv-x="544" 
d="M223 0v113h99v-113h-99z" />
    <glyph glyph-name="slash" unicode="/" horiz-adv-x="782" 
d="M27 -287l641 1782h63l-641 -1782h-63z" />
    <glyph glyph-name="zero" unicode="0" horiz-adv-x="1277" 
d="M639 31q233 -1 342 159t109 506t-109 506t-342 160t-342 -160t-109 -506t109 -506t342 -159zM639 -25q-264 1 -388 175t-124 546t124 547q124 174 388 174t388 -174t124 -547t-124 -547t-388 -174z" />
    <glyph glyph-name="one" unicode="1" horiz-adv-x="1277" 
d="M350 0v55h332v1272l-369 -205v60l379 211h51v-1338h332v-55h-725z" />
    <glyph glyph-name="two" unicode="2" horiz-adv-x="1277" 
d="M131 0v53l502 416q229 188 311 306t82 255q0 332 -381 332q-289 0 -471 -195v76q180 174 471 174q215 0 327 -100t111 -291q0 -152 -91 -283t-337 -331l-432 -355h875v-57h-967z" />
    <glyph glyph-name="three" unicode="3" horiz-adv-x="1277" 
d="M602 -25q-332 0 -465 152v76q135 -172 467 -172q223 0 338 88t115 258q0 313 -393 313h-287v55h256q371 0 371 306q0 311 -373 311q-279 0 -447 -162v72q168 145 449 145q430 0 430 -366q0 -262 -225 -326v-2q281 -59 280 -350q0 -398 -516 -398z" />
    <glyph glyph-name="four" unicode="4" horiz-adv-x="1277" 
d="M948 422v885l-778 -885h778zM948 0v367h-852v53l858 973h56v-971h207v-55h-207v-367h-62z" />
    <glyph glyph-name="five" unicode="5" horiz-adv-x="1277" 
d="M1126 426q0 -451 -538 -451q-276 0 -414 142v76q143 -162 438 -162q223 0 338 100t115 295t-116 294t-334 99t-400 -96v670h842v-56h-785v-530q164 68 351 67q243 0 373 -114t130 -334z" />
    <glyph glyph-name="six" unicode="6" horiz-adv-x="1277" 
d="M680 31q200 -1 308 107t108 299t-98 291t-272 101q-173 1 -303 -79t-204 -232q43 -487 461 -487zM678 -25q-526 0 -526 687q0 372 150 564t441 191q219 0 336 -86v-67q-123 98 -336 98q-262 0 -396 -176t-134 -520v-56q170 274 502 275q211 0 327 -116t115 -332
q0 -216 -126 -339t-353 -123z" />
    <glyph glyph-name="seven" unicode="7" horiz-adv-x="1277" 
d="M150 1337v56h989v-64l-766 -1329h-72l778 1337h-929z" />
    <glyph glyph-name="eight" unicode="8" horiz-adv-x="1277" 
d="M639 31q469 0 469 323q0 158 -115 240t-354 94q-241 -12 -355 -94t-114 -238q0 -325 469 -325zM1053 1053q1 153 -105 231t-309 78t-308 -79t-106 -230q0 -287 414 -312q414 25 414 312zM639 -25q-258 -1 -394 95t-136 278q0 152 92 248t260 121v2q-139 23 -217 111
t-78 229q0 174 122 266t351 92t351 -92t122 -266q0 -139 -78 -229t-217 -111v-2q168 -25 260 -121t92 -248q0 -182 -136 -278t-394 -95z" />
    <glyph glyph-name="nine" unicode="9" horiz-adv-x="1277" 
d="M182 955q0 -191 98 -291t272 -101q173 0 303 80t204 231q-43 487 -461 488q-200 0 -308 -108t-108 -299zM535 -25q-219 0 -336 86v68q123 -98 336 -98q262 0 396 176t134 520v55q-170 -274 -502 -274q-211 0 -327 116t-115 332q0 216 126 338q126 123 353 123
q526 0 526 -686q0 -371 -150 -563t-441 -193z" />
    <glyph glyph-name="colon" unicode=":" horiz-adv-x="544" 
d="M223 0v113h99v-113h-99zM223 860v113h99v-113h-99z" />
    <glyph glyph-name="semicolon" unicode=";" horiz-adv-x="544" 
d="M223 0v113h99v-103l-93 -317h-47l76 307h-35zM223 860v113h99v-113h-99z" />
    <glyph glyph-name="less" unicode="&#x3c;" horiz-adv-x="1277" 
d="M1159 119l-1040 467v49l1040 467v-62l-962 -430l962 -430v-61z" />
    <glyph glyph-name="equal" unicode="=" horiz-adv-x="1277" 
d="M119 340v57h1040v-57h-1040zM119 823v58h1040v-58h-1040z" />
    <glyph glyph-name="greater" unicode="&#x3e;" horiz-adv-x="1277" 
d="M119 119v61l962 430l-962 430v62l1040 -467v-49z" />
    <glyph glyph-name="question" unicode="?" horiz-adv-x="909" 
d="M305 0v113h94v-113h-94zM326 362v21q0 119 32 183t127 134l117 86q102 76 141 138t39 153q0 285 -311 285q-260 0 -405 -188v75q145 168 405 168q181 0 277 -87t96 -253q0 -102 -43 -172t-160 -157l-119 -91q-88 -67 -116 -119t-27 -155v-21h-53z" />
    <glyph glyph-name="at" unicode="@" horiz-adv-x="1628" 
d="M768 262q166 0 285 156v164q-100 24 -225 24q-126 0 -186 -43t-60 -133q0 -168 186 -168zM856 -160q-360 0 -544 186t-185 558q0 372 185 568t540 196q655 0 655 -676q-1 -221 -71 -343t-210 -122t-165 145q-119 -145 -301 -145q-117 0 -179 59t-63 166q0 229 313 230
q117 0 222 -21v57q1 130 -55 188t-194 58t-235 -76v64q102 68 255 68t223 -70q70 -68 69 -221v-283q0 -164 119 -164q101 0 157 104t56 298q0 629 -600 628q-324 0 -492 -181t-168 -527q0 -688 668 -688q272 0 463 110v-61q-193 -105 -463 -105z" />
    <glyph glyph-name="A" unicode="A" horiz-adv-x="1294" 
d="M287 465h719l-361 866zM27 0l581 1393h78l582 -1393h-68l-170 406h-768l-170 -406h-65z" />
    <glyph glyph-name="B" unicode="B" horiz-adv-x="1345" 
d="M287 59h479q227 0 320 69q94 69 94 240q0 170 -94 240t-320 70h-479v-619zM287 737h428q223 0 315 68q92 67 92 229t-92 231t-315 68h-428v-596zM223 0v1393h500q247 0 355 -84t108 -271q0 -258 -221 -321v-2q147 -27 213 -111t65 -237q1 -197 -109 -282t-360 -85h-551z
" />
    <glyph glyph-name="C" unicode="C" horiz-adv-x="1179" 
d="M741 -25q-612 0 -612 721t612 721q213 0 351 -86v-74q-127 100 -349 101q-281 0 -415.5 -162t-134.5 -499t136 -499.5t419 -162.5q217 0 344 100v-74q-138 -86 -351 -86z" />
    <glyph glyph-name="D" unicode="D" horiz-adv-x="1382" 
d="M287 59h336q305 0 436 147.5t131 489.5t-131 489.5t-436 147.5h-336v-1274zM223 0v1393h410q326 0 473 -166t147 -530.5t-147.5 -530.5t-472.5 -166h-410z" />
    <glyph glyph-name="E" unicode="E" horiz-adv-x="1282" 
d="M223 0v1393h955v-60h-891v-594h778v-59h-778v-621h903v-59h-967z" />
    <glyph glyph-name="F" unicode="F" horiz-adv-x="1153" 
d="M223 0v1393h889v-60h-825v-594h751v-59h-751v-680h-64z" />
    <glyph glyph-name="G" unicode="G" horiz-adv-x="1320" 
d="M766 -25q-315 0 -476 181.5t-161 538.5t164 539.5t485 182.5q221 0 371 -86v-74q-137 100 -367 101q-590 0 -590 -662t576 -661q217 0 362 100v547h-389v59h451v-630q-166 -136 -426 -136z" />
    <glyph glyph-name="H" unicode="H" horiz-adv-x="1505" 
d="M223 0v1393h64v-654h932v654h63v-1393h-63v680h-932v-680h-64z" />
    <glyph glyph-name="I" unicode="I" horiz-adv-x="509" 
d="M223 0v1393h64v-1393h-64z" />
    <glyph glyph-name="J" unicode="J" horiz-adv-x="929" 
d="M731 416q1 -441 -373 -441q-186 0 -319 88v68q127 -96 302 -96t251 90t76 297v971h63v-977z" />
    <glyph glyph-name="K" unicode="K" horiz-adv-x="1288" 
d="M223 0v1393h64v-836l868 836h86l-590 -568l600 -825h-77l-568 782l-319 -309v-473h-64z" />
    <glyph glyph-name="L" unicode="L" horiz-adv-x="1118" 
d="M223 0v1393h64v-1334h807v-59h-871z" />
    <glyph glyph-name="M" unicode="M" horiz-adv-x="1824" 
d="M223 0v1393h78l610 -1311l611 1311h80v-1393h-64v1286l-598 -1286h-57l-598 1282v-1282h-62z" />
    <glyph glyph-name="N" unicode="N" horiz-adv-x="1505" 
d="M223 0v1393h82l916 -1280v1280h61v-1393h-57l-940 1317v-1317h-62z" />
    <glyph glyph-name="O" unicode="O" horiz-adv-x="1445" 
d="M723 35q274 0 402 159.5t128 501.5t-128 502t-402 160t-402 -160t-128 -502t128 -501.5t402 -159.5zM723 -25q-303 0 -448.5 177.5t-145.5 544t145.5 543.5t448.5 177t448.5 -177t145.5 -543.5t-145.5 -544t-448.5 -177.5z" />
    <glyph glyph-name="P" unicode="P" horiz-adv-x="1277" 
d="M287 670h491q195 0 284 80t89 252t-89 251q-89 80 -284 80h-491v-663zM223 0v1393h563q220 -1 324 -97t104 -295t-104 -295t-324 -96h-499v-610h-64z" />
    <glyph glyph-name="Q" unicode="Q" horiz-adv-x="1445" 
d="M193 696q0 -342 128 -501.5t402 -159.5t402 159.5t128 501.5t-128 502t-402 160t-402 -160t-128 -502zM1317 696q0 -451 -221 -616l221 -268h-78l-195 235q-131 -72 -321 -72q-303 0 -448.5 177.5t-145.5 544t145.5 543.5t448.5 177t448.5 -177t145.5 -544z" />
    <glyph glyph-name="R" unicode="R" horiz-adv-x="1329" 
d="M287 694h477q193 0 281 77t88 243t-88.5 242.5t-280.5 76.5h-477v-639zM772 1393q424 0 424 -379q0 -178 -90 -271.5t-277 -105.5l449 -637h-78l-448 635h-465v-635h-64v1393h549z" />
    <glyph glyph-name="S" unicode="S" horiz-adv-x="1118" 
d="M555 -25q-313 0 -465 140v71q162 -152 469 -151q422 0 422 325q0 123 -76 192t-264 114l-156 36q-203 47 -283.5 126t-80.5 212q0 180 120.5 278.5t358.5 98.5t377 -104v-70q-139 115 -395 115q-188 0 -294 -82t-106 -232q0 -115 73 -176t249 -104l155 -37
q205 -49 294 -132t89 -235q0 -193 -127 -289t-360 -96z" />
    <glyph glyph-name="T" unicode="T" horiz-adv-x="1116" 
d="M526 0v1333h-501v60h1067v-60h-502v-1333h-64z" />
    <glyph glyph-name="U" unicode="U" horiz-adv-x="1415" 
d="M708 -25q-263 0 -386 128t-123 403v887h63v-887q0 -250 105.5 -360.5t341 -110.5t341 110.5t105.5 360.5v887h62v-887q0 -274 -123 -402.5t-386 -128.5z" />
    <glyph glyph-name="V" unicode="V" horiz-adv-x="1200" 
d="M565 0l-538 1393h67l508 -1311l506 1311h66l-539 -1393h-70z" />
    <glyph glyph-name="W" unicode="W" horiz-adv-x="1841" 
d="M457 0l-426 1393h67l396 -1293l391 1293h73l392 -1293l395 1293h65l-426 -1393h-67l-395 1309l-398 -1309h-67z" />
    <glyph glyph-name="X" unicode="X" horiz-adv-x="1239" 
d="M59 0l519 709l-506 684h78l475 -641l469 641h73l-505 -693l518 -700h-78l-488 659l-481 -659h-74z" />
    <glyph glyph-name="Y" unicode="Y" horiz-adv-x="1116" 
d="M526 0v612l-536 781h78l491 -717l494 717h73l-536 -781v-612h-64z" />
    <glyph glyph-name="Z" unicode="Z" horiz-adv-x="1130" 
d="M82 0v53l895 1280h-866v60h946v-54l-895 -1280h905v-59h-985z" />
    <glyph glyph-name="bracketleft" unicode="[" horiz-adv-x="598" 
d="M233 -242v1737h324v-49h-264v-1639h264v-49h-324z" />
    <glyph glyph-name="backslash" unicode="\" horiz-adv-x="782" 
d="M692 -287l-641 1782h64l641 -1782h-64z" />
    <glyph glyph-name="bracketright" unicode="]" horiz-adv-x="598" 
d="M41 -242v49h264v1639h-264v49h324v-1737h-324z" />
    <glyph glyph-name="asciicircum" unicode="^" horiz-adv-x="1277" 
d="M92 682l514 711h66l514 -711h-76l-471 651l-471 -651h-76z" />
    <glyph glyph-name="underscore" unicode="_" horiz-adv-x="1064" 
d="M0 -217v53h1065v-53h-1065z" />
    <glyph glyph-name="grave" unicode="`" horiz-adv-x="1064" 
d="M582 1210l-242 273h74l233 -273h-65z" />
    <glyph glyph-name="a" unicode="a" horiz-adv-x="1099" 
d="M442 31q246 0 420 221v248q-162 29 -332 28q-358 0 -358 -254q0 -119 69.5 -181t200.5 -62zM438 -25q-156 0 -241.5 78t-85.5 221q0 309 424 310q168 0 327 -27v80q0 184 -80 265t-270 81t-334 -100v63q141 92 349 92t302.5 -93t94.5 -296v-649h-56l-4 176
q-174 -201 -426 -201z" />
    <glyph glyph-name="b" unicode="b" horiz-adv-x="1196" 
d="M631 31q375 0 375 477q0 233 -92 354t-269 121q-223 0 -383 -192v-588q148 -172 369 -172zM638 1038q214 0 322 -137t107 -394q1 -257 -109 -395t-324 -137q-214 0 -376 158l-6 -133h-51v1495h61v-629q162 172 376 172z" />
    <glyph glyph-name="c" unicode="c" horiz-adv-x="976" 
d="M623 -25q-242 0 -368 137.5t-126 397.5t122 394t359 134q180 0 285 -65v-62q-113 72 -279 72q-426 0 -426 -476t431 -476q168 0 274 71v-61q-102 -66 -272 -66z" />
    <glyph glyph-name="d" unicode="d" horiz-adv-x="1196" 
d="M551 31q223 0 383 192v588q-147 172 -369 172q-375 0 -375 -477q0 -233 92 -354t269 -121zM558 -25q-214 -1 -322 137t-107 395q0 257 110 394q111 137 323 137t372 -153v610h61v-1495h-55l-4 150q-164 -175 -378 -175z" />
    <glyph glyph-name="e" unicode="e" horiz-adv-x="1132" 
d="M963 563v2q0 211 -90.5 314.5t-276.5 103.5q-380 0 -403 -420h770zM635 -25q-506 0 -506 529q0 264 118 399t337 135q436 0 436 -458q0 -35 -6 -74h-824v-8q0 -467 443 -467q190 0 328 90v-66q-129 -80 -326 -80z" />
    <glyph glyph-name="f" unicode="f" horiz-adv-x="667" 
d="M244 0v963h-215v51h215v200q0 160 68 233q69 73 220 73q70 0 132 -19v-55q-51 18 -123 18q-129 0 -183 -57t-53 -195v-198h340v-51h-340v-963h-61z" />
    <glyph glyph-name="g" unicode="g" horiz-adv-x="1196" 
d="M551 47q223 0 383 193v571q-147 172 -369 172q-184 0 -279.5 -120t-95.5 -348t91.5 -348t269.5 -120zM561.5 -403q-217.5 0 -352.5 73v64q135 -82 337 -82t295 98t93 316v98q-164 -172 -377 -172t-320.5 135t-107.5 388t109.5 388t323.5 135t376 -157l6 133h51v-946
q0 -246 -108 -358.5t-325.5 -112.5z" />
    <glyph glyph-name="h" unicode="h" horiz-adv-x="1183" 
d="M201 0v1495h61v-635q178 178 397 178q344 0 345 -409v-629h-62v621q0 188 -70.5 275t-222.5 87q-221 0 -387 -197v-786h-61z" />
    <glyph glyph-name="i" unicode="i" horiz-adv-x="462" 
d="M201 0v1014h61v-1014h-61zM195 1278v115h73v-115h-73z" />
    <glyph glyph-name="j" unicode="j" horiz-adv-x="462" 
d="M70 -403q-43 0 -74 8v55q31 -8 67 -8q137 0 138 147v1215h61v-1215q1 -202 -192 -202zM195 1278v115h73v-115h-73z" />
    <glyph glyph-name="k" unicode="k" horiz-adv-x="1075" 
d="M201 0v1495h61v-1081l664 600h84l-453 -410l463 -604h-76l-432 565l-250 -227v-338h-61z" />
    <glyph glyph-name="l" unicode="l" horiz-adv-x="462" 
d="M201 0v1495h61v-1495h-61z" />
    <glyph glyph-name="m" unicode="m" horiz-adv-x="1794" 
d="M201 0v1014h55l4 -150q150 174 362 174t283 -174q152 174 373 174q164 0 250 -93t86 -273v-672h-62v662q0 322 -280 321q-197 0 -348 -178q14 -55 14 -133v-672h-61v662q0 322 -267 321q-201 0 -348 -197v-786h-61z" />
    <glyph glyph-name="n" unicode="n" horiz-adv-x="1183" 
d="M201 0v1014h55l4 -156q180 180 399 180q344 0 345 -409v-629h-62v621q0 188 -70.5 275t-222.5 87q-221 0 -387 -197v-786h-61z" />
    <glyph glyph-name="o" unicode="o" horiz-adv-x="1196" 
d="M598 31q408 0 408 476t-408 476t-408 -476t408 -476zM598 -25q-231 0 -350 135.5t-119 396.5t119 396t350 135t350 -135t119 -396t-119 -396.5t-350 -135.5z" />
    <glyph glyph-name="p" unicode="p" horiz-adv-x="1196" 
d="M631 31q375 0 375 477q0 233 -92 354t-269 121q-223 0 -383 -192v-588q148 -172 369 -172zM201 -379v1393h55l4 -150q164 174 378 174t322 -137t107 -394q0 -257 -110 -394q-111 -137 -323 -137t-372 153v-508h-61z" />
    <glyph glyph-name="q" unicode="q" horiz-adv-x="1196" 
d="M551 31q223 0 383 192v588q-147 172 -369 172q-375 0 -375 -477q0 -233 92 -354t269 -121zM934 -379v526q-164 -172 -377 -172q-213 -1 -321 137t-107 395q0 257 110 394q109 137 323 137t376 -157l6 133h51v-1393h-61z" />
    <glyph glyph-name="r" unicode="r" horiz-adv-x="716" 
d="M201 0v1014h55l4 -160q145 184 361 184q39 0 71 -6v-57q-31 6 -69 6q-219 0 -361 -201v-780h-61z" />
    <glyph glyph-name="s" unicode="s" horiz-adv-x="962" 
d="M479 -25q-252 0 -383 101v67q133 -113 387 -112q338 0 338 235q0 90 -57 136.5t-197 72.5l-155 29q-152 29 -218.5 85t-66.5 179t99.5 196.5t294 73.5t315.5 -73v-68q-122 86 -302 86q-346 0 -346 -227q0 -78 52.5 -122t189.5 -69l156 -28q154 -29 224.5 -92.5
t70.5 -178.5q-1 -291 -402 -291z" />
    <glyph glyph-name="t" unicode="t" horiz-adv-x="694" 
d="M494 -25q-131 0 -190.5 60.5t-59.5 193.5v734h-215v51h217l10 305h49v-305h340v-51h-340v-727q0 -111 44 -158q45 -47 137 -47t159 28v-59q-71 -25 -151 -25z" />
    <glyph glyph-name="u" unicode="u" horiz-adv-x="1193" 
d="M528 -25q-348 0 -348 410v629h62v-621q0 -188 71.5 -275t225.5 -87q225 0 393 200v783h61v-1014h-55l-4 160q-179 -185 -406 -185z" />
    <glyph glyph-name="v" unicode="v" horiz-adv-x="970" 
d="M453 0l-410 1014h66l378 -936l377 936h64l-410 -1014h-65z" />
    <glyph glyph-name="w" unicode="w" horiz-adv-x="1550" 
d="M391 0l-348 1014h66l319 -930l317 930h62l317 -930l320 930h63l-348 -1014h-65l-318 934l-319 -934h-66z" />
    <glyph glyph-name="x" unicode="x" horiz-adv-x="995" 
d="M55 0l402 518l-389 496h75l359 -457l354 457h72l-389 -504l401 -510h-76l-370 473l-367 -473h-72z" />
    <glyph glyph-name="y" unicode="y" horiz-adv-x="958" 
d="M190 -403q-45 0 -75 12v55q31 -12 84 -12t95 40t95.5 169t53 147t-8.5 37l-391 969h66l374 -926l371 926h61l-487 -1213q-45 -111 -98.5 -157.5t-139.5 -46.5z" />
    <glyph glyph-name="z" unicode="z" horiz-adv-x="948" 
d="M90 0v49l686 909h-657v56h735v-49l-686 -910h696v-55h-774z" />
    <glyph glyph-name="braceleft" unicode="{" horiz-adv-x="598" 
d="M479 -242q-129 0 -188 74t-60 231v371q0 96 -35 132q-36 36 -135 36v49q98 0 135 36q36 36 35 132v371q-1 158 59 232t189 73h78v-49h-78q-98 0 -143 -62t-45 -194v-361q0 -176 -115 -200v-4q115 -25 115 -201v-361q0 -133 45 -194t143 -62h78v-49h-78z" />
    <glyph glyph-name="bar" unicode="|" horiz-adv-x="536" 
d="M240 -465v2048h57v-2048h-57z" />
    <glyph glyph-name="braceright" unicode="}" horiz-adv-x="598" 
d="M41 -242v49h78q98 -1 143 61t45 195v361q0 176 115 201v4q-115 25 -115 200v361q0 133 -45 194t-143 62h-78v49h78q129 0 188 -74t60 -231v-371q-1 -96 35 -132t135 -36v-49q-99 0 -135 -36t-35 -132v-371q1 -157 -59 -231t-189 -74h-78z" />
    <glyph glyph-name="asciitilde" unicode="~" horiz-adv-x="1277" 
d="M887 469q-49 0 -101 19q-52 18 -82 38q-28 20 -81 60q-147 111 -240 110q-139 0 -227 -157l-45 28q100 184 280 185q115 0 260 -114t244 -114q139 0 227 158l45 -29q-100 -184 -280 -184z" />
    <glyph glyph-name="uni00A0" unicode="&#xa0;" horiz-adv-x="557" 
 />
    <glyph glyph-name="exclamdown" unicode="&#xa1;" horiz-adv-x="600" 
d="M266 -379l8 1030h52l8 -1030h-68zM252 901v113h96v-113h-96z" />
    <glyph glyph-name="cent" unicode="&#xa2;" horiz-adv-x="1277" 
d="M690 223v946q-227 -16 -336 -132q-108 -116 -108 -339t108 -340t336 -135zM690 -41v207q-506 38 -506 532t506 527v209h58v-207h18q197 0 330 -64v-61q-145 70 -328 69h-20v-952h36q197 0 326 72v-62q-150 -66 -338 -65h-24v-205h-58z" />
    <glyph glyph-name="sterling" unicode="&#xa3;" horiz-adv-x="1277" 
d="M182 0v53q129 90 178 163q50 73 50 174t-64 255h-229v55h207q-63 166 -64 297q0 205 121 313t369 108t383 -115v-68q-139 127 -400 127q-410 0 -409 -358q0 -123 69 -304h645v-55h-624q55 -156 55 -255t-44 -172t-159 -161h887v-57h-971z" />
    <glyph glyph-name="currency" unicode="&#xa4;" horiz-adv-x="1277" 
d="M639 362q143 0 237 94t95 240q0 146 -94 240q-93 94 -237 94t-238 -94t-95 -240q1 -146 95 -240t237 -94zM246 696q0 148 90 254l-250 252l43 43l248 -252q109 92 263 92t261 -92l248 252l43 -43l-250 -252q90 -106 90 -254t-90 -254l250 -252l-43 -43l-248 252
q-109 -92 -263 -92t-261 92l-248 -252l-43 43l250 252q-90 106 -90 254z" />
    <glyph glyph-name="yen" unicode="&#xa5;" horiz-adv-x="1277" 
d="M608 0v319h-428v56h428v264h-428v55h418l-502 699h76l467 -658l469 658h74l-502 -699h418v-55h-428v-264h428v-56h-428v-319h-62z" />
    <glyph glyph-name="brokenbar" unicode="&#xa6;" horiz-adv-x="536" 
d="M240 -465v819h57v-819h-57zM240 764v819h57v-819h-57z" />
    <glyph glyph-name="section" unicode="&#xa7;" horiz-adv-x="1064" 
d="M922 489q0 223 -295 277l-189 35q-20 2 -47 10q-229 -68 -229 -276q0 -106 69 -168q70 -61 215 -91l189 -34q55 -11 88 -21q199 74 199 268zM522 -403q-268 0 -422 108v70q158 -123 424 -123q379 0 379 276q0 106 -64 166q-65 59 -214 86l-189 35q-334 61 -334 313
q0 217 205 308q-186 72 -186 260q0 156 106 238q105 82 317 83q212 0 353 -80v-67q-139 92 -337 92q-380 0 -380 -264q0 -102 62 -156t207 -80l188 -35q344 -63 344 -329q0 -211 -186 -303q166 -76 166 -265q-1 -333 -439 -333z" />
    <glyph glyph-name="dieresis" unicode="&#xa8;" horiz-adv-x="1064" 
d="M647 1278v115h76v-115h-76zM342 1278v115h76v-115h-76z" />
    <glyph glyph-name="copyright" unicode="&#xa9;" horiz-adv-x="1683" 
d="M862 299q-369 0 -368 397q0 397 366 398q123 0 211 -47v-62q-88 53 -205 53q-311 0 -311 -342q0 -174 77 -258t217 -84t222 54v-62q-82 -47 -209 -47zM842 31q293 0 473 183t180 482q0 298 -180 482t-473 184t-473 -183q-181 -183 -181 -483t180 -482q180 -183 474 -183z
M842 -25q-322 0 -518 199q-196 198 -197 522q0 324 197 523q196 199 518 199t518 -200q196 -198 196 -522t-196 -522t-518 -199z" />
    <glyph glyph-name="ordfeminine" unicode="&#xaa;" horiz-adv-x="878" 
d="M350 657q193 0 334 160v191q-141 20 -270 20q-281 0 -281 -190q0 -88 56 -135q57 -46 161 -46zM338 602q-129 0 -197 60t-67 172q0 248 338 247q141 0 272 -18v49q0 130 -66 190t-219 60t-270 -78v66q123 68 290 68t247 -72t79 -224v-495h-53l-4 123q-141 -148 -350 -148
z" />
    <glyph glyph-name="guillemotleft" unicode="&#xab;" horiz-adv-x="804" 
d="M680 133l-268 373l268 373h70l-267 -373l267 -373h-70zM324 133l-269 373l269 373h69l-266 -373l266 -373h-69z" />
    <glyph glyph-name="logicalnot" unicode="&#xac;" horiz-adv-x="1277" 
d="M1098 289v483h-979v57h1040v-540h-61z" />
    <glyph glyph-name="uni00AD" unicode="&#xad;" horiz-adv-x="731" 
d="M72 561v62h587v-62h-587z" />
    <glyph glyph-name="registered" unicode="&#xae;" horiz-adv-x="1683" 
d="M635 696h250q98 0 141 39t43 121t-43 121t-141 39h-250v-320zM573 322v749h314q244 0 243 -215q0 -190 -186 -211l234 -323h-72l-232 319h-239v-319h-62zM842 31q293 0 473 183t180 482q0 298 -180 482t-473 184t-473 -183q-181 -183 -181 -483t180 -482
q180 -183 474 -183zM842 -25q-322 0 -518 199q-196 198 -197 522q0 324 197 523q196 199 518 199t518 -200q196 -198 196 -522t-196 -522t-518 -199z" />
    <glyph glyph-name="macron" unicode="&#xaf;" horiz-adv-x="1064" 
d="M315 1309v53h435v-53h-435z" />
    <glyph glyph-name="degree" unicode="&#xb0;" horiz-adv-x="733" 
d="M367 944q102 0 169 69t66 173q0 104 -66 173q-67 69 -169 69t-169 -70q-67 -68 -67 -172t67 -173t169 -69zM367 891q-125 0 -210 85t-85 210t85 210t210 85t210 -85t85 -210t-85 -210t-210 -85z" />
    <glyph glyph-name="plusminus" unicode="&#xb1;" horiz-adv-x="1277" 
d="M119 0v57h1040v-57h-1040zM608 193v473h-489v57h489v483h62v-483h489v-57h-489v-473h-62z" />
    <glyph glyph-name="uni00B2" unicode="&#xb2;" 
d="M94 850v47l320 250q139 109 188 177t49 151q0 195 -227 194q-182 0 -303 -115v68q121 102 307 102q285 0 285 -247q-1 -94 -57 -173t-214 -202l-249 -197h528v-55h-627z" />
    <glyph glyph-name="uni00B3" unicode="&#xb3;" 
d="M406 825q-217 0 -314 90v68q98 -102 314 -102q276 0 276 196q0 182 -250 183h-184v53h166q231 0 231 178t-229 178q-170 0 -295 -94v63q115 86 301 86q285 0 285 -229q0 -158 -140 -201v-2q176 -41 176 -219q1 -248 -337 -248z" />
    <glyph glyph-name="acute" unicode="&#xb4;" horiz-adv-x="1064" 
d="M418 1210l233 273h74l-242 -273h-65z" />
    <glyph glyph-name="uni00B5" unicode="&#xb5;" horiz-adv-x="1206" 
d="M201 -379v1393h61v-621q0 -188 70 -275t221 -87q223 0 391 200v783h62v-1014h-56l-4 160q-176 -184 -395 -184t-289 159v-514h-61z" />
    <glyph glyph-name="paragraph" unicode="&#xb6;" horiz-adv-x="1187" 
d="M500 -379v981q-414 0 -414 395t414 396h444v-1772h-61v1716h-322v-1716h-61z" />
    <glyph glyph-name="periodcentered" unicode="&#xb7;" horiz-adv-x="544" 
d="M223 537v112h99v-112h-99z" />
    <glyph glyph-name="cedilla" unicode="&#xb8;" horiz-adv-x="1064" 
d="M492 -403q-106 0 -181 32v54q80 -39 181 -39q147 0 147 86q0 43 -38 60t-136 17h-45l90 213h57l-69 -170h16q182 0 182 -122q1 -131 -204 -131z" />
    <glyph glyph-name="uni00B9" unicode="&#xb9;" 
d="M213 850v55h238v729l-267 -123v60l277 129h51v-795h238v-55h-537z" />
    <glyph glyph-name="ordmasculine" unicode="&#xba;" horiz-adv-x="937" 
d="M469 657q322 1 322 353t-322 352t-322 -352t322 -353zM469 602q-187 0 -285 104t-98 304q0 199 97 303t285 104t286 -104t98 -303q0 -200 -98 -304t-285 -104z" />
    <glyph glyph-name="guillemotright" unicode="&#xbb;" horiz-adv-x="804" 
d="M412 133l266 373l-266 373h69l269 -373l-269 -373h-69zM55 133l267 373l-267 373h70l268 -373l-268 -373h-70z" />
    <glyph glyph-name="onequarter" unicode="&#xbc;" horiz-adv-x="1945" 
d="M1708 266v500l-463 -500h463zM1708 0v211h-543v51l547 588h57v-584h134v-55h-134v-211h-61zM213 543v55h238v729l-267 -123v60l277 129h51v-795h238v-55h-537zM672 -25l768 1442h63l-768 -1442h-63z" />
    <glyph glyph-name="onehalf" unicode="&#xbd;" horiz-adv-x="1945" 
d="M1184 0v47l319 250q139 109 189 176q49 68 49 152q0 195 -228 194q-182 0 -303 -114v67q121 102 308 102q285 0 284 -247q0 -94 -56 -173t-214 -202l-250 -197h528v-55h-626zM213 543v55h238v729l-267 -123v60l277 129h51v-795h238v-55h-537zM557 -25l768 1442h64
l-768 -1442h-64z" />
    <glyph glyph-name="threequarters" unicode="&#xbe;" horiz-adv-x="1945" 
d="M1708 266v500l-463 -500h463zM1708 0v211h-543v51l547 588h57v-584h134v-55h-134v-211h-61zM672 -25l768 1442h63l-768 -1442h-63zM406 518q-217 0 -314 90v68q98 -102 314 -103q276 0 276 197q0 182 -250 182h-184v54h166q231 0 231 178t-229 178q-170 0 -295 -94v63
q115 86 301 86q285 0 285 -229q0 -158 -140 -201v-2q176 -41 176 -219q1 -248 -337 -248z" />
    <glyph glyph-name="questiondown" unicode="&#xbf;" horiz-adv-x="909" 
d="M438 -403q-180 0 -276 87t-96 253q0 102 43 172t159 157l119 90q88 66 116 119t27 156v20h54v-20q0 -119 -33 -184t-127 -134l-117 -86q-102 -76 -141 -138t-39 -152q0 -285 311 -285q260 0 406 188v-76q-146 -167 -406 -167zM510 901v113h94v-113h-94z" />
    <glyph glyph-name="Agrave" unicode="&#xc0;" horiz-adv-x="1294" 
d="M287 465h719l-361 866zM27 0l581 1393h78l582 -1393h-68l-170 406h-768l-170 -406h-65zM696 1565l-241 272h73l234 -272h-66z" />
    <glyph glyph-name="Aacute" unicode="&#xc1;" horiz-adv-x="1294" 
d="M287 465h719l-361 866zM27 0l581 1393h78l582 -1393h-68l-170 406h-768l-170 -406h-65zM532 1565l234 272h74l-242 -272h-66z" />
    <glyph glyph-name="Acircumflex" unicode="&#xc2;" horiz-adv-x="1294" 
d="M287 465h719l-361 866zM27 0l581 1393h78l582 -1393h-68l-170 406h-768l-170 -406h-65zM387 1565l234 272h53l233 -272h-65l-195 219l-194 -219h-66z" />
    <glyph glyph-name="Atilde" unicode="&#xc3;" horiz-adv-x="1294" 
d="M287 465h719l-361 866zM27 0l581 1393h78l582 -1393h-68l-170 406h-768l-170 -406h-65zM756 1677q72 0 114 95v-80q-49 -70 -118 -70q-45 0 -112.5 40t-100.5 40q-72 0 -115 -94v80q49 70 119 69q45 0 112 -40t101 -40z" />
    <glyph glyph-name="Adieresis" unicode="&#xc4;" horiz-adv-x="1294" 
d="M287 465h719l-361 866zM27 0l581 1393h78l582 -1393h-68l-170 406h-768l-170 -406h-65zM762 1632v115h76v-115h-76zM457 1632v115h75v-115h-75z" />
    <glyph glyph-name="Aring" unicode="&#xc5;" horiz-adv-x="1294" 
d="M287 465h719l-361 866zM27 0l581 1393h78l582 -1393h-68l-170 406h-768l-170 -406h-65zM647 1608q45 0 74 29.5t29 74.5t-29 75t-74 30t-73.5 -30t-28.5 -75t28.5 -74.5t73.5 -29.5zM647.5 1556q-67.5 0 -113 44.5t-45.5 112t45.5 111.5t113 44t112.5 -44t45 -111.5
t-45 -112t-112.5 -44.5z" />
    <glyph glyph-name="AE" unicode="&#xc6;" horiz-adv-x="1929" 
d="M936 465v856l-565 -856h565zM1825 1393v-60h-826v-594h713v-59h-713v-621h838v-59h-901v406h-606l-271 -406h-69l928 1393h907z" />
    <glyph glyph-name="Ccedilla" unicode="&#xc7;" horiz-adv-x="1179" 
d="M743 1358q-281 0 -415.5 -162t-134.5 -499t136 -499.5t419 -162.5q217 0 344 100v-74q-137 -86 -351 -86h-14l-51 -125h16q182 0 182 -122q0 -131 -204 -131q-106 0 -181 32v54q80 -39 181 -39q147 0 147 86q0 43 -38 60t-136 17h-45l72 170q-541 39 -541 719
q0 721 612 721q213 0 351 -86v-74q-128 101 -349 101z" />
    <glyph glyph-name="Egrave" unicode="&#xc8;" horiz-adv-x="1282" 
d="M223 0v1393h955v-60h-891v-594h778v-59h-778v-621h903v-59h-967zM750 1565l-242 272h74l233 -272h-65z" />
    <glyph glyph-name="Eacute" unicode="&#xc9;" horiz-adv-x="1282" 
d="M223 0v1393h955v-60h-891v-594h778v-59h-778v-621h903v-59h-967zM586 1565l233 272h74l-242 -272h-65z" />
    <glyph glyph-name="Ecircumflex" unicode="&#xca;" horiz-adv-x="1282" 
d="M223 0v1393h955v-60h-891v-594h778v-59h-778v-621h903v-59h-967zM440 1565l234 272h53l234 -272h-66l-195 219l-194 -219h-66z" />
    <glyph glyph-name="Edieresis" unicode="&#xcb;" horiz-adv-x="1282" 
d="M223 0v1393h955v-60h-891v-594h778v-59h-778v-621h903v-59h-967zM815 1632v115h76v-115h-76zM510 1632v115h76v-115h-76z" />
    <glyph glyph-name="Igrave" unicode="&#xcc;" horiz-adv-x="509" 
d="M223 0v1393h64v-1393h-64zM305 1565l-242 272h74l234 -272h-66z" />
    <glyph glyph-name="Iacute" unicode="&#xcd;" horiz-adv-x="509" 
d="M223 0v1393h64v-1393h-64zM141 1565l234 272h74l-242 -272h-66z" />
    <glyph glyph-name="Icircumflex" unicode="&#xce;" horiz-adv-x="509" 
d="M223 0v1393h64v-1393h-64zM16 1565l211 272h58l211 -272h-62l-178 223l-178 -223h-62z" />
    <glyph glyph-name="Idieresis" unicode="&#xcf;" horiz-adv-x="509" 
d="M223 0v1393h64v-1393h-64zM360 1632v115h76v-115h-76zM76 1632v115h76v-115h-76z" />
    <glyph glyph-name="Eth" unicode="&#xd0;" horiz-adv-x="1400" 
d="M641 59q305 0 436 147.5t131 489.5t-131 489.5t-436 147.5h-336v-594h459v-59h-459v-621h336zM651 1393q326 0 473.5 -166t147.5 -530.5t-147.5 -530.5t-473.5 -166h-409v680h-162v59h162v654h409z" />
    <glyph glyph-name="Ntilde" unicode="&#xd1;" horiz-adv-x="1505" 
d="M223 0v1393h82l916 -1280v1280h61v-1393h-57l-940 1317v-1317h-62zM860 1677q72 0 115 95v-80q-49 -70 -119 -70q-45 0 -112.5 40t-100.5 40q-72 0 -115 -94v80q49 70 119 69q45 0 112.5 -40t100.5 -40z" />
    <glyph glyph-name="Ograve" unicode="&#xd2;" horiz-adv-x="1445" 
d="M723 35q274 0 402 159.5t128 501.5t-128 502t-402 160t-402 -160t-128 -502t128 -501.5t402 -159.5zM723 -25q-303 0 -448.5 177.5t-145.5 544t145.5 543.5t448.5 177t448.5 -177t145.5 -543.5t-145.5 -544t-448.5 -177.5zM772 1565l-242 272h74l234 -272h-66z" />
    <glyph glyph-name="Oacute" unicode="&#xd3;" horiz-adv-x="1445" 
d="M723 35q274 0 402 159.5t128 501.5t-128 502t-402 160t-402 -160t-128 -502t128 -501.5t402 -159.5zM723 -25q-303 0 -448.5 177.5t-145.5 544t145.5 543.5t448.5 177t448.5 -177t145.5 -543.5t-145.5 -544t-448.5 -177.5zM608 1565l234 272h73l-241 -272h-66z" />
    <glyph glyph-name="Ocircumflex" unicode="&#xd4;" horiz-adv-x="1445" 
d="M723 35q274 0 402 159.5t128 501.5t-128 502t-402 160t-402 -160t-128 -502t128 -501.5t402 -159.5zM723 -25q-303 0 -448.5 177.5t-145.5 544t145.5 543.5t448.5 177t448.5 -177t145.5 -543.5t-145.5 -544t-448.5 -177.5zM463 1565l233 272h54l233 -272h-65l-195 219
l-195 -219h-65z" />
    <glyph glyph-name="Otilde" unicode="&#xd5;" horiz-adv-x="1445" 
d="M723 35q274 0 402 159.5t128 501.5t-128 502t-402 160t-402 -160t-128 -502t128 -501.5t402 -159.5zM723 -25q-303 0 -448.5 177.5t-145.5 544t145.5 543.5t448.5 177t448.5 -177t145.5 -543.5t-145.5 -544t-448.5 -177.5zM831 1677q72 0 115 95v-80q-49 -70 -119 -70
q-45 0 -112 40t-101 40q-71 0 -114 -94v80q49 70 118 69q45 0 112.5 -40t100.5 -40z" />
    <glyph glyph-name="Odieresis" unicode="&#xd6;" horiz-adv-x="1445" 
d="M723 35q274 0 402 159.5t128 501.5t-128 502t-402 160t-402 -160t-128 -502t128 -501.5t402 -159.5zM723 -25q-303 0 -448.5 177.5t-145.5 544t145.5 543.5t448.5 177t448.5 -177t145.5 -543.5t-145.5 -544t-448.5 -177.5zM838 1632v115h75v-115h-75zM532 1632v115h76
v-115h-76z" />
    <glyph glyph-name="multiply" unicode="&#xd7;" horiz-adv-x="1277" 
d="M215 147l-39 39l424 424l-424 424l39 39l424 -424l424 424l39 -39l-424 -424l424 -424l-39 -39l-424 424z" />
    <glyph glyph-name="Oslash" unicode="&#xd8;" horiz-adv-x="1445" 
d="M1253 690q0 336 -116 494l-789 -1022q129 -127 389 -127t388 159.5t128 495.5zM193 702q0 -336 116 -493l789 1022q-129 127 -389 127t-388 -160t-128 -496zM129 700q1 718 577 717q286 0 429 -137l106 137h76l-141 -182q141 -178 141 -542q-1 -718 -577 -718
q-286 0 -429 138l-106 -138h-76l141 183q-141 178 -141 542z" />
    <glyph glyph-name="Ugrave" unicode="&#xd9;" horiz-adv-x="1415" 
d="M708 -25q-263 0 -386 128t-123 403v887h63v-887q0 -250 105.5 -360.5t341 -110.5t341 110.5t105.5 360.5v887h62v-887q0 -274 -123 -402.5t-386 -128.5zM758 1565l-242 272h74l233 -272h-65z" />
    <glyph glyph-name="Uacute" unicode="&#xda;" horiz-adv-x="1415" 
d="M708 -25q-263 0 -386 128t-123 403v887h63v-887q0 -250 105.5 -360.5t341 -110.5t341 110.5t105.5 360.5v887h62v-887q0 -274 -123 -402.5t-386 -128.5zM594 1565l233 272h74l-242 -272h-65z" />
    <glyph glyph-name="Ucircumflex" unicode="&#xdb;" horiz-adv-x="1415" 
d="M708 -25q-263 0 -386 128t-123 403v887h63v-887q0 -250 105.5 -360.5t341 -110.5t341 110.5t105.5 360.5v887h62v-887q0 -274 -123 -402.5t-386 -128.5zM449 1565l233 272h53l234 -272h-66l-194 219l-195 -219h-65z" />
    <glyph glyph-name="Udieresis" unicode="&#xdc;" horiz-adv-x="1415" 
d="M708 -25q-263 0 -386 128t-123 403v887h63v-887q0 -250 105.5 -360.5t341 -110.5t341 110.5t105.5 360.5v887h62v-887q0 -274 -123 -402.5t-386 -128.5zM823 1632v115h76v-115h-76zM518 1632v115h76v-115h-76z" />
    <glyph glyph-name="Yacute" unicode="&#xdd;" horiz-adv-x="1116" 
d="M526 0v612l-536 781h78l491 -717l494 717h73l-536 -781v-612h-64zM444 1565l234 272h74l-242 -272h-66z" />
    <glyph glyph-name="Thorn" unicode="&#xde;" horiz-adv-x="1277" 
d="M287 403h491q195 0 284 80t89 252t-89 252t-284 80h-491v-664zM223 0v1393h64v-267h499q220 0 324 -96t104 -295t-104 -295t-324 -96h-499v-344h-64z" />
    <glyph glyph-name="germandbls" unicode="&#xdf;" horiz-adv-x="1198" 
d="M662 -25q-162 0 -256 62v65q102 -72 272 -72t261 96q91 95 91 275q0 393 -440 394h-105v55h64q358 0 358 321q0 293 -319 293q-174 0 -250 -87t-76 -287v-1090h-61v1092q0 223 92 325t293 103q381 0 381 -349q0 -260 -224 -335v-5q348 -59 349 -430q0 -209 -108 -317
t-322 -109z" />
    <glyph glyph-name="agrave" unicode="&#xe0;" horiz-adv-x="1099" 
d="M442 31q246 0 420 221v248q-162 29 -332 28q-358 0 -358 -254q0 -119 69.5 -181t200.5 -62zM438 -25q-156 0 -241.5 78t-85.5 221q0 309 424 310q168 0 327 -27v80q0 184 -80 265t-270 81t-334 -100v63q141 92 349 92t302.5 -93t94.5 -296v-649h-56l-4 176
q-174 -201 -426 -201zM590 1210l-242 273h74l233 -273h-65z" />
    <glyph glyph-name="aacute" unicode="&#xe1;" horiz-adv-x="1099" 
d="M442 31q246 0 420 221v248q-162 29 -332 28q-358 0 -358 -254q0 -119 69.5 -181t200.5 -62zM438 -25q-156 0 -241.5 78t-85.5 221q0 309 424 310q168 0 327 -27v80q0 184 -80 265t-270 81t-334 -100v63q141 92 349 92t302.5 -93t94.5 -296v-649h-56l-4 176
q-174 -201 -426 -201zM426 1210l233 273h74l-241 -273h-66z" />
    <glyph glyph-name="acircumflex" unicode="&#xe2;" horiz-adv-x="1099" 
d="M442 31q246 0 420 221v248q-162 29 -332 28q-358 0 -358 -254q0 -119 69.5 -181t200.5 -62zM438 -25q-156 0 -241.5 78t-85.5 221q0 309 424 310q168 0 327 -27v80q0 184 -80 265t-270 81t-334 -100v63q141 92 349 92t302.5 -93t94.5 -296v-649h-56l-4 176
q-174 -201 -426 -201zM281 1210l233 273h53l234 -273h-66l-194 220l-195 -220h-65z" />
    <glyph glyph-name="atilde" unicode="&#xe3;" horiz-adv-x="1099" 
d="M442 31q246 0 420 221v248q-162 29 -332 28q-358 0 -358 -254q0 -119 69.5 -181t200.5 -62zM438 -25q-156 0 -241.5 78t-85.5 221q0 309 424 310q168 0 327 -27v80q0 184 -80 265t-269.5 81t-334.5 -100v63q141 92 349 92t302.5 -93t94.5 -296v-649h-56l-4 176
q-174 -201 -426 -201zM436 1403q45 0 112.5 -40t100.5 -40q72 0 115 94v-80q-49 -70 -119 -69q-45 0 -112.5 40t-100.5 40q-72 -1 -115 -95v80q49 70 119 70z" />
    <glyph glyph-name="adieresis" unicode="&#xe4;" horiz-adv-x="1099" 
d="M442 31q246 0 420 221v248q-162 29 -332 28q-358 0 -358 -254q0 -119 69.5 -181t200.5 -62zM438 -25q-156 0 -241.5 78t-85.5 221q0 309 424 310q168 0 327 -27v80q0 184 -80 265t-270 81t-334 -100v63q141 92 349 92t302.5 -93t94.5 -296v-649h-56l-4 176
q-174 -201 -426 -201zM655 1278v115h76v-115h-76zM350 1278v115h76v-115h-76z" />
    <glyph glyph-name="aring" unicode="&#xe5;" horiz-adv-x="1099" 
d="M442 31q246 0 420 221v248q-162 29 -332 28q-358 0 -358 -254q0 -119 69.5 -181t200.5 -62zM438 -25q-156 0 -241.5 78t-85.5 221q0 309 424 310q168 0 327 -27v80q0 184 -80 265t-270 81t-334 -100v63q141 92 349 92t302.5 -93t94.5 -296v-649h-56l-4 176
q-174 -201 -426 -201zM541 1253q45 0 73.5 30t28.5 75t-28.5 74.5t-73.5 29.5t-74 -29.5t-29 -74.5t29 -75t74 -30zM540.5 1202q-67.5 0 -112.5 44t-45 111.5t45 111.5t112.5 44t112.5 -44t45 -111.5t-45 -111.5t-112.5 -44z" />
    <glyph glyph-name="ae" unicode="&#xe6;" horiz-adv-x="1863" 
d="M455 31q264 0 434 258q-27 100 -27 211q-162 29 -332 28q-358 0 -358 -254q0 -243 283 -243zM1694 563v2q0 211 -90.5 314.5t-276.5 103.5q-380 0 -403 -420h770zM451 -25q-166 0 -253 78t-87 221q0 309 424 310q168 0 327 -27v80q0 184 -80 265t-269.5 81t-334.5 -100
v63q141 92 332.5 92t283 -66.5t111.5 -209.5q96 276 422 276q209 0 316.5 -116.5t107.5 -341.5q0 -35 -6 -74h-823v-8q0 -467 442 -467q190 0 328 90v-66q-129 -80 -324 -80q-348 0 -455 248q-186 -248 -462 -248z" />
    <glyph glyph-name="ccedilla" unicode="&#xe7;" horiz-adv-x="976" 
d="M549 -20q-420 41 -420 540q0 250 122 384t359 134q180 0 285 -65v-62q-113 72 -279 72q-426 0 -426 -476t431 -476q168 0 274 71v-61q-102 -66 -272 -66h-17l-51 -125h16q182 0 183 -122q0 -131 -205 -131q-106 0 -180 32v54q80 -39 180 -39q147 0 147 86q0 43 -37.5 60
t-136.5 17h-45z" />
    <glyph glyph-name="egrave" unicode="&#xe8;" horiz-adv-x="1132" 
d="M963 563v2q0 211 -90.5 314.5t-276.5 103.5q-380 0 -403 -420h770zM635 -25q-506 0 -506 529q0 264 118 399t337 135q436 0 436 -458q0 -35 -6 -74h-824v-8q0 -467 443 -467q190 0 328 90v-66q-129 -80 -326 -80zM635 1210l-242 273h74l233 -273h-65z" />
    <glyph glyph-name="eacute" unicode="&#xe9;" horiz-adv-x="1132" 
d="M963 563v2q0 211 -90.5 314.5t-276.5 103.5q-380 0 -403 -420h770zM635 -25q-506 0 -506 529q0 264 118 399t337 135q436 0 436 -458q0 -35 -6 -74h-824v-8q0 -467 443 -467q190 0 328 90v-66q-129 -80 -326 -80zM471 1210l234 273h73l-241 -273h-66z" />
    <glyph glyph-name="ecircumflex" unicode="&#xea;" horiz-adv-x="1132" 
d="M963 563v2q0 211 -90.5 314.5t-276.5 103.5q-380 0 -403 -420h770zM635 -25q-506 0 -506 529q0 264 118 399t337 135q436 0 436 -458q0 -35 -6 -74h-824v-8q0 -467 443 -467q190 0 328 90v-66q-129 -80 -326 -80zM326 1210l233 273h53l234 -273h-66l-194 220l-195 -220
h-65z" />
    <glyph glyph-name="edieresis" unicode="&#xeb;" horiz-adv-x="1132" 
d="M963 563v2q0 211 -90.5 314.5t-276.5 103.5q-380 0 -403 -420h770zM635 -25q-506 0 -506 529q0 264 118 399t337 135q436 0 436 -458q0 -35 -6 -74h-824v-8q0 -467 443 -467q190 0 328 90v-66q-129 -80 -326 -80zM700 1278v115h76v-115h-76zM395 1278v115h76v-115h-76z
" />
    <glyph glyph-name="igrave" unicode="&#xec;" horiz-adv-x="462" 
d="M201 0v1014h61v-1014h-61zM281 1210l-242 273h74l233 -273h-65z" />
    <glyph glyph-name="iacute" unicode="&#xed;" horiz-adv-x="462" 
d="M201 0v1014h61v-1014h-61zM117 1210l233 273h74l-242 -273h-65z" />
    <glyph glyph-name="icircumflex" unicode="&#xee;" horiz-adv-x="462" 
d="M201 0v1014h61v-1014h-61zM-8 1210l211 273h57l211 -273h-61l-179 224l-178 -224h-61z" />
    <glyph glyph-name="idieresis" unicode="&#xef;" horiz-adv-x="462" 
d="M201 0v1014h61v-1014h-61zM336 1278v115h76v-115h-76zM51 1278v115h76v-115h-76z" />
    <glyph glyph-name="eth" unicode="&#xf0;" horiz-adv-x="1155" 
d="M557 901q-182 1 -278 -111q-97 -112 -97 -323t100 -323t288 -113q188 0 291 120t104 338q0 125 -33 236q-139 176 -375 176zM1026 487q0 -240 -120 -376t-336 -136t-332 128q-116 127 -117 363q0 236 111 363q112 127 317 127t348 -129q-88 213 -289 400l-317 -144
l-21 52l293 131q-135 119 -338 229h103q170 -98 290 -205l224 101l20 -52l-198 -88q362 -342 362 -764z" />
    <glyph glyph-name="ntilde" unicode="&#xf1;" horiz-adv-x="1183" 
d="M201 0v1014h55l4 -156q180 180 399 180q344 0 345 -409v-629h-62v621q0 188 -70.5 275t-222.5 87q-221 0 -387 -197v-786h-61zM487 1403q45 0 112.5 -40t100.5 -40q72 0 115 94v-80q-49 -70 -119 -69q-45 0 -112 40t-101 40q-71 -1 -114 -95v80q49 70 118 70z" />
    <glyph glyph-name="ograve" unicode="&#xf2;" horiz-adv-x="1196" 
d="M598 31q408 0 408 476t-408 476t-408 -476t408 -476zM598 -25q-231 0 -350 135.5t-119 396.5t119 396t350 135t350 -135t119 -396t-119 -396.5t-350 -135.5zM647 1210l-241 273h73l234 -273h-66z" />
    <glyph glyph-name="oacute" unicode="&#xf3;" horiz-adv-x="1196" 
d="M598 31q408 0 408 476t-408 476t-408 -476t408 -476zM598 -25q-231 0 -350 135.5t-119 396.5t119 396t350 135t350 -135t119 -396t-119 -396.5t-350 -135.5zM483 1210l234 273h74l-242 -273h-66z" />
    <glyph glyph-name="ocircumflex" unicode="&#xf4;" horiz-adv-x="1196" 
d="M598 31q408 0 408 476t-408 476t-408 -476t408 -476zM598 -25q-231 0 -350 135.5t-119 396.5t119 396t350 135t350 -135t119 -396t-119 -396.5t-350 -135.5zM338 1210l233 273h54l233 -273h-65l-195 220l-195 -220h-65z" />
    <glyph glyph-name="otilde" unicode="&#xf5;" horiz-adv-x="1196" 
d="M598 31q408 0 408 476t-408 476t-408 -476t408 -476zM598 -25q-231 0 -350 135.5t-119 396.5t119 396t350 135t350 -135t119 -396t-119 -396.5t-350 -135.5zM494 1403q45 0 112 -40t101 -40q72 0 114 94v-80q-49 -70 -119 -69q-45 0 -112 40t-101 40q-71 -1 -114 -95v80
q49 70 119 70z" />
    <glyph glyph-name="odieresis" unicode="&#xf6;" horiz-adv-x="1196" 
d="M598 31q408 0 408 476t-408 476t-408 -476t408 -476zM598 -25q-231 0 -350 135.5t-119 396.5t119 396t350 135t350 -135t119 -396t-119 -396.5t-350 -135.5zM713 1278v115h75v-115h-75zM408 1278v115h75v-115h-75z" />
    <glyph glyph-name="divide" unicode="&#xf7;" horiz-adv-x="1277" 
d="M602 145v93h74v-93h-74zM119 582v57h1040v-57h-1040zM602 983v92h74v-92h-74z" />
    <glyph glyph-name="oslash" unicode="&#xf8;" horiz-adv-x="1196" 
d="M598 31q408 0 408 475q0 227 -93 344l-591 -729q100 -90 276 -90zM598 983q-408 0 -408 -477q0 -227 93 -344l594 731q-103 90 -279 90zM1067 505q0 -259 -119 -394.5t-335 -135.5t-328 101l-82 -101h-72l113 140q-115 133 -115 393t119 395t333 135t332 -100l82 100h72
l-115 -141q115 -133 115 -392z" />
    <glyph glyph-name="ugrave" unicode="&#xf9;" horiz-adv-x="1193" 
d="M528 -25q-348 0 -348 410v629h62v-621q0 -188 71.5 -275t225.5 -87q225 0 393 200v783h61v-1014h-55l-4 160q-179 -185 -406 -185zM637 1210l-242 273h74l233 -273h-65z" />
    <glyph glyph-name="uacute" unicode="&#xfa;" horiz-adv-x="1193" 
d="M528 -25q-348 0 -348 410v629h62v-621q0 -188 71.5 -275t225.5 -87q225 0 393 200v783h61v-1014h-55l-4 160q-179 -185 -406 -185zM473 1210l234 273h73l-241 -273h-66z" />
    <glyph glyph-name="ucircumflex" unicode="&#xfb;" horiz-adv-x="1193" 
d="M528 -25q-348 0 -348 410v629h62v-621q0 -188 71.5 -275t225.5 -87q225 0 393 200v783h61v-1014h-55l-4 160q-179 -185 -406 -185zM328 1210l233 273h53l234 -273h-66l-194 220l-195 -220h-65z" />
    <glyph glyph-name="udieresis" unicode="&#xfc;" horiz-adv-x="1193" 
d="M528 -25q-348 0 -348 410v629h62v-621q0 -188 71.5 -275t225.5 -87q225 0 393 200v783h61v-1014h-55l-4 160q-179 -185 -406 -185zM702 1278v115h76v-115h-76zM397 1278v115h76v-115h-76z" />
    <glyph glyph-name="yacute" unicode="&#xfd;" horiz-adv-x="958" 
d="M190 -403q-45 0 -75 12v55q31 -12 84 -12t95 40t95.5 169t53 147t-8.5 37l-391 969h66l374 -926l371 926h61l-487 -1213q-45 -111 -98.5 -157.5t-139.5 -46.5zM365 1210l233 273h74l-242 -273h-65z" />
    <glyph glyph-name="thorn" unicode="&#xfe;" horiz-adv-x="1196" 
d="M631 31q375 0 375 477q0 233 -92 354t-269 121q-223 0 -383 -192v-588q148 -172 369 -172zM201 -379v1874h61v-629q162 172 376 172t322 -137t107 -394q0 -257 -110 -394q-111 -137 -323 -137t-372 153v-508h-61z" />
    <glyph glyph-name="ydieresis" unicode="&#xff;" horiz-adv-x="958" 
d="M190 -403q-45 0 -75 12v55q31 -12 84 -12t95 40t95.5 169t53 147t-8.5 37l-391 969h66l374 -926l371 926h61l-487 -1213q-45 -111 -98.5 -157.5t-139.5 -46.5zM594 1278v115h76v-115h-76zM289 1278v115h76v-115h-76z" />
    <glyph glyph-name="Amacron" unicode="&#x100;" horiz-adv-x="1294" 
d="M287 465h719l-361 866zM27 0l581 1393h78l582 -1393h-68l-170 406h-768l-170 -406h-65zM430 1663v53h434v-53h-434z" />
    <glyph glyph-name="amacron" unicode="&#x101;" horiz-adv-x="1099" 
d="M442 31q246 0 420 221v248q-162 29 -332 28q-358 0 -358 -254q0 -119 69.5 -181t200.5 -62zM438 -25q-156 0 -241.5 78t-85.5 221q0 309 424 310q168 0 327 -27v80q0 184 -80 265t-270 81t-334 -100v63q141 92 349 92t302.5 -93t94.5 -296v-649h-56l-4 176
q-174 -201 -426 -201zM324 1309v53h434v-53h-434z" />
    <glyph glyph-name="Abreve" unicode="&#x102;" horiz-adv-x="1294" 
d="M287 465h719l-361 866zM27 0l581 1393h78l582 -1393h-68l-170 406h-768l-170 -406h-65zM647 1577q-96 0 -158.5 57.5t-76.5 159.5h55q27 -160 179 -160t181 160h56q-14 -102 -77 -159.5t-159 -57.5z" />
    <glyph glyph-name="abreve" unicode="&#x103;" horiz-adv-x="1099" 
d="M442 31q246 0 420 221v248q-162 29 -332 28q-358 0 -358 -254q0 -119 69.5 -181t200.5 -62zM438 -25q-156 0 -241.5 78t-85.5 221q0 309 424 310q168 0 327 -27v80q0 184 -80 265t-270 81t-334 -100v63q141 92 349 92t302.5 -93t94.5 -296v-649h-56l-4 176
q-174 -201 -426 -201zM540.5 1223q-96.5 0 -159 57t-76.5 160h55q29 -160 180.5 -160t180.5 160h55q-14 -102 -76.5 -159.5t-159 -57.5z" />
    <glyph glyph-name="Aogonek" unicode="&#x104;" horiz-adv-x="1294" 
d="M287 465h719l-361 866zM1155 -354q55 0 107 32v-55q-51 -27 -119 -26.5t-111 39t-43 110.5q0 137 205 266l-164 394h-768l-170 -406h-65l581 1393h78l582 -1393h-6q-217 -127 -218 -250q0 -104 111 -104z" />
    <glyph glyph-name="aogonek" unicode="&#x105;" horiz-adv-x="1099" 
d="M172 274q0 -119 69.5 -181t200.5 -62q246 0 420 221v248q-162 29 -332 28q-358 0 -358 -254zM527 1038q208 0 302.5 -93t94.5 -296v-649h-6q-217 -127 -218 -250q0 -104 111 -104q55 0 107 32v-55q-51 -27 -119 -26.5t-111 39t-43 111.5t52.5 138.5t170.5 139.5l-4 151
q-174 -201 -426 -201q-156 0 -241.5 78t-85.5 221q0 309 424 310q168 0 327 -27v80q0 184 -80 265t-269.5 81t-334.5 -100v63q141 92 349 92z" />
    <glyph glyph-name="Cacute" unicode="&#x106;" horiz-adv-x="1179" 
d="M741 -25q-612 0 -612 721t612 721q213 0 351 -86v-74q-127 100 -349 101q-281 0 -415.5 -162t-134.5 -499t136 -499.5t419 -162.5q217 0 344 100v-74q-138 -86 -351 -86zM575 1565l234 272h74l-242 -272h-66z" />
    <glyph glyph-name="cacute" unicode="&#x107;" horiz-adv-x="976" 
d="M623 -25q-242 0 -368 137.5t-126 397.5t122 394t359 134q180 0 285 -65v-62q-113 72 -279 72q-426 0 -426 -476t431 -476q168 0 274 71v-61q-102 -66 -272 -66zM465 1210l233 273h74l-242 -273h-65z" />
    <glyph glyph-name="Ccircumflex" unicode="&#x108;" horiz-adv-x="1179" 
d="M741 -25q-612 0 -612 721t612 721q213 0 351 -86v-74q-127 100 -349 101q-281 0 -415.5 -162t-134.5 -499t136 -499.5t419 -162.5q217 0 344 100v-74q-138 -86 -351 -86zM430 1565l234 272h53l233 -272h-65l-195 219l-194 -219h-66z" />
    <glyph glyph-name="ccircumflex" unicode="&#x109;" horiz-adv-x="976" 
d="M623 -25q-242 0 -368 137.5t-126 397.5t122 394t359 134q180 0 285 -65v-62q-113 72 -279 72q-426 0 -426 -476t431 -476q168 0 274 71v-61q-102 -66 -272 -66zM319 1210l234 273h53l234 -273h-66l-194 220l-195 -220h-66z" />
    <glyph glyph-name="Cdotaccent" unicode="&#x10a;" horiz-adv-x="1179" 
d="M741 -25q-612 0 -612 721t612 721q213 0 351 -86v-74q-127 100 -349 101q-281 0 -415.5 -162t-134.5 -499t136 -499.5t419 -162.5q217 0 344 100v-74q-138 -86 -351 -86zM651 1632v115h78v-115h-78z" />
    <glyph glyph-name="cdotaccent" unicode="&#x10b;" horiz-adv-x="976" 
d="M623 -25q-242 0 -368 137.5t-126 397.5t122 394t359 134q180 0 285 -65v-62q-113 72 -279 72q-426 0 -426 -476t431 -476q168 0 274 71v-61q-102 -66 -272 -66zM541 1278v115h77v-115h-77z" />
    <glyph glyph-name="Ccaron" unicode="&#x10c;" horiz-adv-x="1179" 
d="M741 -25q-612 0 -612 721t612 721q213 0 351 -86v-74q-127 100 -349 101q-281 0 -415.5 -162t-134.5 -499t136 -499.5t419 -162.5q217 0 344 100v-74q-138 -86 -351 -86zM664 1565l-234 272h66l194 -219l195 219h65l-233 -272h-53z" />
    <glyph glyph-name="ccaron" unicode="&#x10d;" horiz-adv-x="976" 
d="M623 -25q-242 0 -368 137.5t-126 397.5t122 394t359 134q180 0 285 -65v-62q-113 72 -279 72q-426 0 -426 -476t431 -476q168 0 274 71v-61q-102 -66 -272 -66zM553 1210l-234 273h66l195 -219l194 219h66l-234 -273h-53z" />
    <glyph glyph-name="Dcaron" unicode="&#x10e;" horiz-adv-x="1382" 
d="M287 59h336q305 0 436 147.5t131 489.5t-131 489.5t-436 147.5h-336v-1274zM223 0v1393h410q326 0 473 -166t147 -530.5t-147.5 -530.5t-472.5 -166h-410zM618 1565l-233 272h66l194 -219l195 219h65l-233 -272h-54z" />
    <glyph glyph-name="dcaron" unicode="&#x10f;" horiz-adv-x="1196" 
d="M551 31q223 0 383 192v588q-147 172 -369 172q-375 0 -375 -477q0 -233 92 -354t269 -121zM1112 1116l90 379h58l-99 -379h-49zM558 -25q-214 -1 -322 137t-107 395q0 257 110 394q111 137 323 137t372 -153v610h61v-1495h-55l-4 150q-164 -175 -378 -175z" />
    <glyph glyph-name="Dcroat" unicode="&#x110;" horiz-adv-x="1400" 
d="M641 59q305 0 436 147.5t131 489.5t-131 489.5t-436 147.5h-336v-594h459v-59h-459v-621h336zM651 1393q326 0 473.5 -166t147.5 -530.5t-147.5 -530.5t-473.5 -166h-409v680h-162v59h162v654h409z" />
    <glyph glyph-name="dcroat" unicode="&#x111;" horiz-adv-x="1206" 
d="M565 983q-375 0 -375 -477q0 -233 92 -354t269 -121q223 -1 383 192v588q-147 172 -369 172zM1186 1264v-52h-191v-1212h-55l-4 150q-164 -174 -378 -174t-322 136q-108 138 -107 395q0 257 110 394q111 137 323 137t372 -153v327h-283v52h283v231h61v-231h191z" />
    <glyph glyph-name="Emacron" unicode="&#x112;" horiz-adv-x="1282" 
d="M223 0v1393h955v-60h-891v-594h778v-59h-778v-621h903v-59h-967zM483 1663v53h435v-53h-435z" />
    <glyph glyph-name="emacron" unicode="&#x113;" horiz-adv-x="1132" 
d="M963 563v2q0 211 -90.5 314.5t-276.5 103.5q-380 0 -403 -420h770zM635 -25q-506 0 -506 529q0 264 118 399t337 135q436 0 436 -458q0 -35 -6 -74h-824v-8q0 -467 443 -467q190 0 328 90v-66q-129 -80 -326 -80zM369 1309v53h434v-53h-434z" />
    <glyph glyph-name="Ebreve" unicode="&#x114;" horiz-adv-x="1282" 
d="M223 0v1393h955v-60h-891v-594h778v-59h-778v-621h903v-59h-967zM700.5 1577q-96.5 0 -159 57.5t-76.5 159.5h55q29 -160 180.5 -160t180.5 160h55q-14 -102 -76.5 -159.5t-159 -57.5z" />
    <glyph glyph-name="ebreve" unicode="&#x115;" horiz-adv-x="1132" 
d="M963 563v2q0 211 -90.5 314.5t-276.5 103.5q-380 0 -403 -420h770zM635 -25q-506 0 -506 529q0 264 118 399t337 135q436 0 436 -458q0 -35 -6 -74h-824v-8q0 -467 443 -467q190 0 328 90v-66q-129 -80 -326 -80zM585.5 1223q-96.5 0 -158.5 57t-77 160h56
q29 -160 180 -160t180 160h55q-14 -102 -76.5 -159.5t-159 -57.5z" />
    <glyph glyph-name="Edotaccent" unicode="&#x116;" horiz-adv-x="1282" 
d="M223 0v1393h955v-60h-891v-594h778v-59h-778v-621h903v-59h-967zM662 1632v115h77v-115h-77z" />
    <glyph glyph-name="edotaccent" unicode="&#x117;" horiz-adv-x="1132" 
d="M963 563v2q0 211 -90.5 314.5t-276.5 103.5q-380 0 -403 -420h770zM635 -25q-506 0 -506 529q0 264 118 399t337 135q436 0 436 -458q0 -35 -6 -74h-824v-8q0 -467 443 -467q190 0 328 90v-66q-129 -80 -326 -80zM547 1278v115h78v-115h-78z" />
    <glyph glyph-name="Eogonek" unicode="&#x118;" horiz-adv-x="1282" 
d="M287 59h903v-59h-6q-217 -127 -217 -250q0 -104 110 -104q55 0 107 32v-55q-51 -27 -119 -27t-111 39t-43 111q0 131 187 254h-875v1393h955v-60h-891v-594h778v-59h-778v-621z" />
    <glyph glyph-name="eogonek" unicode="&#x119;" horiz-adv-x="1132" 
d="M596 983q-381 0 -403 -420h770v2q0 211 -90.5 314.5t-276.5 103.5zM190 506v-8q0 -467 443 -467q190 0 328 90v-66q-27 -18 -60 -30q-207 -129 -207 -269q0 -111 111 -110q55 0 106 32v-55q-45 -27 -116.5 -26.5t-113.5 40t-42 113.5q0 123 133 236q-72 -10 -137 -11
q-506 0 -506 529q0 264 118 399t337 135q436 0 436 -458q0 -35 -6 -74h-824z" />
    <glyph glyph-name="Ecaron" unicode="&#x11a;" horiz-adv-x="1282" 
d="M223 0v1393h955v-60h-891v-594h778v-59h-778v-621h903v-59h-967zM674 1565l-234 272h66l194 -219l195 219h66l-234 -272h-53z" />
    <glyph glyph-name="ecaron" unicode="&#x11b;" horiz-adv-x="1132" 
d="M963 563v2q0 211 -90.5 314.5t-276.5 103.5q-380 0 -403 -420h770zM635 -25q-506 0 -506 529q0 264 118 399t337 135q436 0 436 -458q0 -35 -6 -74h-824v-8q0 -467 443 -467q190 0 328 90v-66q-129 -80 -326 -80zM559 1210l-233 273h65l195 -219l194 219h66l-234 -273
h-53z" />
    <glyph glyph-name="Gcircumflex" unicode="&#x11c;" horiz-adv-x="1320" 
d="M766 -25q-315 0 -476 181.5t-161 538.5t164 539.5t485 182.5q221 0 371 -86v-74q-137 100 -367 101q-590 0 -590 -662t576 -661q217 0 362 100v547h-389v59h451v-630q-166 -136 -426 -136zM455 1565l233 272h53l234 -272h-66l-194 219l-195 -219h-65z" />
    <glyph glyph-name="gcircumflex" unicode="&#x11d;" horiz-adv-x="1196" 
d="M551 47q223 0 383 193v571q-147 172 -369 172q-184 0 -279.5 -120t-95.5 -348t91.5 -348t269.5 -120zM561.5 -403q-217.5 0 -352.5 73v64q135 -82 337 -82t295 98t93 316v98q-164 -172 -377 -172t-320.5 135t-107.5 388t109.5 388t323.5 135t376 -157l6 133h51v-946
q0 -246 -108 -358.5t-325.5 -112.5zM328 1210l233 273h53l234 -273h-66l-194 220l-195 -220h-65z" />
    <glyph glyph-name="Gbreve" unicode="&#x11e;" horiz-adv-x="1320" 
d="M766 -25q-315 0 -476 181.5t-161 538.5t164 539.5t485 182.5q221 0 371 -86v-74q-137 100 -367 101q-590 0 -590 -662t576 -661q217 0 362 100v547h-389v59h451v-630q-166 -136 -426 -136zM714.5 1577q-96.5 0 -158.5 57.5t-77 159.5h56q27 -160 180 -160t180 160h55
q-14 -102 -76.5 -159.5t-159 -57.5z" />
    <glyph glyph-name="gbreve" unicode="&#x11f;" horiz-adv-x="1196" 
d="M551 47q223 0 383 193v571q-147 172 -369 172q-184 0 -279.5 -120t-95.5 -348t91.5 -348t269.5 -120zM561.5 -403q-217.5 0 -352.5 73v64q135 -82 337 -82t295 98t93 316v98q-164 -172 -377 -172t-320.5 135t-107.5 388t109.5 388t323.5 135t376 -157l6 133h51v-946
q0 -246 -108 -358.5t-325.5 -112.5zM588 1223q-96 0 -158.5 57t-77.5 160h56q27 -160 180 -160t180 160h55q-14 -102 -76.5 -159.5t-158.5 -57.5z" />
    <glyph glyph-name="Gdotaccent" unicode="&#x120;" horiz-adv-x="1320" 
d="M766 -25q-315 0 -476 181.5t-161 538.5t164 539.5t485 182.5q221 0 371 -86v-74q-137 100 -367 101q-590 0 -590 -662t576 -661q217 0 362 100v547h-389v59h451v-630q-166 -136 -426 -136zM676 1632v115h78v-115h-78z" />
    <glyph glyph-name="gdotaccent" unicode="&#x121;" horiz-adv-x="1196" 
d="M551 47q223 0 383 193v571q-147 172 -369 172q-184 0 -279.5 -120t-95.5 -348t91.5 -348t269.5 -120zM561.5 -403q-217.5 0 -352.5 73v64q135 -82 337 -82t295 98t93 316v98q-164 -172 -377 -172t-320.5 135t-107.5 388t109.5 388t323.5 135t376 -157l6 133h51v-946
q0 -246 -108 -358.5t-325.5 -112.5zM549 1278v115h78v-115h-78z" />
    <glyph glyph-name="Gcommaaccent" unicode="&#x122;" horiz-adv-x="1320" 
d="M725 -332v115h74v-105l-54 -131h-34l43 121h-29zM766 -25q-315 0 -476 181.5t-161 538.5t164 539.5t485 182.5q221 0 371 -86v-74q-137 100 -367 101q-590 0 -589.5 -661.5t575.5 -661.5q217 0 362 100v547h-389v59h451v-630q-166 -136 -426 -136z" />
    <glyph glyph-name="gcommaaccent" unicode="&#x123;" horiz-adv-x="1196" 
d="M551 47q223 0 383 193v571q-147 172 -369 172q-184 0 -279.5 -120t-95.5 -348t91.5 -348t269.5 -120zM561.5 -403q-217.5 0 -352.5 73v64q135 -82 337 -82t295 98t93 316v98q-164 -172 -377 -172t-320.5 135t-107.5 388t109.5 388t323.5 135t376 -157l6 133h51v-946
q0 -246 -108 -358.5t-325.5 -112.5zM625 1346v-115h-74v104l53 131h35l-43 -120h29z" />
    <glyph glyph-name="Hcircumflex" unicode="&#x124;" horiz-adv-x="1505" 
d="M223 0v1393h64v-654h932v654h63v-1393h-63v680h-932v-680h-64zM496 1565l233 272h53l234 -272h-66l-194 219l-195 -219h-65z" />
    <glyph glyph-name="hcircumflex" unicode="&#x125;" horiz-adv-x="1183" 
d="M201 0v1495h61v-635q178 178 397 178q344 0 345 -409v-629h-62v621q0 188 -70.5 275t-222.5 87q-221 0 -387 -197v-786h-61zM-29 1667l234 272h53l234 -272h-66l-195 219l-194 -219h-66z" />
    <glyph glyph-name="Hbar" unicode="&#x126;" horiz-adv-x="1542" 
d="M1237 739v293h-932v-293h932zM1462 1092v-60h-162v-1032h-63v680h-932v-680h-63v1032h-162v60h162v301h63v-301h932v301h63v-301h162z" />
    <glyph glyph-name="hbar" unicode="&#x127;" horiz-adv-x="1191" 
d="M668 1038q344 0 344 -409v-629h-62v621q0 188 -70.5 275t-222.5 87q-221 0 -387 -197v-786h-61v1212h-189v52h189v231h61v-231h285v-52h-285v-352q179 178 398 178z" />
    <glyph glyph-name="Itilde" unicode="&#x128;" horiz-adv-x="509" 
d="M223 0v1393h64v-1393h-64zM356 1677q63 0 107 95v-80q-45 -70 -111 -70q-43 0 -103 40t-95 40q-62 0 -105 -94v80q45 70 111 69q43 0 103 -40t93 -40z" />
    <glyph glyph-name="itilde" unicode="&#x129;" horiz-adv-x="462" 
d="M201 0v1014h61v-1014h-61zM135 1403q43 0 103.5 -40t93.5 -40q63 0 106 94v-80q-45 -70 -110 -69q-43 0 -103.5 40t-95.5 40q-61 -1 -104 -95v80q45 70 110 70z" />
    <glyph glyph-name="Imacron" unicode="&#x12a;" horiz-adv-x="509" 
d="M223 0v1393h64v-1393h-64zM59 1663v53h394v-53h-394z" />
    <glyph glyph-name="imacron" unicode="&#x12b;" horiz-adv-x="462" 
d="M201 0v1014h61v-1014h-61zM35 1309v53h393v-53h-393z" />
    <glyph glyph-name="Ibreve" unicode="&#x12c;" horiz-adv-x="509" 
d="M223 0v1393h64v-1393h-64zM256 1577q-92 0 -146.5 56.5t-64.5 160.5h53q25 -160 158 -160t158 160h53q-10 -104 -64.5 -160.5t-146.5 -56.5z" />
    <glyph glyph-name="ibreve" unicode="&#x12d;" horiz-adv-x="462" 
d="M201 0v1014h61v-1014h-61zM231.5 1223q-92.5 0 -146.5 56t-65 161h54q25 -160 158 -160t157 160h53q-10 -104 -64 -160.5t-146.5 -56.5z" />
    <glyph glyph-name="Iogonek" unicode="&#x12e;" horiz-adv-x="509" 
d="M268 -354q55 0 107 32v-55q-51 -27 -119 -27t-111 41t-43 117q0 121 121 254v1385h64v-1393h-4q-125 -126 -125 -240t110 -114z" />
    <glyph glyph-name="iogonek" unicode="&#x12f;" horiz-adv-x="462" 
d="M248 -354q55 0 106 32v-55q-50 -27 -118 -27t-111 41t-43 117q0 121 119 252v1008h61v-1014q-125 -126 -125 -240t111 -114zM268 1393v-115h-73v115h73z" />
    <glyph glyph-name="Idotaccent" unicode="&#x130;" horiz-adv-x="509" 
d="M223 0v1393h64v-1393h-64zM217 1632v115h78v-115h-78z" />
    <glyph glyph-name="dotlessi" unicode="&#x131;" horiz-adv-x="462" 
d="M201 0v1014h61v-1014h-61z" />
    <glyph glyph-name="IJ" unicode="&#x132;" horiz-adv-x="1439" 
d="M1241 416q-1 -441 -375 -441q-186 0 -317 88v68q127 -96 302 -96t251 90t76 297v971h63v-977zM223 0v1393h64v-1393h-64z" />
    <glyph glyph-name="ij" unicode="&#x133;" horiz-adv-x="925" 
d="M532 -403q-43 0 -73 8v55q31 -8 67 -8q137 0 138 147v1215h61v-1215q0 -202 -193 -202zM201 0v1014h61v-1014h-61zM657 1278v115h74v-115h-74zM195 1278v115h73v-115h-73z" />
    <glyph glyph-name="Jcircumflex" unicode="&#x134;" horiz-adv-x="929" 
d="M731 416q1 -441 -373 -441q-186 0 -319 88v68q127 -96 302 -96t251 90t76 297v971h63v-977zM438 1565l234 272h53l233 -272h-65l-195 219l-194 -219h-66z" />
    <glyph glyph-name="jcircumflex" unicode="&#x135;" horiz-adv-x="462" 
d="M70 -403q-43 0 -74 8v55q31 -8 67 -8q137 0 138 147v1215h61v-1215q1 -202 -192 -202zM-8 1210l211 273h57l211 -273h-61l-179 224l-178 -224h-61z" />
    <glyph glyph-name="Kcommaaccent" unicode="&#x136;" horiz-adv-x="1288" 
d="M672 -332v115h73v-105l-53 -131h-35l43 121h-28zM223 0v1393h64v-836l868 836h86l-590 -568l600 -825h-77l-568 782l-319 -309v-473h-64z" />
    <glyph glyph-name="kcommaaccent" unicode="&#x137;" horiz-adv-x="1075" 
d="M555 -332v115h74v-105l-54 -131h-34l43 121h-29zM201 0v1495h61v-1081l664 600h84l-453 -410l463 -604h-76l-432 565l-250 -227v-338h-61z" />
    <glyph glyph-name="kgreenlandic" unicode="&#x138;" horiz-adv-x="1075" 
d="M201 0v1014h61v-600l664 600h84l-453 -410l463 -604h-76l-432 565l-250 -227v-338h-61z" />
    <glyph glyph-name="Lacute" unicode="&#x139;" horiz-adv-x="1118" 
d="M223 0v1393h64v-1334h807v-59h-871zM141 1565l234 272h74l-242 -272h-66z" />
    <glyph glyph-name="lacute" unicode="&#x13a;" horiz-adv-x="462" 
d="M201 0v1495h61v-1495h-61zM117 1667l233 272h74l-242 -272h-65z" />
    <glyph glyph-name="Lcommaaccent" unicode="&#x13b;" horiz-adv-x="1118" 
d="M621 -332v115h73v-105l-53 -131h-35l43 121h-28zM223 0v1393h64v-1334h807v-59h-871z" />
    <glyph glyph-name="lcommaaccent" unicode="&#x13c;" horiz-adv-x="462" 
d="M195 -332v115h73v-105l-53 -131h-35l43 121h-28zM201 0v1495h61v-1495h-61z" />
    <glyph glyph-name="Lcaron" unicode="&#x13d;" horiz-adv-x="1118" 
d="M422 1014l90 379h57l-98 -379h-49zM223 0v1393h64v-1334h807v-59h-871z" />
    <glyph glyph-name="lcaron" unicode="&#x13e;" horiz-adv-x="462" 
d="M379 1116l90 379h57l-98 -379h-49zM201 0v1495h61v-1495h-61z" />
    <glyph glyph-name="Ldot" unicode="&#x13f;" horiz-adv-x="1118" 
d="M764 674v112h98v-112h-98zM223 0v1393h64v-1334h807v-59h-871z" />
    <glyph glyph-name="ldot" unicode="&#x140;" horiz-adv-x="462" 
d="M414 692v113h98v-113h-98zM201 0v1495h61v-1495h-61z" />
    <glyph glyph-name="Lslash" unicode="&#x141;" horiz-adv-x="1136" 
d="M305 59h807v-59h-870v463l-162 -117v68l162 116v863h63v-815l508 368v-67l-508 -369v-451z" />
    <glyph glyph-name="lslash" unicode="&#x142;" horiz-adv-x="532" 
d="M297 0h-61v725l-218 -162v64l218 161v707h61v-659l217 161v-63l-217 -162v-772z" />
    <glyph glyph-name="Nacute" unicode="&#x143;" horiz-adv-x="1505" 
d="M223 0v1393h82l916 -1280v1280h61v-1393h-57l-940 1317v-1317h-62zM637 1565l233 272h74l-242 -272h-65z" />
    <glyph glyph-name="nacute" unicode="&#x144;" horiz-adv-x="1183" 
d="M201 0v1014h55l4 -156q180 180 399 180q344 0 345 -409v-629h-62v621q0 188 -70.5 275t-222.5 87q-221 0 -387 -197v-786h-61zM477 1210l234 273h73l-241 -273h-66z" />
    <glyph glyph-name="Ncommaaccent" unicode="&#x145;" horiz-adv-x="1505" 
d="M715 -332v115h73v-105l-53 -131h-35l43 121h-28zM223 0v1393h82l916 -1280v1280h61v-1393h-57l-940 1317v-1317h-62z" />
    <glyph glyph-name="ncommaaccent" unicode="&#x146;" horiz-adv-x="1183" 
d="M565 -332v115h74v-105l-53 -131h-35l43 121h-29zM201 0v1014h55l4 -156q180 180 399 180q344 0 345 -409v-629h-62v621q0 188 -70.5 275t-222.5 87q-221 0 -387 -197v-786h-61z" />
    <glyph glyph-name="Ncaron" unicode="&#x147;" horiz-adv-x="1505" 
d="M223 0v1393h82l916 -1280v1280h61v-1393h-57l-940 1317v-1317h-62zM725 1565l-233 272h65l195 -219l194 219h66l-234 -272h-53z" />
    <glyph glyph-name="ncaron" unicode="&#x148;" horiz-adv-x="1183" 
d="M201 0v1014h55l4 -156q180 180 399 180q344 0 345 -409v-629h-62v621q0 188 -70.5 275t-222.5 87q-221 0 -387 -197v-786h-61zM565 1210l-233 273h65l195 -219l194 219h66l-234 -273h-53z" />
    <glyph glyph-name="napostrophe" unicode="&#x149;" horiz-adv-x="1183" 
d="M201 0v1014h55l4 -156q180 180 399 180q344 0 345 -409v-629h-62v621q0 188 -70.5 275t-222.5 87q-221 0 -387 -197v-786h-61zM176 1382v113h103v-102l-76 -215h-43l59 204h-43z" />
    <glyph glyph-name="Eng" unicode="&#x14a;" horiz-adv-x="1505" 
d="M1083 -403q-47 0 -77 8v55q33 -8 71 -8q143 0 144 147v207l-936 1311v-1317h-62v1393h82l916 -1280v1280h61v-1594q0 -202 -199 -202z" />
    <glyph glyph-name="eng" unicode="&#x14b;" horiz-adv-x="1183" 
d="M659 1038q344 0 345 -409v-830q0 -203 -191 -202q-45 0 -76 8v55q33 -8 68 -8q137 0 137 147v822q0 188 -70.5 275t-222.5 87q-221 0 -387 -197v-786h-61v1014h55l4 -156q180 180 399 180z" />
    <glyph glyph-name="Omacron" unicode="&#x14c;" horiz-adv-x="1445" 
d="M723 35q274 0 402 159.5t128 501.5t-128 502t-402 160t-402 -160t-128 -502t128 -501.5t402 -159.5zM723 -25q-303 0 -448.5 177.5t-145.5 544t145.5 543.5t448.5 177t448.5 -177t145.5 -543.5t-145.5 -544t-448.5 -177.5zM506 1663v53h434v-53h-434z" />
    <glyph glyph-name="omacron" unicode="&#x14d;" horiz-adv-x="1196" 
d="M598 31q408 0 408 476t-408 476t-408 -476t408 -476zM598 -25q-231 0 -350 135.5t-119 396.5t119 396t350 135t350 -135t119 -396t-119 -396.5t-350 -135.5zM381 1309v53h434v-53h-434z" />
    <glyph glyph-name="Obreve" unicode="&#x14e;" horiz-adv-x="1445" 
d="M723 35q274 0 402 159.5t128 501.5t-128 502t-402 160t-402 -160t-128 -502t128 -501.5t402 -159.5zM723 -25q-303 0 -448.5 177.5t-145.5 544t145.5 543.5t448.5 177t448.5 -177t145.5 -543.5t-145.5 -544t-448.5 -177.5zM723 1577q-96 0 -158.5 57.5t-77.5 159.5h56
q29 -160 181 -160t179 160h55q-14 -102 -76.5 -159.5t-158.5 -57.5z" />
    <glyph glyph-name="obreve" unicode="&#x14f;" horiz-adv-x="1196" 
d="M598 31q408 0 408 476t-408 476t-408 -476t408 -476zM598 -25q-231 0 -350 135.5t-119 396.5t119 396t350 135t350 -135t119 -396t-119 -396.5t-350 -135.5zM598 1223q-96 0 -158.5 57t-77.5 160h56q29 -160 180.5 -160t179.5 160h56q-14 -102 -77 -159.5t-159 -57.5z
" />
    <glyph glyph-name="Ohungarumlaut" unicode="&#x150;" horiz-adv-x="1445" 
d="M723 35q274 0 402 159.5t128 501.5t-128 502t-402 160t-402 -160t-128 -502t128 -501.5t402 -159.5zM723 -25q-303 0 -448.5 177.5t-145.5 544t145.5 543.5t448.5 177t448.5 -177t145.5 -543.5t-145.5 -544t-448.5 -177.5zM782 1565l193 272h74l-207 -272h-60zM475 1565
l193 272h73l-206 -272h-60z" />
    <glyph glyph-name="ohungarumlaut" unicode="&#x151;" horiz-adv-x="1196" 
d="M598 31q408 0 408 476t-408 476t-408 -476t408 -476zM598 -25q-231 0 -350 135.5t-119 396.5t119 396t350 135t350 -135t119 -396t-119 -396.5t-350 -135.5zM657 1210l193 273h74l-207 -273h-60zM350 1210l193 273h73l-206 -273h-60z" />
    <glyph glyph-name="OE" unicode="&#x152;" horiz-adv-x="2039" 
d="M782 59h275v1274h-275q-317 0 -453 -147q-136 -148 -136 -490t136 -490t453 -147zM772 0q-338 0 -490 165t-153 531q0 366 153 532q153 165 490 165h1163v-60h-815v-594h703v-59h-703v-621h828v-59h-1176z" />
    <glyph glyph-name="oe" unicode="&#x153;" horiz-adv-x="2009" 
d="M1839 563v2q0 211 -90 315t-276 103q-381 0 -404 -420h770zM594 31q203 0 307 121q105 122 105 356t-104 354t-308 121q-403 0 -403 -476t403 -476zM592 -25q-225 -1 -344 135t-119 397t118 396t345 135q360 0 444 -329q78 330 434 329q209 0 318 -116t108 -342
q0 -35 -6 -74h-823v-8q0 -467 442 -467q190 0 330 90v-66q-131 -80 -328 -80q-395 0 -475 328q-86 -328 -444 -328z" />
    <glyph glyph-name="Racute" unicode="&#x154;" horiz-adv-x="1329" 
d="M287 694h477q193 0 281 77t88 243t-88.5 242.5t-280.5 76.5h-477v-639zM772 1393q424 0 424 -379q0 -178 -90 -271.5t-277 -105.5l449 -637h-78l-448 635h-465v-635h-64v1393h549zM543 1565l233 272h74l-242 -272h-65z" />
    <glyph glyph-name="racute" unicode="&#x155;" horiz-adv-x="716" 
d="M201 0v1014h55l4 -160q145 184 361 184q39 0 71 -6v-57q-31 6 -69 6q-219 0 -361 -201v-780h-61zM301 1210l234 273h73l-241 -273h-66z" />
    <glyph glyph-name="Rcommaaccent" unicode="&#x156;" horiz-adv-x="1329" 
d="M674 -332v115h74v-105l-54 -131h-35l43 121h-28zM287 694h477q193 0 281 77t88 243t-88.5 242.5t-280.5 76.5h-477v-639zM772 1393q424 0 424 -379q0 -178 -90 -271.5t-277 -105.5l449 -637h-78l-448 635h-465v-635h-64v1393h549z" />
    <glyph glyph-name="rcommaaccent" unicode="&#x157;" horiz-adv-x="716" 
d="M195 -332v115h73v-105l-53 -131h-35l43 121h-28zM201 0v1014h55l4 -160q145 184 361 184q39 0 71 -6v-57q-31 6 -69 6q-219 0 -361 -201v-780h-61z" />
    <glyph glyph-name="Rcaron" unicode="&#x158;" horiz-adv-x="1329" 
d="M287 694h477q193 0 281 77t88 243t-88.5 242.5t-280.5 76.5h-477v-639zM772 1393q424 0 424 -379q0 -178 -90 -271.5t-277 -105.5l449 -637h-78l-448 635h-465v-635h-64v1393h549zM631 1565l-234 272h66l194 -219l195 219h66l-234 -272h-53z" />
    <glyph glyph-name="rcaron" unicode="&#x159;" horiz-adv-x="716" 
d="M201 0v1014h55l4 -160q145 184 361 184q39 0 71 -6v-57q-31 6 -69 6q-219 0 -361 -201v-780h-61zM389 1210l-233 273h65l195 -219l194 219h66l-234 -273h-53z" />
    <glyph glyph-name="Sacute" unicode="&#x15a;" horiz-adv-x="1118" 
d="M555 -25q-313 0 -465 140v71q162 -152 469 -151q422 0 422 325q0 123 -76 192t-264 114l-156 36q-203 47 -283.5 126t-80.5 212q0 180 120.5 278.5t358.5 98.5t377 -104v-70q-139 115 -395 115q-188 0 -294 -82t-106 -232q0 -115 73 -176t249 -104l155 -37
q205 -49 294 -132t89 -235q0 -193 -127 -289t-360 -96zM455 1565l233 272h74l-242 -272h-65z" />
    <glyph glyph-name="sacute" unicode="&#x15b;" horiz-adv-x="962" 
d="M479 -25q-252 0 -383 101v67q133 -113 387 -112q338 0 338 235q0 90 -57 136.5t-197 72.5l-155 29q-152 29 -218.5 85t-66.5 179t99.5 196.5t294 73.5t315.5 -73v-68q-122 86 -302 86q-346 0 -346 -227q0 -78 52.5 -122t189.5 -69l156 -28q154 -29 224.5 -92.5
t70.5 -178.5q-1 -291 -402 -291zM360 1208l234 273h74l-242 -273h-66z" />
    <glyph glyph-name="Scircumflex" unicode="&#x15c;" horiz-adv-x="1118" 
d="M555 -25q-313 0 -465 140v71q162 -152 469 -151q422 0 422 325q0 123 -76 192t-264 114l-156 36q-203 47 -283.5 126t-80.5 212q0 180 120.5 278.5t358.5 98.5t377 -104v-70q-139 115 -395 115q-188 0 -294 -82t-106 -232q0 -115 73 -176t249 -104l155 -37
q205 -49 294 -132t89 -235q0 -193 -127 -289t-360 -96zM309 1565l234 272h53l233 -272h-65l-195 219l-194 -219h-66z" />
    <glyph glyph-name="scircumflex" unicode="&#x15d;" horiz-adv-x="962" 
d="M479 -25q-252 0 -383 101v67q133 -113 387 -112q338 0 338 235q0 90 -57 136.5t-197 72.5l-155 29q-152 29 -218.5 85t-66.5 179t99.5 196.5t294 73.5t315.5 -73v-68q-122 86 -302 86q-346 0 -346 -227q0 -78 52.5 -122t189.5 -69l156 -28q154 -29 224.5 -92.5
t70.5 -178.5q-1 -291 -402 -291zM215 1208l234 273h53l233 -273h-65l-195 219l-194 -219h-66z" />
    <glyph glyph-name="Scedilla" unicode="&#x15e;" horiz-adv-x="1118" 
d="M1042 343q0 -169 -119.5 -265t-340.5 -103l-52 -125h17q182 0 182 -122q0 -131 -205 -131q-106 0 -180 32v54q80 -39 180 -39q147 0 148 86q0 43 -38 60t-136 17h-45l71 168q-293 10 -434 140v71q162 -152 469 -151q422 0 422 325q0 123 -76 192t-264 114l-156 36
q-203 47 -283.5 126t-80.5 212q0 180 120.5 278.5t358.5 98.5t377 -104v-70q-139 115 -395 115q-188 0 -294 -82t-106 -232q0 -115 73 -176t249 -104l155 -37q205 -49 294 -132t89 -252z" />
    <glyph glyph-name="scedilla" unicode="&#x15f;" horiz-adv-x="962" 
d="M881 266q0 -272 -357 -289l-51 -127h16q182 0 183 -122q0 -131 -205 -131q-106 0 -180 32v54q80 -39 180 -39q147 0 147 86q0 43 -37.5 60t-136.5 17h-45l72 168q-244 4 -371 101v67q133 -113 387 -112q338 0 338 235q0 90 -57 136.5t-197 72.5l-155 29
q-152 29 -218.5 85t-66.5 179t99.5 196.5t294 73.5t315.5 -73v-68q-122 86 -302 86q-346 0 -346 -227q0 -78 52.5 -122t189.5 -69l156 -28q154 -29 224.5 -92.5t70.5 -178.5z" />
    <glyph glyph-name="Scaron" unicode="&#x160;" horiz-adv-x="1118" 
d="M555 -25q-313 0 -465 140v71q162 -152 469 -151q422 0 422 325q0 123 -76 192t-264 114l-156 36q-203 47 -283.5 126t-80.5 212q0 180 120.5 278.5t358.5 98.5t377 -104v-70q-139 115 -395 115q-188 0 -294 -82t-106 -232q0 -115 73 -176t249 -104l155 -37
q205 -49 294 -132t89 -235q0 -193 -127 -289t-360 -96zM543 1565l-234 272h66l194 -219l195 219h65l-233 -272h-53z" />
    <glyph glyph-name="scaron" unicode="&#x161;" horiz-adv-x="962" 
d="M479 -25q-252 0 -383 101v67q133 -113 387 -112q338 0 338 235q0 90 -57 136.5t-197 72.5l-155 29q-152 29 -218.5 85t-66.5 179t99.5 196.5t294 73.5t315.5 -73v-68q-122 86 -302 86q-346 0 -346 -227q0 -78 52.5 -122t189.5 -69l156 -28q154 -29 224.5 -92.5
t70.5 -178.5q-1 -291 -402 -291zM449 1208l-234 273h66l194 -219l195 219h65l-233 -273h-53z" />
    <glyph glyph-name="uni0162" unicode="&#x162;" horiz-adv-x="1116" 
d="M590 0h-2l-64 -150h15q182 0 182 -122q0 -131 -205 -131q-106 0 -180 32v54q80 -39 180 -39q147 0 148 86q0 43 -38 60t-137 17h-45l86 193h-4v1333h-501v60h1067v-60h-502v-1333z" />
    <glyph glyph-name="uni0163" unicode="&#x163;" horiz-adv-x="694" 
d="M645 963h-340v-727q0 -111 44 -158q45 -47 137 -47t159 28v-59q-72 -25 -126 -25t-68 2l-52 -127h17q182 0 182 -122q0 -131 -205 -131q-106 0 -180 32v54q80 -39 180 -39q147 0 148 86q0 43 -38 60t-136 17h-45l75 179q-154 39 -153 243v734h-215v51h217l10 305h49v-305
h340v-51z" />
    <glyph glyph-name="Tcaron" unicode="&#x164;" horiz-adv-x="1116" 
d="M526 0v1333h-501v60h1067v-60h-502v-1333h-64zM530 1565l-233 272h65l195 -219l195 219h65l-233 -272h-54z" />
    <glyph glyph-name="tcaron" unicode="&#x165;" horiz-adv-x="694" 
d="M494 -25q-131 0 -190.5 60.5t-59.5 193.5v734h-215v51h217l10 305h49v-305h340v-51h-340v-727q0 -111 44 -158q45 -47 137 -47t159 28v-59q-71 -25 -151 -25zM430 1180l90 315h58l-99 -315h-49z" />
    <glyph glyph-name="Tbar" unicode="&#x166;" horiz-adv-x="1116" 
d="M1092 1333h-502v-553h287v-59h-287v-721h-64v721h-286v59h286v553h-501v60h1067v-60z" />
    <glyph glyph-name="tbar" unicode="&#x167;" horiz-adv-x="694" 
d="M645 963h-340v-316h309v-51h-309v-360q0 -111 44 -158q45 -47 137 -47t159 28v-59q-72 -25 -151 -25q-131 0 -190.5 60.5t-59.5 193.5v367h-205v51h205v316h-215v51h217l10 305h49v-305h340v-51z" />
    <glyph glyph-name="Utilde" unicode="&#x168;" horiz-adv-x="1415" 
d="M708 -25q-263 0 -386 128t-123 403v887h63v-887q0 -250 105.5 -360.5t341 -110.5t341 110.5t105.5 360.5v887h62v-887q0 -274 -123 -402.5t-386 -128.5zM817 1677q72 0 115 95v-80q-49 -70 -119 -70q-45 0 -112.5 40t-100.5 40q-72 0 -115 -94v80q49 70 119 69
q45 0 112.5 -40t100.5 -40z" />
    <glyph glyph-name="utilde" unicode="&#x169;" horiz-adv-x="1193" 
d="M528 -25q-348 0 -348 410v629h62v-621q0 -188 71.5 -275t225.5 -87q225 0 393 200v783h61v-1014h-55l-4 160q-179 -185 -406 -185zM483 1403q45 0 112.5 -40t100.5 -40q72 0 115 94v-80q-49 -70 -119 -69q-45 0 -112.5 40t-100.5 40q-71 -1 -114 -95v80q49 70 118 70z
" />
    <glyph glyph-name="Umacron" unicode="&#x16a;" horiz-adv-x="1415" 
d="M708 -25q-263 0 -386 128t-123 403v887h63v-887q0 -250 105.5 -360.5t341 -110.5t341 110.5t105.5 360.5v887h62v-887q0 -274 -123 -402.5t-386 -128.5zM492 1663v53h434v-53h-434z" />
    <glyph glyph-name="umacron" unicode="&#x16b;" horiz-adv-x="1193" 
d="M528 -25q-348 0 -348 410v629h62v-621q0 -188 71.5 -275t225.5 -87q225 0 393 200v783h61v-1014h-55l-4 160q-179 -185 -406 -185zM371 1309v53h434v-53h-434z" />
    <glyph glyph-name="Ubreve" unicode="&#x16c;" horiz-adv-x="1415" 
d="M708 -25q-263 0 -386 128t-123 403v887h63v-887q0 -250 105.5 -360.5t341 -110.5t341 110.5t105.5 360.5v887h62v-887q0 -274 -123 -402.5t-386 -128.5zM708.5 1577q-96.5 0 -159 57.5t-76.5 159.5h55q29 -160 180.5 -160t180.5 160h55q-14 -102 -76.5 -159.5t-159 -57.5
z" />
    <glyph glyph-name="ubreve" unicode="&#x16d;" horiz-adv-x="1193" 
d="M528 -25q-348 0 -348 410v629h62v-621q0 -188 71.5 -275t225.5 -87q225 0 393 200v783h61v-1014h-55l-4 160q-179 -185 -406 -185zM588 1223q-96 0 -158.5 57t-77.5 160h56q27 -160 180 -160t180 160h55q-14 -102 -76.5 -159.5t-158.5 -57.5z" />
    <glyph glyph-name="Uring" unicode="&#x16e;" horiz-adv-x="1415" 
d="M708 -25q-263 0 -386 128t-123 403v887h63v-887q0 -250 105.5 -360.5t341 -110.5t341 110.5t105.5 360.5v887h62v-887q0 -274 -123 -402.5t-386 -128.5zM709 1608q45 0 73.5 29.5t28.5 74.5t-28.5 75t-73.5 30t-74 -30t-29 -75t29 -74.5t74 -29.5zM708.5 1556
q-67.5 0 -112.5 44.5t-45 112t45 111.5t112.5 44t112.5 -44t45 -111.5t-45 -112t-112.5 -44.5z" />
    <glyph glyph-name="uring" unicode="&#x16f;" horiz-adv-x="1193" 
d="M528 -25q-348 0 -348 410v629h62v-621q0 -188 71.5 -275t225.5 -87q225 0 393 200v783h61v-1014h-55l-4 160q-179 -185 -406 -185zM588 1253q45 0 73.5 30t28.5 75t-28.5 74.5t-73.5 29.5t-74 -29.5t-29 -74.5t29 -75t74 -30zM587.5 1202q-67.5 0 -112.5 44t-45 111.5
t45 111.5t112.5 44t112.5 -44t45 -111.5t-45 -111.5t-112.5 -44z" />
    <glyph glyph-name="Uhungarumlaut" unicode="&#x170;" horiz-adv-x="1415" 
d="M708 -25q-263 0 -386 128t-123 403v887h63v-887q0 -250 105.5 -360.5t341 -110.5t341 110.5t105.5 360.5v887h62v-887q0 -274 -123 -402.5t-386 -128.5zM768 1565l193 272h73l-207 -272h-59zM461 1565l192 272h74l-207 -272h-59z" />
    <glyph glyph-name="uhungarumlaut" unicode="&#x171;" horiz-adv-x="1193" 
d="M528 -25q-348 0 -348 410v629h62v-621q0 -188 71.5 -275t225.5 -87q225 0 393 200v783h61v-1014h-55l-4 160q-179 -185 -406 -185zM647 1210l193 273h73l-206 -273h-60zM340 1210l192 273h74l-207 -273h-59z" />
    <glyph glyph-name="Uogonek" unicode="&#x172;" horiz-adv-x="1415" 
d="M1155 1393h62v-887q0 -422 -304 -506q-217 -127 -217 -250q0 -104 111 -104q55 0 106 32v-55q-51 -27 -119 -27t-110.5 39t-42.5 111q0 121 156 234q-57 -4 -88 -5q-264 0 -387 128t-123 403v887h63v-887q0 -250 105.5 -360.5t341 -110.5t341 110.5t105.5 360.5v887z" />
    <glyph glyph-name="uogonek" unicode="&#x173;" horiz-adv-x="1193" 
d="M932 1014h61v-1014h-6q-217 -127 -217 -250q0 -104 111 -104q55 0 106 32v-55q-51 -27 -119 -27t-110.5 39t-42.5 112t52 138.5t171 139.5l-4 135q-178 -184 -406 -185q-348 0 -348 410v629h62v-621q0 -188 71.5 -275t225.5 -87q225 0 393 200v783z" />
    <glyph glyph-name="Wcircumflex" unicode="&#x174;" horiz-adv-x="1841" 
d="M457 0l-426 1393h67l396 -1293l391 1293h73l392 -1293l395 1293h65l-426 -1393h-67l-395 1309l-398 -1309h-67zM662 1565l233 272h53l234 -272h-66l-194 219l-195 -219h-65z" />
    <glyph glyph-name="wcircumflex" unicode="&#x175;" horiz-adv-x="1550" 
d="M391 0l-348 1014h66l319 -930l317 930h62l317 -930l320 930h63l-348 -1014h-65l-318 934l-319 -934h-66zM514 1210l234 273h53l233 -273h-65l-195 220l-194 -220h-66z" />
    <glyph glyph-name="Ycircumflex" unicode="&#x176;" horiz-adv-x="1116" 
d="M526 0v612l-536 781h78l491 -717l494 717h73l-536 -781v-612h-64zM299 1565l233 272h54l233 -272h-65l-195 219l-194 -219h-66z" />
    <glyph glyph-name="ycircumflex" unicode="&#x177;" horiz-adv-x="958" 
d="M190 -403q-45 0 -75 12v55q31 -12 84 -12t95 40t95.5 169t53 147t-8.5 37l-391 969h66l374 -926l371 926h61l-487 -1213q-45 -111 -98.5 -157.5t-139.5 -46.5zM219 1210l234 273h53l233 -273h-65l-195 220l-194 -220h-66z" />
    <glyph glyph-name="Ydieresis" unicode="&#x178;" horiz-adv-x="1116" 
d="M526 0v612l-536 781h78l491 -717l494 717h73l-536 -781v-612h-64zM674 1632v115h76v-115h-76zM369 1632v115h75v-115h-75z" />
    <glyph glyph-name="Zacute" unicode="&#x179;" horiz-adv-x="1130" 
d="M82 0v53l895 1280h-866v60h946v-54l-895 -1280h905v-59h-985zM465 1565l233 272h74l-242 -272h-65z" />
    <glyph glyph-name="zacute" unicode="&#x17a;" horiz-adv-x="948" 
d="M90 0v49l686 909h-657v56h735v-49l-686 -910h696v-55h-774zM367 1210l233 273h74l-242 -273h-65z" />
    <glyph glyph-name="Zdotaccent" unicode="&#x17b;" horiz-adv-x="1130" 
d="M82 0v53l895 1280h-866v60h946v-54l-895 -1280h905v-59h-985zM541 1632v115h77v-115h-77z" />
    <glyph glyph-name="zdotaccent" unicode="&#x17c;" horiz-adv-x="948" 
d="M90 0v49l686 909h-657v56h735v-49l-686 -910h696v-55h-774zM442 1278v115h78v-115h-78z" />
    <glyph glyph-name="Zcaron" unicode="&#x17d;" horiz-adv-x="1130" 
d="M82 0v53l895 1280h-866v60h946v-54l-895 -1280h905v-59h-985zM553 1565l-234 272h66l195 -219l194 219h66l-234 -272h-53z" />
    <glyph glyph-name="zcaron" unicode="&#x17e;" horiz-adv-x="948" 
d="M90 0v49l686 909h-657v56h735v-49l-686 -910h696v-55h-774zM455 1210l-234 273h66l194 -219l195 219h65l-233 -273h-53z" />
    <glyph glyph-name="florin" unicode="&#x192;" horiz-adv-x="1277" 
d="M254 -229q-72 0 -133 16l2 57q55 -18 121 -18q126 0 190 60t80 192l94 727h-418v55h424l33 256q20 154 99 228t229 73q70 0 129 -16l-4 -58q-55 18 -125 19q-121 0 -187 -60t-81 -192l-33 -250h413v-55h-419l-95 -733q-20 -154 -98 -228t-221 -73z" />
    <glyph glyph-name="Aringacute" unicode="&#x1fa;" horiz-adv-x="1294" 
d="M287 465h719l-361 866zM27 0l581 1393h78l582 -1393h-68l-170 406h-768l-170 -406h-65zM647 1542q45 0 74 30t29 75t-29 74.5t-74 29.5t-73.5 -29.5t-28.5 -74.5t28.5 -75t73.5 -30zM647.5 1491q-67.5 0 -113 44t-45.5 111.5t45.5 111.5t113 44t112.5 -44t45 -111.5
t-45 -111.5t-112.5 -44zM532 1886l234 273h74l-242 -273h-66z" />
    <glyph glyph-name="aringacute" unicode="&#x1fb;" horiz-adv-x="1099" 
d="M442 31q246 0 420 221v248q-162 29 -332 28q-358 0 -358 -254q0 -119 69.5 -181t200.5 -62zM438 -25q-156 0 -241.5 78t-85.5 221q0 309 424 310q168 0 327 -27v80q0 184 -80 265t-270 81t-334 -100v63q141 92 349 92t302.5 -93t94.5 -296v-649h-56l-4 176
q-174 -201 -426 -201zM541 1188q45 0 73.5 29.5t28.5 74.5t-28.5 75t-73.5 30t-74 -30t-29 -75t29 -74.5t74 -29.5zM540.5 1137q-67.5 0 -112.5 44t-45 111.5t45 111.5t112.5 44t112.5 -44t45 -111.5t-45 -111.5t-112.5 -44zM426 1532l233 272h74l-241 -272h-66z" />
    <glyph glyph-name="AEacute" unicode="&#x1fc;" horiz-adv-x="1929" 
d="M936 465v856l-565 -856h565zM1825 1393v-60h-826v-594h713v-59h-713v-621h838v-59h-901v406h-606l-271 -406h-69l928 1393h907zM860 1565l234 272h73l-241 -272h-66z" />
    <glyph glyph-name="aeacute" unicode="&#x1fd;" horiz-adv-x="1863" 
d="M455 31q264 0 434 258q-27 100 -27 211q-162 29 -332 28q-358 0 -358 -254q0 -243 283 -243zM1694 563v2q0 211 -90.5 314.5t-276.5 103.5q-380 0 -403 -420h770zM451 -25q-166 0 -253 78t-87 221q0 309 424 310q168 0 327 -27v80q0 184 -80 265t-269.5 81t-334.5 -100
v63q141 92 332.5 92t283 -66.5t111.5 -209.5q96 276 422 276q209 0 316.5 -116.5t107.5 -341.5q0 -35 -6 -74h-823v-8q0 -467 442 -467q190 0 328 90v-66q-129 -80 -324 -80q-348 0 -455 248q-186 -248 -462 -248zM797 1210l233 273h74l-242 -273h-65z" />
    <glyph glyph-name="Oslashacute" unicode="&#x1fe;" horiz-adv-x="1445" 
d="M1253 690q0 336 -116 494l-789 -1022q129 -127 389 -127t388 159.5t128 495.5zM193 702q0 -336 116 -493l789 1022q-129 127 -389 127t-388 -160t-128 -496zM129 700q1 718 577 717q286 0 429 -137l106 137h76l-141 -182q141 -178 141 -542q-1 -718 -577 -718
q-286 0 -429 138l-106 -138h-76l141 183q-141 178 -141 542zM915 1837l-241 -272h-66l234 272h73z" />
    <glyph glyph-name="oslashacute" unicode="&#x1ff;" horiz-adv-x="1196" 
d="M598 31q408 0 408 475q0 227 -93 344l-591 -729q100 -90 276 -90zM598 983q-408 0 -408 -477q0 -227 93 -344l594 731q-103 90 -279 90zM1067 505q0 -259 -119 -394.5t-335 -135.5t-328 101l-82 -101h-72l113 140q-115 133 -115 393t119 395t333 135t332 -100l82 100h72
l-115 -141q115 -133 115 -392zM791 1483l-242 -273h-66l234 273h74z" />
    <glyph glyph-name="Scommaaccent" unicode="&#x218;" horiz-adv-x="1118" 
d="M528 -332v115h74v-105l-53 -131h-35l43 121h-29zM555 -25q-313 0 -465 140v71q162 -152 469 -151q422 0 422 325q0 123 -76 192t-264 114l-156 36q-203 47 -283.5 126t-80.5 212q0 180 120.5 278.5t358.5 98.5t377 -104v-70q-139 115 -395 115q-188 0 -294 -82t-106 -232
q0 -115 73 -176t249 -104l155 -37q205 -49 294 -132t89 -235q0 -193 -127 -289t-360 -96z" />
    <glyph glyph-name="scommaaccent" unicode="&#x219;" horiz-adv-x="962" 
d="M471 -332v115h74v-105l-53 -131h-35l43 121h-29zM479 -25q-252 0 -383 101v67q133 -113 387 -112q338 0 338 235q0 90 -57 136.5t-197 72.5l-155 29q-152 29 -218.5 85t-66.5 179t99.5 196.5t294 73.5t315.5 -73v-68q-122 86 -302 86q-346 0 -346 -227q0 -78 52.5 -122
t189.5 -69l156 -28q154 -29 224.5 -92.5t70.5 -178.5q-1 -291 -402 -291z" />
    <glyph glyph-name="uni021A" unicode="&#x21a;" horiz-adv-x="1116" 
d="M520 -332v115h74v-105l-53 -131h-35l43 121h-29zM526 0v1333h-501v60h1067v-60h-502v-1333h-64z" />
    <glyph glyph-name="uni021B" unicode="&#x21b;" horiz-adv-x="694" 
d="M397 -332v115h74v-105l-53 -131h-35l43 121h-29zM494 -25q-131 0 -190.5 60.5t-59.5 193.5v734h-215v51h217l10 305h49v-305h340v-51h-340v-727q0 -111 44 -158t136.5 -47t159.5 28v-59q-71 -25 -151 -25z" />
    <glyph glyph-name="uni0237" unicode="&#x237;" horiz-adv-x="462" 
d="M70 -403q-43 0 -74 8v55q31 -8 67 -8q137 0 138 147v1215h61v-1215q1 -202 -192 -202z" />
    <glyph glyph-name="uni02BC" unicode="&#x2bc;" horiz-adv-x="241" 
d="M78 1360v135h102v-123l-76 -258h-43l60 246h-43z" />
    <glyph glyph-name="circumflex" unicode="&#x2c6;" horiz-adv-x="1064" 
d="M272 1210l234 273h53l234 -273h-66l-195 220l-194 -220h-66z" />
    <glyph glyph-name="caron" unicode="&#x2c7;" horiz-adv-x="1064" 
d="M506 1210l-234 273h66l194 -219l195 219h66l-234 -273h-53z" />
    <glyph glyph-name="uni02C9" unicode="&#x2c9;" horiz-adv-x="1064" 
d="M315 1309v53h435v-53h-435z" />
    <glyph glyph-name="breve" unicode="&#x2d8;" horiz-adv-x="1064" 
d="M532 1223q-96 0 -158 57t-77 160h55q28 -160 180 -160t181 160h55q-14 -102 -77 -160t-159 -57z" />
    <glyph glyph-name="dotaccent" unicode="&#x2d9;" horiz-adv-x="1064" 
d="M494 1278v115h77v-115h-77z" />
    <glyph glyph-name="ring" unicode="&#x2da;" horiz-adv-x="1064" 
d="M532 1253q45 0 74 30t29 75t-29 75q-29 29 -74 29q-46 0 -74 -30t-28 -74q0 -45 28 -75t74 -30zM532 1202q-68 0 -112 44t-45 112q0 68 45 112q44 44 112 43q68 0 113 -44q45 -43 45 -111t-45 -112t-113 -44z" />
    <glyph glyph-name="ogonek" unicode="&#x2db;" horiz-adv-x="1064" 
d="M548 -403q-68 1 -110 39q-43 38 -43 112q-1 74 55 142t183 143l35 -33q-217 -127 -217 -250q0 -104 110 -104q55 0 107 32v-55q-52 -26 -120 -26z" />
    <glyph glyph-name="tilde" unicode="&#x2dc;" horiz-adv-x="1064" 
d="M428 1403q44 0 112 -40t101 -40q72 0 115 94v-80q-49 -70 -119 -69q-45 0 -113 40t-100 40q-72 -1 -115 -95v80q49 70 119 70z" />
    <glyph glyph-name="hungarumlaut" unicode="&#x2dd;" horiz-adv-x="1064" 
d="M592 1210l192 273h74l-207 -273h-59zM285 1210l192 273h74l-207 -273h-59z" />
    <glyph glyph-name="gravecomb" unicode="&#x300;" horiz-adv-x="0" 
d="M49 1210l-242 273h74l234 -273h-66z" />
    <glyph glyph-name="acutecomb" unicode="&#x301;" horiz-adv-x="0" 
d="M-115 1210l234 273h74l-242 -273h-66z" />
    <glyph glyph-name="uni0302" unicode="&#x302;" horiz-adv-x="0" 
d="M-260 1210l233 273h54l233 -273h-65l-195 220l-195 -220h-65z" />
    <glyph glyph-name="tildecomb" unicode="&#x303;" horiz-adv-x="0" 
d="M-104 1403q45 0 112 -40t101 -40q72 0 114 94v-80q-49 -70 -119 -69q-45 0 -112 40t-101 40q-71 -1 -114 -95v80q49 70 119 70z" />
    <glyph glyph-name="uni0304" unicode="&#x304;" horiz-adv-x="0" 
d="M-217 1309v53h434v-53h-434z" />
    <glyph glyph-name="uni0306" unicode="&#x306;" horiz-adv-x="0" 
d="M0 1223q-96 0 -158.5 57t-77.5 160h56q29 -160 180.5 -160t179.5 160h56q-14 -102 -77 -159.5t-159 -57.5z" />
    <glyph glyph-name="uni0307" unicode="&#x307;" horiz-adv-x="0" 
d="M-39 1278v115h78v-115h-78z" />
    <glyph glyph-name="uni0308" unicode="&#x308;" horiz-adv-x="0" 
d="M115 1278v115h75v-115h-75zM-190 1278v115h75v-115h-75z" />
    <glyph glyph-name="uni030A" unicode="&#x30a;" horiz-adv-x="0" 
d="M0 1253q45 0 73.5 30t28.5 75t-28.5 74.5t-73.5 29.5t-73.5 -29.5t-28.5 -74.5t28.5 -75t73.5 -30zM0 1202q-68 0 -113 44t-45 111.5t45 111.5t113 44t113 -44t45 -111.5t-45 -111.5t-113 -44z" />
    <glyph glyph-name="uni030B" unicode="&#x30b;" horiz-adv-x="0" 
d="M59 1210l193 273h74l-207 -273h-60zM-248 1210l193 273h73l-206 -273h-60z" />
    <glyph glyph-name="uni030C" unicode="&#x30c;" horiz-adv-x="0" 
d="M-27 1210l-233 273h65l195 -219l195 219h65l-233 -273h-54z" />
    <glyph glyph-name="uni0312" unicode="&#x312;" horiz-adv-x="0" 
d="M-37 1231v104l53 131h35l-43 -120h29v-115h-74z" />
    <glyph glyph-name="uni0326" unicode="&#x326;" horiz-adv-x="0" 
d="M-37 -332v115h74v-105l-53 -131h-35l43 121h-29z" />
    <glyph glyph-name="uni0327" unicode="&#x327;" horiz-adv-x="0" 
d="M-41 -403q-106 0 -180 32v54q80 -39 180 -39q147 0 147 86q0 43 -37.5 60t-136.5 17h-45l90 213h58l-70 -170h17q182 0 182 -122q0 -131 -205 -131z" />
    <glyph glyph-name="uni0328" unicode="&#x328;" horiz-adv-x="0" 
d="M16.5 -403q-67.5 0 -110.5 38.5t-43 112.5t55 141.5t182 143.5l35 -33q-217 -127 -217 -250q0 -104 111 -104q55 0 106 32v-55q-51 -26 -118.5 -26z" />
    <glyph glyph-name="uni0394" unicode="&#x394;" horiz-adv-x="1261" 
d="M117 59h1026l-512 1270zM27 0l565 1393h78l565 -1393h-1208z" />
    <glyph glyph-name="uni03A9" unicode="&#x3a9;" horiz-adv-x="1466" 
d="M129 0v59h332q-332 233 -332 693q0 319 158 492q159 173 447 173t446 -173t157 -492q0 -459 -331 -693h331v-59h-434v53q371 225 371 697q0 296 -138 452t-402 156t-403 -156q-138 -156 -138 -452q0 -471 370 -697v-53h-434z" />
    <glyph glyph-name="uni03BC" unicode="&#x3bc;" horiz-adv-x="1206" 
d="M201 -379v1393h61v-621q0 -188 70 -275t221 -87q223 0 391 200v783h62v-1014h-56l-4 160q-176 -184 -395 -184t-289 159v-514h-61z" />
    <glyph glyph-name="pi" unicode="&#x3c0;" horiz-adv-x="1245" 
d="M1087 -25q-94 -1 -144 49t-50 144v790h-549v-958h-61v958h-254v56h1167v-56h-242v-782q0 -145 142 -145q55 0 100 24v-57q-56 -23 -109 -23z" />
    <glyph glyph-name="Wgrave" unicode="&#x1e80;" horiz-adv-x="1841" 
d="M457 0l-426 1393h67l396 -1293l391 1293h73l392 -1293l395 1293h65l-426 -1393h-67l-395 1309l-398 -1309h-67zM971 1565l-242 272h74l233 -272h-65z" />
    <glyph glyph-name="wgrave" unicode="&#x1e81;" horiz-adv-x="1550" 
d="M391 0l-348 1014h66l319 -930l317 930h62l317 -930l320 930h63l-348 -1014h-65l-318 934l-319 -934h-66zM823 1210l-241 273h73l234 -273h-66z" />
    <glyph glyph-name="Wacute" unicode="&#x1e82;" horiz-adv-x="1841" 
d="M457 0l-426 1393h67l396 -1293l391 1293h73l392 -1293l395 1293h65l-426 -1393h-67l-395 1309l-398 -1309h-67zM807 1565l233 272h74l-242 -272h-65z" />
    <glyph glyph-name="wacute" unicode="&#x1e83;" horiz-adv-x="1550" 
d="M391 0l-348 1014h66l319 -930l317 930h62l317 -930l320 930h63l-348 -1014h-65l-318 934l-319 -934h-66zM659 1210l234 273h74l-242 -273h-66z" />
    <glyph glyph-name="Wdieresis" unicode="&#x1e84;" horiz-adv-x="1841" 
d="M457 0l-426 1393h67l396 -1293l391 1293h73l392 -1293l395 1293h65l-426 -1393h-67l-395 1309l-398 -1309h-67zM1036 1632v115h76v-115h-76zM731 1632v115h76v-115h-76z" />
    <glyph glyph-name="wdieresis" unicode="&#x1e85;" horiz-adv-x="1550" 
d="M391 0l-348 1014h66l319 -930l317 930h62l317 -930l320 930h63l-348 -1014h-65l-318 934l-319 -934h-66zM889 1278v115h76v-115h-76zM584 1278v115h75v-115h-75z" />
    <glyph glyph-name="uni1E9E" unicode="&#x1e9e;" horiz-adv-x="1353" 
d="M852 -25q-164 0 -283 64v67q125 -72 296 -72t268 93q96 92 96 268q0 389 -447 389h-116v50l458 499h-837v-1333h-64v1393h987v-54l-456 -495h30q250 0 379 -114t129 -328q0 -427 -440 -427z" />
    <glyph glyph-name="Ygrave" unicode="&#x1ef2;" horiz-adv-x="1116" 
d="M526 0v612l-536 781h78l491 -717l494 717h73l-536 -781v-612h-64zM608 1565l-241 272h73l234 -272h-66z" />
    <glyph glyph-name="ygrave" unicode="&#x1ef3;" horiz-adv-x="958" 
d="M190 -403q-45 0 -75 12v55q31 -12 84 -12t95 40t95.5 169t53 147t-8.5 37l-391 969h66l374 -926l371 926h61l-487 -1213q-45 -111 -98.5 -157.5t-139.5 -46.5zM528 1210l-241 273h73l234 -273h-66z" />
    <glyph glyph-name="uni2002" unicode="&#x2002;" horiz-adv-x="1064" 
 />
    <glyph glyph-name="uni2003" unicode="&#x2003;" horiz-adv-x="1884" 
 />
    <glyph glyph-name="uni2007" unicode="&#x2007;" horiz-adv-x="1277" 
 />
    <glyph glyph-name="uni2008" unicode="&#x2008;" horiz-adv-x="544" 
 />
    <glyph glyph-name="uni200B" unicode="&#x200b;" horiz-adv-x="0" 
 />
    <glyph glyph-name="figuredash" unicode="&#x2012;" horiz-adv-x="1269" 
d="M72 565v53h1126v-53h-1126z" />
    <glyph glyph-name="endash" unicode="&#x2013;" horiz-adv-x="1064" 
d="M72 565v53h921v-53h-921z" />
    <glyph glyph-name="emdash" unicode="&#x2014;" horiz-adv-x="1884" 
d="M72 565v53h1740v-53h-1740z" />
    <glyph glyph-name="quoteleft" unicode="&#x2018;" horiz-adv-x="503" 
d="M203 973v102l92 318h47l-76 -308h37v-112h-100z" />
    <glyph glyph-name="quoteright" unicode="&#x2019;" horiz-adv-x="503" 
d="M201 1280v113h100v-103l-92 -317h-47l76 307h-37z" />
    <glyph glyph-name="quotesinglbase" unicode="&#x201a;" horiz-adv-x="503" 
d="M201 0v113h100v-103l-92 -317h-47l76 307h-37z" />
    <glyph glyph-name="quotedblleft" unicode="&#x201c;" horiz-adv-x="765" 
d="M485 973v102l93 318h47l-76 -308h37v-112h-101zM182 973v102l92 318h48l-76 -308h37v-112h-101z" />
    <glyph glyph-name="quotedblright" unicode="&#x201d;" horiz-adv-x="765" 
d="M483 1280v113h101v-103l-92 -317h-48l76 307h-37zM180 1280v113h101v-103l-93 -317h-47l76 307h-37z" />
    <glyph glyph-name="quotedblbase" unicode="&#x201e;" horiz-adv-x="765" 
d="M483 0v113h101v-103l-92 -317h-48l76 307h-37zM180 0v113h101v-103l-93 -317h-47l76 307h-37z" />
    <glyph glyph-name="dagger" unicode="&#x2020;" horiz-adv-x="1019" 
d="M485 -379l-6 887l6 385l-428 -4v57l428 -4l-6 451h62l-6 -451l428 4v-57l-428 4l6 -385l-6 -887h-50z" />
    <glyph glyph-name="daggerdbl" unicode="&#x2021;" horiz-adv-x="1019" 
d="M479 -379l6 451l-428 -4v57l428 -4l-6 387l6 385l-428 -4v57l428 -4l-6 451h62l-6 -451l428 4v-57l-428 4l6 -385l-6 -387l428 4v-57l-428 4l6 -451h-62z" />
    <glyph glyph-name="bullet" unicode="&#x2022;" horiz-adv-x="1064" 
d="M399 455v274h267v-274h-267z" />
    <glyph glyph-name="ellipsis" unicode="&#x2026;" horiz-adv-x="1884" 
d="M1520 0v113h102v-113h-102zM891 0v113h102v-113h-102zM262 0v113h103v-113h-103z" />
    <glyph glyph-name="perthousand" unicode="&#x2030;" horiz-adv-x="2476" 
d="M2060 31q127 0 201 82t74 224t-74 224t-201 82q-126 0 -200 -82t-74 -224t74 -224t200 -82zM1255 31q127 0 201 82t74 224t-74 224t-201 82t-201 -82t-73 -224q-1 -142 73 -224t201 -82zM2060 -25q-154 1 -244 99t-92 263q0 165 92 263t244 98q154 0 245 -98t91 -263
t-91 -263t-245 -99zM1255 -25q-155 1 -245 99t-90 263t91 263t245 98t244 -98q91 -98 91 -263t-91 -263t-245 -99zM416 750q126 0 200 82t74 224t-74 224t-200 82t-201 -82q-74 -82 -74 -224t74 -224t201 -82zM342 -25l920 1442h67l-919 -1442h-68zM416 694q-154 0 -245 98
t-91 264q0 165 91 263t245 98t244 -98t92 -263q0 -166 -91 -264t-245 -98z" />
    <glyph glyph-name="guilsinglleft" unicode="&#x2039;" horiz-adv-x="448" 
d="M324 133l-269 373l269 373h69l-266 -373l266 -373h-69z" />
    <glyph glyph-name="guilsinglright" unicode="&#x203a;" horiz-adv-x="448" 
d="M55 133l267 373l-267 373h70l268 -373l-268 -373h-70z" />
    <glyph glyph-name="fraction" unicode="&#x2044;" horiz-adv-x="233" 
d="M-299 -25l768 1442h63l-768 -1442h-63z" />
    <glyph glyph-name="uni2070" unicode="&#x2070;" 
d="M428 881q147 0 214 94t67 300t-67 300t-214 94t-214 -94t-67 -300t67 -300t214 -94zM428 825q-174 0 -258 111t-84 339t84 339q84 110 258 110t258 -110t84 -339q0 -228 -84 -339t-258 -111z" />
    <glyph glyph-name="uni2074" unicode="&#x2074;" 
d="M618 1116v500l-462 -500h462zM618 850v211h-542v51l547 588h57v-584h133v-55h-133v-211h-62z" />
    <glyph glyph-name="uni2075" unicode="&#x2075;" 
d="M412 825q-199 0 -293 82v70q100 -96 293 -96q285 0 284 231q0 219 -268 219q-162 0 -285 -69v438h570v-55h-514v-310q109 51 254 51t225 -70t80 -206q0 -285 -346 -285z" />
    <glyph glyph-name="uni2076" unicode="&#x2076;" 
d="M459 881q121 0 187 59q66 60 67 166t-61 162t-172 57q-110 0 -190 -46q-81 -46 -126 -126q29 -272 295 -272zM455 825q-354 0 -355 432q0 467 398 467q145 0 223 -51v-61q-87 57 -243 57q-316 0 -316 -420v-16q111 147 319 147q141 0 217 -70t76 -203q0 -132 -84 -207
t-235 -75z" />
    <glyph glyph-name="uni2077" unicode="&#x2077;" 
d="M94 1647v53h676v-53l-502 -797h-73l507 797h-608z" />
    <glyph glyph-name="uni2078" unicode="&#x2078;" 
d="M428 881q293 0 293 186q0 92 -71 138t-222 55q-152 -8 -222 -54t-71 -139q0 -186 293 -186zM684 1491q0 178 -256 178t-256 -178q0 -166 256 -180q256 14 256 180zM428 825q-352 0 -352 234q0 92 53 151t152 78v2q-166 39 -166 205q0 113 81 171q80 58 232 58t232 -58
t81 -171q0 -166 -166 -205v-2q97 -18 151 -78t54 -151q0 -234 -352 -234z" />
    <glyph glyph-name="uni2079" unicode="&#x2079;" 
d="M397 1669q-121 0 -187 -59q-66 -60 -67 -166t61 -162t172 -57q110 0 190 46q81 46 126 126q-29 272 -295 272zM358 825q-145 0 -223 52v61q87 -57 243 -57q316 0 316 419v17q-111 -147 -319 -148q-141 0 -217 71t-76 203t84 207t235 74q354 0 355 -432q-1 -467 -398 -467
z" />
    <glyph glyph-name="uni2080" unicode="&#x2080;" 
d="M428 -256q147 0 214 94t67 300t-67 300t-214 94t-214 -94t-67 -300t67 -300t214 -94zM428 -311q-174 1 -258 111t-84 338t84 339t258 111t258 -111t84 -339t-84 -338t-258 -111z" />
    <glyph glyph-name="uni2081" unicode="&#x2081;" 
d="M213 -287v56h238v729l-267 -123v59l277 129h51v-794h238v-56h-537z" />
    <glyph glyph-name="uni2082" unicode="&#x2082;" 
d="M94 -287v47l320 250q139 108 188 176t49 152q0 195 -227 194q-182 0 -303 -114v67q121 102 307 103q285 0 285 -248q-1 -94 -57 -173t-214 -202l-249 -196h528v-56h-627z" />
    <glyph glyph-name="uni2083" unicode="&#x2083;" 
d="M406 -311q-217 0 -314 90v67q98 -102 314 -102q276 0 276 197q0 182 -250 182h-184v53h166q231 0 231 178t-229 178q-170 0 -295 -94v64q115 86 301 86q285 0 285 -230q0 -158 -140 -200v-2q176 -41 176 -219q1 -248 -337 -248z" />
    <glyph glyph-name="uni2084" unicode="&#x2084;" 
d="M618 -20v499l-462 -499h462zM618 -287v211h-542v51l547 588h57v-583h133v-56h-133v-211h-62z" />
    <glyph glyph-name="uni2085" unicode="&#x2085;" 
d="M412 -311q-199 0 -293 82v69q100 -96 293 -96q285 0 284 231q0 219 -268 220q-162 0 -285 -70v438h570v-55h-514v-309q109 51 254 51t225 -71t80 -206q0 -284 -346 -284z" />
    <glyph glyph-name="uni2086" unicode="&#x2086;" 
d="M459 -256q121 0 187 59t67 165t-61 164q-62 56 -172 56t-190 -46q-81 -46 -126 -126q29 -272 295 -272zM455 -311q-354 0 -355 432q0 467 398 467q145 0 223 -51v-62q-87 57 -243 57q-316 0 -316 -419v-17q111 147 319 148q141 0 217 -71t76 -203t-84 -206t-235 -75z" />
    <glyph glyph-name="uni2087" unicode="&#x2087;" 
d="M94 510v53h676v-53l-502 -797h-73l507 797h-608z" />
    <glyph glyph-name="uni2088" unicode="&#x2088;" 
d="M428 -256q293 0 293 186q0 92 -71 138t-222 55q-152 -8 -222 -54t-71 -139q0 -186 293 -186zM684 354q0 178 -256 178t-256 -178q0 -166 256 -180q256 14 256 180zM428 -311q-352 0 -352 233q0 92 53 152t152 78v2q-166 39 -166 204q0 113 81 171q80 59 232 59t232 -58
t81 -172q0 -166 -166 -204v-2q97 -18 151 -78t54 -152q0 -233 -352 -233z" />
    <glyph glyph-name="uni2089" unicode="&#x2089;" 
d="M397 532q-121 0 -187 -59t-67 -165t61 -164q62 -56 172 -56t190 46q81 46 126 126q-29 272 -295 272zM358 -311q-145 0 -223 51v61q87 -57 243 -57q316 0 316 420v16q-111 -147 -319 -147q-141 1 -217 71t-76 202t84 207t235 75q354 0 355 -432q-1 -467 -398 -467z" />
    <glyph glyph-name="Euro" unicode="&#x20ac;" horiz-adv-x="1277" 
d="M831 -25q-250 0 -385 131t-165 404h-166v55h159q-4 83 -4 145t6 130h-161v55h166q35 264 165 393q131 129 375 129q190 0 318 -86v-69q-113 100 -322 100t-327 -114t-146 -353h627v-55h-633q-6 -68 -6 -130t4 -145h635v-55h-629q28 -246 148 -363t336 -117t335 101v-70
q-133 -86 -330 -86z" />
    <glyph glyph-name="uni20B9" unicode="&#x20b9;" horiz-adv-x="1277" 
d="M168 637h309q272 0 380 81t108 265v18h-813l34 56h775q-17 145 -121 213t-324 67h-364l34 56h1010l-33 -56h-340q178 -70 201 -280h172l-33 -56h-135v-16q0 -211 -123 -307t-422 -96h-213l779 -582h-103l-778 584v53z" />
    <glyph glyph-name="uni2113" unicode="&#x2113;" horiz-adv-x="841" 
d="M465 1464q-203 0 -203 -284v-713q399 315 400 721q0 276 -197 276zM500 -25q-138 -1 -218 91t-81 268v20q-72 -49 -129 -84v66q57 35 129 84v774q0 160 68 243q69 83 194 83q256 0 256 -332q0 -440 -457 -789v-55q0 -313 254 -313q111 0 211 69v-63q-89 -62 -227 -62z
" />
    <glyph glyph-name="uni2116" unicode="&#x2116;" horiz-adv-x="2451" 
d="M1542 160v55h766v-55h-766zM1925 498q322 0 322 352t-322 352t-322 -352t322 -352zM1925 442q-187 0 -285 104t-98 304q0 199 97 303t285 104t286 -104t98 -303q0 -200 -98 -304t-285 -104zM223 0v1393h82l916 -1280v1280h61v-1393h-57l-940 1317v-1317h-62z" />
    <glyph glyph-name="uni2117" unicode="&#x2117;" horiz-adv-x="1683" 
d="M676 680h239q96 0 139 40q42 40 42 128t-42 128t-139 40h-239v-336zM614 322v749h308q238 0 237 -223q0 -223 -237 -223h-246v-303h-62zM842 31q293 0 473 183t180 482q0 298 -180 482t-473 184t-473 -183q-181 -183 -181 -483t180 -482q180 -183 474 -183zM842 -25
q-322 0 -518 199q-196 198 -197 522q0 324 197 523q196 199 518 199t518 -200q196 -198 196 -522t-196 -522t-518 -199z" />
    <glyph glyph-name="uni2120" unicode="&#x2120;" horiz-adv-x="1589" 
d="M766 743v650h84l264 -580l264 580h82v-650h-61v562l-258 -562h-58l-258 562v-562h-59zM338 729q-152 0 -229 62v65q96 -70 231 -70q172 0 172 129q0 51 -32 80t-107 43l-86 17q-88 16 -128 54t-40 119t60 129t177 48t183 -49v-66q-74 57 -195 58q-166 0 -166 -125
q0 -47 31 -73t104 -40l86 -16q95 -18 135 -60t39 -114q1 -191 -235 -191z" />
    <glyph glyph-name="trademark" unicode="&#x2122;" horiz-adv-x="1550" 
d="M727 743v650h84l264 -580l264 580h82v-650h-61v562l-258 -562h-58l-258 562v-562h-59zM270 743v594h-225v56h512v-56h-225v-594h-62z" />
    <glyph glyph-name="uni2126" unicode="&#x2126;" horiz-adv-x="1466" 
d="M129 0v59h332q-332 233 -332 693q0 319 158 492q159 173 447 173t446 -173t157 -492q0 -459 -331 -693h331v-59h-434v53q371 225 371 697q0 296 -138 452t-402 156t-403 -156q-138 -156 -138 -452q0 -471 370 -697v-53h-434z" />
    <glyph glyph-name="estimated" unicode="&#x212e;" horiz-adv-x="1744" 
d="M416 719h944q12 0 12 12v395q0 25 -20 45q-193 203 -465 203t-463 -211q-18 -23 -18 -45v-389q0 -10 10 -10zM887 -25q-315 0 -538 211q-222 211 -222 510t222 510q221 211 537 211t538 -211t223 -510v-18h-1231q-10 0 -10 -10v-392q0 -20 18 -43q182 -215 467 -215
q141 0 270 65t219 175h111q-106 -131 -265 -207t-339 -76z" />
    <glyph glyph-name="uni2153" unicode="&#x2153;" horiz-adv-x="1945" 
d="M1495 -25q-217 0 -313 91v67q98 -102 313 -102q276 0 277 196q0 182 -250 183h-185v53h166q231 0 232 176q0 180 -230 180q-170 0 -295 -94v63q115 86 301 86q285 0 285 -229q0 -158 -139 -201v-2q176 -41 176 -219q0 -248 -338 -248zM213 543v55h238v729l-267 -123v60
l277 129h51v-795h238v-55h-537zM557 -25l768 1442h64l-768 -1442h-64z" />
    <glyph glyph-name="uni2154" unicode="&#x2154;" horiz-adv-x="1945" 
d="M1495 -25q-217 0 -313 91v67q98 -102 313 -102q276 0 277 196q0 182 -250 183h-185v53h166q231 0 232 176q0 180 -230 180q-170 0 -295 -94v63q115 86 301 86q285 0 285 -229q0 -158 -139 -201v-2q176 -41 176 -219q0 -248 -338 -248zM557 -25l768 1442h64l-768 -1442
h-64zM94 543v47l320 250q139 108 188 176t49 151q0 195 -227 195q-182 0 -303 -115v68q121 102 307 102q285 0 285 -248q-1 -94 -57 -173t-214 -201l-249 -197h528v-55h-627z" />
    <glyph glyph-name="uni2155" unicode="&#x2155;" horiz-adv-x="1945" 
d="M1501 -25q-199 0 -293 82v70q100 -96 293 -96q285 0 285 231q0 219 -268 219q-162 0 -285 -69v438h569v-55h-514v-310q108 51 254 51t226 -70q80 -71 79 -206q0 -285 -346 -285zM213 543v55h238v729l-267 -123v60l277 129h51v-795h238v-55h-537zM557 -25l768 1442h64
l-768 -1442h-64z" />
    <glyph glyph-name="uni2156" unicode="&#x2156;" horiz-adv-x="1945" 
d="M1501 -25q-199 0 -293 82v70q100 -96 293 -96q285 0 285 231q0 219 -268 219q-162 0 -285 -69v438h569v-55h-514v-310q108 51 254 51t226 -70q80 -71 79 -206q0 -285 -346 -285zM557 -25l768 1442h64l-768 -1442h-64zM94 543v47l320 250q139 108 188 176t49 151
q0 195 -227 195q-182 0 -303 -115v68q121 102 307 102q285 0 285 -248q-1 -94 -57 -173t-214 -201l-249 -197h528v-55h-627z" />
    <glyph glyph-name="uni2157" unicode="&#x2157;" horiz-adv-x="1945" 
d="M1501 -25q-199 0 -293 82v70q100 -96 293 -96q285 0 285 231q0 219 -268 219q-162 0 -285 -69v438h569v-55h-514v-310q108 51 254 51t226 -70q80 -71 79 -206q0 -285 -346 -285zM557 -25l768 1442h64l-768 -1442h-64zM406 518q-217 0 -314 90v68q98 -102 314 -103
q276 0 276 197q0 182 -250 182h-184v54h166q231 0 231 178t-229 178q-170 0 -295 -94v63q115 86 301 86q285 0 285 -229q0 -158 -140 -201v-2q176 -41 176 -219q1 -248 -337 -248z" />
    <glyph glyph-name="uni2158" unicode="&#x2158;" horiz-adv-x="1945" 
d="M1501 -25q-199 0 -293 82v70q100 -96 293 -96q285 0 285 231q0 219 -268 219q-162 0 -285 -69v438h569v-55h-514v-310q108 51 254 51t226 -70q80 -71 79 -206q0 -285 -346 -285zM618 809v500l-462 -500h462zM618 543v211h-542v51l547 588h57v-584h133v-55h-133v-211h-62z
M557 -25l768 1442h64l-768 -1442h-64z" />
    <glyph glyph-name="uni2159" unicode="&#x2159;" horiz-adv-x="1945" 
d="M1548 31q121 0 188 59q66 60 66 166t-61 162t-171 57q-110 0 -190 -46q-82 -46 -127 -126q29 -272 295 -272zM1544 -25q-354 0 -354 433q0 467 397 466q145 0 223 -51v-61q-86 57 -242 57q-316 0 -317 -420v-16q111 147 320 147q141 0 217 -70t76 -203q0 -132 -84 -207
t-236 -75zM213 543v55h238v729l-267 -123v60l277 129h51v-795h238v-55h-537zM557 -25l768 1442h64l-768 -1442h-64z" />
    <glyph glyph-name="uni215A" unicode="&#x215a;" horiz-adv-x="1945" 
d="M1548 31q121 0 188 59q66 60 66 166t-61 162t-171 57q-110 0 -190 -46q-82 -46 -127 -126q29 -272 295 -272zM1544 -25q-354 0 -354 433q0 467 397 466q145 0 223 -51v-61q-86 57 -242 57q-316 0 -317 -420v-16q111 147 320 147q141 0 217 -70t76 -203q0 -132 -84 -207
t-236 -75zM412 518q-199 0 -293 82v70q100 -96 293 -97q285 0 284 232q0 219 -268 219q-162 0 -285 -70v439h570v-56h-514v-309q109 51 254 51q145 -1 225 -71t80 -205q0 -285 -346 -285zM557 -25l768 1442h64l-768 -1442h-64z" />
    <glyph glyph-name="oneeighth" unicode="&#x215b;" horiz-adv-x="1945" 
d="M1518 31q293 0 292 186q0 92 -70 138q-71 46 -222 55q-152 -8 -223 -54t-70 -139q0 -186 293 -186zM1774 641q0 178 -256 178t-256 -178q0 -166 256 -180q256 14 256 180zM1518 -25q-352 0 -353 234q-1 92 53 151t152 78v2q-166 39 -166 205q0 113 81 171t233 58t232 -58
t81 -171q0 -166 -166 -205v-2q97 -18 151 -78t54 -151q0 -234 -352 -234zM213 543v55h238v729l-267 -123v60l277 129h51v-795h238v-55h-537zM557 -25l768 1442h64l-768 -1442h-64z" />
    <glyph glyph-name="threeeighths" unicode="&#x215c;" horiz-adv-x="1945" 
d="M1518 31q293 0 292 186q0 92 -70 138q-71 46 -222 55q-152 -8 -223 -54t-70 -139q0 -186 293 -186zM1774 641q0 178 -256 178t-256 -178q0 -166 256 -180q256 14 256 180zM1518 -25q-352 0 -353 234q-1 92 53 151t152 78v2q-166 39 -166 205q0 113 81 171t233 58t232 -58
t81 -171q0 -166 -166 -205v-2q97 -18 151 -78t54 -151q0 -234 -352 -234zM557 -25l768 1442h64l-768 -1442h-64zM406 518q-217 0 -314 90v68q98 -102 314 -103q276 0 276 197q0 182 -250 182h-184v54h166q231 0 231 178t-229 178q-170 0 -295 -94v63q115 86 301 86
q285 0 285 -229q0 -158 -140 -201v-2q176 -41 176 -219q1 -248 -337 -248z" />
    <glyph glyph-name="fiveeighths" unicode="&#x215d;" horiz-adv-x="1945" 
d="M1518 31q293 0 292 186q0 92 -70 138q-71 46 -222 55q-152 -8 -223 -54t-70 -139q0 -186 293 -186zM1774 641q0 178 -256 178t-256 -178q0 -166 256 -180q256 14 256 180zM1518 -25q-352 0 -353 234q-1 92 53 151t152 78v2q-166 39 -166 205q0 113 81 171t233 58t232 -58
t81 -171q0 -166 -166 -205v-2q97 -18 151 -78t54 -151q0 -234 -352 -234zM412 518q-199 0 -293 82v70q100 -96 293 -97q285 0 284 232q0 219 -268 219q-162 0 -285 -70v439h570v-56h-514v-309q109 51 254 51q145 -1 225 -71t80 -205q0 -285 -346 -285zM557 -25l768 1442h64
l-768 -1442h-64z" />
    <glyph glyph-name="seveneighths" unicode="&#x215e;" horiz-adv-x="1945" 
d="M1518 31q293 0 292 186q0 92 -70 138q-71 46 -222 55q-152 -8 -223 -54t-70 -139q0 -186 293 -186zM1774 641q0 178 -256 178t-256 -178q0 -166 256 -180q256 14 256 180zM1518 -25q-352 0 -353 234q-1 92 53 151t152 78v2q-166 39 -166 205q0 113 81 171t233 58t232 -58
t81 -171q0 -166 -166 -205v-2q97 -18 151 -78t54 -151q0 -234 -352 -234zM94 1339v54h676v-54l-502 -796h-73l507 796h-608zM467 -25l768 1442h63l-768 -1442h-63z" />
    <glyph glyph-name="arrowleft" unicode="&#x2190;" horiz-adv-x="1495" 
d="M1456 725v-57h-1309l564 -559l-41 -41l-629 628l629 629l41 -41l-564 -559h1309z" />
    <glyph glyph-name="arrowup" unicode="&#x2191;" horiz-adv-x="1495" 
d="M717 0v1309l-539 -543l-41 41l611 610l610 -610l-41 -41l-539 543v-1309h-61z" />
    <glyph glyph-name="arrowright" unicode="&#x2192;" horiz-adv-x="1495" 
d="M39 668v57h1309l-564 559l41 41l629 -629l-629 -628l-41 41l564 559h-1309z" />
    <glyph glyph-name="arrowdown" unicode="&#x2193;" horiz-adv-x="1495" 
d="M717 1393h61v-1309l539 543l41 -41l-610 -611l-611 611l41 41l539 -543v1309z" />
    <glyph glyph-name="arrowboth" unicode="&#x2194;" horiz-adv-x="1925" 
d="M629 109l-588 587l588 588l41 -41l-523 -518h1631l-523 518l41 41l588 -588l-588 -587l-41 41l523 518h-1631l523 -518z" />
    <glyph glyph-name="arrowupdn" unicode="&#x2195;" horiz-adv-x="1495" 
d="M748 -172l-590 590l41 41l518 -522v1519l-518 -522l-41 41l590 590l589 -590l-41 -41l-518 522v-1519l518 522l41 -41z" />
    <glyph glyph-name="uni2196" unicode="&#x2196;" horiz-adv-x="1495" 
d="M211 367v878h879v-55l-785 2l1045 -1045l-41 -41l-1041 1041l2 -780h-59z" />
    <glyph glyph-name="uni2197" unicode="&#x2197;" horiz-adv-x="1495" 
d="M406 1245h878v-878h-59l2 780l-1041 -1041l-41 41l1045 1045l-784 -2v55z" />
    <glyph glyph-name="uni2198" unicode="&#x2198;" horiz-adv-x="1495" 
d="M406 147v56l784 -2l-1045 1044l41 41l1041 -1040l-2 780h59v-879h-878z" />
    <glyph glyph-name="uni2199" unicode="&#x2199;" horiz-adv-x="1495" 
d="M211 147v879h59l-2 -780l1041 1040l41 -41l-1045 -1044l785 2v-56h-879z" />
    <glyph glyph-name="partialdiff" unicode="&#x2202;" horiz-adv-x="1310" 
d="M199 445q-1 -194 105 -304t296 -110t308 127t157 366q-61 160 -185 249t-297 89t-279 -111q-105 -112 -105 -306zM592 -25q-211 0 -333 126t-122 341t123 345t334 131q162 0 288 -77t195 -214q6 78 6 164q1 339 -109 497t-349 158q-193 0 -320 -96v69q133 82 324 82
q268 0 391 -171q123 -172 123 -548t-139 -592q-140 -215 -412 -215z" />
    <glyph glyph-name="emptyset" unicode="&#x2205;" horiz-adv-x="1773" 
d="M894 31q278 0 465 189q187 190 187 466t-166 465l-948 -948q184 -172 462 -172zM880 1362q-278 0 -465 -190t-187 -466t165 -464l948 948q-183 172 -461 172zM166 706q0 302 205 506q205 205 507 205t504 -186l187 186l39 -39l-187 -186q187 -203 187 -505t-205 -507
t-507 -205t-505 187l-186 -187l-39 39l186 187q-186 203 -186 505z" />
    <glyph glyph-name="uni2206" unicode="&#x2206;" horiz-adv-x="1261" 
d="M117 59h1026l-512 1270zM27 0l565 1393h78l565 -1393h-1208z" />
    <glyph glyph-name="product" unicode="&#x220f;" horiz-adv-x="1738" 
d="M238 -379v1938h1263v-1938h-61v1882h-1141v-1882h-61z" />
    <glyph glyph-name="summation" unicode="&#x2211;" horiz-adv-x="1251" 
d="M45 -379v53l743 916l-743 915v54h1161v-56h-1083l737 -913l-737 -914h1083v-55h-1161z" />
    <glyph glyph-name="minus" unicode="&#x2212;" horiz-adv-x="1277" 
d="M119 582v57h1040v-57h-1040z" />
    <glyph glyph-name="uni2215" unicode="&#x2215;" horiz-adv-x="851" 
d="M31 -25l727 1442h63l-727 -1442h-63z" />
    <glyph glyph-name="uni2219" unicode="&#x2219;" horiz-adv-x="544" 
d="M223 537v112h99v-112h-99z" />
    <glyph glyph-name="radical" unicode="&#x221a;" horiz-adv-x="1224" 
d="M119 582v57h225l246 -549l586 1469h59l-623 -1559h-45l-260 582h-188z" />
    <glyph glyph-name="infinity" unicode="&#x221e;" horiz-adv-x="1847" 
d="M186 607q0 -163 86 -257t222 -94q137 0 225 75t176 273q-35 70 -56 109q-69 122 -148 186t-207 64q-126 -1 -212 -97t-86 -259zM1661 614q0 162 -85 256t-222 94q-136 0 -224 -74q-88 -75 -178 -274q112 -219 199 -288q87 -70 213 -70q127 0 212 97t85 259zM484 201
q-156 0 -258 109q-101 110 -101 297t102 300q103 113 265 113t254 -90t178 -256q88 194 186 270t254 76t257 -110t101 -297t-102 -300t-264 -113t-255 91q-93 90 -177 256q-88 -193 -186 -269t-254 -77z" />
    <glyph glyph-name="integral" unicode="&#x222b;" horiz-adv-x="598" 
d="M131 -401q-59 0 -127 22v60q66 -27 129 -27q113 0 158 66t45 258q0 190 -68 614t-68 626t61 284q60 82 202 83q53 0 131 -22v-62q-63 29 -129 29q-111 0 -156 -67t-45 -259t68 -616t68 -624t-62 -282t-207 -83z" />
    <glyph glyph-name="approxequal" unicode="&#x2248;" horiz-adv-x="1277" 
d="M887 227q-49 -1 -101 19t-82 40q-28 20 -81 58q-147 111 -240 111q-139 0 -227 -158l-45 29q100 184 280 184q115 0 260 -114t244 -113q139 0 227 157l45 -28q-100 -185 -280 -185zM887 711q-49 0 -101 19q-52 18 -82 38q-28 20 -81 59q-147 111 -240 111
q-139 0 -227 -158l-45 29q100 184 280 184q115 1 260 -113t244 -114q139 0 227 158l45 -29q-100 -184 -280 -184z" />
    <glyph glyph-name="notequal" unicode="&#x2260;" horiz-adv-x="1277" 
d="M1159 823h-305l-356 -426h661v-57h-708l-205 -244h-74l205 244h-258v57h305l356 426h-661v58h708l205 243h74l-205 -243h258v-58z" />
    <glyph glyph-name="lessequal" unicode="&#x2264;" horiz-adv-x="1277" 
d="M119 0v57h1040v-57h-1040zM1159 225l-1040 449v45l1040 448v-63l-964 -408l964 -407v-64z" />
    <glyph glyph-name="greaterequal" unicode="&#x2265;" horiz-adv-x="1277" 
d="M119 0v57h1040v-57h-1040zM119 225v64l964 407l-964 408v63l1040 -448v-45z" />
    <glyph glyph-name="lozenge" unicode="&#x25ca;" horiz-adv-x="1277" 
d="M639 37l485 659l-485 660l-485 -660zM639 -66l-559 762l559 762l559 -762z" />
    <glyph glyph-name="uniF8FF" unicode="&#xf8ff;" horiz-adv-x="1394" 
d="M600 420q147 0 148 188v109h-101q-182 0 -182 -156q0 -65 36 -103t99 -38zM1069 612q0 -238 -130 -374t-341 -136t-338 125t-127 333t132 335t380 127h103v238h321v-238h270v-305h-270v-105z" />
    <glyph glyph-name="Iacute_J.loclNLD" horiz-adv-x="1439" 
d="M1241 416q-1 -441 -375 -441q-186 0 -317 88v68q127 -96 302 -96t251 90t76 297v971h63v-977zM223 0v1393h64v-1393h-64zM1094 1565l233 272h74l-242 -272h-65zM141 1565l234 272h74l-242 -272h-66z" />
    <glyph glyph-name="iacute_j.loclNLD" horiz-adv-x="925" 
d="M532 -403q-43 0 -73 8v55q31 -8 67 -8q137 0 138 147v1215h61v-1215q0 -202 -193 -202zM201 0v1014h61v-1014h-61zM580 1210l233 273h74l-242 -273h-65zM117 1210l233 273h74l-242 -273h-65z" />
    <glyph glyph-name="i.loclTRK" horiz-adv-x="462" 
d="M201 0v1014h61v-1014h-61zM195 1278v115h73v-115h-73z" />
    <glyph glyph-name="germandbls.calt" horiz-adv-x="1353" 
d="M852 -25q-164 0 -283 64v67q125 -72 296 -72t268 93q96 92 96 268q0 389 -447 389h-116v50l458 499h-837v-1333h-64v1393h987v-54l-456 -495h30q250 0 379 -114t129 -328q0 -427 -440 -427z" />
    <glyph glyph-name="zero.pf" horiz-adv-x="1392" 
d="M696 31q233 -1 342 159t109 506t-109 506t-342 160t-342 -160q-108 -160 -108 -506t108 -506q109 -159 342 -159zM696 -25q-264 1 -388 175t-124 546t124 547q124 174 388 174t388 -174t124 -547t-124 -547t-388 -174z" />
    <glyph glyph-name="one.pf" horiz-adv-x="1056" 
d="M236 0v55h331v1272l-368 -205v60l379 211h51v-1338h332v-55h-725z" />
    <glyph glyph-name="two.pf" horiz-adv-x="1208" 
d="M96 0v53l502 416q229 188 311 306t82 255q0 332 -381 332q-289 0 -471 -195v76q180 174 471 174q215 0 327 -100t112 -291q1 -152 -91 -283t-337 -331l-433 -355h875v-57h-967z" />
    <glyph glyph-name="three.pf" horiz-adv-x="1253" 
d="M592 -25q-332 0 -465 152v76q135 -172 467 -172q223 0 338 88t115 258q0 313 -394 313h-286v55h256q371 0 370 306q0 311 -372 311q-279 0 -447 -162v72q168 145 449 145q430 0 430 -366q0 -262 -226 -326v-2q281 -59 281 -350q0 -398 -516 -398z" />
    <glyph glyph-name="four.pf" horiz-adv-x="1275" 
d="M946 422v885l-778 -885h778zM946 0v367h-852v53l858 973h56v-971h206v-55h-206v-367h-62z" />
    <glyph glyph-name="five.pf" horiz-adv-x="1191" 
d="M1083 426q-1 -451 -539 -451q-276 0 -413 142v76q143 -162 438 -162q223 0 338 100t115 295t-116 294t-334 99t-400 -96v670h842v-56h-785v-530q164 68 351 67q244 0 374 -114t129 -334z" />
    <glyph glyph-name="six.pf" horiz-adv-x="1343" 
d="M713 31q199 -1 307 107t108 299t-98 291t-271 101t-303 -79t-204 -232q43 -487 461 -487zM711 -25q-526 0 -527 687q0 372 151 564t441 191q219 0 336 -86v-67q-123 98 -336 98q-262 0 -396 -176t-134 -520v-56q170 274 502 275q210 0 326 -116t116 -332t-126 -339
t-353 -123z" />
    <glyph glyph-name="seven.pf" horiz-adv-x="1153" 
d="M86 1337v56h989v-64l-766 -1329h-71l778 1337h-930z" />
    <glyph glyph-name="eight.pf" horiz-adv-x="1355" 
d="M678 31q469 0 469 323q0 158 -115 240t-354 94q-240 -12 -354 -94t-115 -238q0 -325 469 -325zM1092 1053q0 153 -106 231t-308 78q-203 0 -308 -79t-106 -230q0 -287 414 -312q414 25 414 312zM678 -25q-258 -1 -394 95t-136 263t92 263t260 121v2q-139 23 -217 111
t-78 229q0 174 122 266t351 92t351 -92t122 -266q0 -139 -78 -229t-217 -111v-2q168 -25 260 -121t92 -248q0 -182 -136 -278t-394 -95z" />
    <glyph glyph-name="nine.pf" horiz-adv-x="1343" 
d="M215 955q1 -191 99 -291t271 -101q173 0 303 80t204 231q-43 487 -461 488q-199 0 -307 -108t-109 -299zM567 -25q-219 0 -336 86v68q123 -98 336 -98q262 0 397 176q134 176 134 520v55q-170 -274 -502 -274q-211 0 -327 116q-115 116 -115 332t126 338q126 123 353 123
q526 0 526 -686q-1 -371 -151 -563t-441 -193z" />
    <glyph glyph-name="zero.numr" 
d="M428 573q147 1 214 95t67 300t-67 300t-214 94t-214 -94t-67 -300t67 -300t214 -95zM428 518q-174 0 -258 111t-84 339t84 339t258 111t258 -112q84 -110 84 -338t-84 -339t-258 -111z" />
    <glyph glyph-name="one.numr" 
d="M213 543v55h238v729l-267 -123v60l277 129h51v-795h238v-55h-537z" />
    <glyph glyph-name="two.numr" 
d="M94 543v47l320 250q139 108 188 176t49 151q0 195 -227 195q-182 0 -303 -115v68q121 102 307 102q285 0 285 -248q-1 -94 -57 -173t-214 -201l-249 -197h528v-55h-627z" />
    <glyph glyph-name="three.numr" 
d="M406 518q-217 0 -314 90v68q98 -102 314 -103q276 0 276 197q0 182 -250 182h-184v54h166q231 0 231 178t-229 178q-170 0 -295 -94v63q115 86 301 86q285 0 285 -229q0 -158 -140 -201v-2q176 -41 176 -219q1 -248 -337 -248z" />
    <glyph glyph-name="four.numr" 
d="M618 809v500l-462 -500h462zM618 543v211h-542v51l547 588h57v-584h133v-55h-133v-211h-62z" />
    <glyph glyph-name="five.numr" 
d="M412 518q-199 0 -293 82v70q100 -96 293 -97q285 0 284 232q0 219 -268 219q-162 0 -285 -70v439h570v-56h-514v-309q109 51 254 51q145 -1 225 -71t80 -205q0 -285 -346 -285z" />
    <glyph glyph-name="six.numr" 
d="M459 573q121 -1 187 59t67 166t-61 164q-62 56 -172 56t-190 -46q-81 -46 -126 -126q29 -273 295 -273zM455 518q-354 0 -355 432q0 467 398 467q145 0 223 -51v-61q-87 57 -243 57q-316 0 -316 -420v-16q111 147 319 147q141 0 217 -71q76 -70 76 -202t-84 -207
t-235 -75z" />
    <glyph glyph-name="seven.numr" 
d="M94 1339v54h676v-54l-502 -796h-73l507 796h-608z" />
    <glyph glyph-name="eight.numr" 
d="M428 573q293 0 293 187q0 92 -71 138t-222 54q-152 -8 -222 -54t-71 -138q0 -187 293 -187zM684 1184q0 178 -256 178t-256 -178q0 -166 256 -180q256 14 256 180zM428 518q-352 0 -352 234q0 92 53 151t152 78v2q-166 39 -166 205q0 113 81 171q80 58 232 58t232 -58
t81 -171q0 -166 -166 -205v-2q97 -17 151 -77t54 -152q0 -234 -352 -234z" />
    <glyph glyph-name="nine.numr" 
d="M397 1362q-121 0 -187 -59t-67 -165t61 -164q62 -56 172 -56t190 46q81 46 126 126q-29 272 -295 272zM358 518q-145 0 -223 51v62q87 -57 243 -57q316 -1 316 419v17q-111 -147 -319 -148q-141 0 -217 71t-76 203t84 206t235 75q354 0 355 -432q-1 -467 -398 -467z" />
    <glyph glyph-name="zero.dnom" 
d="M428 31q147 0 214 94t67 300t-67 300t-214 94t-214 -94t-67 -300t67 -300t214 -94zM428 -25q-174 0 -258 111t-84 339t84 339q84 110 258 110t258 -110t84 -339q0 -228 -84 -339t-258 -111z" />
    <glyph glyph-name="one.dnom" 
d="M213 0v55h238v729l-267 -122v59l277 129h51v-795h238v-55h-537z" />
    <glyph glyph-name="two.dnom" 
d="M94 0v47l320 250q139 109 188 177t49 151q0 195 -227 194q-182 0 -303 -114v67q121 102 307 102q285 0 285 -247q-1 -94 -57 -173t-214 -202l-249 -197h528v-55h-627z" />
    <glyph glyph-name="three.dnom" 
d="M406 -25q-217 0 -314 91v67q98 -102 314 -102q276 0 276 196q0 182 -250 183h-184v53h166q231 0 231 178t-229 178q-170 0 -295 -94v63q115 86 301 86q285 0 285 -229q0 -158 -140 -201v-2q176 -41 176 -219q1 -248 -337 -248z" />
    <glyph glyph-name="four.dnom" 
d="M618 266v500l-462 -500h462zM618 0v211h-542v51l547 588h57v-584h133v-55h-133v-211h-62z" />
    <glyph glyph-name="five.dnom" 
d="M412 -25q-199 0 -293 82v70q100 -96 293 -96q285 0 284 231q0 219 -268 219q-162 0 -285 -69v438h570v-55h-514v-310q109 51 254 51t225 -70q80 -71 80 -206q0 -285 -346 -285z" />
    <glyph glyph-name="six.dnom" 
d="M459 31q121 0 187 59q66 60 67 166t-61 162t-172 57q-110 0 -190 -46q-81 -46 -126 -126q29 -272 295 -272zM455 -25q-354 0 -355 433q0 467 398 466q145 0 223 -51v-61q-87 57 -243 57q-316 0 -316 -420v-16q111 147 319 147q141 0 217 -70t76 -203q0 -132 -84 -207
t-235 -75z" />
    <glyph glyph-name="seven.dnom" 
d="M94 797v53h676v-53l-502 -797h-73l507 797h-608z" />
    <glyph glyph-name="eight.dnom" 
d="M428 31q293 0 293 186q0 92 -71 138t-222 55q-152 -8 -222 -54t-71 -139q0 -186 293 -186zM684 641q0 178 -256 178t-256 -178q0 -166 256 -180q256 14 256 180zM428 -25q-352 0 -352 234q0 92 53 151t152 78v2q-166 39 -166 205q0 113 81 171q80 58 232 58t232 -58
t81 -171q0 -166 -166 -205v-2q97 -18 151 -78t54 -151q0 -234 -352 -234z" />
    <glyph glyph-name="nine.dnom" 
d="M397 819q-121 0 -187 -59q-66 -60 -67 -166t61 -162t172 -57q110 0 190 46q81 46 126 126q-29 272 -295 272zM358 -25q-145 0 -223 52v61q87 -57 243 -57q316 0 316 420v16q-111 -147 -319 -148q-141 0 -217 71t-76 203t84 207t235 74q354 0 355 -432q-1 -467 -398 -467z
" />
    <glyph glyph-name="exclamdown.case" horiz-adv-x="600" 
d="M266 0l8 1030h52l8 -1030h-68zM252 1280v113h96v-113h-96z" />
    <glyph glyph-name="questiondown.case" horiz-adv-x="909" 
d="M438 -25q-180 0 -276 87t-96 253q0 102 43 172t159 158l119 90q88 66 116 119t27 156v20h54v-20q0 -119 -33 -184t-127 -134l-117 -86q-102 -76 -141 -138t-39 -153q0 -285 311 -284q260 0 406 188v-76q-146 -168 -406 -168zM510 1280v113h94v-113h-94z" />
    <glyph glyph-name="at.case" horiz-adv-x="1628" 
d="M768 365q166 0 285 155v164q-100 25 -225 25q-126 0 -186 -43t-60 -134q0 -167 186 -167zM856 -57q-360 0 -545 186q-184 186 -184 557q0 372 185 568t540 196q655 0 655 -676q-1 -221 -71 -343t-210 -122t-165 146q-119 -145 -301 -146q-117 -1 -179 59t-63 167
q0 229 313 229q117 0 222 -21v58q1 131 -55 188t-194 57t-235 -75v63q102 68 255 68t223 -69t69 -222v-283q0 -164 119 -163q102 0 158 104q55 104 55 297q0 629 -600 629q-324 1 -492 -181t-168 -528q0 -688 668 -688q272 0 463 111v-62q-193 -104 -463 -104z" />
    <glyph glyph-name="parenleft.case" horiz-adv-x="598" 
d="M139 696q0 270 93 502t253 367h74q-170 -135 -264 -361t-94 -508q0 -281 94 -507t264 -361h-74q-160 134 -253 366t-93 502z" />
    <glyph glyph-name="parenright.case" horiz-adv-x="598" 
d="M397 696q0 281 -94 507t-264 362h74q160 -133 253 -365t93 -504q0 -270 -93 -502t-253 -366h-74q170 135 264 361t94 507z" />
    <glyph glyph-name="braceleft.case" horiz-adv-x="598" 
d="M479 -172q-129 0 -188 74t-60 231v371q0 96 -35 132q-36 36 -135 36v49q98 0 135 36q36 36 35 132v371q-1 158 59 232t189 73h78v-49h-78q-98 0 -143 -62t-45 -194v-361q0 -176 -115 -201v-4q115 -25 115 -200v-361q0 -133 45 -194t143 -62h78v-49h-78z" />
    <glyph glyph-name="braceright.case" horiz-adv-x="598" 
d="M41 -172v49h78q98 -1 143 61t45 195v361q0 176 115 200v4q-115 25 -115 201v361q0 133 -45 194t-143 62h-78v49h78q129 0 188 -74t60 -231v-371q-1 -96 35 -132t135 -36v-49q-99 0 -135 -36t-35 -132v-371q1 -157 -59 -231t-189 -74h-78z" />
    <glyph glyph-name="bracketleft.case" horiz-adv-x="598" 
d="M233 -172v1737h324v-49h-264v-1639h264v-49h-324z" />
    <glyph glyph-name="bracketright.case" horiz-adv-x="598" 
d="M41 -172v49h264v1639h-264v49h324v-1737h-324z" />
    <glyph glyph-name="bar.case" horiz-adv-x="536" 
d="M240 -328v2048h57v-2048h-57z" />
    <glyph glyph-name="brokenbar.case" horiz-adv-x="536" 
d="M240 -328v820h57v-820h-57zM240 901v819h57v-819h-57z" />
    <glyph glyph-name="periodcentered.case" horiz-adv-x="544" 
d="M223 639v113h99v-113h-99z" />
    <glyph glyph-name="bullet.case" horiz-adv-x="1064" 
d="M399 559v275h267v-275h-267z" />
    <glyph glyph-name="hyphen.case" horiz-adv-x="731" 
d="M72 666v61h587v-61h-587z" />
    <glyph glyph-name="uni00AD.case" horiz-adv-x="731" 
d="M72 666v61h587v-61h-587z" />
    <glyph glyph-name="figuredash.case" horiz-adv-x="1269" 
d="M72 670v53h1126v-53h-1126z" />
    <glyph glyph-name="endash.case" horiz-adv-x="1064" 
d="M72 670v53h921v-53h-921z" />
    <glyph glyph-name="emdash.case" horiz-adv-x="1884" 
d="M72 670v53h1740v-53h-1740z" />
    <glyph glyph-name="guillemotleft.case" horiz-adv-x="804" 
d="M680 324l-268 372l268 373h70l-267 -373l267 -372h-70zM324 324l-269 372l269 373h69l-266 -373l266 -372h-69z" />
    <glyph glyph-name="guillemotright.case" horiz-adv-x="804" 
d="M412 324l266 372l-266 373h69l269 -373l-269 -372h-69zM55 324l267 372l-267 373h70l268 -373l-268 -372h-70z" />
    <glyph glyph-name="guilsinglleft.case" horiz-adv-x="448" 
d="M324 324l-269 372l269 373h69l-266 -373l266 -372h-69z" />
    <glyph glyph-name="guilsinglright.case" horiz-adv-x="448" 
d="M55 324l267 372l-267 373h70l268 -373l-268 -372h-70z" />
    <glyph glyph-name="caron.alt" horiz-adv-x="241" 
d="M57 1116l90 379h58l-99 -379h-49z" />
    <glyph glyph-name="ringacute" horiz-adv-x="1064" 
d="M532 1188q45 0 74 30t29 74t-29 75q-29 30 -74 30q-46 0 -74 -30t-28 -75q0 -44 28 -74t74 -30zM532 1137q-68 0 -112 44q-44 43 -45 111q0 68 45 112q44 44 112 44t113 -44t45 -112t-45 -112t-113 -43zM418 1532l233 272h74l-242 -272h-65z" />
    <glyph glyph-name="NULL" horiz-adv-x="0" 
 />
    </font>
</defs>
</svg>
