<?xml version="1.0" encoding="UTF-8"?>
<svg width="164px" height="154px" viewBox="0 0 164 154" version="1.1" xmlns="http://www.w3.org/2000/svg" xmlns:xlink="http://www.w3.org/1999/xlink">
    <!-- Generator: Sketch 43.2 (39069) - http://www.bohemiancoding.com/sketch -->
    <title>daisydebt.thumb</title>
    <desc>Created with Sketch.</desc>
    <defs>
        <polygon id="path-1" points="0 153.197674 163.250286 153.197674 163.250286 0.436162791 0 0.436162791"></polygon>
    </defs>
    <g id="Page-1" stroke="none" stroke-width="1" fill="none" fill-rule="evenodd">
        <g id="Desktop-HD" transform="translate(-1051.000000, -983.000000)">
            <g id="GR/letter-open" transform="translate(1051.000000, 982.000000)">
                <g id="Page-1">
                    <polygon id="Fill-1" fill="#B4E2EB" points="159.598492 62.9332442 82.5293055 5.3309186 3.68495385 62.9332442"></polygon>
                    <g id="Group-13" transform="translate(0.000000, 1.365983)">
                        <path d="M158.610708,150.360273 L4.63993846,150.360273 C3.64332308,150.360273 2.83774066,149.552831 2.83774066,148.557948 L2.83774066,62.5942267 C2.83774066,61.599343 3.64332308,60.7919012 4.63993846,60.7919012 L158.610708,60.7919012 C159.605521,60.7919012 160.412905,61.599343 160.412905,62.5942267 L160.412905,148.557948 C160.412905,149.552831 159.605521,150.360273 158.610708,150.360273 L158.610708,150.360273 Z" id="Fill-2" fill="#FEFEFE"></path>
                        <polygon id="Fill-4" fill="#B4E2EB" points="4.41682637 61.0328721 82.3024088 106.373977 158.980519 61.1049651 158.238013 60.5498488 5.07823297 60.5498488"></polygon>
                        <polygon id="Fill-6" fill="#FEFEFE" points="82.3033099 101.340262 23.8237934 67.065436 23.8237934 17.4510174 142.278651 17.4510174 142.278651 65.2234593"></polygon>
                        <mask id="mask-2" fill="white">
                            <use xlink:href="#path-1"></use>
                        </mask>
                        <g id="Clip-9"></g>
                        <polygon id="Fill-8" fill="#50C2DE" mask="url(#mask-2)" points="36.8945934 43.7280233 63.7022857 43.7280233 63.7022857 31.863314 36.8945934 31.863314"></polygon>
                        <polygon id="Fill-10" fill="#50C2DE" mask="url(#mask-2)" points="36.8945934 54.3401163 63.7022857 54.3401163 63.7022857 50.3930233 36.8945934 50.3930233"></polygon>
                        <polygon id="Fill-11" fill="#E0F2F6" mask="url(#mask-2)" points="82.3033099 101.340262 36.8951341 74.7253198 36.8951341 64.1727035 129.358695 64.1853198 129.358695 73.0040988"></polygon>
                        <path d="M82.5478681,0.436343023 L80.8556044,1.67273837 L63.1418022,14.613436 L23.8250549,14.613436 L20.9865934,14.613436 L20.9865934,17.4520988 L20.9865934,45.4314012 L2.41134066,59.2930872 L2.36448352,59.3291337 L2.31762637,59.3651802 C0.845230769,60.5637267 0,62.3282035 0,64.2044244 L0,146.94739 C0,150.393436 2.80421978,153.197855 6.25002198,153.197855 L157.000264,153.197855 C160.446066,153.197855 163.250286,150.393436 163.250286,146.94739 L163.250286,64.2044244 C163.250286,62.3282035 162.405055,60.5637267 160.930857,59.3651802 L145.114769,47.2229128 L145.114769,17.4520988 L145.114769,14.613436 L142.27811,14.613436 L101.517802,14.613436 L84.2275165,1.69076163 L82.5478681,0.436343023 Z M82.528044,3.96349419 L100.573451,17.4520988 L142.27811,17.4520988 L142.27811,48.6215174 L159.141275,61.5676221 C159.910813,62.1930291 160.413626,63.1356453 160.413626,64.2044244 L160.413626,146.94739 C160.413626,148.832622 158.885363,150.360994 157.000264,150.360994 L6.25002198,150.360994 C4.36492308,150.360994 2.83665934,148.832622 2.83665934,146.94739 L2.83665934,64.2044244 C2.83665934,63.1356453 3.33947253,62.1930291 4.10901099,61.5676221 L23.8250549,46.853436 L23.8250549,17.4520988 L64.0681319,17.4520988 L82.528044,3.96349419 L82.528044,3.96349419 Z" id="Fill-12" fill="#C7C6C5" mask="url(#mask-2)"></path>
                    </g>
                </g>
            </g>
        </g>
    </g>
</svg>