<?xml version="1.0" encoding="UTF-8"?>
<svg width="98px" height="18px" viewBox="0 0 98 18" version="1.1" xmlns="http://www.w3.org/2000/svg" xmlns:xlink="http://www.w3.org/1999/xlink">
    <!-- Generator: Sketch 43.2 (39069) - http://www.bohemiancoding.com/sketch -->
    <title>Combined Shape Copy 3</title>
    <desc>Created with Sketch.</desc>
    <defs></defs>
    <g id="Page-1" stroke="none" stroke-width="1" fill="none" fill-rule="evenodd">
        <g id="Desktop-HD" transform="translate(-671.000000, -846.000000)" fill="#EBE8E0">
            <path d="M685.279806,862.237819 C683.633793,863.171035 682.147799,863.557984 680.250369,863.557984 C678.99301,863.557984 677.804268,863.375986 676.866944,862.989036 C673.849391,861.782553 671.837779,858.573275 671.837779,855 C671.837779,850.10656 675.38095,846.442016 680.067569,846.442016 C680.822093,846.442016 681.599128,846.533285 682.353652,846.715014 C683.405158,846.988281 683.953829,847.193232 685.234241,847.898544 L684.913935,851.995673 C684.593899,851.67677 684.342482,851.449407 684.113846,851.244456 C683.085122,850.356876 681.644963,849.81061 680.318987,849.81061 C677.598686,849.81061 675.769874,851.836357 675.769874,854.818001 C675.769874,857.93601 677.64425,859.916392 680.61624,859.916392 C681.759417,859.916392 682.925105,859.665807 683.862429,859.233493 C684.525282,858.937542 684.86837,858.709909 685.599841,858.049962 L685.279806,862.237819 Z M694.42468,863.011719 L694.42468,846.988281 L698.265104,846.988281 L698.265104,859.643124 L704.6433,859.643124 L704.6433,863.011719 L694.42468,863.011719 Z M723.229759,863.011719 L722.223818,860.644657 L715.525858,860.644657 L714.519916,863.011719 L710.725056,863.011719 L718.886229,846.442016 L719.206264,846.442016 L727.230472,863.011719 L723.229759,863.011719 Z M718.863446,852.769302 L716.668763,857.958962 L721.080912,857.958962 L718.863446,852.769302 Z M743.233324,863.011719 L738.844229,856.684162 L738.318341,856.684162 L738.318341,863.011719 L734.614881,863.011719 L734.614881,846.988281 L739.026758,846.988281 C743.141924,846.988281 745.564971,848.763443 745.564971,851.790722 C745.564971,853.6342 744.536248,855.113952 742.593253,856.092532 L747.62269,863.011719 L743.233324,863.011719 Z M738.821176,849.855974 L738.318341,849.855974 L738.318341,854.772367 C741.061423,854.726732 742.227382,853.907468 742.227382,852.086672 C742.227382,850.470827 741.290059,849.855974 738.821176,849.855974 Z M764.060031,863.011719 L758.390523,855.750947 L758.344688,855.750947 L758.344688,863.011719 L754.504264,863.011719 L754.504264,846.988281 L758.344688,846.988281 L758.344688,854.089737 L758.390523,854.089737 L763.717213,846.988281 L768.266326,846.988281 L762.368183,854.795049 L768.837779,863.011719 L764.060031,863.011719 Z" id="Combined-Shape-Copy-3"></path>
        </g>
    </g>
</svg>