<?xml version="1.0" encoding="UTF-8"?>
<svg width="260px" height="71px" viewBox="0 0 260 71" version="1.1" xmlns="http://www.w3.org/2000/svg" xmlns:xlink="http://www.w3.org/1999/xlink">
    <!-- Generator: Sketch 43.2 (39069) - http://www.bohemiancoding.com/sketch -->
    <title>Group 4</title>
    <desc>Created with Sketch.</desc>
    <defs>
        <polygon id="path-1" points="0 0.461411053 0 28.6627216 16.5930626 28.6627216 16.5930626 0.461411053 1.66745461e-20 0.461411053"></polygon>
    </defs>
    <g id="Page-1" stroke="none" stroke-width="1" fill="none" fill-rule="evenodd">
        <g id="Desktop-HD" transform="translate(-999.000000, -865.000000)">
            <g id="Group-4" transform="translate(999.000000, 865.000000)">
                <g id="DaisyDebt-Logo">
                    <path d="M45.7327011,15.314458 C43.3267685,24.8986511 35.952836,34.7603898 35.952836,34.7603898 C35.952836,34.7603898 34.1067236,22.5967989 36.5118472,13.0126057 C38.9177798,3.4284125 42.7758472,-0.417689773 44.664027,0.0534920455 C46.5522067,0.524673864 48.1386337,5.73026477 45.7327011,15.314458" id="Fill-1" fill="#FEFEFE" opacity="0.8"></path>
                    <path d="M34.1332584,13.0545602 C36.9307416,22.5322534 35.5853933,34.7611966 35.5853933,34.7611966 C35.5853933,34.7611966 27.8118202,25.2092761 25.0151461,15.731583 C22.2176629,6.25388977 23.5888989,0.9877875 25.4560449,0.439957955 C27.323191,-0.108678409 31.3357753,3.57686705 34.1332584,13.0545602" id="Fill-3" fill="#FEFEFE" opacity="0.8"></path>
                    <path d="M22.4150562,17.419608 C29.9742472,23.804767 35.5886292,34.7589375 35.5886292,34.7589375 C35.5886292,34.7589375 23.8307865,31.0386989 16.2715955,24.6535398 C8.71240449,18.2675739 6.95689888,13.1168466 8.2148764,11.6355284 C9.47285393,10.1542102 14.8558652,11.0344489 22.4150562,17.419608" id="Fill-5" fill="#FEFEFE" opacity="0.8"></path>
                    <path d="M15.0829483,27.340325 C24.9081169,28.6054159 35.5891955,34.7590182 35.5891955,34.7590182 C35.5891955,34.7590182 23.6905888,38.0064614 13.8662292,36.7421773 C4.04106067,35.4770864 -0.238489888,32.1037795 0.00986966292,30.1787114 C0.259038202,28.2536432 5.25777978,26.0752341 15.0829483,27.340325" id="Fill-7" fill="#FEFEFE" opacity="0.8"></path>
                    <path d="M14.3883506,39.8826364 C23.2759011,35.5193636 35.5879011,34.7577273 35.5879011,34.7577273 C35.5879011,34.7577273 27.4737438,44.0240341 18.5861933,48.3873068 C9.6986427,52.7513864 4.2622382,52.300375 3.40228315,50.5592614 C2.54313708,48.8173409 5.5008,44.2459091 14.3883506,39.8826364" id="Fill-10" fill="#FEFEFE" opacity="0.8"></path>
                    <path d="M20.697573,50.6583386 C25.7189663,42.1415659 35.5853933,34.7575659 35.5853933,34.7575659 C35.5853933,34.7575659 33.9124045,46.946975 28.8910112,55.4629409 C23.869618,63.9797136 19.0795955,66.5825091 17.4017528,65.5989977 C15.7239101,64.6154864 15.6761798,59.1751114 20.697573,50.6583386" id="Fill-12" fill="#FEFEFE" opacity="0.55"></path>
                    <path d="M31.7486022,56.1738284 C31.3246921,46.3032148 35.585636,34.7576466 35.585636,34.7576466 C35.585636,34.7576466 40.8206022,45.8973852 41.2453213,55.7679989 C41.6692315,65.6386125 39.0659056,70.419817 37.1210966,70.5029193 C35.1762876,70.5860216 32.1725124,66.044442 31.7486022,56.1738284" id="Fill-14" fill="#FEFEFE" opacity="0.55"></path>
                    <path d="M43.5291775,55.1574795 C38.1469753,46.8633886 35.9521888,34.7570818 35.9521888,34.7570818 C35.9521888,34.7570818 46.1268404,41.7126614 51.5090427,50.0075591 C56.8912449,58.30165 57.0765034,63.7387977 55.4431551,64.7933091 C53.8089978,65.8478205 48.9113798,63.4515705 43.5291775,55.1574795" id="Fill-16" fill="#FEFEFE" opacity="0.55"></path>
                    <path d="M53.4961618,47.6831159 C44.4362966,43.6861386 35.9491955,34.7586955 35.9491955,34.7586955 C35.9491955,34.7586955 48.2822292,35.0168773 57.3412854,39.0138545 C66.4011506,43.0108318 69.5440719,47.4572068 68.7561169,49.2330136 C67.9689708,51.0080136 62.556027,51.6800932 53.4961618,47.6831159" id="Fill-18" fill="#FEFEFE" opacity="0.55"></path>
                    <path d="M57.7380944,35.8142557 C47.976836,37.4972784 35.950409,34.7605511 35.950409,34.7605511 C35.950409,34.7605511 46.3572404,28.1559375 56.1184989,26.4729148 C65.8805663,24.789892 70.9682966,26.7528807 71.299173,28.6658466 C71.6308584,30.5788125 67.4993528,34.131233 57.7380944,35.8142557" id="Fill-20" fill="#FEFEFE" opacity="0.55"></path>
                    <path d="M54.8157034,23.8394602 C47.5372315,30.5416989 35.9500854,34.7605511 35.9500854,34.7605511 C35.9500854,34.7605511 41.089591,23.5772443 48.3672539,16.8750057 C55.6457258,10.172767 60.9866697,9.06419886 62.3069393,10.4898466 C63.627209,11.9163011 62.0941753,17.1372216 54.8157034,23.8394602" id="Fill-22" fill="#FEFEFE" opacity="0.55"></path>
                    <path d="M40.1180764,14.5450761 C40.1180764,24.4245648 35.3652674,35.7773034 35.3652674,35.7773034 C35.3652674,35.7773034 30.6132674,24.4245648 30.6132674,14.5450761 C30.6132674,4.6655875 33.4196494,-0.000242045455 35.3652674,-0.000242045455 C37.3116944,-0.000242045455 40.1180764,4.6655875 40.1180764,14.5450761" id="Fill-24" fill="#FEFEFE"></path>
                    <path d="M27.788764,15.3769864 C33.1709663,23.6710773 35.3657528,35.7773841 35.3657528,35.7773841 C35.3657528,35.7773841 25.1911011,28.8218045 19.8088989,20.5269068 C14.4266966,12.2328159 14.2414382,6.79566818 15.8747865,5.74115682 C17.5089438,4.68664545 22.4065618,7.08289545 27.788764,15.3769864" id="Fill-27" fill="#FEFEFE"></path>
                    <path d="M17.8217798,22.8514307 C26.8816449,26.848408 35.3687461,35.7758511 35.3687461,35.7758511 C35.3687461,35.7758511 23.0357124,35.5176693 13.9766562,31.520692 C4.91679101,27.5237148 1.77386966,23.0773398 2.56182472,21.301533 C3.34897079,19.526533 8.76191461,18.8544534 17.8217798,22.8514307" id="Fill-29" fill="#FEFEFE"></path>
                    <path d="M13.5798472,34.7202909 C23.3411056,33.0372682 35.3675326,35.7739955 35.3675326,35.7739955 C35.3675326,35.7739955 24.9607011,42.3786091 15.1994427,44.0616318 C5.43737528,45.7446545 0.349644944,43.7816659 0.0187685393,41.8687 C-0.312916854,39.9557341 3.81858876,36.4033136 13.5798472,34.7202909" id="Fill-31" fill="#FEFEFE"></path>
                    <path d="M16.5022382,46.6950864 C23.7807101,39.9928477 35.3678562,35.7739955 35.3678562,35.7739955 C35.3678562,35.7739955 30.2283506,46.9573023 22.9506876,53.6595409 C15.6722157,60.3617795 10.3312719,61.4703477 9.01100225,60.0447 C7.69073258,58.6182455 9.22376629,53.397325 16.5022382,46.6950864" id="Fill-33" fill="#FEFEFE"></path>
                    <path d="M25.5851596,55.2200886 C27.9910921,45.6358955 35.3650247,35.7741568 35.3650247,35.7741568 C35.3650247,35.7741568 37.2111371,47.9377477 34.8060135,57.5219409 C32.4000809,67.1061341 28.5420135,70.9522364 26.6538337,70.4810545 C24.7656539,70.0098727 23.179227,64.8042818 25.5851596,55.2200886" id="Fill-35" fill="#FEFEFE"></path>
                    <path d="M37.1846022,57.4799864 C34.3871191,48.0022932 35.7324674,35.77335 35.7324674,35.77335 C35.7324674,35.77335 43.5060404,45.3252705 46.3027146,54.8029636 C49.1001978,64.2806568 47.7289618,69.5467591 45.8618157,70.0945886 C43.9946697,70.643225 39.9820854,66.9576795 37.1846022,57.4799864" id="Fill-38" fill="#FEFEFE"></path>
                    <path d="M48.9028854,53.114858 C41.3436944,46.7296989 35.7293124,35.7755284 35.7293124,35.7755284 C35.7293124,35.7755284 47.4871551,39.495767 55.0463461,45.8809261 C62.6055371,52.266892 64.3610427,57.4176193 63.1030652,58.8989375 C61.8450876,60.3802557 56.4620764,59.500017 48.9028854,53.114858" id="Fill-40" fill="#FEFEFE"></path>
                    <path d="M56.2349933,43.1942216 C46.4098247,41.9291307 35.7287461,35.7755284 35.7287461,35.7755284 C35.7287461,35.7755284 47.6273528,32.5280852 57.4517124,33.7923693 C67.2768809,35.0574602 71.5564315,38.430767 71.3080719,40.3558352 C71.0589034,42.2809034 66.0601618,44.4593125 56.2349933,43.1942216" id="Fill-42" fill="#FEFEFE"></path>
                    <path d="M56.929591,30.6519102 C48.0420404,35.015183 35.7300404,35.7768193 35.7300404,35.7768193 C35.7300404,35.7768193 43.8441978,26.5105125 52.7317483,22.1472398 C61.6192989,17.7831602 67.0557034,18.2341716 67.9156584,19.9752852 C68.7748045,21.7172057 65.8171416,26.2886375 56.929591,30.6519102" id="Fill-45" fill="#FEFEFE"></path>
                    <path d="M50.6203685,19.876208 C45.5989753,28.3929807 35.7325483,35.7769807 35.7325483,35.7769807 C35.7325483,35.7769807 37.4055371,23.5875716 42.4269303,15.0716057 C47.4483236,6.55483295 52.2383461,3.9520375 53.9161888,4.93554886 C55.5940315,5.91906023 55.6417618,11.3594352 50.6203685,19.876208" id="Fill-47" fill="#FEFEFE"></path>
                    <path d="M42.3022652,35.2595682 C42.3022652,38.9184886 39.3276135,41.8851591 35.6588494,41.8851591 C31.9900854,41.8851591 29.0154337,38.9184886 29.0154337,35.2595682 C29.0154337,31.6006477 31.9900854,28.6339773 35.6588494,28.6339773 C39.3276135,28.6339773 42.3022652,31.6006477 42.3022652,35.2595682" id="Fill-49" fill="#FCEE40"></path>
                </g>
                <g id="DaisyDebt-Wordmark" transform="translate(90.188482, 17.750000)">
                    <g id="Group-2">
                        <g id="Group-3" transform="translate(0.000000, 0.154563)">
                            <mask id="mask-2" fill="white">
                                <use xlink:href="#path-1"></use>
                            </mask>
                            <g id="Clip-2"></g>
                            <path d="M14.5426604,23.4937847 L14.5426604,13.6873374 C12.7961582,11.6349111 10.8214235,10.6471847 8.3157865,10.6471847 C4.17684086,10.6471847 2.08829739,13.3837532 2.08829739,18.7423532 C2.08829739,24.0640058 4.10055827,26.8387532 8.08816909,26.8387532 C10.6319474,26.8387532 12.7198756,25.7740532 14.5426604,23.4937847 M-0.000246072868,18.7811479 C-0.000246072868,12.28149 2.77176478,8.82260053 7.9362191,8.82260053 C10.4799974,8.82260053 12.6442082,9.65884263 14.5426604,11.3695058 L14.5426604,0.461411053 L16.5930626,0.461411053 L16.5930626,28.2064216 L14.8847017,28.2064216 L14.7327517,25.58439 C12.7580169,27.6743795 10.4418561,28.6627216 7.74612781,28.6627216 C2.69609738,28.6627216 -0.000246072868,25.1662689 -0.000246072868,18.7811479" id="Fill-1" fill="#FEFEFE" mask="url(#mask-2)"></path>
                        </g>
                        <path d="M35.1615366,23.3062153 L35.1615366,19.4292047 C33.0729932,19.1256205 30.7949736,18.9735205 29.6175149,18.9735205 C25.5929932,18.9735205 23.694541,20.3036258 23.694541,23.1159363 C23.694541,25.6246626 25.2515671,26.9929468 28.1367714,26.9929468 C30.870641,26.9929468 33.1868019,25.7767626 35.1615366,23.3062153 M21.6059975,23.1159363 C21.6059975,19.2013626 24.2260584,17.2246784 29.5043214,17.2246784 C30.718691,17.2246784 33.0354671,17.3392153 35.1615366,17.6434153 L35.1615366,16.5787153 C35.1615366,12.4362995 33.5288432,10.8013784 29.3142301,10.8013784 C26.7323106,10.8013784 24.7951019,11.4097784 22.8591236,12.6641416 L22.8591236,10.6117153 C24.7194345,9.50945211 26.8455041,8.97679421 29.5043214,8.97679421 C34.9339192,8.97679421 37.2119388,11.1819363 37.2119388,16.3508732 L37.2119388,28.3612311 L35.4272953,28.3612311 L35.2759605,25.4343837 C33.2630845,27.63891 30.7568323,28.8169153 27.7953453,28.8169153 C23.8083497,28.8169153 21.6059975,26.7269258 21.6059975,23.1159363" id="Fill-4" fill="#FEFEFE"></path>
                        <path d="M44.1233259,28.3608 L46.1737281,28.3608 L46.1737281,9.43327895 L44.1233259,9.43327895 L44.1233259,28.3608 Z M44.008902,4.94848421 L46.3256781,4.94848421 L46.3256781,2.17373684 L44.008902,2.17373684 L44.008902,4.94848421 Z" id="Fill-6" fill="#FEFEFE"></path>
                        <path d="M52.8563905,27.0310026 L52.8563905,24.9403974 C54.7167014,26.3086816 57.2235687,26.9928237 60.071247,26.9928237 C63.7918687,26.9928237 65.6146535,25.7766395 65.6146535,23.3060921 C65.6146535,21.3682026 64.5134774,20.5695237 61.3618992,19.9235605 L58.5523622,19.3533395 C54.8686514,18.5934553 53.3122405,17.26335 53.3122405,14.4886026 C53.3122405,10.8394342 55.89416,8.97728684 60.6027644,8.97728684 C62.8426427,8.97728684 65.1212774,9.39540789 66.639547,10.2692132 L66.639547,12.3979974 C65.0068535,11.3339132 62.8426427,10.8018711 60.6027644,10.8018711 C57.1854274,10.8018711 55.3626427,12.0180553 55.3626427,14.3365026 C55.3626427,15.9708079 56.2362013,16.7688711 59.3871644,17.41545 L62.1591753,17.9856711 C66.0698883,18.7831184 67.6269144,20.3035026 67.6269144,23.1921711 C67.6269144,26.9164658 65.0831361,28.8167921 59.9949644,28.8167921 C57.1854274,28.8167921 54.489084,28.2090079 52.8563905,27.0310026" id="Fill-8" fill="#FEFEFE"></path>
                        <path d="M74.1961372,9.43352526 L80.4992937,25.4341989 L86.6886415,9.43352526 L88.8153263,9.43352526 L80.1572524,31.5914779 C78.9428828,34.6704253 77.6516154,35.8484305 75.1835046,35.8484305 C74.5000372,35.8484305 73.9303785,35.7726884 73.4751437,35.5830253 L73.4751437,33.7960042 C73.8928524,33.94872 74.4625111,34.0244621 74.9558872,34.0244621 C76.5885806,34.0244621 77.423998,33.2639621 78.2588002,31.0982305 C79.2461676,28.5131463 79.2843089,28.3992253 79.2843089,28.0568463 C79.2843089,27.8290042 79.2461676,27.6769042 79.1323589,27.4108832 L71.9944002,9.43352526 L74.1961372,9.43352526 Z" id="Fill-9" fill="#FEFEFE"></path>
                        <path d="M107.420773,23.6483479 L107.420773,13.8419005 C105.673655,11.7894742 103.699536,10.8017479 101.193284,10.8017479 C97.054338,10.8017479 94.9664097,13.5383163 94.9664097,18.8969163 C94.9664097,24.2185689 96.9786706,26.9933163 100.965666,26.9933163 C103.51006,26.9933163 105.597988,25.9286163 107.420773,23.6483479 M92.8778663,18.9357111 C92.8778663,12.4360532 95.6498771,8.97716368 100.813716,8.97716368 C103.35811,8.97716368 105.522321,9.81340579 107.420773,11.5240689 L107.420773,0.615974211 L109.471175,0.615974211 L109.471175,28.3609847 L107.762814,28.3609847 L107.610864,25.7389532 C105.636129,27.8289426 103.319968,28.8172847 100.623625,28.8172847 C95.5735945,28.8172847 92.8778663,25.3208321 92.8778663,18.9357111" id="Fill-10" fill="#B2E1EB"></path>
                        <path d="M129.748194,17.4910689 C129.710053,12.9305321 127.811601,10.8017479 123.672655,10.8017479 C119.420516,10.8017479 117.218164,13.0062742 116.914264,17.4910689 L129.748194,17.4910689 Z M114.825721,18.8969163 C114.825721,12.3215163 117.825349,8.97716368 123.558847,8.97716368 C128.98906,8.97716368 131.722314,11.9415742 131.722314,17.5668111 C131.722314,18.21339 131.684173,18.7072532 131.608505,19.3156532 L116.876123,19.3156532 C116.95179,24.5221532 119.420516,26.9933163 124.58374,26.9933163 C127.051851,26.9933163 128.912777,26.4230953 130.621138,25.3583953 L130.621138,27.3732584 C128.98906,28.3234216 127.014325,28.8172847 124.508073,28.8172847 C118.01544,28.8172847 114.825721,25.6244163 114.825721,18.8969163 L114.825721,18.8969163 Z" id="Fill-11" fill="#B2E1EB"></path>
                        <path d="M152.075555,18.8591684 C152.075555,13.5381316 150.063294,10.8015632 146.076298,10.8015632 C143.53252,10.8015632 141.443976,11.8662632 139.621807,14.1465316 L139.621807,23.9141842 C141.368309,26.0047895 143.343044,26.9931316 145.848681,26.9931316 C149.987011,26.9931316 152.075555,24.2565632 152.075555,18.8591684 M139.393574,26.0429684 L139.165957,28.3614158 L137.571405,28.3614158 L137.571405,0.615789474 L139.621807,0.615789474 L139.621807,11.8280842 C141.557785,9.88957895 143.798278,8.97697895 146.418339,8.97697895 C151.46837,8.97697895 154.164098,12.4740474 154.164098,18.8591684 C154.164098,25.3206474 151.392702,28.8171 146.228248,28.8171 C143.53252,28.8171 141.330168,27.9051158 139.393574,26.0429684" id="Fill-12" fill="#B2E1EB"></path>
                        <path d="M161.455299,23.7620226 L161.455299,11.1438805 L157.620253,11.1438805 L157.620253,9.43321737 L161.49344,9.43321737 L161.759199,3.84615947 L163.505701,3.84615947 L163.505701,9.43321737 L169.504957,9.43321737 L169.504957,11.1438805 L163.505701,11.1438805 L163.505701,23.5341805 C163.505701,26.0429068 164.379259,26.99307 166.84737,26.99307 C167.872264,26.99307 168.745823,26.84097 169.542483,26.4610279 L169.542483,28.3613542 C168.670155,28.6655542 167.720314,28.8170384 166.580996,28.8170384 C163.01171,28.8170384 161.455299,27.2966542 161.455299,23.7620226" id="Fill-13" fill="#B2E1EB"></path>
                        <text id="---" font-family="MyriadPro-Regular, Myriad Pro" font-size="12" font-weight="normal"></text>
                    </g>
                </g>
            </g>
        </g>
    </g>
</svg>