<?xml version="1.0" standalone="no"?>
<!DOCTYPE svg PUBLIC "-//W3C//DTD SVG 20010904//EN"
 "http://www.w3.org/TR/2001/REC-SVG-20010904/DTD/svg10.dtd">
<svg version="1.0" xmlns="http://www.w3.org/2000/svg"
 width="800.000000pt" height="800.000000pt" viewBox="0 0 800.000000 800.000000"
 preserveAspectRatio="xMidYMid meet">
<metadata>
Created by potrace 1.11, written by Peter Selinger 2001-2013
</metadata>
<g transform="translate(0.000000,800.000000) scale(0.100000,-0.100000)"
fill="#000000" stroke="none">
<path d="M3750 7990 c-69 -5 -183 -16 -255 -25 -1690 -213 -3069 -1491 -3414
-3163 -102 -492 -107 -1041 -15 -1542 119 -645 395 -1249 811 -1770 134 -169
448 -484 613 -616 601 -479 1284 -767 2040 -859 196 -24 782 -21 982 5 1313
169 2460 975 3057 2150 210 412 331 795 402 1265 30 201 39 764 14 986 -192
1779 -1549 3224 -3303 3519 -281 47 -669 68 -932 50z m-1650 -3049 c197 -58
363 -189 444 -348 42 -85 56 -162 56 -323 0 -120 -4 -152 -19 -186 -37 -82
-34 -81 -623 -275 l-548 -180 0 -47 c1 -165 196 -281 424 -252 110 14 183 35
335 96 74 29 136 52 138 51 13 -14 142 -342 136 -348 -17 -16 -294 -120 -388
-145 -92 -25 -116 -28 -285 -28 -178 -1 -188 0 -265 27 -116 41 -219 103 -295
177 -74 73 -111 129 -149 229 l-26 66 -3 465 c-3 391 -1 477 12 540 25 117 67
192 167 292 72 72 101 93 180 131 86 42 166 68 244 80 17 3 111 4 210 2 151
-2 192 -6 255 -24z m3985 -5 c222 -75 388 -232 448 -421 21 -68 22 -82 22
-560 0 -489 0 -490 -24 -558 -52 -153 -177 -289 -336 -368 -239 -118 -477
-110 -807 26 -17 7 -18 -11 -18 -284 l0 -291 -190 0 -190 0 0 1074 0 1074 88
60 c170 117 372 212 546 258 81 21 108 24 236 21 126 -3 156 -7 225 -31z
m-2888 -147 c15 -5 146 -128 291 -272 l262 -262 268 267 c293 292 301 298 375
263 43 -20 173 -152 187 -191 26 -68 17 -81 -268 -366 l-266 -268 266 -267
c285 -287 294 -299 268 -368 -13 -34 -142 -169 -182 -191 -35 -18 -82 -18
-116 0 -15 8 -142 130 -282 270 l-255 256 -270 -270 c-270 -269 -271 -270
-314 -270 -56 0 -73 10 -154 89 -81 78 -97 105 -97 163 0 42 1 43 270 313
l270 270 -256 255 c-140 140 -262 267 -270 282 -8 15 -14 46 -14 69 0 38 6 48
83 126 104 108 141 126 204 102z m3945 -1445 c61 -43 93 -104 92 -179 0 -127
-89 -217 -213 -217 -69 0 -98 11 -146 54 -96 83 -100 236 -9 319 54 49 83 59
161 56 61 -2 78 -7 115 -33z"/>
<path d="M1647 4579 c-93 -22 -184 -86 -216 -152 -19 -39 -21 -62 -21 -221 0
-138 3 -177 13 -173 6 2 189 62 405 133 l392 128 0 50 c0 66 -30 119 -95 168
-78 60 -152 78 -309 77 -72 -1 -148 -5 -169 -10z"/>
<path d="M5695 4571 c-86 -26 -159 -57 -247 -104 l-78 -41 0 -467 0 -467 99
-51 c144 -74 267 -113 360 -113 135 -2 253 51 316 140 l30 44 3 435 c3 426 2
436 -19 479 -24 51 -85 104 -155 136 -68 31 -224 35 -309 9z"/>
</g>
</svg>
