<?xml version="1.0" standalone="no"?>
<!DOCTYPE svg PUBLIC "-//W3C//DTD SVG 1.1//EN" "http://www.w3.org/Graphics/SVG/1.1/DTD/svg11.dtd" >
<svg xmlns="http://www.w3.org/2000/svg">
<metadata>
Created by FontPrep 20130207 at Thu Mar  3 16:00:54 2016
 By Devon
Copyright (c) 2014-2015 by Ryoichi Tsunekawa. All rights reserved.
</metadata>
<defs>
<font id="8b4cbd40e13775beb8749d4170a1d24e" horiz-adv-x='1024' >
  <font-face 
    font-family="Siro-Light"
    font-weight="300"
    font-stretch="normal"
    units-per-em="2048"
    panose-1="2 11 4 4 2 2 4 3 2 4"
    ascent="1638"
    descent="-410"
    x-height="1020"
    cap-height="1393"
    bbox="-311 -483 2425 2193"
    underline-thickness="71"
    underline-position="-136"
    unicode-range="U+000D-FB02"
  />
<missing-glyph horiz-adv-x="1497" 
d="M348 86h801l-399 537zM1206 158v1077l-399 -539zM289 158l399 538l-399 539v-1077zM750 770l399 537h-801zM203 0v1393h1091v-1393h-1091z" />
    <glyph glyph-name="fi" unicode="fi" horiz-adv-x="1173" 
d="M874 0v1020h111v-1020h-111zM868 1262v149h125v-149h-125zM231 0v928h-206v92h206v174q0 170 75 248t237 78q76 0 145 -19v-98q-61 18 -129 18q-121 0 -169 -50t-48 -177v-174h324v-92h-324v-928h-111z" />
    <glyph glyph-name="fl" unicode="fl" horiz-adv-x="1173" 
d="M874 0v1495h111v-1495h-111zM231 0v928h-206v92h206v174q0 170 75 248t237 78q76 0 145 -19v-98q-61 18 -129 18q-121 0 -169 -50t-48 -177v-174h324v-92h-324v-928h-111z" />
    <glyph glyph-name=".notdef" horiz-adv-x="1497" 
d="M348 86h801l-399 537zM1206 158v1077l-399 -539zM289 158l399 538l-399 539v-1077zM750 770l399 537h-801zM203 0v1393h1091v-1393h-1091z" />
    <glyph glyph-name=".null" horiz-adv-x="0" 
 />
    <glyph glyph-name="nonmarkingreturn" horiz-adv-x="681" 
 />
    <glyph glyph-name="CR" unicode="&#xd;" horiz-adv-x="538" 
 />
    <glyph glyph-name="space" unicode=" " horiz-adv-x="538" 
 />
    <glyph glyph-name="exclam" unicode="!" horiz-adv-x="616" 
d="M236 0v156h145v-156h-145zM260 383l-14 1010h127l-17 -1010h-96z" />
    <glyph glyph-name="quotedbl" unicode="&#x22;" horiz-adv-x="835" 
d="M549 938l-27 455h135l-26 -455h-82zM205 938l-27 455h135l-26 -455h-82z" />
    <glyph glyph-name="numbersign" unicode="#" horiz-adv-x="1277" 
d="M410 473h389l73 467h-389zM84 381v92h223l74 467h-209v92h223l58 361h102l-57 -361h389l57 361h103l-58 -361h203v-92h-217l-74 -467h203v-92h-217l-62 -381h-102l61 381h-389l-59 -381h-105l62 381h-209z" />
    <glyph glyph-name="dollar" unicode="$" horiz-adv-x="1277" 
d="M1020 377q0 113 -68 172t-233 92l-35 6v-545q336 18 336 275zM584 780v510q-311 -20 -312 -266q0 -96 60 -152t227 -88zM584 -197v197q-281 10 -449 131v117q176 -137 449 -148v568l-70 12q-190 37 -271 117t-81 221q0 348 422 373v198h100v-196q246 -10 389 -103v-112
q-150 104 -389 114v-532l76 -15q201 -39 286 -127t84 -233q0 -358 -446 -383v-199h-100z" />
    <glyph glyph-name="percent" unicode="%" horiz-adv-x="1691" 
d="M1272 68q115 0 178 72t63 202q0 131 -63 203q-63 71 -178 71t-177 -72q-63 -72 -63 -202t62 -202t178 -72zM1616 342q0 -170 -91 -268t-252 -99q-161 1 -253 99t-92 268t92 268t253 98t252 -98t91 -268zM418 776q115 0 178 72t63 203t-63 203t-178 71q-115 0 -177 -72
q-63 -73 -63 -203t62 -202t178 -72zM334 -25l913 1442h113l-916 -1442h-110zM764 1051q0 -171 -91 -269t-252 -98t-253 98t-92 268t92 269q92 98 253 98t252 -98t91 -268z" />
    <glyph glyph-name="ampersand" unicode="&#x26;" horiz-adv-x="1366" 
d="M596 74q240 0 375 131l-510 465q-127 -76 -177 -148t-51 -166q1 -282 363 -282zM829 1118q1 201 -259 201t-261 -225q0 -76 38 -142t138 -157l109 57q133 72 184 129t51 137zM596 -25q-236 -1 -356 95t-119 278q0 123 61 214t203 177q-102 101 -144 181t-42 174
q0 156 98 240t275 83q176 0 270 -77t94 -218q0 -106 -62 -185t-223 -165l-90 -49l475 -436q88 143 88 383h111q0 -289 -121 -455l234 -215h-152l-149 137q-162 -162 -451 -162z" />
    <glyph glyph-name="quotesingle" unicode="'" horiz-adv-x="528" 
d="M223 938l-26 455h135l-27 -455h-82z" />
    <glyph glyph-name="parenleft" unicode="(" horiz-adv-x="628" 
d="M139 626q0 268 92 500q92 231 252 369h125q-172 -145 -265 -369t-93 -499t93 -499t265 -370h-125q-160 136 -252 368t-92 500z" />
    <glyph glyph-name="parenright" unicode=")" horiz-adv-x="628" 
d="M379 626q0 276 -93 500q-93 223 -266 369h125q160 -137 252 -369t92 -499t-92 -499t-252 -370h-125q172 144 266 368t93 500z" />
    <glyph glyph-name="asterisk" unicode="*" horiz-adv-x="819" 
d="M203 606l-74 56l215 290l-340 107l27 90l338 -115l-7 359h95l-6 -359l337 115l27 -90l-340 -107l215 -290l-76 -56l-204 295z" />
    <glyph glyph-name="plus" unicode="+" horiz-adv-x="1277" 
d="M586 86v473h-473v103h473v473h104v-473h477v-103h-477v-473h-104z" />
    <glyph glyph-name="comma" unicode="," horiz-adv-x="563" 
d="M209 0v156h147v-146l-114 -311h-74l90 301h-49z" />
    <glyph glyph-name="hyphen" unicode="-" horiz-adv-x="743" 
d="M72 539v112h600v-112h-600z" />
    <glyph glyph-name="period" unicode="." horiz-adv-x="563" 
d="M209 0v156h147v-156h-147z" />
    <glyph glyph-name="slash" unicode="/" horiz-adv-x="806" 
d="M16 -287l643 1782h111l-643 -1782h-111z" />
    <glyph glyph-name="zero" unicode="0" horiz-adv-x="1277" 
d="M639 76q213 0 310 147t98 473t-97 473t-311 147t-310 -146q-97 -148 -97 -474t96 -473q98 -147 311 -147zM639 -25q-270 0 -396 173t-126 548t126 548t396 173t395 -173t125 -548t-125 -548t-395 -173z" />
    <glyph glyph-name="one" unicode="1" horiz-adv-x="1277" 
d="M342 0v100h320v1168l-357 -197v111l379 211h90v-1293h318v-100h-750z" />
    <glyph glyph-name="two" unicode="2" horiz-adv-x="1277" 
d="M1110 104v-104h-981v92h-2l491 412q215 180 291 286t76 228q0 299 -350 299q-268 0 -463 -189v125q182 164 471 164q453 0 453 -395q0 -154 -86 -279t-338 -329l-377 -310h815z" />
    <glyph glyph-name="three" unicode="3" horiz-adv-x="1277" 
d="M598 -25q-326 0 -469 144v123q156 -166 465 -166q418 0 418 307q0 283 -369 283h-274v100h245q344 0 344 275t-344 276q-270 0 -438 -156v121q166 135 451 135q442 0 442 -370q0 -250 -207 -320v-2q262 -66 262 -346q0 -404 -526 -404z" />
    <glyph glyph-name="four" unicode="4" horiz-adv-x="1277" 
d="M225 453h680l4 788zM905 0v352h-817v97l823 944h107v-940h201v-101h-201v-352h-113z" />
    <glyph glyph-name="five" unicode="5" horiz-adv-x="1277" 
d="M1139 430q-1 -455 -549 -455q-278 0 -418 131v125q152 -156 434 -155q418 0 418 349t-414 349q-215 0 -399 -92v711h856v-105h-750v-467q143 53 314 53q250 0 379 -112t129 -332z" />
    <glyph glyph-name="six" unicode="6" horiz-adv-x="1277" 
d="M676 76q180 0 277 95t97 267t-87 260q-88 88 -254 88q-311 0 -447 -278q41 -432 414 -432zM676 -25q-535 0 -535 687q0 373 155 564t456 191q219 0 331 -78v-114q-125 92 -329 92q-246 0 -372 -161t-126 -472v-20q160 225 461 225q213 0 331 -115t118 -333t-129 -342
q-128 -124 -361 -124z" />
    <glyph glyph-name="seven" unicode="7" horiz-adv-x="1277" 
d="M143 1288v105h998v-101l-740 -1292h-133l746 1288h-871z" />
    <glyph glyph-name="eight" unicode="8" horiz-adv-x="1277" 
d="M639 76q424 0 424 289q1 141 -103 215t-321 86q-217 -12 -321 -86t-103 -215q0 -289 424 -289zM1012 1042q0 274 -372 274t-372 -274q0 -130 90 -198t281 -80q373 24 373 278zM639 -25q-264 1 -401 97t-138 282q0 146 81 240t233 123v4q-123 29 -191 115t-67 217
q0 178 124 271t358 93t359 -93t125 -271q0 -129 -68 -216t-190 -116v-4q152 -29 233 -123t81 -240q0 -186 -138 -282t-401 -97z" />
    <glyph glyph-name="nine" unicode="9" horiz-adv-x="1277" 
d="M561 606q158 0 274 72t183 207q-41 432 -416 432q-180 0 -276 -95q-96 -96 -96 -268t86 -260q87 -88 245 -88zM528 -25q-219 0 -331 78v115q121 -92 327 -92q246 0 373 161t127 472v22q-160 -227 -461 -227q-215 0 -332 114t-117 333q0 218 129 342q128 124 361 124
q535 0 535 -686q0 -373 -155 -565t-456 -191z" />
    <glyph glyph-name="colon" unicode=":" horiz-adv-x="563" 
d="M209 0v156h147v-156h-147zM209 834v155h147v-155h-147z" />
    <glyph glyph-name="semicolon" unicode=";" horiz-adv-x="563" 
d="M209 0v156h147v-146l-114 -311h-74l90 301h-49zM209 834v155h147v-155h-147z" />
    <glyph glyph-name="less" unicode="&#x3c;" horiz-adv-x="1277" 
d="M1167 106l-1054 459v92l1054 459v-108l-911 -396l911 -397v-109z" />
    <glyph glyph-name="equal" unicode="=" horiz-adv-x="1277" 
d="M113 313v103h1054v-103h-1054zM113 805v102h1054v-102h-1054z" />
    <glyph glyph-name="greater" unicode="&#x3e;" horiz-adv-x="1277" 
d="M113 104v109l913 397l-913 398v108l1054 -461v-90z" />
    <glyph glyph-name="question" unicode="?" horiz-adv-x="925" 
d="M291 0v156h145v-156h-145zM315 381v27q0 116 33 182t123 133l109 82q98 74 134 127t36 133q0 254 -283 254q-244 0 -406 -184v125q152 158 412 157q189 0 289 -88t100 -260q0 -104 -44 -176t-159 -156l-110 -82q-84 -61 -111 -111t-26 -145v-18h-97z" />
    <glyph glyph-name="at" unicode="@" horiz-adv-x="1628" 
d="M768 303q146 0 248 131v135q-86 18 -180 19q-213 0 -213 -148q-1 -137 145 -137zM856 -160q-737 0 -737 742q0 374 186 570t545 196q666 0 666 -672q0 -223 -76 -344t-224 -121t-182 131q-111 -131 -280 -131q-117 0 -180 59q-62 59 -62 168q0 231 307 232q100 0 197 -17
v35q0 117 -48 165t-177 48t-226 -70v103q104 61 262 61q158 -1 229 -69t70 -224v-251q0 -143 101 -144q182 0 182 355q0 590 -563 589q-305 0 -463 -170t-158 -497q0 -647 635 -647q264 0 457 110v-108q-201 -99 -461 -99z" />
    <glyph glyph-name="A" unicode="A" horiz-adv-x="1304" 
d="M332 483h635l-318 787zM20 0l570 1393h125l569 -1393h-123l-151 379h-719l-154 -379h-117z" />
    <glyph glyph-name="B" unicode="B" horiz-adv-x="1347" 
d="M324 104h440q205 0 289 62t84 214q0 153 -85 214t-292 61h-436v-551zM324 760h387q205 0 287 60t83 204q0 144 -82 204t-284 60h-391v-528zM209 0v1393h520q247 0 357 -85t110 -272q0 -246 -207 -313v-2q139 -31 201 -114t63 -232q1 -199 -111 -287t-362 -88h-571z" />
    <glyph glyph-name="C" unicode="C" horiz-adv-x="1175" 
d="M748 -25q-625 0 -625 721q0 362 154.5 541.5t470.5 179.5q215 0 346 -80v-118q-131 94 -344 94q-262 0 -386 -148.5t-124 -466.5t124.5 -468t391.5 -150q207 0 338 94v-119q-131 -80 -346 -80z" />
    <glyph glyph-name="D" unicode="D" horiz-adv-x="1378" 
d="M324 104h292q285 0 404 134.5t119 458t-119 457.5t-404 134h-292v-1184zM209 0v1393h420q332 0 479 -165t147 -531.5t-147 -531.5t-479 -165h-420z" />
    <glyph glyph-name="E" unicode="E" horiz-adv-x="1284" 
d="M209 0v1393h971v-105h-856v-526h745v-105h-745v-553h868v-104h-983z" />
    <glyph glyph-name="F" unicode="F" horiz-adv-x="1155" 
d="M209 0v1393h903v-105h-788v-530h714v-103h-714v-655h-115z" />
    <glyph glyph-name="G" unicode="G" horiz-adv-x="1331" 
d="M770 -25q-647 0 -647 721t663 721q223 0 375 -82v-121q-152 98 -373 99q-279 0 -413.5 -151.5t-134.5 -465.5t131 -465t399 -151q184 0 322 76v501h-359v105h471v-656q-164 -131 -434 -131z" />
    <glyph glyph-name="H" unicode="H" horiz-adv-x="1495" 
d="M209 0v1393h115v-629h847v629h115v-1393h-115v655h-847v-655h-115z" />
    <glyph glyph-name="I" unicode="I" horiz-adv-x="532" 
d="M209 0v1393h115v-1393h-115z" />
    <glyph glyph-name="J" unicode="J" horiz-adv-x="935" 
d="M361.5 -25q-193.5 0 -322.5 82v117q129 -94 293 -94t233.5 82t69.5 272v959h115v-959q0 -240 -97.5 -349.5t-291 -109.5z" />
    <glyph glyph-name="K" unicode="K" horiz-adv-x="1282" 
d="M209 0v1393h115v-787l782 787h149l-563 -566l574 -827h-140l-516 745l-286 -286v-459h-115z" />
    <glyph glyph-name="L" unicode="L" horiz-adv-x="1107" 
d="M209 0v1393h115v-1289h759v-104h-874z" />
    <glyph glyph-name="M" unicode="M" horiz-adv-x="1837" 
d="M209 0v1393h162l547 -1231l546 1231h164v-1393h-115v1241l-550 -1241h-95l-549 1235v-1235h-110z" />
    <glyph glyph-name="N" unicode="N" horiz-adv-x="1497" 
d="M209 0v1393h145l824 -1194v1194h110v-1393h-108l-861 1247v-1247h-110z" />
    <glyph glyph-name="O" unicode="O" horiz-adv-x="1447" 
d="M723 80q250 0 367.5 148.5t117.5 468t-117.5 468t-367.5 148.5t-366.5 -148.5t-116.5 -468t116.5 -468t366.5 -148.5zM724 -25q-306 0 -453.5 177.5t-147.5 544t147.5 543.5t453.5 177t453.5 -177t147.5 -543.5t-147.5 -544t-453.5 -177.5z" />
    <glyph glyph-name="P" unicode="P" horiz-adv-x="1282" 
d="M324 688h440q180 0 261 71t81 229t-80 230q-80 71 -262 70h-440v-600zM209 0v1393h565q234 1 340 -97t106 -308t-106 -307t-340 -97h-450v-584h-115z" />
    <glyph glyph-name="Q" unicode="Q" horiz-adv-x="1445" 
d="M240 696.5q0 -319.5 116.5 -468t366.5 -148.5t367.5 148.5t117.5 468t-117.5 468t-367.5 148.5t-366.5 -148.5t-116.5 -468zM1325 696q0 -440 -217 -612l215 -272h-137l-172 217q-125 -53 -291 -54q-305 0 -452.5 177.5t-147.5 544t147.5 543.5t453.5 177t453.5 -177
t147.5 -544z" />
    <glyph glyph-name="R" unicode="R" horiz-adv-x="1331" 
d="M324 715h426q176 0 254.5 67.5t78.5 219t-78.5 219t-254.5 67.5h-426v-573zM209 0v1393h549q227 0 334.5 -95.5t107.5 -296.5q0 -344 -332 -385l416 -616h-139l-412 610h-409v-610h-115z" />
    <glyph glyph-name="S" unicode="S" horiz-adv-x="1126" 
d="M555 -25q-315 0 -465 131v121q174 -147 469 -147q381 0 381 289q0 113 -68.5 173t-244.5 99l-154 35q-197 45 -276.5 128t-79.5 224q0 188 122.5 288.5t368.5 100.5t375 -96v-121q-139 113 -389 113q-174 0 -268.5 -73t-94.5 -206q0 -100 64.5 -157.5t226.5 -94.5
l156 -34q201 -45 289 -133.5t88 -241.5q0 -398 -500 -398z" />
    <glyph glyph-name="T" unicode="T" horiz-adv-x="1120" 
d="M502 0v1288h-477v105h1071v-105h-480v-1288h-114z" />
    <glyph glyph-name="U" unicode="U" horiz-adv-x="1404" 
d="M702.5 -25q-268.5 0 -392.5 128t-124 407v883h115v-891q0 -223 95.5 -322.5t308.5 -99.5t308 99.5t95 322.5v891h111v-883q0 -279 -124 -407t-392.5 -128z" />
    <glyph glyph-name="V" unicode="V" horiz-adv-x="1208" 
d="M543 0l-523 1393h123l465 -1241l463 1241h117l-522 -1393h-123z" />
    <glyph glyph-name="W" unicode="W" horiz-adv-x="1839" 
d="M438 0l-413 1393h120l359 -1217l358 1217h119l360 -1213l359 1213h115l-414 -1393h-121l-360 1219l-361 -1219h-121z" />
    <glyph glyph-name="X" unicode="X" horiz-adv-x="1226" 
d="M41 0l496 713l-484 680h140l432 -609l419 609h132l-484 -699l494 -694h-139l-443 623l-432 -623h-131z" />
    <glyph glyph-name="Y" unicode="Y" horiz-adv-x="1122" 
d="M502 0v602l-522 791h137l446 -680l449 680h131l-527 -797v-596h-114z" />
    <glyph glyph-name="Z" unicode="Z" horiz-adv-x="1144" 
d="M82 0v90l844 1198h-815v105h962v-90l-844 -1199h854v-104h-1001z" />
    <glyph glyph-name="bracketleft" unicode="[" horiz-adv-x="628" 
d="M221 -242v1737h367v-90h-260v-1557h260v-90h-367z" />
    <glyph glyph-name="backslash" unicode="\" horiz-adv-x="802" 
d="M680 -287l-643 1782h106l643 -1782h-106z" />
    <glyph glyph-name="bracketright" unicode="]" horiz-adv-x="628" 
d="M41 -242v90h260v1557h-260v90h367v-1737h-367z" />
    <glyph glyph-name="asciicircum" unicode="^" horiz-adv-x="1277" 
d="M88 680l502 713h98l502 -713h-125l-426 606l-426 -606h-125z" />
    <glyph glyph-name="underscore" unicode="_" horiz-adv-x="1064" 
d="M0 -240v97h1065v-97h-1065z" />
    <glyph glyph-name="grave" unicode="`" horiz-adv-x="1064" 
d="M561 1202l-260 287h131l242 -287h-113z" />
    <glyph glyph-name="a" unicode="a" horiz-adv-x="1107" 
d="M455 74q219 0 379 198v209q-170 25 -299 25q-319 0 -320 -223q0 -102 61.5 -155.5t178.5 -53.5zM436 -25q-160 0 -247 80t-87 228q0 317 426 317q147 0 306 -22v57q0 168 -73 239.5t-255 71.5t-336 -100v110q150 88 364 88t312 -94t98 -303v-647h-96l-8 158
q-166 -183 -404 -183z" />
    <glyph glyph-name="b" unicode="b" horiz-adv-x="1204" 
d="M635 74q336 0 336 436t-324 436q-205 0 -348 -180v-526q139 -166 336 -166zM1083 510q1 -260 -109 -398t-321 -137q-211 0 -366 150l-13 -125h-86v1495h111v-604q154 153 363 153t315 -137t106 -397z" />
    <glyph glyph-name="c" unicode="c" horiz-adv-x="970" 
d="M629 -25q-252 0 -380 136.5t-128 402.5q0 530 493 530q176 0 283 -59v-108q-115 70 -270 69q-201 0 -297.5 -106.5t-96.5 -325.5q0 -440 398 -440q156 0 266 69v-108q-100 -60 -268 -60z" />
    <glyph glyph-name="d" unicode="d" horiz-adv-x="1204" 
d="M557 74q205 0 348 180v528q-139 164 -336 164q-336 0 -336 -436t324 -436zM546 -25q-212 -1 -318 137t-107 398q0 260 109 397q110 137 317 137t358 -137v588h111v-1495h-92l-9 141q-157 -166 -369 -166z" />
    <glyph glyph-name="e" unicode="e" horiz-adv-x="1138" 
d="M598 946q-340 0 -365 -360h693q-2 184 -81 272t-247 88zM231 487q7 -413 403 -413q196 0 339 88v-109q-133 -78 -330 -78q-264 0 -393 132.5t-129 402.5q0 535 471 534q440 0 440 -462q0 -45 -6 -95h-795z" />
    <glyph glyph-name="f" unicode="f" horiz-adv-x="686" 
d="M231 0v928h-206v92h206v174q0 170 75 248t237 78q76 0 145 -19v-98q-61 18 -129 18q-121 0 -169 -50t-48 -177v-174h324v-92h-324v-928h-111z" />
    <glyph glyph-name="g" unicode="g" horiz-adv-x="1204" 
d="M559 102q201 0 346 179v501q-139 164 -334 164q-338 0 -338 -424q0 -205 83 -312.5t243 -107.5zM563.5 -403q-223.5 0 -362.5 71v109q139 -82 333.5 -82t282.5 88t88 287v88q-156 -156 -362.5 -156t-314 136t-107.5 386t109.5 385t320.5 135t367 -147l12 123h86v-938
q0 -252 -114.5 -368.5t-338 -116.5z" />
    <glyph glyph-name="h" unicode="h" horiz-adv-x="1187" 
d="M188 0v1495h111v-608q164 158 375 157q344 0 344 -403v-641h-111v625q0 168 -61.5 243.5t-196.5 75.5q-197 0 -350 -178v-766h-111z" />
    <glyph glyph-name="i" unicode="i" horiz-adv-x="487" 
d="M188 0v1020h111v-1020h-111zM182 1262v149h125v-149h-125z" />
    <glyph glyph-name="j" unicode="j" horiz-adv-x="487" 
d="M74 -403q-45 0 -80 8v98q27 -8 67 -8q127 0 127 143v1182h111v-1176q0 -127 -55 -187t-170 -60zM182 1262v149h125v-149h-125z" />
    <glyph glyph-name="k" unicode="k" horiz-adv-x="1083" 
d="M188 0v1495h111v-1038l594 563h147l-434 -410l445 -610h-133l-390 537l-229 -218v-319h-111z" />
    <glyph glyph-name="l" unicode="l" horiz-adv-x="487" 
d="M188 0v1495h111v-1495h-111z" />
    <glyph glyph-name="m" unicode="m" horiz-adv-x="1787" 
d="M188 0v1020h93l8 -141q147 165 352 165t281 -165q152 166 360 165q164 0 250 -93t86 -273v-678h-111v659q0 285 -250 285q-174 0 -307 -164q8 -43 8 -104v-676h-110v659q0 285 -236 285q-178 0 -313 -186v-758h-111z" />
    <glyph glyph-name="n" unicode="n" horiz-adv-x="1187" 
d="M188 0v1020h93l8 -143q170 168 385 167q344 0 344 -403v-641h-111v625q0 168 -61.5 243.5t-196.5 75.5q-197 0 -350 -180v-764h-111z" />
    <glyph glyph-name="o" unicode="o" horiz-adv-x="1202" 
d="M233 510q0 -436 368 -436t368 436t-368 436t-368 -436zM601 -25q-237 0 -358.5 135.5t-121.5 399.5t122 399t358.5 135t358 -135t121.5 -399t-121.5 -399.5t-358.5 -135.5z" />
    <glyph glyph-name="p" unicode="p" horiz-adv-x="1204" 
d="M635 74q336 0 336 436t-324 436q-205 0 -348 -180v-526q139 -166 336 -166zM188 -379v1399h93l8 -139q158 163 370 163t318 -137t106 -397q1 -260 -109 -397t-318 -137t-357 137v-492h-111z" />
    <glyph glyph-name="q" unicode="q" horiz-adv-x="1204" 
d="M557 74q205 0 348 180v528q-139 164 -336 164q-336 0 -336 -436t324 -436zM905 -379v510q-155 -156 -363 -156q-208 -1 -314 137t-107 398q0 260 109 397q110 137 321 137t367 -149l12 125h86v-1399h-111z" />
    <glyph glyph-name="r" unicode="r" horiz-adv-x="733" 
d="M188 0v1020h93l10 -162q139 186 348 186q37 0 72 -6v-110q-41 8 -74 8q-211 0 -338 -193v-743h-111z" />
    <glyph glyph-name="s" unicode="s" horiz-adv-x="962" 
d="M115 748q0 296 393 296q205 0 326 -69v-115q-133 86 -326 86q-283 0 -283 -190q0 -68 46 -104t171 -62l150 -31q158 -33 226.5 -98.5t68.5 -181.5q0 -304 -412 -304q-252 0 -385 97v112q152 -111 389 -110q299 0 299 198q0 78 -50 117t-179 66l-152 30q-152 31 -217 91.5
t-65 171.5z" />
    <glyph glyph-name="t" unicode="t" horiz-adv-x="714" 
d="M508 -25q-145 0 -211 64.5t-66 208.5v680h-206v92h208l15 301h94v-301h324v-92h-324v-668q0 -102 40 -144t133 -42t153 28v-102q-70 -25 -160 -25z" />
    <glyph glyph-name="u" unicode="u" horiz-adv-x="1198" 
d="M516 -25q-348 0 -348 404v641h111v-623q0 -170 62 -245.5t200 -75.5q201 0 358 184v760h111v-1020h-92l-9 147q-174 -172 -393 -172z" />
    <glyph glyph-name="v" unicode="v" horiz-adv-x="989" 
d="M436 0l-399 1020h119l340 -883l342 883h114l-399 -1020h-117z" />
    <glyph glyph-name="w" unicode="w" horiz-adv-x="1552" 
d="M379 0l-342 1020h117l284 -866l289 866h102l289 -866l285 866h113l-342 -1020h-109l-289 862l-287 -862h-110z" />
    <glyph glyph-name="x" unicode="x" horiz-adv-x="1001" 
d="M37 0l389 522l-379 498h137l324 -428l317 428h127l-377 -506l390 -514h-136l-337 444l-328 -444h-127z" />
    <glyph glyph-name="y" unicode="y" horiz-adv-x="980" 
d="M229.5 -403q-77.5 0 -112.5 14v96q33 -12 89.5 -12t95 34.5t83.5 151.5t45 134t-8 36l-385 969h119l340 -862l333 862h115l-467 -1194q-49 -125 -109.5 -177t-138 -52z" />
    <glyph glyph-name="z" unicode="z" horiz-adv-x="964" 
d="M88 0v86l637 836h-608v98h755v-84l-636 -838h647v-98h-795z" />
    <glyph glyph-name="braceleft" unicode="{" horiz-adv-x="628" 
d="M492 -242q-139 0 -203 76q-63 76 -64 242v344q0 94 -35 128t-129 34v90q94 0 129 34t35 128v344q-1 166 63 242t204 75h96v-90h-78q-94 0 -136 -53t-42 -172v-338q0 -180 -113 -213v-4q113 -33 113 -213v-338q0 -119 42 -172t136 -54h78v-90h-96z" />
    <glyph glyph-name="bar" unicode="|" horiz-adv-x="567" 
d="M231 -465v2048h105v-2048h-105z" />
    <glyph glyph-name="braceright" unicode="}" horiz-adv-x="628" 
d="M41 -242v90h78q94 0 136 54t42 172v338q0 180 113 213v4q-113 33 -113 213v338q0 119 -42 172t-136 53h-78v90h96q139 0 203 -76t63 -241v-344q0 -94 35 -128t129 -34v-90q-94 0 -129 -34t-35 -128v-344q0 -166 -63 -242t-203 -76h-96z" />
    <glyph glyph-name="asciitilde" unicode="~" horiz-adv-x="1277" 
d="M883 455q-109 0 -259 105t-237 106q-123 0 -211 -154l-78 53q106 201 297 201q117 0 261 -106t235 -105q123 0 207 154l82 -52q-109 -202 -297 -202z" />
    <glyph glyph-name="uni00A0" unicode="&#xa0;" horiz-adv-x="538" 
 />
    <glyph glyph-name="exclamdown" unicode="&#xa1;" horiz-adv-x="616" 
d="M246 -373l14 1012h96l17 -1012h-127zM236 864v156h145v-156h-145z" />
    <glyph glyph-name="cent" unicode="&#xa2;" horiz-adv-x="1277" 
d="M289 698q0 -204 93 -308t296 -124v860q-203 -18 -296 -121t-93 -307zM678 -41v207q-254 20 -378 151t-124 381t123 380t379 149v207h100v-203q188 0 326 -60v-106q-143 66 -326 65v-870h15q190 0 325 68v-107q-141 -59 -334 -59h-6v-203h-100z" />
    <glyph glyph-name="sterling" unicode="&#xa3;" horiz-adv-x="1277" 
d="M180 0v94q123 82 170 152t47 161t-49 220h-231v100h192q-53 152 -53 264q0 209 124 318t372 109t385 -111v-117q-145 127 -387 127q-379 0 -379 -326q0 -98 59 -264h612v-100h-575q39 -115 39 -210t-36 -163t-132 -145h819v-109h-977z" />
    <glyph glyph-name="currency" unicode="&#xa4;" horiz-adv-x="1277" 
d="M639 397q131 0 214 84t83 215t-83 215t-214 84t-215 -84t-84 -215t84 -215t215 -84zM233 696q0 141 80 246l-245 248l73 74l246 -248q111 80 254 80t248 -80l246 248l75 -74l-247 -248q81 -104 81 -244t-81 -249l247 -246l-75 -74l-246 248q-103 -80 -247 -80t-255 80
l-246 -248l-73 74l247 248q-82 104 -82 245z" />
    <glyph glyph-name="yen" unicode="&#xa5;" horiz-adv-x="1277" 
d="M584 0v293h-410v96h410v213h-410v98h383l-473 693h131l426 -635l428 635h125l-473 -693h383v-98h-408v-213h408v-96h-408v-293h-112z" />
    <glyph glyph-name="brokenbar" unicode="&#xa6;" horiz-adv-x="567" 
d="M231 -465v819h105v-819h-105zM231 764v819h105v-819h-105z" />
    <glyph glyph-name="section" unicode="&#xa7;" horiz-adv-x="1071" 
d="M885 496q0 102 -66 161t-203 86l-198 39q-219 -68 -219 -256q0 -94 59 -149t197 -82l231 -47q199 70 199 248zM520 -403q-272 0 -428 104v111q166 -117 426 -117q346 0 346 239q0 92 -58 144t-196 76l-188 34q-332 59 -332 322q0 217 199 311q-180 74 -180 264
q0 162 109 247q110 85 329 85t358 -76v-112q-145 90 -362 90q-326 0 -326 -227q0 -88 56 -136t188 -71l188 -35q342 -61 342 -334q0 -213 -186 -309q166 -78 166 -270q0 -340 -451 -340z" />
    <glyph glyph-name="dieresis" unicode="&#xa8;" horiz-adv-x="1064" 
d="M635 1262v149h125v-149h-125zM305 1262v149h125v-149h-125z" />
    <glyph glyph-name="copyright" unicode="&#xa9;" horiz-adv-x="1671" 
d="M853 999q-263 0 -262 -303t264 -303q128 0 208 47v-94q-78 -43 -205 -43q-371 0 -371 393t371 394q121 0 205 -43v-95q-84 47 -210 47zM221 696q0 -284 168 -456q167 -172 445 -172t446 172t168 456t-168 457q-168 172 -446 172t-445 -172q-168 -172 -168 -457zM836 -25
q-322 0 -520 199q-198 198 -198 522t198 523t520 199t520 -200q198 -198 196 -522q0 -324 -197 -522t-519 -199z" />
    <glyph glyph-name="ordfeminine" unicode="&#xaa;" horiz-adv-x="884" 
d="M358 690q166 0 297 141v154q-123 16 -237 16q-246 0 -246 -159q0 -152 186 -152zM336 598q-131 0 -200 62t-68 178q0 252 344 252q113 0 243 -17v31q0 117 -61 169t-208 52t-261 -78v107q125 63 298 63q173 -1 256 -73t83 -228v-493h-90l-8 112q-131 -137 -328 -137z" />
    <glyph glyph-name="guillemotleft" unicode="&#xab;" horiz-adv-x="847" 
d="M688 133l-264 375l264 377h117l-260 -377l260 -375h-117zM307 133l-264 375l264 377h117l-260 -377l260 -375h-117z" />
    <glyph glyph-name="logicalnot" unicode="&#xac;" horiz-adv-x="1277" 
d="M1061 272v476h-948v100h1052v-576h-104z" />
    <glyph glyph-name="uni00AD" unicode="&#xad;" horiz-adv-x="743" 
d="M72 539v112h600v-112h-600z" />
    <glyph glyph-name="registered" unicode="&#xae;" horiz-adv-x="1671" 
d="M662 707h202q86 -1 123 31t37 104t-37 104t-123 33h-202v-272zM557 324v745h317q252 0 252 -225q0 -182 -157 -215l205 -305h-117l-197 294h-198v-294h-105zM221 696q0 -284 168 -456q167 -172 445 -172t446 172t168 456t-168 457q-168 172 -446 172t-445 -172
q-168 -172 -168 -457zM836 -25q-322 0 -520 199q-198 198 -198 522t198 523t520 199t520 -200q198 -198 196 -522q0 -324 -197 -522t-519 -199z" />
    <glyph glyph-name="macron" unicode="&#xaf;" horiz-adv-x="1064" 
d="M289 1290v90h487v-90h-487z" />
    <glyph glyph-name="degree" unicode="&#xb0;" horiz-adv-x="749" 
d="M164 1174q0 -96 58 -157t152 -61q93 0 151 60q59 60 59 158q0 96 -58 156t-152 60t-152 -60t-58 -156zM682 1173q0 -131 -88 -219t-220 -88t-220 87t-88 219t88 221q88 88 220 88t220 -88t88 -220z" />
    <glyph glyph-name="plusminus" unicode="&#xb1;" horiz-adv-x="1277" 
d="M113 0v100h1054v-100h-1054zM586 223v443h-473v100h473v459h104v-459h477v-100h-477v-443h-104z" />
    <glyph glyph-name="uni00B2" unicode="&#xb2;" 
d="M94 850v78l316 250q125 98 168 156t43 130q0 168 -205 168q-174 0 -295 -108v104q119 96 307 96q297 0 297 -251q0 -97 -54 -173t-206 -194l-211 -164h479v-92h-639z" />
    <glyph glyph-name="uni00B3" unicode="&#xb3;" 
d="M408 825q-213 0 -320 84v105q109 -96 313 -96q250 0 250 167q0 154 -229 154h-182v90h163q111 0 162 37t51 115q0 152 -210 151q-170 0 -291 -86v99q119 80 307 79q295 0 295 -231q0 -152 -125 -197v-4q162 -43 162 -213q0 -254 -346 -254z" />
    <glyph glyph-name="acute" unicode="&#xb4;" horiz-adv-x="1064" 
d="M393 1202l242 287h131l-260 -287h-113z" />
    <glyph glyph-name="uni00B5" unicode="&#xb5;" horiz-adv-x="1210" 
d="M188 -379v1399h111v-623q0 -169 61 -245t197 -76q203 0 354 184v760h111v-1020h-92l-8 145q-172 -170 -387 -170q-160 0 -236 88v-442h-111z" />
    <glyph glyph-name="paragraph" unicode="&#xb6;" horiz-adv-x="1208" 
d="M496 -379v950q-414 8 -414 410q0 412 430 412h469v-1772h-111v1673h-264v-1673h-110z" />
    <glyph glyph-name="periodcentered" unicode="&#xb7;" horiz-adv-x="563" 
d="M209 518v156h147v-156h-147z" />
    <glyph glyph-name="cedilla" unicode="&#xb8;" horiz-adv-x="1064" 
d="M487 -410q-115 0 -192 33v80q86 -39 188 -39q131 0 131 72q0 39 -35 52q-36 13 -130 13h-46l95 219h75l-63 -153h12q195 0 195 -133q-1 -144 -230 -144z" />
    <glyph glyph-name="uni00B9" unicode="&#xb9;" 
d="M203 850v92h223v647l-252 -114v96l275 129h79v-758h226v-92h-551z" />
    <glyph glyph-name="ordmasculine" unicode="&#xba;" horiz-adv-x="942" 
d="M470 690q284 0 284 318t-284 317q-284 1 -284 -317t284 -318zM469 598q-193 0 -291 104t-98 306t98 305q98 104 291 104t292 -104t99 -305q0 -202 -99 -306t-292 -104z" />
    <glyph glyph-name="guillemotright" unicode="&#xbb;" horiz-adv-x="847" 
d="M424 133l260 375l-260 377h117l264 -377l-264 -375h-117zM43 133l260 375l-260 377h117l264 -377l-264 -375h-117z" />
    <glyph glyph-name="onequarter" unicode="&#xbc;" horiz-adv-x="1959" 
d="M1300 291h394l2 434zM1694 0v203h-520v80l522 567h100v-559h125v-88h-125v-203h-102zM203 543v92h223v647l-252 -115v97l275 129h79v-758h226v-92h-551zM651 -25l762 1442h105l-760 -1442h-107z" />
    <glyph glyph-name="onehalf" unicode="&#xbd;" horiz-adv-x="1959" 
d="M1196 0v78l315 250q125 98 168 156t43 130q0 168 -204 168q-174 0 -295 -108v104q119 96 307 96q297 0 297 -251q0 -96 -54 -172t-206 -195l-211 -164h479v-92h-639zM203 543v92h223v647l-252 -115v97l275 129h79v-758h226v-92h-551zM547 -25l762 1442h104l-760 -1442
h-106z" />
    <glyph glyph-name="threequarters" unicode="&#xbe;" horiz-adv-x="1959" 
d="M1300 291h394l2 434zM1694 0v203h-520v80l522 567h100v-559h125v-88h-125v-203h-102zM651 -25l762 1442h105l-760 -1442h-107zM408 518q-213 0 -320 84v105q109 -96 313 -97q250 0 250 168q0 154 -229 154h-182v90h163q111 0 162 37t51 115q0 152 -210 151
q-170 0 -291 -86v98q119 80 307 80q295 0 295 -231q0 -152 -125 -197v-4q162 -43 162 -213q0 -254 -346 -254z" />
    <glyph glyph-name="questiondown" unicode="&#xbf;" horiz-adv-x="925" 
d="M451 -397q-190 0 -290 89q-99 89 -100 261q0 102 44 174t159 156l113 82q82 59 108 110q27 51 27 148v16h98v-27q0 -116 -32 -182t-125 -133l-109 -80q-98 -74 -134 -128t-36 -134q0 -252 283 -252q246 0 405 182v-125q-153 -157 -411 -157zM489 864v156h146v-156h-146z
" />
    <glyph glyph-name="Agrave" unicode="&#xc0;" horiz-adv-x="1304" 
d="M332 483h635l-318 787zM20 0l570 1393h125l569 -1393h-123l-151 379h-719l-154 -379h-117zM682 1554l-260 287h131l242 -287h-113z" />
    <glyph glyph-name="Aacute" unicode="&#xc1;" horiz-adv-x="1304" 
d="M332 483h635l-318 787zM20 0l570 1393h125l569 -1393h-123l-151 379h-719l-154 -379h-117zM514 1554l242 287h131l-260 -287h-113z" />
    <glyph glyph-name="Acircumflex" unicode="&#xc2;" horiz-adv-x="1304" 
d="M332 483h635l-318 787zM20 0l570 1393h125l569 -1393h-123l-151 379h-719l-154 -379h-117zM356 1554l246 287h105l245 -287h-112l-185 205l-186 -205h-113z" />
    <glyph glyph-name="Atilde" unicode="&#xc3;" horiz-adv-x="1304" 
d="M332 483h635l-318 787zM20 0l570 1393h125l569 -1393h-123l-151 379h-719l-154 -379h-117zM543 1778q41 0 117 -42t112 -42q74 0 127 96v-113q-51 -78 -133 -78q-51 0 -122 42.5t-107 41.5q-78 0 -127 -98v113q53 80 133 80z" />
    <glyph glyph-name="Adieresis" unicode="&#xc4;" horiz-adv-x="1304" 
d="M332 483h635l-318 787zM20 0l570 1393h125l569 -1393h-123l-151 379h-719l-154 -379h-117zM756 1614v149h125v-149h-125zM426 1614v149h125v-149h-125z" />
    <glyph glyph-name="Aring" unicode="&#xc5;" horiz-adv-x="1304" 
d="M332 483h635l-318 787zM20 0l570 1393h125l569 -1393h-123l-151 379h-719l-154 -379h-117zM653 1624q39 0 63.5 25.5t24.5 66.5t-24.5 66.5t-63.5 25.5t-63.5 -25.5t-24.5 -66.5t24.5 -66.5t63.5 -25.5zM653 1542q-78 0 -127 49t-49 125t49 125t127 49t127 -49t49 -125
t-49 -125t-127 -49z" />
    <glyph glyph-name="AE" unicode="&#xc6;" horiz-adv-x="1939" 
d="M924 483v791l-504 -791h504zM1835 1393v-107h-797v-524h682v-107h-682v-549h809v-106h-923v379h-572l-246 -379h-126l901 1393h954z" />
    <glyph glyph-name="Ccedilla" unicode="&#xc7;" horiz-adv-x="1175" 
d="M750 1313q-262 0 -386 -148.5t-124 -466.5t124.5 -468t391.5 -150q207 0 338 94v-119q-131 -80 -346 -80h-9l-45 -108h13q195 0 194 -133q0 -143 -229 -144q-115 0 -193 33v80q86 -39 203 -39t117 72q0 39 -36 52t-130 13h-45l76 179q-541 43 -541 716q0 362 154.5 541.5
t470.5 179.5q215 0 346 -80v-118q-131 94 -344 94z" />
    <glyph glyph-name="Egrave" unicode="&#xc8;" horiz-adv-x="1284" 
d="M209 0v1393h971v-105h-856v-526h745v-105h-745v-553h868v-104h-983zM723 1554l-260 287h131l242 -287h-113z" />
    <glyph glyph-name="Eacute" unicode="&#xc9;" horiz-adv-x="1284" 
d="M209 0v1393h971v-105h-856v-526h745v-105h-745v-553h868v-104h-983zM555 1554l242 287h131l-260 -287h-113z" />
    <glyph glyph-name="Ecircumflex" unicode="&#xca;" horiz-adv-x="1284" 
d="M209 0v1393h971v-105h-856v-526h745v-105h-745v-553h868v-104h-983zM397 1554l246 287h105l245 -287h-112l-185 205l-186 -205h-113z" />
    <glyph glyph-name="Edieresis" unicode="&#xcb;" horiz-adv-x="1284" 
d="M209 0v1393h971v-105h-856v-526h745v-105h-745v-553h868v-104h-983zM797 1614v149h125v-149h-125zM467 1614v149h125v-149h-125z" />
    <glyph glyph-name="Igrave" unicode="&#xcc;" horiz-adv-x="532" 
d="M209 0v1393h115v-1393h-115zM297 1554l-260 287h131l242 -287h-113z" />
    <glyph glyph-name="Iacute" unicode="&#xcd;" horiz-adv-x="532" 
d="M209 0v1393h115v-1393h-115zM129 1554l242 287h131l-260 -287h-113z" />
    <glyph glyph-name="Icircumflex" unicode="&#xce;" horiz-adv-x="532" 
d="M209 0v1393h115v-1393h-115zM-8 1554l223 287h107l223 -287h-109l-168 203l-168 -203h-108z" />
    <glyph glyph-name="Idieresis" unicode="&#xcf;" horiz-adv-x="532" 
d="M209 0v1393h115v-1393h-115zM358 1614v149h125v-149h-125zM53 1614v149h125v-149h-125z" />
    <glyph glyph-name="Eth" unicode="&#xd0;" horiz-adv-x="1396" 
d="M635 104q285 0 403.5 134.5t118.5 458t-118.5 457.5t-403.5 134h-293v-528h420v-103h-420v-553h293zM647 1393q332 0 479.5 -165t147.5 -531.5t-147.5 -531.5t-479.5 -165h-420v657h-153v103h153v633h420z" />
    <glyph glyph-name="Ntilde" unicode="&#xd1;" horiz-adv-x="1497" 
d="M209 0v1393h145l824 -1194v1194h110v-1393h-108l-861 1247v-1247h-110zM637 1778q41 0 117 -42t112 -42q74 0 127 96v-113q-51 -78 -133 -78q-51 0 -122 42.5t-107 41.5q-78 0 -127 -98v113q53 80 133 80z" />
    <glyph glyph-name="Ograve" unicode="&#xd2;" horiz-adv-x="1447" 
d="M723 80q250 0 367.5 148.5t117.5 468t-117.5 468t-367.5 148.5t-366.5 -148.5t-116.5 -468t116.5 -468t366.5 -148.5zM724 -25q-306 0 -453.5 177.5t-147.5 544t147.5 543.5t453.5 177t453.5 -177t147.5 -543.5t-147.5 -544t-453.5 -177.5zM752 1554l-260 287h131
l241 -287h-112z" />
    <glyph glyph-name="Oacute" unicode="&#xd3;" horiz-adv-x="1447" 
d="M723 80q250 0 367.5 148.5t117.5 468t-117.5 468t-367.5 148.5t-366.5 -148.5t-116.5 -468t116.5 -468t366.5 -148.5zM724 -25q-306 0 -453.5 177.5t-147.5 544t147.5 543.5t453.5 177t453.5 -177t147.5 -543.5t-147.5 -544t-453.5 -177.5zM584 1554l241 287h131
l-260 -287h-112z" />
    <glyph glyph-name="Ocircumflex" unicode="&#xd4;" horiz-adv-x="1447" 
d="M723 80q250 0 367.5 148.5t117.5 468t-117.5 468t-367.5 148.5t-366.5 -148.5t-116.5 -468t116.5 -468t366.5 -148.5zM724 -25q-306 0 -453.5 177.5t-147.5 544t147.5 543.5t453.5 177t453.5 -177t147.5 -543.5t-147.5 -544t-453.5 -177.5zM426 1554l246 287h104
l246 -287h-113l-184 205l-186 -205h-113z" />
    <glyph glyph-name="Otilde" unicode="&#xd5;" horiz-adv-x="1447" 
d="M723 80q250 0 367.5 148.5t117.5 468t-117.5 468t-367.5 148.5t-366.5 -148.5t-116.5 -468t116.5 -468t366.5 -148.5zM724 -25q-306 0 -453.5 177.5t-147.5 544t147.5 543.5t453.5 177t453.5 -177t147.5 -543.5t-147.5 -544t-453.5 -177.5zM612 1778q41 0 117 -42
t113 -42q74 0 127 96v-113q-51 -78 -133 -78q-51 0 -122 42.5t-108 41.5q-78 0 -127 -98v113q53 80 133 80z" />
    <glyph glyph-name="Odieresis" unicode="&#xd6;" horiz-adv-x="1447" 
d="M723 80q250 0 367.5 148.5t117.5 468t-117.5 468t-367.5 148.5t-366.5 -148.5t-116.5 -468t116.5 -468t366.5 -148.5zM724 -25q-306 0 -453.5 177.5t-147.5 544t147.5 543.5t453.5 177t453.5 -177t147.5 -543.5t-147.5 -544t-453.5 -177.5zM825 1614v149h125v-149h-125z
M496 1614v149h125v-149h-125z" />
    <glyph glyph-name="multiply" unicode="&#xd7;" horiz-adv-x="1277" 
d="M225 129l-69 70l413 413l-413 412l69 70l414 -414l414 414l69 -70l-413 -412l413 -413l-69 -70l-414 414z" />
    <glyph glyph-name="Oslash" unicode="&#xd8;" horiz-adv-x="1445" 
d="M1208 680q0 303 -94 453l-711 -955q117 -98 320 -98q250 0 367.5 148.5t117.5 451.5zM240 712q0 -303 94 -452l710 952q-115 100 -321 101q-250 0 -366.5 -149t-116.5 -452zM1325 692q0 -363 -147.5 -540t-454.5 -177q-244 0 -387 113l-84 -113h-129l139 187
q-139 176 -139 538.5t147.5 539.5t452.5 177q246 0 389 -112l84 112h129l-139 -186q139 -176 139 -539z" />
    <glyph glyph-name="Ugrave" unicode="&#xd9;" horiz-adv-x="1404" 
d="M702.5 -25q-268.5 0 -392.5 128t-124 407v883h115v-891q0 -223 95.5 -322.5t308.5 -99.5t308 99.5t95 322.5v891h111v-883q0 -279 -124 -407t-392.5 -128zM731 1554l-260 287h131l242 -287h-113z" />
    <glyph glyph-name="Uacute" unicode="&#xda;" horiz-adv-x="1404" 
d="M702.5 -25q-268.5 0 -392.5 128t-124 407v883h115v-891q0 -223 95.5 -322.5t308.5 -99.5t308 99.5t95 322.5v891h111v-883q0 -279 -124 -407t-392.5 -128zM563 1554l242 287h131l-260 -287h-113z" />
    <glyph glyph-name="Ucircumflex" unicode="&#xdb;" horiz-adv-x="1404" 
d="M702.5 -25q-268.5 0 -392.5 128t-124 407v883h115v-891q0 -223 95.5 -322.5t308.5 -99.5t308 99.5t95 322.5v891h111v-883q0 -279 -124 -407t-392.5 -128zM406 1554l245 287h105l245 -287h-112l-184 205l-187 -205h-112z" />
    <glyph glyph-name="Udieresis" unicode="&#xdc;" horiz-adv-x="1404" 
d="M702.5 -25q-268.5 0 -392.5 128t-124 407v883h115v-891q0 -223 95.5 -322.5t308.5 -99.5t308 99.5t95 322.5v891h111v-883q0 -279 -124 -407t-392.5 -128zM805 1614v149h125v-149h-125zM475 1614v149h125v-149h-125z" />
    <glyph glyph-name="Yacute" unicode="&#xdd;" horiz-adv-x="1122" 
d="M502 0v602l-522 791h137l446 -680l449 680h131l-527 -797v-596h-114zM420 1554l242 287h131l-261 -287h-112z" />
    <glyph glyph-name="Thorn" unicode="&#xde;" horiz-adv-x="1282" 
d="M324 434h440q180 0 261 71t81 229t-80 230q-80 71 -262 70h-440v-600zM209 0v1393h115v-254h450q234 1 340 -97t106 -308t-106 -307t-340 -97h-450v-330h-115z" />
    <glyph glyph-name="germandbls" unicode="&#xdf;" horiz-adv-x="1204" 
d="M680 -25q-150 0 -248 56v110q104 -68 242 -67q317 0 317 332q0 358 -395 358h-92v98h55q313 0 313 293q0 135 -69 201q-71 66 -221 66t-216 -80q-66 -79 -67 -259v-1083h-111v1077q0 231 96 337t302 106q395 0 395 -361q0 -246 -186 -325v-5q309 -76 309 -426
q0 -209 -108 -319t-316 -109z" />
    <glyph glyph-name="agrave" unicode="&#xe0;" horiz-adv-x="1107" 
d="M455 74q219 0 379 198v209q-170 25 -299 25q-319 0 -320 -223q0 -102 61.5 -155.5t178.5 -53.5zM436 -25q-160 0 -247 80t-87 228q0 317 426 317q147 0 306 -22v57q0 168 -73 239.5t-255 71.5t-336 -100v110q150 88 364 88t312 -94t98 -303v-647h-96l-8 158
q-166 -183 -404 -183zM575 1202l-260 287h131l242 -287h-113z" />
    <glyph glyph-name="aacute" unicode="&#xe1;" horiz-adv-x="1107" 
d="M455 74q219 0 379 198v209q-170 25 -299 25q-319 0 -320 -223q0 -102 61.5 -155.5t178.5 -53.5zM436 -25q-160 0 -247 80t-87 228q0 317 426 317q147 0 306 -22v57q0 168 -73 239.5t-255 71.5t-336 -100v110q150 88 364 88t312 -94t98 -303v-647h-96l-8 158
q-166 -183 -404 -183zM408 1202l241 287h131l-260 -287h-112z" />
    <glyph glyph-name="acircumflex" unicode="&#xe2;" horiz-adv-x="1107" 
d="M455 74q219 0 379 198v209q-170 25 -299 25q-319 0 -320 -223q0 -102 61.5 -155.5t178.5 -53.5zM436 -25q-160 0 -247 80t-87 228q0 317 426 317q147 0 306 -22v57q0 168 -73 239.5t-255 71.5t-336 -100v110q150 88 364 88t312 -94t98 -303v-647h-96l-8 158
q-166 -183 -404 -183zM250 1202l246 287h104l246 -287h-113l-184 205l-187 -205h-112z" />
    <glyph glyph-name="atilde" unicode="&#xe3;" horiz-adv-x="1107" 
d="M455 74q219 0 379 198v209q-170 25 -299 25q-319 0 -320 -223q0 -102 61.5 -155.5t178.5 -53.5zM436 -25q-160 0 -247 80t-87 228q0 317 426 317q147 0 306 -22v57q0 168 -73 239.5t-254.5 71.5t-336.5 -100v110q150 88 363.5 88t312 -94t98.5 -303v-647h-96l-8 158
q-166 -183 -404 -183zM666 1341q74 0 127 97v-113q-51 -78 -134 -78q-51 0 -122 42t-107 42q-78 0 -127 -98v113q53 80 133 79q41 0 117 -42t113 -42z" />
    <glyph glyph-name="adieresis" unicode="&#xe4;" horiz-adv-x="1107" 
d="M455 74q219 0 379 198v209q-170 25 -299 25q-319 0 -320 -223q0 -102 61.5 -155.5t178.5 -53.5zM436 -25q-160 0 -247 80t-87 228q0 317 426 317q147 0 306 -22v57q0 168 -73 239.5t-255 71.5t-336 -100v110q150 88 364 88t312 -94t98 -303v-647h-96l-8 158
q-166 -183 -404 -183zM649 1262v149h125v-149h-125zM319 1262v149h125v-149h-125z" />
    <glyph glyph-name="aring" unicode="&#xe5;" horiz-adv-x="1107" 
d="M455 74q219 0 379 198v209q-170 25 -299 25q-319 0 -320 -223q0 -102 61.5 -155.5t178.5 -53.5zM436 -25q-160 0 -247 80t-87 228q0 317 426 317q147 0 306 -22v57q0 168 -73 239.5t-255 71.5t-336 -100v110q150 88 364 88t312 -94t98 -303v-647h-96l-8 158
q-166 -183 -404 -183zM547 1272q39 0 63.5 25.5t24.5 66.5t-24.5 66.5t-63.5 25.5t-63.5 -25.5t-24.5 -66.5t24.5 -66.5t63.5 -25.5zM547 1190q-78 0 -127 49t-49 125t49 125t127 49t127 -49t49 -125t-49 -125t-127 -49z" />
    <glyph glyph-name="ae" unicode="&#xe6;" horiz-adv-x="1849" 
d="M459 74q244 0 399 231q-23 80 -24 176q-170 25 -299 25q-319 0 -320 -223q0 -209 244 -209zM1309 946q-340 0 -365 -360h692q-2 184 -80.5 272t-246.5 88zM942 487q8 -413 404 -413q196 0 337 88v-109q-131 -78 -329 -78q-342 0 -459 230q-180 -230 -446 -230
q-170 0 -258.5 80t-88.5 228q0 317 428 317q147 0 304 -22v57q0 168 -73 239.5t-254 71.5t-337 -100v110q145 88 331.5 88t278.5 -56t125 -179q106 236 408 235q211 0 320.5 -117.5t109.5 -344.5q0 -45 -6 -95h-795z" />
    <glyph glyph-name="ccedilla" unicode="&#xe7;" horiz-adv-x="970" 
d="M627 946q-201 0 -297.5 -106.5t-96.5 -325.5q0 -440 398 -440q156 0 266 69v-108q-100 -59 -268 -60h-17l-45 -108h13q195 0 194 -133q0 -143 -229 -144q-115 0 -193 33v80q86 -39 203 -39t117 72q0 39 -36 52t-130 13h-45l78 179q-418 49 -418 534q0 530 493 530
q176 0 283 -59v-108q-114 69 -270 69z" />
    <glyph glyph-name="egrave" unicode="&#xe8;" horiz-adv-x="1138" 
d="M598 946q-340 0 -365 -360h693q-2 184 -81 272t-247 88zM231 487q7 -413 403 -413q196 0 339 88v-109q-133 -78 -330 -78q-264 0 -393 132.5t-129 402.5q0 535 471 534q440 0 440 -462q0 -45 -6 -95h-795zM616 1202l-260 287h131l242 -287h-113z" />
    <glyph glyph-name="eacute" unicode="&#xe9;" horiz-adv-x="1138" 
d="M598 946q-340 0 -365 -360h693q-2 184 -81 272t-247 88zM231 487q7 -413 403 -413q196 0 339 88v-109q-133 -78 -330 -78q-264 0 -393 132.5t-129 402.5q0 535 471 534q440 0 440 -462q0 -45 -6 -95h-795zM449 1202l241 287h131l-260 -287h-112z" />
    <glyph glyph-name="ecircumflex" unicode="&#xea;" horiz-adv-x="1138" 
d="M598 946q-340 0 -365 -360h693q-2 184 -81 272t-247 88zM231 487q7 -413 403 -413q196 0 339 88v-109q-133 -78 -330 -78q-264 0 -393 132.5t-129 402.5q0 535 471 534q440 0 440 -462q0 -45 -6 -95h-795zM291 1202l246 287h104l246 -287h-113l-184 205l-187 -205h-112z
" />
    <glyph glyph-name="edieresis" unicode="&#xeb;" horiz-adv-x="1138" 
d="M598 946q-340 0 -365 -360h693q-2 184 -81 272t-247 88zM231 487q7 -413 403 -413q196 0 339 88v-109q-133 -78 -330 -78q-264 0 -393 132.5t-129 402.5q0 535 471 534q440 0 440 -462q0 -45 -6 -95h-795zM690 1262v149h125v-149h-125zM360 1262v149h125v-149h-125z" />
    <glyph glyph-name="igrave" unicode="&#xec;" horiz-adv-x="487" 
d="M188 0v1020h111v-1020h-111zM272 1202l-260 287h131l242 -287h-113z" />
    <glyph glyph-name="iacute" unicode="&#xed;" horiz-adv-x="487" 
d="M188 0v1020h111v-1020h-111zM104 1202l242 287h131l-260 -287h-113z" />
    <glyph glyph-name="icircumflex" unicode="&#xee;" horiz-adv-x="487" 
d="M188 0v1020h111v-1020h-111zM-33 1202l223 287h107l223 -287h-108l-168 203l-168 -203h-109z" />
    <glyph glyph-name="idieresis" unicode="&#xef;" horiz-adv-x="487" 
d="M188 0v1020h111v-1020h-111zM334 1262v149h125v-149h-125zM29 1262v149h125v-149h-125z" />
    <glyph glyph-name="eth" unicode="&#xf0;" horiz-adv-x="1163" 
d="M561 864q-336 0 -336 -395t349 -395q173 0 266 109q92 110 92 319q0 100 -21 188q-129 174 -350 174zM1042 492q0 -244 -123 -380t-346 -137q-223 0 -342 128q-119 127 -119 365t113 367q113 128 305 128t328 -109q-84 184 -256 348l-315 -135l-33 86l272 117
q-147 123 -327 225h170q141 -82 256 -182l225 96l33 -86l-185 -80q344 -338 344 -751z" />
    <glyph glyph-name="ntilde" unicode="&#xf1;" horiz-adv-x="1187" 
d="M188 0v1020h93l8 -143q170 168 385 167q344 0 344 -403v-641h-111v625q0 168 -61.5 243.5t-196.5 75.5q-197 0 -350 -180v-764h-111zM715 1341q74 0 127 97v-113q-51 -78 -133 -78q-51 0 -122 42t-108 42q-78 0 -127 -98v113q53 80 133 79q41 0 117 -42t113 -42z" />
    <glyph glyph-name="ograve" unicode="&#xf2;" horiz-adv-x="1202" 
d="M233 510q0 -436 368 -436t368 436t-368 436t-368 -436zM601 -25q-237 0 -358.5 135.5t-121.5 399.5t122 399t358.5 135t358 -135t121.5 -399t-121.5 -399.5t-358.5 -135.5zM629 1202l-260 287h131l241 -287h-112z" />
    <glyph glyph-name="oacute" unicode="&#xf3;" horiz-adv-x="1202" 
d="M233 510q0 -436 368 -436t368 436t-368 436t-368 -436zM601 -25q-237 0 -358.5 135.5t-121.5 399.5t122 399t358.5 135t358 -135t121.5 -399t-121.5 -399.5t-358.5 -135.5zM461 1202l241 287h132l-261 -287h-112z" />
    <glyph glyph-name="ocircumflex" unicode="&#xf4;" horiz-adv-x="1202" 
d="M233 510q0 -436 368 -436t368 436t-368 436t-368 -436zM601 -25q-237 0 -358.5 135.5t-121.5 399.5t122 399t358.5 135t358 -135t121.5 -399t-121.5 -399.5t-358.5 -135.5zM303 1202l246 287h104l246 -287h-113l-184 205l-186 -205h-113z" />
    <glyph glyph-name="otilde" unicode="&#xf5;" horiz-adv-x="1202" 
d="M233 510q0 -436 368 -436t368 436t-368 436t-368 -436zM601 -25q-237 0 -358.5 135.5t-121.5 399.5t122 399t358.5 135t358 -135t121.5 -399t-121.5 -399.5t-358.5 -135.5zM719 1341q74 0 127 97v-113q-51 -78 -133 -78q-51 0 -122 42t-108 42q-78 0 -127 -98v113
q53 80 133 79q41 0 117 -42t113 -42z" />
    <glyph glyph-name="odieresis" unicode="&#xf6;" horiz-adv-x="1202" 
d="M233 510q0 -436 368 -436t368 436t-368 436t-368 -436zM601 -25q-237 0 -358.5 135.5t-121.5 399.5t122 399t358.5 135t358 -135t121.5 -399t-121.5 -399.5t-358.5 -135.5zM702 1262v149h125v-149h-125zM373 1262v149h125v-149h-125z" />
    <glyph glyph-name="divide" unicode="&#xf7;" horiz-adv-x="1277" 
d="M578 121v133h122v-133h-122zM113 559v103h1054v-103h-1054zM578 967v133h122v-133h-122z" />
    <glyph glyph-name="oslash" unicode="&#xf8;" horiz-adv-x="1202" 
d="M602 74q367 0 367 436q0 197 -72 301l-526 -672q88 -65 231 -65zM602 946q-369 0 -369 -436q0 -195 72 -299l526 672q-88 63 -229 63zM602 -25q-184 0 -297 80l-63 -80h-121l112 146q-113 137 -112.5 395t122.5 393t359 135q180 0 295 -79l64 79h120l-114 -145
q115 -133 114.5 -393t-122 -395.5t-357.5 -135.5z" />
    <glyph glyph-name="ugrave" unicode="&#xf9;" horiz-adv-x="1198" 
d="M516 -25q-348 0 -348 404v641h111v-623q0 -170 62 -245.5t200 -75.5q201 0 358 184v760h111v-1020h-92l-9 147q-174 -172 -393 -172zM618 1202l-260 287h131l242 -287h-113z" />
    <glyph glyph-name="uacute" unicode="&#xfa;" horiz-adv-x="1198" 
d="M516 -25q-348 0 -348 404v641h111v-623q0 -170 62 -245.5t200 -75.5q201 0 358 184v760h111v-1020h-92l-9 147q-174 -172 -393 -172zM451 1202l241 287h131l-260 -287h-112z" />
    <glyph glyph-name="ucircumflex" unicode="&#xfb;" horiz-adv-x="1198" 
d="M516 -25q-348 0 -348 404v641h111v-623q0 -170 62 -245.5t200 -75.5q201 0 358 184v760h111v-1020h-92l-9 147q-174 -172 -393 -172zM293 1202l246 287h104l246 -287h-113l-184 205l-186 -205h-113z" />
    <glyph glyph-name="udieresis" unicode="&#xfc;" horiz-adv-x="1198" 
d="M516 -25q-348 0 -348 404v641h111v-623q0 -170 62 -245.5t200 -75.5q201 0 358 184v760h111v-1020h-92l-9 147q-174 -172 -393 -172zM692 1262v149h125v-149h-125zM362 1262v149h125v-149h-125z" />
    <glyph glyph-name="yacute" unicode="&#xfd;" horiz-adv-x="980" 
d="M229.5 -403q-77.5 0 -112.5 14v96q33 -12 89.5 -12t95 34.5t83.5 151.5t45 134t-8 36l-385 969h119l340 -862l333 862h115l-467 -1194q-49 -125 -109.5 -177t-138 -52zM350 1202l242 287h131l-260 -287h-113z" />
    <glyph glyph-name="thorn" unicode="&#xfe;" horiz-adv-x="1204" 
d="M635 74q336 0 336 436t-324 436q-205 0 -348 -180v-526q139 -166 336 -166zM188 -379v1874h111v-604q154 153 363 153t315 -137t106 -397q1 -260 -109 -397t-318 -137t-357 137v-492h-111z" />
    <glyph glyph-name="ydieresis" unicode="&#xff;" horiz-adv-x="980" 
d="M229.5 -403q-77.5 0 -112.5 14v96q33 -12 89.5 -12t95 34.5t83.5 151.5t45 134t-8 36l-385 969h119l340 -862l333 862h115l-467 -1194q-49 -125 -109.5 -177t-138 -52zM592 1262v149h125v-149h-125zM262 1262v149h125v-149h-125z" />
    <glyph glyph-name="Amacron" unicode="&#x100;" horiz-adv-x="1304" 
d="M332 483h635l-318 787zM20 0l570 1393h125l569 -1393h-123l-151 379h-719l-154 -379h-117zM410 1642v91h487v-91h-487z" />
    <glyph glyph-name="amacron" unicode="&#x101;" horiz-adv-x="1107" 
d="M455 74q219 0 379 198v209q-170 25 -299 25q-319 0 -320 -223q0 -102 61.5 -155.5t178.5 -53.5zM436 -25q-160 0 -247 80t-87 228q0 317 426 317q147 0 306 -22v57q0 168 -73 239.5t-255 71.5t-336 -100v110q150 88 364 88t312 -94t98 -303v-647h-96l-8 158
q-166 -183 -404 -183zM303 1290v90h488v-90h-488z" />
    <glyph glyph-name="Abreve" unicode="&#x102;" horiz-adv-x="1304" 
d="M332 483h635l-318 787zM20 0l570 1393h125l569 -1393h-123l-151 379h-719l-154 -379h-117zM652 1559q-112 0 -181.5 65.5t-83.5 183.5h92q20 -154 172 -153.5t174 153.5h93q-12 -119 -83 -184t-183 -65z" />
    <glyph glyph-name="abreve" unicode="&#x103;" horiz-adv-x="1107" 
d="M455 74q219 0 379 198v209q-170 25 -299 25q-319 0 -320 -223q0 -102 61.5 -155.5t178.5 -53.5zM436 -25q-160 0 -247 80t-87 228q0 317 426 317q147 0 306 -22v57q0 168 -73 239.5t-254.5 71.5t-336.5 -100v110q150 88 363.5 88t312 -94t98.5 -303v-647h-96l-8 158
q-166 -183 -404 -183zM546 1206q-112 0 -181.5 65.5t-83.5 184.5h92q20 -154 172 -153.5t174 153.5h92q-12 -119 -82.5 -184.5t-182.5 -65.5z" />
    <glyph glyph-name="Aogonek" unicode="&#x104;" horiz-adv-x="1304" 
d="M332 483h635l-318 787zM1067 -223q0 -94 104 -94q57 0 109 32v-92q-51 -27 -132 -27t-130 42.5t-49 119.5q0 133 186 256l-145 365h-719l-154 -379h-117l570 1393h125l569 -1393h-22q-195 -110 -195 -223z" />
    <glyph glyph-name="aogonek" unicode="&#x105;" horiz-adv-x="1107" 
d="M535 506q-319 0 -320 -223q0 -102 61.5 -155.5t178.5 -53.5q219 -1 379 198v209q-170 25 -299 25zM727 -223q0 -94 104 -94q57 0 109 32v-92q-51 -27 -132 -26.5t-130 42.5t-49 117.5t51 141t166 137.5l-6 123q-166 -182 -404 -183q-160 0 -247 80t-87 228q0 317 426 317
q147 0 306 -22v57q0 168 -73 239.5t-254.5 71.5t-336.5 -100v110q150 88 363.5 88t312 -94t98.5 -303v-647h-22q-195 -111 -195 -223z" />
    <glyph glyph-name="Cacute" unicode="&#x106;" horiz-adv-x="1175" 
d="M748 -25q-625 0 -625 721q0 362 154.5 541.5t470.5 179.5q215 0 346 -80v-118q-131 94 -344 94q-262 0 -386 -148.5t-124 -466.5t124.5 -468t391.5 -150q207 0 338 94v-119q-131 -80 -346 -80zM553 1554l242 287h131l-260 -287h-113z" />
    <glyph glyph-name="cacute" unicode="&#x107;" horiz-adv-x="970" 
d="M629 -25q-252 0 -380 136.5t-128 402.5q0 530 493 530q176 0 283 -59v-108q-115 70 -270 69q-201 0 -297.5 -106.5t-96.5 -325.5q0 -440 398 -440q156 0 266 69v-108q-100 -60 -268 -60zM436 1202l242 287h131l-260 -287h-113z" />
    <glyph glyph-name="Ccircumflex" unicode="&#x108;" horiz-adv-x="1175" 
d="M748 -25q-625 0 -625 721q0 362 154.5 541.5t470.5 179.5q215 0 346 -80v-118q-131 94 -344 94q-262 0 -386 -148.5t-124 -466.5t124.5 -468t391.5 -150q207 0 338 94v-119q-131 -80 -346 -80zM395 1554l246 287h104l246 -287h-112l-185 205l-186 -205h-113z" />
    <glyph glyph-name="ccircumflex" unicode="&#x109;" horiz-adv-x="970" 
d="M629 -25q-252 0 -380 136.5t-128 402.5q0 530 493 530q176 0 283 -59v-108q-115 70 -270 69q-201 0 -297.5 -106.5t-96.5 -325.5q0 -440 398 -440q156 0 266 69v-108q-100 -60 -268 -60zM279 1202l245 287h105l245 -287h-112l-184 205l-187 -205h-112z" />
    <glyph glyph-name="Cdotaccent" unicode="&#x10a;" horiz-adv-x="1175" 
d="M748 -25q-625 0 -625 721q0 362 154.5 541.5t470.5 179.5q215 0 346 -80v-118q-131 94 -344 94q-262 0 -386 -148.5t-124 -466.5t124.5 -468t391.5 -150q207 0 338 94v-119q-131 -80 -346 -80zM629 1614v149h127v-149h-127z" />
    <glyph glyph-name="cdotaccent" unicode="&#x10b;" horiz-adv-x="970" 
d="M629 -25q-252 0 -380 136.5t-128 402.5q0 530 493 530q176 0 283 -59v-108q-115 70 -270 69q-201 0 -297.5 -106.5t-96.5 -325.5q0 -440 398 -440q156 0 266 69v-108q-100 -60 -268 -60zM512 1262v149h127v-149h-127z" />
    <glyph glyph-name="Ccaron" unicode="&#x10c;" horiz-adv-x="1175" 
d="M748 -25q-625 0 -625 721q0 362 154.5 541.5t470.5 179.5q215 0 346 -80v-118q-131 94 -344 94q-262 0 -386 -148.5t-124 -466.5t124.5 -468t391.5 -150q207 0 338 94v-119q-131 -80 -346 -80zM641 1554l-246 287h113l186 -205l185 205h112l-246 -287h-104z" />
    <glyph glyph-name="ccaron" unicode="&#x10d;" horiz-adv-x="970" 
d="M629 -25q-252 0 -380 136.5t-128 402.5q0 530 493 530q176 0 283 -59v-108q-115 70 -270 69q-201 0 -297.5 -106.5t-96.5 -325.5q0 -440 398 -440q156 0 266 69v-108q-100 -60 -268 -60zM524 1202l-245 287h112l187 -205l184 205h112l-245 -287h-105z" />
    <glyph glyph-name="Dcaron" unicode="&#x10e;" horiz-adv-x="1378" 
d="M324 104h292q285 0 404 134.5t119 458t-119 457.5t-404 134h-292v-1184zM209 0v1393h420q332 0 479 -165t147 -531.5t-147 -531.5t-479 -165h-420zM590 1554l-246 287h113l186 -205l184 205h113l-246 -287h-104z" />
    <glyph glyph-name="dcaron" unicode="&#x10f;" horiz-adv-x="1218" 
d="M557 74q205 0 348 180v528q-139 164 -336 164q-336 0 -336 -436t324 -436zM1118 1092l88 403h109l-113 -403h-84zM546 -25q-212 -1 -318 137t-107 398q0 260 109 397q110 137 317 137t358 -137v588h111v-1495h-92l-9 141q-157 -166 -369 -166z" />
    <glyph glyph-name="Dcroat" unicode="&#x110;" horiz-adv-x="1396" 
d="M635 104q285 0 403.5 134.5t118.5 458t-118.5 457.5t-403.5 134h-293v-528h420v-103h-420v-553h293zM647 1393q332 0 479.5 -165t147.5 -531.5t-147.5 -531.5t-479.5 -165h-420v657h-153v103h153v633h420z" />
    <glyph glyph-name="dcroat" unicode="&#x111;" horiz-adv-x="1212" 
d="M569 946q-336 0 -336 -436t324 -436q205 0 348 180v528q-139 164 -336 164zM1196 1286v-90h-180v-1196h-92l-9 141q-157 -166 -369 -166q-212 -1 -318 137t-107 398q0 260 109 397q110 137 317 137t358 -137v289h-278v90h278v209h111v-209h180z" />
    <glyph glyph-name="Emacron" unicode="&#x112;" horiz-adv-x="1284" 
d="M209 0v1393h971v-105h-856v-526h745v-105h-745v-553h868v-104h-983zM451 1642v91h487v-91h-487z" />
    <glyph glyph-name="emacron" unicode="&#x113;" horiz-adv-x="1138" 
d="M598 946q-340 0 -365 -360h693q-2 184 -81 272t-247 88zM231 487q7 -413 403 -413q196 0 339 88v-109q-133 -78 -330 -78q-264 0 -393 132.5t-129 402.5q0 535 471 534q440 0 440 -462q0 -45 -6 -95h-795zM344 1290v90h487v-90h-487z" />
    <glyph glyph-name="Ebreve" unicode="&#x114;" horiz-adv-x="1284" 
d="M209 0v1393h971v-105h-856v-526h745v-105h-745v-553h868v-104h-983zM693 1559q-112 0 -181.5 65.5t-83.5 183.5h92q23 -154 173.5 -153.5t172.5 153.5h92q-12 -119 -82.5 -184t-182.5 -65z" />
    <glyph glyph-name="ebreve" unicode="&#x115;" horiz-adv-x="1138" 
d="M598 946q-340 0 -365 -360h693q-2 184 -81 272t-247 88zM231 487q7 -413 403 -413q196 0 339 88v-109q-133 -78 -330 -78q-264 0 -393 132.5t-129 402.5q0 535 471 534q440 0 440 -462q0 -45 -6 -95h-795zM587 1206q-112 0 -181.5 65.5t-83.5 184.5h92
q23 -154 173.5 -153.5t172.5 153.5h92q-12 -119 -82.5 -184.5t-182.5 -65.5z" />
    <glyph glyph-name="Edotaccent" unicode="&#x116;" horiz-adv-x="1284" 
d="M209 0v1393h971v-105h-856v-526h745v-105h-745v-553h868v-104h-983zM631 1614v149h127v-149h-127z" />
    <glyph glyph-name="edotaccent" unicode="&#x117;" horiz-adv-x="1138" 
d="M598 946q-340 0 -365 -360h693q-2 184 -81 272t-247 88zM231 487q7 -413 403 -413q196 0 339 88v-109q-133 -78 -330 -78q-264 0 -393 132.5t-129 402.5q0 535 471 534q440 0 440 -462q0 -45 -6 -95h-795zM524 1262v149h127v-149h-127z" />
    <glyph glyph-name="Eogonek" unicode="&#x118;" horiz-adv-x="1284" 
d="M1081 -317q57 0 109 32v-92q-51 -27 -132 -26.5t-130 42.5t-49 119q0 125 165 242h-835v1393h971v-105h-856v-526h745v-105h-745v-553h868v-104h-21q-195 -111 -194 -223q0 -94 104 -94z" />
    <glyph glyph-name="eogonek" unicode="&#x119;" horiz-adv-x="1138" 
d="M598 946q-340 0 -365 -360h693q-2 184 -81 272t-247 88zM231 487q7 -413 403 -413q196 0 339 88v-109q-37 -20 -80 -37q-180 -113 -180 -235q0 -98 104 -98q57 0 109 32v-92q-47 -27 -123 -26q-188 0 -189 163q0 115 113 220q-53 -4 -84 -5q-264 0 -393 132.5t-129 402.5
q0 535 471 534q440 1 440 -462q0 -45 -6 -95h-795z" />
    <glyph glyph-name="Ecaron" unicode="&#x11a;" horiz-adv-x="1284" 
d="M209 0v1393h971v-105h-856v-526h745v-105h-745v-553h868v-104h-983zM643 1554l-246 287h113l186 -205l185 205h112l-245 -287h-105z" />
    <glyph glyph-name="ecaron" unicode="&#x11b;" horiz-adv-x="1138" 
d="M598 946q-340 0 -365 -360h693q-2 184 -81 272t-247 88zM231 487q7 -413 403 -413q196 0 339 88v-109q-133 -78 -330 -78q-264 0 -393 132.5t-129 402.5q0 535 471 534q440 0 440 -462q0 -45 -6 -95h-795zM537 1202l-246 287h112l187 -205l184 205h113l-246 -287h-104z
" />
    <glyph glyph-name="Gcircumflex" unicode="&#x11c;" horiz-adv-x="1331" 
d="M770 -25q-647 0 -647 721t663 721q223 0 375 -82v-121q-152 98 -373 99q-279 0 -413.5 -151.5t-134.5 -465.5t131 -465t399 -151q184 0 322 76v501h-359v105h471v-656q-164 -131 -434 -131zM424 1554l246 287h104l246 -287h-113l-184 205l-186 -205h-113z" />
    <glyph glyph-name="gcircumflex" unicode="&#x11d;" horiz-adv-x="1204" 
d="M559 102q201 0 346 179v501q-139 164 -334 164q-338 0 -338 -424q0 -205 83 -312.5t243 -107.5zM563.5 -403q-223.5 0 -362.5 71v109q139 -82 333.5 -82t282.5 88t88 287v88q-156 -156 -362.5 -156t-314 136t-107.5 386t109.5 385t320.5 135t367 -147l12 123h86v-938
q0 -252 -114.5 -368.5t-338 -116.5zM293 1202l246 287h104l246 -287h-113l-184 205l-186 -205h-113z" />
    <glyph glyph-name="Gbreve" unicode="&#x11e;" horiz-adv-x="1331" 
d="M770 -25q-647 0 -647 721t663 721q223 0 375 -82v-121q-152 98 -373 99q-279 0 -413.5 -151.5t-134.5 -465t131 -465t399 -151.5q184 0 322 76v501h-359v105h471v-656q-164 -131 -434 -131zM720 1559q-112 0 -181.5 65.5t-83.5 183.5h92q23 -154 174 -153.5t172 153.5h92
q-12 -119 -82.5 -184t-182.5 -65z" />
    <glyph glyph-name="gbreve" unicode="&#x11f;" horiz-adv-x="1204" 
d="M559 102q201 0 346 179v501q-139 164 -334 164q-338 0 -338 -424q0 -205 83 -312.5t243 -107.5zM563.5 -403q-223.5 0 -362.5 71v109q139 -82 333.5 -82t282.5 88t88 287v88q-156 -156 -362.5 -156t-314 136t-107.5 386t109.5 385t320.5 135t367 -147l12 123h86v-938
q0 -252 -114.5 -368.5t-338 -116.5zM589 1206q-112 0 -181.5 65.5t-83.5 184.5h92q23 -154 174 -153.5t172 153.5h92q-12 -119 -82.5 -184.5t-182.5 -65.5z" />
    <glyph glyph-name="Gdotaccent" unicode="&#x120;" horiz-adv-x="1331" 
d="M770 -25q-647 0 -647 721t663 721q223 0 375 -82v-121q-152 98 -373 99q-279 0 -413.5 -151.5t-134.5 -465.5t131 -465t399 -151q184 0 322 76v501h-359v105h471v-656q-164 -131 -434 -131zM657 1614v149h127v-149h-127z" />
    <glyph glyph-name="gdotaccent" unicode="&#x121;" horiz-adv-x="1204" 
d="M559 102q201 0 346 179v501q-139 164 -334 164q-338 0 -338 -424q0 -205 83 -312.5t243 -107.5zM563.5 -403q-223.5 0 -362.5 71v109q139 -82 333.5 -82t282.5 88t88 287v88q-156 -156 -362.5 -156t-314 136t-107.5 386t109.5 385t320.5 135t367 -147l12 123h86v-938
q0 -252 -114.5 -368.5t-338 -116.5zM526 1262v149h127v-149h-127z" />
    <glyph glyph-name="Gcommaaccent" unicode="&#x122;" horiz-adv-x="1331" 
d="M698 -346v145h125v-135l-75 -147h-62l59 137h-47zM770 -25q-647 0 -647 721t663 721q223 0 375 -82v-121q-152 98 -373 99q-279 0 -413.5 -151.5t-134.5 -465t131 -465t399 -151.5q184 0 322 76v501h-359v105h471v-656q-164 -131 -434 -131z" />
    <glyph glyph-name="gcommaaccent" unicode="&#x123;" horiz-adv-x="1204" 
d="M559 102q201 0 346 179v501q-139 164 -334 164q-338 0 -338 -424q0 -205 83 -312.5t243 -107.5zM563.5 -403q-223.5 0 -362.5 71v109q139 -82 333.5 -82t282.5 88t88 287v88q-156 -156 -362.5 -156t-314 136t-107.5 386t109.5 385t320.5 135t367 -147l12 123h86v-938
q0 -252 -114.5 -368.5t-338 -116.5zM653 1366v-145h-125v135l76 147h62l-60 -137h47z" />
    <glyph glyph-name="Hcircumflex" unicode="&#x124;" horiz-adv-x="1495" 
d="M209 0v1393h115v-629h847v629h115v-1393h-115v655h-847v-655h-115zM453 1554l245 287h105l246 -287h-113l-184 205l-187 -205h-112z" />
    <glyph glyph-name="hcircumflex" unicode="&#x125;" horiz-adv-x="1187" 
d="M188 0v1495h111v-608q164 158 375 157q344 0 344 -403v-641h-111v625q0 168 -61.5 243.5t-196.5 75.5q-197 0 -350 -178v-766h-111zM-53 1657l246 287h104l246 -287h-113l-184 205l-187 -205h-112z" />
    <glyph glyph-name="Hbar" unicode="&#x126;" horiz-adv-x="1533" 
d="M1190 764v260h-848v-260h848zM1460 1122v-98h-155v-1024h-115v655h-848v-655h-115v1024h-153v98h153v271h115v-271h848v271h115v-271h155z" />
    <glyph glyph-name="hbar" unicode="&#x127;" horiz-adv-x="1196" 
d="M682 1044q344 0 344 -403v-641h-111v625q0 168 -61 243.5t-197 75.5q-197 0 -350 -178v-766h-110v1196h-181v90h181v209h110v-209h279v-90h-279v-309q164 157 375 157z" />
    <glyph glyph-name="Itilde" unicode="&#x128;" horiz-adv-x="532" 
d="M209 0v1393h115v-1393h-115zM166 1778q43 0 108.5 -42t102.5 -42q70 0 119 96v-113q-47 -78 -125 -78q-45 0 -113 42t-100 42q-68 0 -117 -98v113q49 80 125 80z" />
    <glyph glyph-name="itilde" unicode="&#x129;" horiz-adv-x="487" 
d="M188 0v1020h111v-1020h-111zM352 1341q70 0 119 97v-113q-47 -78 -125 -78q-45 0 -113 42t-100 42q-68 0 -117 -98v113q49 80 125 79q43 0 108.5 -42t102.5 -42z" />
    <glyph glyph-name="Imacron" unicode="&#x12a;" horiz-adv-x="532" 
d="M209 0v1393h115v-1393h-115zM51 1642v91h436v-91h-436z" />
    <glyph glyph-name="imacron" unicode="&#x12b;" horiz-adv-x="487" 
d="M188 0v1020h111v-1020h-111zM27 1290v90h436v-90h-436z" />
    <glyph glyph-name="Ibreve" unicode="&#x12c;" horiz-adv-x="532" 
d="M209 0v1393h115v-1393h-115zM268.5 1559q-108.5 0 -171 64.5t-70.5 184.5h88q18 -154 153 -153.5t154 153.5h88q-8 -121 -70.5 -185t-171 -64z" />
    <glyph glyph-name="ibreve" unicode="&#x12d;" horiz-adv-x="487" 
d="M188 0v1020h111v-1020h-111zM243.5 1206q-108.5 0 -171 64.5t-70.5 185.5h88q18 -154 153.5 -153.5t153.5 153.5h88q-8 -121 -70.5 -185.5t-171 -64.5z" />
    <glyph glyph-name="Iogonek" unicode="&#x12e;" horiz-adv-x="532" 
d="M295 -317q57 0 108 32v-90q-49 -29 -122 -28q-188 0 -189 167q0 117 119 236h-2v1393h115v-1393h-5q-129 -106 -129 -219q1 -98 105 -98z" />
    <glyph glyph-name="iogonek" unicode="&#x12f;" horiz-adv-x="487" 
d="M274 -317q57 0 109 32v-90q-49 -29 -123 -28q-188 0 -188 167q0 117 118 236h-2v1020h111v-1020q-129 -106 -129 -212t104 -105zM307 1411v-149h-125v149h125z" />
    <glyph glyph-name="Idotaccent" unicode="&#x130;" horiz-adv-x="532" 
d="M209 0v1393h115v-1393h-115zM205 1614v149h127v-149h-127z" />
    <glyph glyph-name="dotlessi" unicode="&#x131;" horiz-adv-x="487" 
d="M188 0v1020h111v-1020h-111z" />
    <glyph glyph-name="IJ" unicode="&#x132;" horiz-adv-x="1468" 
d="M893.5 -25q-193.5 0 -322.5 82v117q129 -94 293 -94t233.5 82t69.5 272v959h115v-959q0 -240 -97.5 -349.5t-291 -109.5zM209 0v1393h115v-1393h-115z" />
    <glyph glyph-name="ij" unicode="&#x133;" horiz-adv-x="974" 
d="M561 -403q-45 0 -80 8v98q27 -8 68 -8q127 0 127 143v1182h110v-1176q0 -127 -55 -187t-170 -60zM188 0v1020h111v-1020h-111zM670 1262v149h125v-149h-125zM182 1262v149h125v-149h-125z" />
    <glyph glyph-name="Jcircumflex" unicode="&#x134;" horiz-adv-x="935" 
d="M361.5 -25q-193.5 0 -322.5 82v117q129 -94 293 -94t233.5 82t69.5 272v959h115v-959q0 -240 -97.5 -349.5t-291 -109.5zM395 1554l246 287h104l246 -287h-112l-185 205l-186 -205h-113z" />
    <glyph glyph-name="jcircumflex" unicode="&#x135;" horiz-adv-x="487" 
d="M74 -403q-45 0 -80 8v98q27 -8 67 -8q127 0 127 143v1182h111v-1176q0 -127 -55 -187t-170 -60zM-33 1202l223 287h107l223 -287h-108l-168 203l-168 -203h-109z" />
    <glyph glyph-name="Kcommaaccent" unicode="&#x136;" horiz-adv-x="1282" 
d="M641 -346v145h125v-135l-76 -147h-61l59 137h-47zM209 0v1393h115v-787l782 787h149l-563 -566l574 -827h-140l-516 745l-286 -286v-459h-115z" />
    <glyph glyph-name="kcommaaccent" unicode="&#x137;" horiz-adv-x="1083" 
d="M535 -346v145h124v-135l-75 -147h-62l60 137h-47zM188 0v1495h111v-1038l594 563h147l-434 -410l445 -610h-133l-390 537l-229 -218v-319h-111z" />
    <glyph glyph-name="kgreenlandic" unicode="&#x138;" horiz-adv-x="1083" 
d="M188 0v1020h111v-563l594 563h147l-434 -410l445 -610h-133l-390 537l-229 -218v-319h-111z" />
    <glyph glyph-name="Lacute" unicode="&#x139;" horiz-adv-x="1107" 
d="M209 0v1393h115v-1289h759v-104h-874zM127 1554l242 287h131l-260 -287h-113z" />
    <glyph glyph-name="lacute" unicode="&#x13a;" horiz-adv-x="487" 
d="M188 0v1495h111v-1495h-111zM104 1657l242 287h131l-260 -287h-113z" />
    <glyph glyph-name="Lcommaaccent" unicode="&#x13b;" horiz-adv-x="1107" 
d="M582 -346v145h125v-135l-76 -147h-62l60 137h-47zM209 0v1393h115v-1289h759v-104h-874z" />
    <glyph glyph-name="lcommaaccent" unicode="&#x13c;" horiz-adv-x="487" 
d="M180 -346v145h125v-135l-76 -147h-61l59 137h-47zM188 0v1495h111v-1495h-111z" />
    <glyph glyph-name="Lcaron" unicode="&#x13d;" horiz-adv-x="1107" 
d="M442 989l88 404h109l-113 -404h-84zM209 0v1393h115v-1289h759v-104h-874z" />
    <glyph glyph-name="lcaron" unicode="&#x13e;" horiz-adv-x="503" 
d="M403 1092l89 403h108l-113 -403h-84zM188 0v1495h111v-1495h-111z" />
    <glyph glyph-name="Ldot" unicode="&#x13f;" horiz-adv-x="1107" 
d="M748 668v153h145v-153h-145zM209 0v1393h115v-1289h759v-104h-874z" />
    <glyph glyph-name="ldot" unicode="&#x140;" horiz-adv-x="526" 
d="M434 676v153h146v-153h-146zM188 0v1495h111v-1495h-111z" />
    <glyph glyph-name="Lslash" unicode="&#x141;" horiz-adv-x="1126" 
d="M342 104h760v-104h-875v440l-153 -110v116l153 111v836h115v-754l483 344v-117l-483 -344v-418z" />
    <glyph glyph-name="lslash" unicode="&#x142;" horiz-adv-x="555" 
d="M334 0h-111v684l-207 -154v113l207 152v700h111v-618l207 151v-110l-207 -154v-764z" />
    <glyph glyph-name="Nacute" unicode="&#x143;" horiz-adv-x="1497" 
d="M209 0v1393h145l824 -1194v1194h110v-1393h-108l-861 1247v-1247h-110zM608 1554l242 287h131l-260 -287h-113z" />
    <glyph glyph-name="nacute" unicode="&#x144;" horiz-adv-x="1187" 
d="M188 0v1020h93l8 -143q170 168 385 167q344 0 344 -403v-641h-111v625q0 168 -61.5 243.5t-196.5 75.5q-197 0 -350 -180v-764h-111zM457 1202l241 287h131l-260 -287h-112z" />
    <glyph glyph-name="Ncommaaccent" unicode="&#x145;" horiz-adv-x="1497" 
d="M684 -346v145h125v-135l-76 -147h-61l59 137h-47zM209 0v1393h145l824 -1194v1194h110v-1393h-108l-861 1247v-1247h-110z" />
    <glyph glyph-name="ncommaaccent" unicode="&#x146;" horiz-adv-x="1187" 
d="M541 -346v145h125v-135l-76 -147h-62l60 137h-47zM188 0v1020h93l8 -143q170 168 385 167q344 0 344 -403v-641h-111v625q0 168 -61.5 243.5t-196.5 75.5q-197 0 -350 -180v-764h-111z" />
    <glyph glyph-name="Ncaron" unicode="&#x147;" horiz-adv-x="1497" 
d="M209 0v1393h145l824 -1194v1194h110v-1393h-108l-861 1247v-1247h-110zM696 1554l-245 287h112l187 -205l184 205h113l-246 -287h-105z" />
    <glyph glyph-name="ncaron" unicode="&#x148;" horiz-adv-x="1187" 
d="M188 0v1020h93l8 -143q170 168 385 167q344 0 344 -403v-641h-111v625q0 168 -61.5 243.5t-196.5 75.5q-197 0 -350 -180v-764h-111zM545 1202l-246 287h113l186 -205l184 205h113l-246 -287h-104z" />
    <glyph glyph-name="napostrophe" unicode="&#x149;" horiz-adv-x="1187" 
d="M188 0v1020h93l8 -143q170 168 385 167q344 0 344 -403v-641h-111v625q0 168 -61.5 243.5t-196.5 75.5q-197 0 -350 -180v-764h-111zM168 1352v145h141v-135l-94 -209h-68l74 199h-53z" />
    <glyph glyph-name="Eng" unicode="&#x14a;" horiz-adv-x="1497" 
d="M1063 -403q-55 0 -88 10v98q41 -10 69 -10q133 0 134 143v164l-859 1245v-1247h-110v1393h145l824 -1194v1194h110v-1549q0 -247 -225 -247z" />
    <glyph glyph-name="eng" unicode="&#x14b;" horiz-adv-x="1187" 
d="M674 1044q344 0 344 -403v-797q0 -248 -223 -247q-47 0 -82 8v100q37 -10 67 -10q127 0 127 143v787q0 168 -61.5 243.5t-196.5 75.5q-197 0 -350 -180v-764h-111v1020h93l8 -143q170 167 385 167z" />
    <glyph glyph-name="Omacron" unicode="&#x14c;" horiz-adv-x="1447" 
d="M723 80q250 0 367.5 148.5t117.5 468t-117.5 468t-367.5 148.5t-366.5 -148.5t-116.5 -468t116.5 -468t366.5 -148.5zM724 -25q-306 0 -453.5 177.5t-147.5 544t147.5 543.5t453.5 177t453.5 -177t147.5 -543.5t-147.5 -544t-453.5 -177.5zM479 1642v91h488v-91h-488z
" />
    <glyph glyph-name="omacron" unicode="&#x14d;" horiz-adv-x="1202" 
d="M233 510q0 -436 368 -436t368 436t-368 436t-368 -436zM601 -25q-237 0 -358.5 135.5t-121.5 399.5t122 399t358.5 135t358 -135t121.5 -399t-121.5 -399.5t-358.5 -135.5zM356 1290v90h488v-90h-488z" />
    <glyph glyph-name="Obreve" unicode="&#x14e;" horiz-adv-x="1447" 
d="M723 80q250 0 367.5 148.5t117.5 468t-117.5 468t-367.5 148.5t-366.5 -148.5t-116.5 -468t116.5 -468t366.5 -148.5zM724 -25q-306 0 -453.5 177.5t-147.5 544t147.5 543.5t453.5 177t453.5 -177t147.5 -543.5t-147.5 -544t-453.5 -177.5zM722 1559q-112 0 -181.5 65.5
t-83.5 183.5h92q23 -154 173.5 -153.5t172.5 153.5h92q-12 -119 -82.5 -184t-182.5 -65z" />
    <glyph glyph-name="obreve" unicode="&#x14f;" horiz-adv-x="1202" 
d="M233 510q0 -436 368 -436t368 436t-368 436t-368 -436zM601 -25q-237 0 -358.5 135.5t-121.5 399.5t122 399t358.5 135t358 -135t121.5 -399t-121.5 -399.5t-358.5 -135.5zM599 1206q-112 0 -181.5 65.5t-83.5 184.5h92q20 -154 172 -153.5t174 153.5h92
q-12 -119 -82.5 -184.5t-182.5 -65.5z" />
    <glyph glyph-name="Ohungarumlaut" unicode="&#x150;" horiz-adv-x="1447" 
d="M723 80q250 0 367.5 148.5t117.5 468t-117.5 468t-367.5 148.5t-366.5 -148.5t-116.5 -468t116.5 -468t366.5 -148.5zM724 -25q-306 0 -453.5 177.5t-147.5 544t147.5 543.5t453.5 177t453.5 -177t147.5 -543.5t-147.5 -544t-453.5 -177.5zM768 1554l201 287h129
l-224 -287h-106zM440 1554l201 287h129l-223 -287h-107z" />
    <glyph glyph-name="ohungarumlaut" unicode="&#x151;" horiz-adv-x="1202" 
d="M233 510q0 -436 368 -436t368 436t-368 436t-368 -436zM601 -25q-237 0 -358.5 135.5t-121.5 399.5t122 399t358.5 135t358 -135t121.5 -399t-121.5 -399.5t-358.5 -135.5zM645 1202l201 287h129l-223 -287h-107zM317 1202l201 287h129l-223 -287h-107z" />
    <glyph glyph-name="OE" unicode="&#x152;" horiz-adv-x="2029" 
d="M784 104h246v1184h-246q-296 0 -420 -135t-124 -457t124 -457t420 -135zM772 0q-342 0 -496 165t-154 531t154 532q154 165 496 165h1153v-105h-780v-526h667v-105h-667v-553h792v-104h-1165z" />
    <glyph glyph-name="oe" unicode="&#x153;" horiz-adv-x="1986" 
d="M1444 946q-336 0 -361 -360h691q-2 184 -82 272t-248 88zM233 510q0 -436 368 -436t368 436t-368 436t-368 -436zM1081 487q9 -413 401 -413q196 0 341 88v-109q-133 -78 -330 -78q-369 0 -469 275q-100 -275 -432 -275q-229 1 -350 137t-121 398t121 398t350 136
q330 0 432 -272q96 272 424 272q432 0 432 -462q0 -45 -6 -95h-793z" />
    <glyph glyph-name="Racute" unicode="&#x154;" horiz-adv-x="1331" 
d="M324 715h426q176 0 254.5 67.5t78.5 219t-78.5 219t-254.5 67.5h-426v-573zM209 0v1393h549q227 0 334.5 -95.5t107.5 -296.5q0 -344 -332 -385l416 -616h-139l-412 610h-409v-610h-115zM512 1554l242 287h131l-260 -287h-113z" />
    <glyph glyph-name="racute" unicode="&#x155;" horiz-adv-x="733" 
d="M188 0v1020h93l10 -162q139 186 348 186q37 0 72 -6v-110q-41 8 -74 8q-211 0 -338 -193v-743h-111zM281 1202l241 287h131l-260 -287h-112z" />
    <glyph glyph-name="Rcommaaccent" unicode="&#x156;" horiz-adv-x="1331" 
d="M641 -346v145h125v-135l-76 -147h-61l59 137h-47zM324 715h426q176 0 254.5 67.5t78.5 219t-78.5 219t-254.5 67.5h-426v-573zM209 0v1393h549q227 0 334.5 -95.5t107.5 -296.5q0 -344 -332 -385l416 -616h-139l-412 610h-409v-610h-115z" />
    <glyph glyph-name="rcommaaccent" unicode="&#x157;" horiz-adv-x="733" 
d="M180 -346v145h125v-135l-76 -147h-61l59 137h-47zM188 0v1020h93l10 -162q139 186 348 186q37 0 72 -6v-110q-41 8 -74 8q-211 0 -338 -193v-743h-111z" />
    <glyph glyph-name="Rcaron" unicode="&#x158;" horiz-adv-x="1331" 
d="M324 715h426q176 0 254.5 67.5t78.5 219t-78.5 219t-254.5 67.5h-426v-573zM209 0v1393h549q227 0 334.5 -95.5t107.5 -296.5q0 -344 -332 -385l416 -616h-139l-412 610h-409v-610h-115zM600 1554l-246 287h113l186 -205l185 205h112l-245 -287h-105z" />
    <glyph glyph-name="rcaron" unicode="&#x159;" horiz-adv-x="733" 
d="M188 0v1020h93l10 -162q139 186 348 186q37 0 72 -6v-110q-41 8 -74 8q-211 0 -338 -193v-743h-111zM369 1202l-246 287h113l186 -205l184 205h113l-246 -287h-104z" />
    <glyph glyph-name="Sacute" unicode="&#x15a;" horiz-adv-x="1126" 
d="M555 -25q-315 0 -465 131v121q174 -147 469 -147q381 0 381 289q0 113 -68.5 173t-244.5 99l-154 35q-197 45 -276.5 128t-79.5 224q0 188 122.5 288.5t368.5 100.5t375 -96v-121q-139 113 -389 113q-174 0 -268.5 -73t-94.5 -206q0 -100 64.5 -157.5t226.5 -94.5
l156 -34q201 -45 289 -133.5t88 -241.5q0 -398 -500 -398zM436 1554l242 287h131l-260 -287h-113z" />
    <glyph glyph-name="sacute" unicode="&#x15b;" horiz-adv-x="962" 
d="M115 748q0 296 393 296q205 0 326 -69v-115q-133 86 -326 86q-283 0 -283 -190q0 -68 46 -104t171 -62l150 -31q158 -33 226.5 -98.5t68.5 -181.5q0 -304 -412 -304q-252 0 -385 97v112q152 -111 389 -110q299 0 299 198q0 78 -50 117t-179 66l-152 30q-152 31 -217 91.5
t-65 171.5zM338 1200l242 287h131l-260 -287h-113z" />
    <glyph glyph-name="Scircumflex" unicode="&#x15c;" horiz-adv-x="1126" 
d="M555 -25q-315 0 -465 131v121q174 -147 469 -147q381 0 381 289q0 113 -68.5 173t-244.5 99l-154 35q-197 45 -276.5 128t-79.5 224q0 188 122.5 288.5t368.5 100.5t375 -96v-121q-139 113 -389 113q-174 0 -268.5 -73t-94.5 -206q0 -100 64.5 -157.5t226.5 -94.5
l156 -34q201 -45 289 -133.5t88 -241.5q0 -398 -500 -398zM279 1554l245 287h105l245 -287h-112l-184 205l-187 -205h-112z" />
    <glyph glyph-name="scircumflex" unicode="&#x15d;" horiz-adv-x="962" 
d="M115 748q0 296 393 296q205 0 326 -69v-115q-133 86 -326 86q-283 0 -283 -190q0 -68 46 -104t171 -62l150 -31q158 -33 226.5 -98.5t68.5 -181.5q0 -304 -412 -304q-252 0 -385 97v112q152 -111 389 -110q299 0 299 198q0 78 -50 117t-179 66l-152 30q-152 31 -217 91.5
t-65 171.5zM180 1200l246 287h104l246 -287h-112l-185 205l-186 -205h-113z" />
    <glyph glyph-name="Scedilla" unicode="&#x15e;" horiz-adv-x="1126" 
d="M1055 373q0 -381 -463 -398l-45 -108h12q195 0 195 -133q0 -143 -230 -144q-115 0 -192 33v80q86 -39 188 -39q131 0 131 72q0 39 -35.5 52t-130.5 13h-45l76 174q-285 10 -426 131v121q174 -147 469 -147q381 0 381 289q0 113 -68.5 173t-244.5 99l-154 35
q-197 45 -276.5 128t-79.5 224q0 188 122.5 288.5t368.5 100.5t375 -96v-121q-139 113 -389 113q-174 0 -268.5 -73t-94.5 -206q0 -100 64.5 -157.5t226.5 -94.5l156 -34q201 -45 289 -133t88 -242z" />
    <glyph glyph-name="scedilla" unicode="&#x15f;" horiz-adv-x="962" 
d="M115 748q0 296 393 296q205 0 326 -69v-115q-133 86 -326 86q-283 0 -283 -190q0 -68 46 -104t171 -62l150 -31q158 -33 226.5 -98t68.5 -182q0 -287 -363 -302l-45 -110h13q195 0 194 -133q0 -143 -229 -144q-115 0 -193 33v80q86 -39 203 -39t117 72q0 39 -36 52
t-130 13h-45l76 174q-236 6 -359 97v112q152 -111 389 -110q299 0 299 198q0 78 -50 117t-179 66l-152 30q-152 31 -217 91.5t-65 171.5z" />
    <glyph glyph-name="Scaron" unicode="&#x160;" horiz-adv-x="1126" 
d="M555 -25q-315 0 -465 131v121q174 -147 469 -147q381 0 381 289q0 113 -68.5 173t-244.5 99l-154 35q-197 45 -276.5 128t-79.5 224q0 188 122.5 288.5t368.5 100.5t375 -96v-121q-139 113 -389 113q-174 0 -268.5 -73t-94.5 -206q0 -100 64.5 -157.5t226.5 -94.5
l156 -34q201 -45 289 -133.5t88 -241.5q0 -398 -500 -398zM524 1554l-245 287h112l187 -205l184 205h112l-245 -287h-105z" />
    <glyph glyph-name="scaron" unicode="&#x161;" horiz-adv-x="962" 
d="M115 748q0 296 393 296q205 0 326 -69v-115q-133 86 -326 86q-283 0 -283 -190q0 -68 46 -104t171 -62l150 -31q158 -33 226.5 -98.5t68.5 -181.5q0 -304 -412 -304q-252 0 -385 97v112q152 -111 389 -110q299 0 299 198q0 78 -50 117t-179 66l-152 30q-152 31 -217 91.5
t-65 171.5zM426 1200l-246 287h113l186 -205l185 205h112l-246 -287h-104z" />
    <glyph glyph-name="uni0162" unicode="&#x162;" horiz-adv-x="1120" 
d="M616 0h-18l-59 -133h10q195 0 194 -133q0 -143 -229 -144q-115 0 -192 33v80q86 -39 188 -39q131 0 131 72q0 39 -36 52t-130 13h-45l92 199h-20v1288h-477v105h1071v-105h-480v-1288z" />
    <glyph glyph-name="uni0163" unicode="&#x163;" horiz-adv-x="714" 
d="M539.5 -25q-58.5 0 -70.5 2l-45 -110h12q195 0 195 -133q0 -143 -230 -144q-115 0 -192 33v80q86 -39 188 -39q131 0 131 72q0 39 -35.5 52t-130.5 13h-45l80 187q-166 41 -166 260v680h-206v92h208l15 301h94v-301h324v-92h-324v-668q0 -102 40 -144t133 -42t153 28
v-102q-70 -25 -128.5 -25z" />
    <glyph glyph-name="Tcaron" unicode="&#x164;" horiz-adv-x="1120" 
d="M502 0v1288h-477v105h1071v-105h-480v-1288h-114zM508 1554l-246 287h113l186 -205l184 205h113l-246 -287h-104z" />
    <glyph glyph-name="tcaron" unicode="&#x165;" horiz-adv-x="714" 
d="M508 -25q-145 0 -211 64.5t-66 208.5v680h-206v92h208l15 301h94v-301h324v-92h-324v-668q0 -102 40 -144t133 -42t153 28v-102q-70 -25 -160 -25zM449 1159l88 336h108l-113 -336h-83z" />
    <glyph glyph-name="Tbar" unicode="&#x166;" horiz-adv-x="1120" 
d="M1096 1288h-480v-508h275v-102h-275v-678h-114v678h-275v102h275v508h-477v105h1071v-105z" />
    <glyph glyph-name="tbar" unicode="&#x167;" horiz-adv-x="714" 
d="M515 74q93 0 153 28v-102q-70 -25 -160 -25q-145 0 -211 64.5t-66 208.5v317h-194v88h194v275h-206v92h208l15 301h94v-301h324v-92h-324v-275h295v-88h-295v-305q0 -102 40 -144t133 -42z" />
    <glyph glyph-name="Utilde" unicode="&#x168;" horiz-adv-x="1404" 
d="M702.5 -25q-268.5 0 -392.5 128t-124 407v883h115v-891q0 -223 95.5 -322.5t308.5 -99.5t308 99.5t95 322.5v891h111v-883q0 -279 -124 -407t-392.5 -128zM592 1778q41 0 117 -42t112 -42q74 0 127 96v-113q-51 -78 -133 -78q-51 0 -122 42.5t-107 41.5q-78 0 -127 -98
v113q53 80 133 80z" />
    <glyph glyph-name="utilde" unicode="&#x169;" horiz-adv-x="1198" 
d="M516 -25q-348 0 -348 404v641h111v-623q0 -170 62 -245.5t200 -75.5q201 0 358 184v760h111v-1020h-92l-9 147q-174 -172 -393 -172zM709 1341q74 0 127 97v-113q-51 -78 -134 -78q-51 0 -122 42t-107 42q-78 0 -127 -98v113q51 80 133 79q41 0 117 -42t113 -42z" />
    <glyph glyph-name="Umacron" unicode="&#x16a;" horiz-adv-x="1404" 
d="M702.5 -25q-268.5 0 -392.5 128t-124 407v883h115v-891q0 -223 95.5 -322.5t308.5 -99.5t308 99.5t95 322.5v891h111v-883q0 -279 -124 -407t-392.5 -128zM459 1642v91h487v-91h-487z" />
    <glyph glyph-name="umacron" unicode="&#x16b;" horiz-adv-x="1198" 
d="M516 -25q-348 0 -348 404v641h111v-623q0 -170 62 -245.5t200 -75.5q201 0 358 184v760h111v-1020h-92l-9 147q-174 -172 -393 -172zM346 1290v90h488v-90h-488z" />
    <glyph glyph-name="Ubreve" unicode="&#x16c;" horiz-adv-x="1404" 
d="M702.5 -25q-268.5 0 -392.5 128t-124 407v883h115v-891q0 -223 95.5 -322.5t308.5 -99.5t308 99.5t95 322.5v891h111v-883q0 -279 -124 -407t-392.5 -128zM701 1559q-112 0 -181 65.5t-84 183.5h92q20 -154 172 -153.5t174 153.5h93q-12 -119 -83 -184t-183 -65z" />
    <glyph glyph-name="ubreve" unicode="&#x16d;" horiz-adv-x="1198" 
d="M516 -25q-348 0 -348 404v641h111v-623q0 -170 62 -245.5t200 -75.5q201 0 358 184v760h111v-1020h-92l-9 147q-174 -172 -393 -172zM589 1206q-112 0 -181.5 65.5t-83.5 184.5h92q23 -154 174 -153.5t172 153.5h92q-12 -119 -82.5 -184.5t-182.5 -65.5z" />
    <glyph glyph-name="Uring" unicode="&#x16e;" horiz-adv-x="1404" 
d="M702.5 -25q-268.5 0 -392.5 128t-124 407v883h115v-891q0 -223 95.5 -322.5t308.5 -99.5t308 99.5t95 322.5v891h111v-883q0 -279 -124 -407t-392.5 -128zM702.5 1624q38.5 0 63.5 25.5t25 66.5t-25 66.5t-63.5 25.5t-63.5 -25.5t-25 -66.5t25 -66.5t63.5 -25.5z
M702.5 1542q-77.5 0 -127 49t-49.5 125t49.5 125t127 49t127 -49t49.5 -125t-49.5 -125t-127 -49z" />
    <glyph glyph-name="uring" unicode="&#x16f;" horiz-adv-x="1198" 
d="M516 -25q-348 0 -348 404v641h111v-623q0 -170 62 -245.5t200 -75.5q201 0 358 184v760h111v-1020h-92l-9 147q-174 -172 -393 -172zM590 1272q39 0 63.5 25.5t24.5 66.5t-24.5 66.5t-63.5 25.5t-63.5 -25.5t-24.5 -66.5t24.5 -66.5t63.5 -25.5zM590 1190q-78 0 -127 49
t-49 125t49 125t127 49t127 -49t49 -125t-49 -125t-127 -49z" />
    <glyph glyph-name="Uhungarumlaut" unicode="&#x170;" horiz-adv-x="1404" 
d="M702.5 -25q-268.5 0 -392.5 128t-124 407v883h115v-891q0 -223 95.5 -322.5t308.5 -99.5t308 99.5t95 322.5v891h111v-883q0 -279 -124 -407t-392.5 -128zM748 1554l200 287h129l-223 -287h-106zM420 1554l201 287h129l-224 -287h-106z" />
    <glyph glyph-name="uhungarumlaut" unicode="&#x171;" horiz-adv-x="1198" 
d="M516 -25q-348 0 -348 404v641h111v-623q0 -170 62 -245.5t200 -75.5q201 0 358 184v760h111v-1020h-92l-9 147q-174 -172 -393 -172zM635 1202l201 287h129l-224 -287h-106zM307 1202l201 287h129l-223 -287h-107z" />
    <glyph glyph-name="Uogonek" unicode="&#x172;" horiz-adv-x="1404" 
d="M1108 1393h111v-883q0 -217 -75 -342t-233 -168q-195 -111 -194 -223q0 -94 104 -94q57 0 109 32v-92q-51 -27 -132 -27t-130.5 42.5t-49.5 119.5q0 115 134 219q-16 -2 -50 -2q-268 0 -392 128t-124 407v883h115v-891q0 -223 95.5 -322.5t308.5 -99.5t308 99.5t95 322.5
v891z" />
    <glyph glyph-name="uogonek" unicode="&#x173;" horiz-adv-x="1198" 
d="M897 -317q57 0 109 32v-92q-51 -27 -132 -26.5t-130.5 42.5t-49.5 119q0 143 221 279l-6 110q-174 -172 -393 -172q-348 0 -348 404v641h111v-623q0 -170 62 -245.5t200 -75.5q201 0 358 184v760h111v-1020h-23q-195 -111 -194 -223q0 -94 104 -94z" />
    <glyph glyph-name="Wcircumflex" unicode="&#x174;" horiz-adv-x="1839" 
d="M438 0l-413 1393h120l359 -1217l358 1217h119l360 -1213l359 1213h115l-414 -1393h-121l-360 1219l-361 -1219h-121zM625 1554l245 287h105l246 -287h-113l-184 205l-187 -205h-112z" />
    <glyph glyph-name="wcircumflex" unicode="&#x175;" horiz-adv-x="1552" 
d="M379 0l-342 1020h117l284 -866l289 866h102l289 -866l285 866h113l-342 -1020h-109l-289 862l-287 -862h-110zM477 1202l246 287h104l246 -287h-112l-185 205l-186 -205h-113z" />
    <glyph glyph-name="Ycircumflex" unicode="&#x176;" horiz-adv-x="1122" 
d="M502 0v602l-522 791h137l446 -680l449 680h131l-527 -797v-596h-114zM262 1554l246 287h104l246 -287h-113l-184 205l-186 -205h-113z" />
    <glyph glyph-name="ycircumflex" unicode="&#x177;" horiz-adv-x="980" 
d="M229.5 -403q-77.5 0 -112.5 14v96q33 -12 89.5 -12t95 34.5t83.5 151.5t45 134t-8 36l-385 969h119l340 -862l333 862h115l-467 -1194q-49 -125 -109.5 -177t-138 -52zM193 1202l245 287h105l245 -287h-112l-184 205l-187 -205h-112z" />
    <glyph glyph-name="Ydieresis" unicode="&#x178;" horiz-adv-x="1122" 
d="M502 0v602l-522 791h137l446 -680l449 680h131l-527 -797v-596h-114zM662 1614v149h124v-149h-124zM332 1614v149h125v-149h-125z" />
    <glyph glyph-name="Zacute" unicode="&#x179;" horiz-adv-x="1144" 
d="M82 0v90l844 1198h-815v105h962v-90l-844 -1199h854v-104h-1001zM449 1554l241 287h131l-260 -287h-112z" />
    <glyph glyph-name="zacute" unicode="&#x17a;" horiz-adv-x="964" 
d="M88 0v86l637 836h-608v98h755v-84l-636 -838h647v-98h-795zM350 1202l242 287h131l-260 -287h-113z" />
    <glyph glyph-name="Zdotaccent" unicode="&#x17b;" horiz-adv-x="1144" 
d="M82 0v90l844 1198h-815v105h962v-90l-844 -1199h854v-104h-1001zM524 1614v149h127v-149h-127z" />
    <glyph glyph-name="zdotaccent" unicode="&#x17c;" horiz-adv-x="964" 
d="M88 0v86l637 836h-608v98h755v-84l-636 -838h647v-98h-795zM426 1262v149h127v-149h-127z" />
    <glyph glyph-name="Zcaron" unicode="&#x17d;" horiz-adv-x="1144" 
d="M82 0v90l844 1198h-815v105h962v-90l-844 -1199h854v-104h-1001zM537 1554l-246 287h112l187 -205l184 205h113l-246 -287h-104z" />
    <glyph glyph-name="zcaron" unicode="&#x17e;" horiz-adv-x="964" 
d="M88 0v86l637 836h-608v98h755v-84l-636 -838h647v-98h-795zM438 1202l-245 287h112l187 -205l184 205h112l-245 -287h-105z" />
    <glyph glyph-name="florin" unicode="&#x192;" horiz-adv-x="1277" 
d="M256 -229q-72 0 -143 16l8 100q55 -18 147 -18t151 54q60 54 75 175l86 674h-396v94h408l29 226q20 166 104 246t248 79q74 0 141 -16l-8 -101q-58 18 -148 18t-151 -53q-61 -54 -76 -175l-29 -224h392v-94h-404l-88 -676q-23 -168 -105 -247q-83 -78 -241 -78z" />
    <glyph glyph-name="Aringacute" unicode="&#x1fa;" horiz-adv-x="1304" 
d="M332 483h635l-318 787zM20 0l570 1393h125l569 -1393h-123l-151 379h-719l-154 -379h-117zM651 1565q39 0 63.5 25.5t24.5 66.5t-24.5 66.5t-63.5 25.5t-63.5 -25.5t-24.5 -66.5t24.5 -66.5t63.5 -25.5zM651 1483q-78 0 -127 49t-49 125t49 125t127 49t127 -49t49 -125
t-49 -125t-127 -49zM512 1907l242 286h131l-260 -286h-113z" />
    <glyph glyph-name="aringacute" unicode="&#x1fb;" horiz-adv-x="1107" 
d="M455 74q219 0 379 198v209q-170 25 -299 25q-319 0 -320 -223q0 -102 61.5 -155.5t178.5 -53.5zM436 -25q-160 0 -247 80t-87 228q0 317 426 317q147 0 306 -22v57q0 168 -73 239.5t-255 71.5t-336 -100v110q150 88 364 88t312 -94t98 -303v-647h-96l-8 158
q-166 -183 -404 -183zM547 1212q39 0 63.5 26t24.5 67t-24.5 66.5t-63.5 25.5t-63.5 -25.5t-24.5 -66.5t24.5 -67t63.5 -26zM547 1130q-78 0 -127 49.5t-49 125t49 125t127 49.5t127 -49.5t49 -125t-49 -125t-127 -49.5zM408 1554l241 287h131l-260 -287h-112z" />
    <glyph glyph-name="AEacute" unicode="&#x1fc;" horiz-adv-x="1939" 
d="M924 483v791l-504 -791h504zM1835 1393v-107h-797v-524h682v-107h-682v-549h809v-106h-923v379h-572l-246 -379h-126l901 1393h954zM829 1554l242 287h131l-260 -287h-113z" />
    <glyph glyph-name="aeacute" unicode="&#x1fd;" horiz-adv-x="1849" 
d="M459 74q244 0 399 231q-23 80 -24 176q-170 25 -299 25q-319 0 -320 -223q0 -209 244 -209zM1309 946q-340 0 -365 -360h692q-2 184 -80.5 272t-246.5 88zM942 487q8 -413 404 -413q196 0 337 88v-109q-131 -78 -329 -78q-342 0 -459 230q-180 -230 -446 -230
q-170 0 -258.5 80t-88.5 228q0 317 428 317q147 0 304 -22v57q0 168 -73 239.5t-254 71.5t-337 -100v110q145 88 331.5 88t278.5 -56t125 -179q106 236 408 235q211 0 320.5 -117.5t109.5 -344.5q0 -45 -6 -95h-795zM768 1202l242 287h131l-260 -287h-113z" />
    <glyph glyph-name="Oslashacute" unicode="&#x1fe;" horiz-adv-x="1445" 
d="M1208 680q0 303 -94 453l-711 -955q117 -98 320 -98q250 0 367.5 148.5t117.5 451.5zM240 712q0 -303 94 -452l710 952q-115 100 -321 101q-250 0 -366.5 -149t-116.5 -452zM1325 692q0 -363 -147.5 -540t-454.5 -177q-244 0 -387 113l-84 -113h-129l139 187
q-139 176 -139 538.5t147.5 539.5t452.5 177q246 0 389 -112l84 112h129l-139 -186q139 -176 139 -539zM956 1841l-260 -287h-112l241 287h131z" />
    <glyph glyph-name="oslashacute" unicode="&#x1ff;" horiz-adv-x="1202" 
d="M602 74q367 0 367 436q0 197 -72 301l-526 -672q88 -65 231 -65zM602 946q-369 0 -369 -436q0 -195 72 -299l526 672q-88 63 -229 63zM602 -25q-184 0 -297 80l-63 -80h-121l112 146q-113 137 -112.5 395t122.5 393t359 135q180 0 295 -79l64 79h120l-114 -145
q115 -133 114.5 -393t-122 -395.5t-357.5 -135.5zM834 1489l-261 -287h-112l241 287h132z" />
    <glyph glyph-name="Scommaaccent" unicode="&#x218;" horiz-adv-x="1126" 
d="M506 -346v145h125v-135l-76 -147h-61l59 137h-47zM555 -25q-315 0 -465 131v121q174 -147 469 -147q381 0 381 289q0 113 -68.5 173t-244.5 99l-154 35q-197 45 -276.5 128t-79.5 224q0 188 122.5 288.5t368.5 100.5t375 -96v-121q-139 113 -389 113q-174 0 -268.5 -73
t-94.5 -206q0 -100 64.5 -157.5t226.5 -94.5l156 -34q201 -45 289 -133.5t88 -241.5q0 -398 -500 -398z" />
    <glyph glyph-name="scommaaccent" unicode="&#x219;" horiz-adv-x="962" 
d="M438 -346v145h125v-135l-76 -147h-61l59 137h-47zM115 748q0 296 393 296q205 0 326 -69v-115q-133 86 -326 86q-283 0 -283 -190q0 -68 46 -104t171 -62l150 -31q158 -33 226.5 -98.5t68.5 -181.5q0 -304 -412 -304q-252 0 -385 97v112q152 -111 389 -110q299 0 299 198
q0 78 -50 117t-179 66l-152 30q-152 31 -217 91.5t-65 171.5z" />
    <glyph glyph-name="uni021A" unicode="&#x21a;" horiz-adv-x="1120" 
d="M496 -346v145h125v-135l-76 -147h-62l60 137h-47zM502 0v1288h-477v105h1071v-105h-480v-1288h-114z" />
    <glyph glyph-name="uni021B" unicode="&#x21b;" horiz-adv-x="714" 
d="M383 -346v145h125v-135l-76 -147h-61l59 137h-47zM508 -25q-145 0 -211 64.5t-66 208.5v680h-206v92h208l15 301h94v-301h324v-92h-324v-668q0 -102 40 -144t133 -42t153 28v-102q-70 -25 -160 -25z" />
    <glyph glyph-name="uni0237" unicode="&#x237;" horiz-adv-x="487" 
d="M74 -403q-45 0 -80 8v98q27 -8 67 -8q127 0 127 143v1182h111v-1176q0 -127 -55 -187t-170 -60z" />
    <glyph glyph-name="uni02BC" unicode="&#x2bc;" horiz-adv-x="284" 
d="M82 1307v180h141v-168l-94 -260h-68l74 248h-53z" />
    <glyph glyph-name="circumflex" unicode="&#x2c6;" horiz-adv-x="1064" 
d="M236 1202l245 287h105l245 -287h-112l-184 205l-187 -205h-112z" />
    <glyph glyph-name="caron" unicode="&#x2c7;" horiz-adv-x="1064" 
d="M481 1202l-245 287h112l187 -205l184 205h112l-245 -287h-105z" />
    <glyph glyph-name="uni02C9" unicode="&#x2c9;" horiz-adv-x="1064" 
d="M289 1290v90h487v-90h-487z" />
    <glyph glyph-name="breve" unicode="&#x2d8;" horiz-adv-x="1064" 
d="M531 1206q-111 0 -181 66t-84 184h92q22 -154 174 -154t173 154h92q-12 -118 -83 -184t-183 -66z" />
    <glyph glyph-name="dotaccent" unicode="&#x2d9;" horiz-adv-x="1064" 
d="M469 1262v149h127v-149h-127z" />
    <glyph glyph-name="ring" unicode="&#x2da;" horiz-adv-x="1064" 
d="M532 1272q39 0 64 26t25 66q0 41 -25 67q-25 25 -64 25q-40 0 -64 -26t-24 -66t24 -66t64 -26zM532 1190q-78 0 -126 49t-50 125q0 76 50 125t126 49q78 0 127 -49t49 -125t-48 -125q-50 -49 -128 -49z" />
    <glyph glyph-name="ogonek" unicode="&#x2db;" horiz-adv-x="1064" 
d="M556 -403q-81 0 -130 42q-49 43 -49 121t60 149t200 150l47 -51q-209 -117 -209 -231q0 -94 105 -94q57 0 108 32v-92q-51 -26 -132 -26z" />
    <glyph glyph-name="tilde" unicode="&#x2dc;" horiz-adv-x="1064" 
d="M651 1341q74 0 127 97v-113q-51 -78 -133 -78q-51 0 -122 42t-107 42q-78 0 -127 -98v113q51 80 133 79q41 0 117 -42t112 -42z" />
    <glyph glyph-name="hungarumlaut" unicode="&#x2dd;" horiz-adv-x="1064" 
d="M578 1202l200 287h129l-223 -287h-106zM250 1202l201 287h129l-224 -287h-106z" />
    <glyph glyph-name="gravecomb" unicode="&#x300;" horiz-adv-x="0" 
d="M29 1202l-260 287h131l241 -287h-112z" />
    <glyph glyph-name="acutecomb" unicode="&#x301;" horiz-adv-x="0" 
d="M-139 1202l241 287h131l-260 -287h-112z" />
    <glyph glyph-name="uni0302" unicode="&#x302;" horiz-adv-x="0" 
d="M-297 1202l246 287h104l246 -287h-113l-184 205l-186 -205h-113z" />
    <glyph glyph-name="tildecomb" unicode="&#x303;" horiz-adv-x="0" 
d="M119 1341q74 0 127 97v-113q-51 -78 -133 -78q-51 0 -122 42t-108 42q-78 0 -127 -98v113q51 80 133 79q41 0 117 -42t113 -42z" />
    <glyph glyph-name="uni0304" unicode="&#x304;" horiz-adv-x="0" 
d="M-244 1290v90h488v-90h-488z" />
    <glyph glyph-name="uni0306" unicode="&#x306;" horiz-adv-x="0" 
d="M-1 1206q-112 0 -181.5 65.5t-83.5 184.5h92q20 -154 173 -153.5t173 153.5h92q-12 -119 -82.5 -184.5t-182.5 -65.5z" />
    <glyph glyph-name="uni0307" unicode="&#x307;" horiz-adv-x="0" 
d="M-63 1262v149h126v-149h-126z" />
    <glyph glyph-name="uni0308" unicode="&#x308;" horiz-adv-x="0" 
d="M102 1262v149h125v-149h-125zM-227 1262v149h125v-149h-125z" />
    <glyph glyph-name="uni030A" unicode="&#x30a;" horiz-adv-x="0" 
d="M0 1272q39 0 63.5 25.5t24.5 66.5t-24.5 66.5t-63.5 25.5t-63.5 -25.5t-24.5 -66.5t24.5 -66.5t63.5 -25.5zM0 1190q-78 0 -127 49t-49 125t49 125t127 49t127 -49t49 -125t-49 -125t-127 -49z" />
    <glyph glyph-name="uni030B" unicode="&#x30b;" horiz-adv-x="0" 
d="M45 1202l201 287h129l-223 -287h-107zM-283 1202l201 287h129l-223 -287h-107z" />
    <glyph glyph-name="uni030C" unicode="&#x30c;" horiz-adv-x="0" 
d="M-51 1202l-246 287h113l186 -205l184 205h113l-246 -287h-104z" />
    <glyph glyph-name="uni0312" unicode="&#x312;" horiz-adv-x="0" 
d="M-63 1223v135l77 145h62l-64 -137h49v-143h-124z" />
    <glyph glyph-name="uni0326" unicode="&#x326;" horiz-adv-x="0" 
d="M-63 -346v145h124v-135l-75 -147h-62l60 137h-47z" />
    <glyph glyph-name="uni0327" unicode="&#x327;" horiz-adv-x="0" 
d="M-45 -410q-115 0 -193 33v80q86 -39 203 -39t117 72q0 39 -36 52t-130 13h-45l94 219h76l-64 -153h13q195 0 194 -133q0 -144 -229 -144z" />
    <glyph glyph-name="uni0328" unicode="&#x328;" horiz-adv-x="0" 
d="M24 -403q-81 0 -130.5 42t-49.5 120.5t60.5 149.5t199.5 150l48 -51q-209 -117 -209 -231q0 -94 104 -94q57 0 109 32v-92q-51 -26 -132 -26z" />
    <glyph glyph-name="uni0394" unicode="&#x394;" horiz-adv-x="1280" 
d="M180 109h914l-457 1155zM20 0l555 1393h130l555 -1393h-1240z" />
    <glyph glyph-name="uni03A9" unicode="&#x3a9;" horiz-adv-x="1470" 
d="M123 0v109h309q-309 217 -309 649q0 315 160 487q161 172 453 172t452 -172t160 -487q0 -430 -310 -649h310v-109h-463v100q346 219 346 652q0 276 -127 418t-369 142q-243 0 -369 -142t-126 -418q0 -432 346 -652v-100h-463z" />
    <glyph glyph-name="uni03BC" unicode="&#x3bc;" horiz-adv-x="1210" 
d="M188 -379v1399h111v-623q0 -169 61 -245t197 -76q203 0 354 184v760h111v-1020h-92l-8 145q-172 -170 -387 -170q-160 0 -236 88v-442h-111z" />
    <glyph glyph-name="pi" unicode="&#x3c0;" horiz-adv-x="1255" 
d="M1087 -25q-217 0 -217 215v732h-495v-922h-111v922h-239v98h1183v-98h-227v-717q0 -131 127 -131q57 0 98 26v-102q-51 -23 -119 -23z" />
    <glyph glyph-name="Wgrave" unicode="&#x1e80;" horiz-adv-x="1839" 
d="M438 0l-413 1393h120l359 -1217l358 1217h119l360 -1213l359 1213h115l-414 -1393h-121l-360 1219l-361 -1219h-121zM950 1554l-260 287h131l242 -287h-113z" />
    <glyph glyph-name="wgrave" unicode="&#x1e81;" horiz-adv-x="1552" 
d="M379 0l-342 1020h117l284 -866l289 866h102l289 -866l285 866h113l-342 -1020h-109l-289 862l-287 -862h-110zM803 1202l-260 287h131l241 -287h-112z" />
    <glyph glyph-name="Wacute" unicode="&#x1e82;" horiz-adv-x="1839" 
d="M438 0l-413 1393h120l359 -1217l358 1217h119l360 -1213l359 1213h115l-414 -1393h-121l-360 1219l-361 -1219h-121zM782 1554l242 287h131l-260 -287h-113z" />
    <glyph glyph-name="wacute" unicode="&#x1e83;" horiz-adv-x="1552" 
d="M379 0l-342 1020h117l284 -866l289 866h102l289 -866l285 866h113l-342 -1020h-109l-289 862l-287 -862h-110zM635 1202l242 287h131l-260 -287h-113z" />
    <glyph glyph-name="Wdieresis" unicode="&#x1e84;" horiz-adv-x="1839" 
d="M438 0l-413 1393h120l359 -1217l358 1217h119l360 -1213l359 1213h115l-414 -1393h-121l-360 1219l-361 -1219h-121zM1024 1614v149h125v-149h-125zM694 1614v149h125v-149h-125z" />
    <glyph glyph-name="wdieresis" unicode="&#x1e85;" horiz-adv-x="1552" 
d="M379 0l-342 1020h117l284 -866l289 866h102l289 -866l285 866h113l-342 -1020h-109l-289 862l-287 -862h-110zM877 1262v149h124v-149h-124zM547 1262v149h125v-149h-125z" />
    <glyph glyph-name="uni1E9E" unicode="&#x1e9e;" horiz-adv-x="1359" 
d="M852 -25q-160 0 -277 58v112q119 -66 265 -65q344 0 344 319q0 340 -414 340h-108v88l403 461h-741v-1288h-115v1393h1005v-93h3l-402 -456q483 -16 483 -445q0 -207 -114 -315t-332 -109z" />
    <glyph glyph-name="Ygrave" unicode="&#x1ef2;" horiz-adv-x="1122" 
d="M502 0v602l-522 791h137l446 -680l449 680h131l-527 -797v-596h-114zM588 1554l-260 287h131l241 -287h-112z" />
    <glyph glyph-name="ygrave" unicode="&#x1ef3;" horiz-adv-x="980" 
d="M229.5 -403q-77.5 0 -112.5 14v96q33 -12 89.5 -12t95 34.5t83.5 151.5t45 134t-8 36l-385 969h119l340 -862l333 862h115l-467 -1194q-49 -125 -109.5 -177t-138 -52zM518 1202l-260 287h131l242 -287h-113z" />
    <glyph glyph-name="uni2002" unicode="&#x2002;" horiz-adv-x="1064" 
 />
    <glyph glyph-name="uni2003" unicode="&#x2003;" horiz-adv-x="1884" 
 />
    <glyph glyph-name="uni2007" unicode="&#x2007;" horiz-adv-x="1277" 
 />
    <glyph glyph-name="uni2008" unicode="&#x2008;" horiz-adv-x="563" 
 />
    <glyph glyph-name="uni200B" unicode="&#x200b;" horiz-adv-x="0" 
 />
    <glyph glyph-name="figuredash" unicode="&#x2012;" horiz-adv-x="1271" 
d="M72 547v96h1128v-96h-1128z" />
    <glyph glyph-name="endash" unicode="&#x2013;" horiz-adv-x="1064" 
d="M72 547v96h921v-96h-921z" />
    <glyph glyph-name="emdash" unicode="&#x2014;" horiz-adv-x="1884" 
d="M72 547v96h1740v-96h-1740z" />
    <glyph glyph-name="quoteleft" unicode="&#x2018;" horiz-adv-x="528" 
d="M190 936v145l115 312h74l-90 -301h51v-156h-150z" />
    <glyph glyph-name="quoteright" unicode="&#x2019;" horiz-adv-x="528" 
d="M188 1237v156h150v-146l-115 -311h-73l90 301h-52z" />
    <glyph glyph-name="quotesinglbase" unicode="&#x201a;" horiz-adv-x="528" 
d="M188 0v156h150v-146l-115 -311h-73l90 301h-52z" />
    <glyph glyph-name="quotedblleft" unicode="&#x201c;" horiz-adv-x="835" 
d="M518 936v145l115 312h74l-91 -301h52v-156h-150zM176 936v145l115 312h74l-91 -301h52v-156h-150z" />
    <glyph glyph-name="quotedblright" unicode="&#x201d;" horiz-adv-x="833" 
d="M508 1237v156h149v-146l-114 -311h-74l90 301h-51zM168 1237v156h149v-146l-114 -311h-74l90 301h-51z" />
    <glyph glyph-name="quotedblbase" unicode="&#x201e;" horiz-adv-x="833" 
d="M508 0v156h149v-146l-114 -311h-74l90 301h-51zM168 0v156h149v-146l-114 -311h-74l90 301h-51z" />
    <glyph glyph-name="dagger" unicode="&#x2020;" horiz-adv-x="1034" 
d="M469 -379l-8 887l8 356l-416 -4v103l416 -7l-8 437h112l-8 -437l414 7v-103l-414 4l8 -356l-8 -887h-96z" />
    <glyph glyph-name="daggerdbl" unicode="&#x2021;" horiz-adv-x="1034" 
d="M461 -379l8 436l-416 -6v103l416 -4l-8 358l8 356l-416 -4v103l416 -7l-8 437h112l-8 -437l414 7v-103l-414 4l8 -356l-8 -358l414 4v-103l-414 6l8 -436h-112z" />
    <glyph glyph-name="bullet" unicode="&#x2022;" horiz-adv-x="1064" 
d="M375 434v322h317v-322h-317z" />
    <glyph glyph-name="ellipsis" unicode="&#x2026;" horiz-adv-x="1884" 
d="M1495 0v156h150v-156h-150zM866 0v156h150v-156h-150zM238 0v156h149v-156h-149z" />
    <glyph glyph-name="perthousand" unicode="&#x2030;" horiz-adv-x="2500" 
d="M2081 68q115 0 178 72t63 202q0 131 -63 203q-63 71 -178 71t-177 -72t-62 -202t62 -202t177 -72zM1272 68q115 0 178 72t63 202q0 131 -63 203q-63 71 -178 71t-177 -72q-63 -72 -63 -202t62 -202t178 -72zM2425 342q0 -170 -91 -268t-252 -99q-161 1 -253 99t-92 268
t92 268t253 98t252 -98t91 -268zM1616 342q0 -170 -91 -268t-252 -99q-161 1 -253 99t-92 268t92 268t253 98t252 -98t91 -268zM418 776q115 0 178 72t63 203t-63 203t-178 71q-115 0 -177 -72q-63 -73 -63 -203t62 -202t178 -72zM334 -25l913 1442h113l-916 -1442h-110z
M764 1051q0 -171 -91 -269t-252 -98t-253 98t-92 268t92 269q92 98 253 98t252 -98t91 -268z" />
    <glyph glyph-name="guilsinglleft" unicode="&#x2039;" horiz-adv-x="466" 
d="M307 133l-264 375l264 377h117l-260 -377l260 -375h-117z" />
    <glyph glyph-name="guilsinglright" unicode="&#x203a;" horiz-adv-x="466" 
d="M43 133l260 375l-260 377h117l264 -377l-264 -375h-117z" />
    <glyph glyph-name="fraction" unicode="&#x2044;" horiz-adv-x="243" 
d="M-311 -25l762 1442h104l-760 -1442h-106z" />
    <glyph glyph-name="uni2070" unicode="&#x2070;" 
d="M428 918q131 0 188 82q58 82 58 274q0 190 -58 274t-188 84q-131 0 -187 -84q-57 -84 -57 -273t56 -273t188 -84zM428 825q-178 0 -263 110t-85 340t84 340q84 109 264 109t264 -110t84 -339q0 -230 -85 -340t-263 -110z" />
    <glyph glyph-name="uni2074" unicode="&#x2074;" 
d="M199 1141h393l2 434zM592 850v203h-520v80l522 567h100v-559h125v-88h-125v-203h-102z" />
    <glyph glyph-name="uni2075" unicode="&#x2075;" 
d="M414 825q-195 0 -295 76v103q106 -86 291 -86q256 0 256 194q0 184 -250 184q-156 0 -275 -59v463h582v-92h-487v-256q92 37 213 37q319 0 319 -277q0 -287 -354 -287z" />
    <glyph glyph-name="uni2076" unicode="&#x2076;" 
d="M461 918q217 0 217 192q0 92 -53 140t-154 48q-186 0 -268 -147q18 -233 258 -233zM457 825q-360 0 -361 432q0 467 410 467q150 0 221 -47v-96q-87 51 -233 51q-295 0 -293 -362v-6q102 125 291 125q139 0 215 -72q75 -72 75 -207t-84 -210t-241 -75z" />
    <glyph glyph-name="uni2077" unicode="&#x2077;" 
d="M90 1608v92h682v-84l-475 -766h-123l477 758h-561z" />
    <glyph glyph-name="uni2078" unicode="&#x2078;" 
d="M174 1075q0 -157 255 -157t255 157q0 152 -254 166q-256 -14 -256 -166zM651 1485q0 147 -221 147t-221 -147q0 -140 221 -158q221 18 221 158zM786 1063q0 -238 -357 -238t-357 238q0 88 50 146t144 79v2q-158 41 -157 203q0 231 320 231t321 -231q0 -162 -158 -203v-2
q94 -20 144 -78t50 -147z" />
    <glyph glyph-name="uni2079" unicode="&#x2079;" 
d="M385 1251q188 0 270 148q-18 233 -258 233q-217 0 -217 -192q0 -92 53 -141q54 -48 152 -48zM352 825q-147 0 -223 47v97q87 -51 233 -51q297 0 295 362v6q-102 -125 -290 -125q-139 0 -215 72t-76 207t84 210t239 74q362 0 363 -432q0 -467 -410 -467z" />
    <glyph glyph-name="uni2080" unicode="&#x2080;" 
d="M428 -219q131 0 188 83t58 273q0 191 -58 275t-188 84q-131 0 -187 -84q-57 -84 -57 -274t56 -274q56 -83 188 -83zM428 -311q-178 -1 -263 109t-85 340t84 340t264 110t264 -110t84 -340t-85 -340t-263 -109z" />
    <glyph glyph-name="uni2081" unicode="&#x2081;" 
d="M203 -287v92h223v648l-252 -115v96l275 129h79v-758h226v-92h-551z" />
    <glyph glyph-name="uni2082" unicode="&#x2082;" 
d="M94 -287v78l316 250q125 99 168 157t43 130q0 168 -205 168q-174 0 -295 -109v105q119 96 307 96q297 0 297 -252q0 -96 -54 -172t-206 -195l-211 -164h479v-92h-639z" />
    <glyph glyph-name="uni2083" unicode="&#x2083;" 
d="M408 -311q-213 0 -320 84v104q109 -96 313 -96q250 0 250 168q0 154 -229 153h-182v91h163q111 1 162 37t51 114q0 152 -210 152q-170 0 -291 -86v98q119 80 307 80q295 0 295 -232q0 -152 -125 -196v-4q162 -43 162 -213q0 -254 -346 -254z" />
    <glyph glyph-name="uni2084" unicode="&#x2084;" 
d="M199 4h393l2 434zM592 -287v203h-520v80l522 567h100v-559h125v-88h-125v-203h-102z" />
    <glyph glyph-name="uni2085" unicode="&#x2085;" 
d="M414 -311q-195 0 -295 75v103q106 -86 291 -86q256 0 256 194q0 184 -250 185q-156 0 -275 -60v463h582v-92h-487v-256q92 37 213 37q319 0 319 -277q0 -286 -354 -286z" />
    <glyph glyph-name="uni2086" unicode="&#x2086;" 
d="M461 -219q217 0 217 192q0 93 -53 141t-154 48q-186 0 -268 -148q18 -233 258 -233zM457 -311q-360 0 -361 432q0 467 410 467q150 0 221 -47v-97q-87 52 -233 52q-295 1 -293 -363v-6q102 125 291 125q139 0 215 -72q75 -72 75 -207t-84 -209t-241 -75z" />
    <glyph glyph-name="uni2087" unicode="&#x2087;" 
d="M90 471v92h682v-84l-475 -766h-123l477 758h-561z" />
    <glyph glyph-name="uni2088" unicode="&#x2088;" 
d="M174 -61q0 -158 255 -158t255 158q0 152 -254 165q-256 -14 -256 -165zM651 348q0 148 -221 148t-221 -148q0 -140 221 -158q221 18 221 158zM786 -74q0 -237 -357 -237t-357 237q0 88 50 146t144 80v2q-158 41 -157 202q0 232 320 232t321 -232q0 -162 -158 -202v-2
q94 -20 144 -78t50 -148z" />
    <glyph glyph-name="uni2089" unicode="&#x2089;" 
d="M385 115q188 0 270 147q-18 233 -258 234q-217 0 -217 -193q0 -92 54 -140t151 -48zM352 -311q-147 0 -223 47v96q87 -51 233 -51q297 0 295 362v7q-102 -125 -290 -125q-139 -1 -215 71t-76 207t84 210t239 75q362 0 363 -432q0 -467 -410 -467z" />
    <glyph glyph-name="Euro" unicode="&#x20ac;" horiz-adv-x="1277" 
d="M846 -25q-252 0 -391 126t-174 388h-164v97h155q-4 70 -4 112t4 121h-155v96h166q37 254 172 378t381 124q190 0 313 -80v-114q-119 94 -313 94t-299 -97q-106 -97 -140 -305h582v-96h-592q-4 -78 -4 -121t4 -112h592v-97h-584q31 -215 140 -314t309 -99t327 96v-117
q-130 -80 -325 -80z" />
    <glyph glyph-name="uni20B9" unicode="&#x20b9;" horiz-adv-x="1277" 
d="M166 655h289q252 0 353 70t105 233h-770l45 99h719q-20 125 -116 181t-297 56h-351l45 99h1012l-43 -99h-268q115 -78 133 -237h178l-43 -99h-129q-4 -207 -130 -304t-421 -97h-125l715 -557h-174l-727 567v88z" />
    <glyph glyph-name="uni2113" unicode="&#x2113;" horiz-adv-x="872" 
d="M653 1171q0 250 -172 250q-178 0 -178 -262v-635q350 283 350 647zM303 381q1 -309 239 -307q116 0 220 67v-110q-94 -56 -221 -56q-330 0 -348 357q-39 -27 -125 -76v111q55 31 125 77v725q0 170 74 261q75 90 214 90q276 0 277 -346q0 -432 -455 -768v-25z" />
    <glyph glyph-name="uni2116" unicode="&#x2116;" horiz-adv-x="2451" 
d="M1532 152v92h780v-92h-780zM1638 854q0 -317 284 -317t284 317t-284 317t-284 -317zM1921 444q-193 0 -291 104t-98 306q0 201 98 305q98 105 291 105t292 -104t99 -306t-99 -306t-292 -104zM209 0v1393h145l824 -1194v1194h110v-1393h-108l-861 1247v-1247h-110z" />
    <glyph glyph-name="uni2117" unicode="&#x2117;" horiz-adv-x="1671" 
d="M698 692h199q84 0 119 33t35 110t-35 111t-119 33h-199v-287zM594 324v745h313q250 0 250 -233t-250 -234h-209v-278h-104zM221 696q0 -284 168 -456q167 -172 445 -172t446 172t168 456t-168 457q-168 172 -446 172t-445 -172q-168 -172 -168 -457zM836 -25
q-322 0 -520 199q-198 198 -198 522t198 523t520 199t520 -200q198 -198 196 -522q0 -324 -197 -522t-519 -199z" />
    <glyph glyph-name="uni2120" unicode="&#x2120;" horiz-adv-x="1603" 
d="M756 737v656h137l225 -537l225 537h140v-656h-97v543l-229 -543h-84l-227 539v-539h-90zM334 721q-156 0 -232 59v94q102 -70 232 -69q154 0 153 108q0 43 -27 69q-28 26 -98 38l-81 16q-90 18 -130 58t-40 126q0 84 62 136t185 51q123 0 187 -45v-94q-76 55 -195 55
q-147 0 -147 -104q-1 -39 27 -61t96 -38l82 -18q94 -20 134 -62t40 -118q0 -201 -248 -201z" />
    <glyph glyph-name="trademark" unicode="&#x2122;" horiz-adv-x="1568" 
d="M721 737v656h139l225 -537l226 537h139v-656h-96v543l-230 -543h-84l-229 543v-543h-90zM258 737v572h-215v84h524v-84h-213v-572h-96z" />
    <glyph glyph-name="uni2126" unicode="&#x2126;" horiz-adv-x="1470" 
d="M123 0v109h309q-309 217 -309 649q0 315 160 487q161 172 453 172t452 -172t160 -487q0 -430 -310 -649h310v-109h-463v100q346 219 346 652q0 276 -127 418t-369 142q-243 0 -369 -142t-126 -418q0 -432 346 -652v-100h-463z" />
    <glyph glyph-name="estimated" unicode="&#x212e;" horiz-adv-x="1728" 
d="M408 719h944q12 0 12 12v395q0 25 -21 45q-193 203 -465 203t-462 -211q-18 -23 -19 -45v-389q1 -10 11 -10zM879 -25q-315 0 -538 211q-222 211 -222 510t222 510q221 211 537 211t538 -211t222 -510v-18h-1230q-10 0 -11 -10v-392q0 -20 19 -43q182 -215 467 -215
q141 0 270 65t219 175h111q-106 -131 -265 -207t-339 -76z" />
    <glyph glyph-name="uni2153" unicode="&#x2153;" horiz-adv-x="1959" 
d="M1509 -25q-213 0 -319 84v105q109 -96 313 -96q250 0 250 168q0 154 -229 153h-183v90h164q111 0 162 37t51 115q0 152 -211 151q-170 0 -290 -86v99q119 80 307 79q295 0 295 -231q0 -152 -125 -197v-4q162 -43 161 -213q0 -254 -346 -254zM203 543v92h223v647
l-252 -115v97l275 129h79v-758h226v-92h-551zM547 -25l762 1442h104l-760 -1442h-106z" />
    <glyph glyph-name="uni2154" unicode="&#x2154;" horiz-adv-x="1959" 
d="M1509 -25q-213 0 -319 84v105q109 -96 313 -96q250 0 250 168q0 154 -229 153h-183v90h164q111 0 162 37t51 115q0 152 -211 151q-170 0 -290 -86v99q119 80 307 79q295 0 295 -231q0 -152 -125 -197v-4q162 -43 161 -213q0 -254 -346 -254zM547 -25l762 1442h104
l-760 -1442h-106zM94 543v78l316 249q125 98 168 156t43 131q0 168 -205 168q-174 0 -295 -108v104q119 96 307 96q297 0 297 -252q0 -96 -54 -172t-206 -194l-211 -164h479v-92h-639z" />
    <glyph glyph-name="uni2155" unicode="&#x2155;" horiz-adv-x="1959" 
d="M1516 -25q-195 0 -295 76v103q106 -86 290 -86q256 0 256 194q0 184 -249 184q-156 0 -275 -59v463h582v-92h-488v-256q92 37 213 37q319 0 320 -277q0 -287 -354 -287zM203 543v92h223v647l-252 -115v97l275 129h79v-758h226v-92h-551zM547 -25l762 1442h104l-760 -1442
h-106z" />
    <glyph glyph-name="uni2156" unicode="&#x2156;" horiz-adv-x="1959" 
d="M1516 -25q-195 0 -295 76v103q106 -86 290 -86q256 0 256 194q0 184 -249 184q-156 0 -275 -59v463h582v-92h-488v-256q92 37 213 37q319 0 320 -277q0 -287 -354 -287zM547 -25l762 1442h104l-760 -1442h-106zM94 543v78l316 249q125 98 168 156t43 131q0 168 -205 168
q-174 0 -295 -108v104q119 96 307 96q297 0 297 -252q0 -96 -54 -172t-206 -194l-211 -164h479v-92h-639z" />
    <glyph glyph-name="uni2157" unicode="&#x2157;" horiz-adv-x="1959" 
d="M1516 -25q-195 0 -295 76v103q106 -86 290 -86q256 0 256 194q0 184 -249 184q-156 0 -275 -59v463h582v-92h-488v-256q92 37 213 37q319 0 320 -277q0 -287 -354 -287zM547 -25l762 1442h104l-760 -1442h-106zM408 518q-213 0 -320 84v105q109 -96 313 -97
q250 0 250 168q0 154 -229 154h-182v90h163q111 0 162 37t51 115q0 152 -210 151q-170 0 -291 -86v98q119 80 307 80q295 0 295 -231q0 -152 -125 -197v-4q162 -43 162 -213q0 -254 -346 -254z" />
    <glyph glyph-name="uni2158" unicode="&#x2158;" horiz-adv-x="1959" 
d="M1516 -25q-195 0 -295 76v103q106 -86 290 -86q256 0 256 194q0 184 -249 184q-156 0 -275 -59v463h582v-92h-488v-256q92 37 213 37q319 0 320 -277q0 -287 -354 -287zM199 834h393l2 434zM592 543v202h-520v80l522 568h100v-559h125v-89h-125v-202h-102zM547 -25
l762 1442h104l-760 -1442h-106z" />
    <glyph glyph-name="uni2159" unicode="&#x2159;" horiz-adv-x="1959" 
d="M1563 68q217 0 217 192q0 92 -54 140t-153 49q-186 0 -268 -148q18 -233 258 -233zM1559 -25q-360 0 -361 433q0 467 410 466q150 0 221 -47v-96q-87 51 -233 51q-295 0 -293 -362v-6q102 125 290 125q139 0 215 -72t76 -207t-84 -210t-241 -75zM203 543v92h223v647
l-252 -115v97l275 129h79v-758h226v-92h-551zM547 -25l762 1442h104l-760 -1442h-106z" />
    <glyph glyph-name="uni215A" unicode="&#x215a;" horiz-adv-x="1959" 
d="M1563 68q217 0 217 192q0 92 -54 140t-153 49q-186 0 -268 -148q18 -233 258 -233zM1559 -25q-360 0 -361 433q0 467 410 466q150 0 221 -47v-96q-87 51 -233 51q-295 0 -293 -362v-6q102 125 290 125q139 0 215 -72t76 -207t-84 -210t-241 -75zM414 518q-195 0 -295 76
v102q106 -86 291 -86q256 0 256 195q0 184 -250 184q-156 0 -275 -59v463h582v-93h-487v-256q92 37 213 37q319 0 319 -276q0 -287 -354 -287zM547 -25l762 1442h104l-760 -1442h-106z" />
    <glyph glyph-name="oneeighth" unicode="&#x215b;" horiz-adv-x="1959" 
d="M1276 225q0 -157 255 -157t255 157q0 152 -254 166q-256 -14 -256 -166zM1753 635q0 147 -221 147t-221 -147q0 -140 221 -158q221 18 221 158zM1888 213q0 -238 -357 -238t-357 238q0 88 50 146t144 79v2q-158 41 -158 203q0 231 320 231t321 -231q0 -162 -157 -203v-2
q94 -20 144 -78t50 -147zM203 543v92h223v647l-252 -115v97l275 129h79v-758h226v-92h-551zM547 -25l762 1442h104l-760 -1442h-106z" />
    <glyph glyph-name="threeeighths" unicode="&#x215c;" horiz-adv-x="1959" 
d="M1276 225q0 -157 255 -157t255 157q0 152 -254 166q-256 -14 -256 -166zM1753 635q0 147 -221 147t-221 -147q0 -140 221 -158q221 18 221 158zM1888 213q0 -238 -357 -238t-357 238q0 88 50 146t144 79v2q-158 41 -158 203q0 231 320 231t321 -231q0 -162 -157 -203v-2
q94 -20 144 -78t50 -147zM547 -25l762 1442h104l-760 -1442h-106zM408 518q-213 0 -320 84v105q109 -96 313 -97q250 0 250 168q0 154 -229 154h-182v90h163q111 0 162 37t51 115q0 152 -210 151q-170 0 -291 -86v98q119 80 307 80q295 0 295 -231q0 -152 -125 -197v-4
q162 -43 162 -213q0 -254 -346 -254z" />
    <glyph glyph-name="fiveeighths" unicode="&#x215d;" horiz-adv-x="1959" 
d="M1276 225q0 -157 255 -157t255 157q0 152 -254 166q-256 -14 -256 -166zM1753 635q0 147 -221 147t-221 -147q0 -140 221 -158q221 18 221 158zM1888 213q0 -238 -357 -238t-357 238q0 88 50 146t144 79v2q-158 41 -158 203q0 231 320 231t321 -231q0 -162 -157 -203v-2
q94 -20 144 -78t50 -147zM414 518q-195 0 -295 76v102q106 -86 291 -86q256 0 256 195q0 184 -250 184q-156 0 -275 -59v463h582v-93h-487v-256q92 37 213 37q319 0 319 -276q0 -287 -354 -287zM547 -25l762 1442h104l-760 -1442h-106z" />
    <glyph glyph-name="seveneighths" unicode="&#x215e;" horiz-adv-x="1959" 
d="M1276 225q0 -157 255 -157t255 157q0 152 -254 166q-256 -14 -256 -166zM1753 635q0 147 -221 147t-221 -147q0 -140 221 -158q221 18 221 158zM1888 213q0 -238 -357 -238t-357 238q0 88 50 146t144 79v2q-158 41 -158 203q0 231 320 231t321 -231q0 -162 -157 -203v-2
q94 -20 144 -78t50 -147zM90 1300v93h682v-84l-475 -766h-123l477 757h-561zM457 -25l762 1442h104l-760 -1442h-106z" />
    <glyph glyph-name="arrowleft" unicode="&#x2190;" horiz-adv-x="1486" 
d="M1452 748v-103h-1233l526 -520l-67 -70l-641 641l641 641l67 -69l-526 -520h1233z" />
    <glyph glyph-name="arrowup" unicode="&#x2191;" horiz-adv-x="1486" 
d="M690 0v1235l-504 -510l-67 68l624 624l625 -624l-68 -68l-503 510v-1235h-107z" />
    <glyph glyph-name="arrowright" unicode="&#x2192;" horiz-adv-x="1486" 
d="M35 645v103h1233l-527 520l68 69l641 -641l-641 -641l-68 70l527 520h-1233z" />
    <glyph glyph-name="arrowdown" unicode="&#x2193;" horiz-adv-x="1486" 
d="M690 1393h107v-1233l503 508l68 -68l-625 -625l-624 625l67 68l504 -508v1233z" />
    <glyph glyph-name="arrowboth" unicode="&#x2194;" horiz-adv-x="1916" 
d="M627 106l-590 590l590 590l69 -67l-477 -471h1477l-475 471l67 67l592 -590l-592 -590l-67 68l475 471h-1477l477 -471z" />
    <glyph glyph-name="arrowupdn" unicode="&#x2195;" horiz-adv-x="1486" 
d="M743 -172l-589 590l67 67l469 -473v1368l-469 -473l-67 68l589 590l590 -590l-67 -68l-469 473v-1368l469 473l67 -67z" />
    <glyph glyph-name="uni2196" unicode="&#x2196;" horiz-adv-x="1486" 
d="M205 342v903h901v-94l-739 4l983 -983l-72 -72l-977 977l4 -735h-100z" />
    <glyph glyph-name="uni2197" unicode="&#x2197;" horiz-adv-x="1486" 
d="M381 1245h901v-903h-100l4 735l-977 -977l-72 72l983 983l-739 -4v94z" />
    <glyph glyph-name="uni2198" unicode="&#x2198;" horiz-adv-x="1486" 
d="M381 147v95l739 -4l-983 983l72 71l977 -977l-4 736h100v-904h-901z" />
    <glyph glyph-name="uni2199" unicode="&#x2199;" horiz-adv-x="1486" 
d="M205 147v904h100l-4 -736l977 977l72 -71l-983 -983l739 4v-95h-901z" />
    <glyph glyph-name="partialdiff" unicode="&#x2202;" horiz-adv-x="1306" 
d="M596 74q352 0 426 456q-55 139 -167 216q-111 77 -269 77t-252 -101q-94 -100 -94 -276t95 -274t261 -98zM592 -25q-217 0 -341 126t-124 344q0 217 124 347t341 130q297 0 446 -238q2 33 2 100q0 322 -101 469t-333 148q-182 0 -311 -92v114q139 78 330 78
q274 0 400 -170q126 -169 126 -549t-141 -594q-142 -213 -418 -213z" />
    <glyph glyph-name="emptyset" unicode="&#x2205;" horiz-adv-x="1757" 
d="M892 74q253 0 427 176t174 446q0 233 -137 408l-885 -885q168 -145 421 -145zM866 1319q-252 0 -426 -176t-174 -429t137 -423l883 883q-168 145 -420 145zM158 710q0 296 203 502q205 205 501 205t498 -170l170 170l69 -69l-169 -170q170 -203 170 -498t-206 -500
q-204 -205 -501 -205t-496 170l-170 -170l-69 70l170 170q-170 199 -170 495z" />
    <glyph glyph-name="uni2206" unicode="&#x2206;" horiz-adv-x="1280" 
d="M180 109h914l-457 1155zM20 0l555 1393h130l555 -1393h-1240z" />
    <glyph glyph-name="product" unicode="&#x220f;" horiz-adv-x="1726" 
d="M223 -379v1938h1280v-1938h-110v1837h-1059v-1837h-111z" />
    <glyph glyph-name="summation" unicode="&#x2211;" horiz-adv-x="1267" 
d="M45 -379v94l721 875l-721 874v95h1178v-99h-1039l715 -870l-715 -871h1039v-98h-1178z" />
    <glyph glyph-name="minus" unicode="&#x2212;" horiz-adv-x="1277" 
d="M113 559v103h1054v-103h-1054z" />
    <glyph glyph-name="uni2215" unicode="&#x2215;" horiz-adv-x="856" 
d="M12 -25l719 1442h113l-719 -1442h-113z" />
    <glyph glyph-name="uni2219" unicode="&#x2219;" horiz-adv-x="563" 
d="M209 518v156h147v-156h-147z" />
    <glyph glyph-name="radical" unicode="&#x221a;" horiz-adv-x="1224" 
d="M113 559v103h262l217 -504l547 1401h106l-610 -1559h-88l-240 559h-194z" />
    <glyph glyph-name="infinity" unicode="&#x221e;" horiz-adv-x="1835" 
d="M499 291q128 1 206 69t159 240q-43 82 -69 125q-85 136 -174 176q-55 25 -125 25q-127 0 -201 -86t-74 -234t75 -231q75 -84 203 -84zM1339 295q127 0 201 86t74 234q0 147 -75 231t-203 84t-206 -69t-159 -240q78 -148 132 -213q54 -64 110 -88t126 -25zM480 193
q-158 0 -262 112q-103 113 -103 305t104 304q105 114 269 114t258 -81t174 -228q80 157 177 233t257 76t262 -112q104 -112 104 -304t-105 -306t-269 -114t-258 82q-92 80 -173 230q-82 -160 -179 -236q-98 -76 -256 -75z" />
    <glyph glyph-name="integral" unicode="&#x222b;" horiz-adv-x="612" 
d="M137 -401q-66 0 -133 22v105q57 -25 123 -25q106 0 149 61q43 62 43 236q-1 174 -69 592t-68 616t68 289q68 90 219 90q59 0 137 -22v-107q-61 27 -125 27q-102 -1 -146 -63t-44 -225q-1 -163 69 -599t70 -629t-68 -281t-225 -87z" />
    <glyph glyph-name="approxequal" unicode="&#x2248;" horiz-adv-x="1277" 
d="M883 217q-109 -1 -259 105t-237 106q-123 0 -211 -154l-78 54q106 201 297 200q117 0 261 -105t235 -106q123 0 207 154l82 -51q-109 -203 -297 -203zM883 692q-109 0 -259 106t-237 105q-123 0 -211 -153l-78 53q106 201 297 201q117 0 261 -106t235 -105q123 0 207 153
l82 -51q-109 -203 -297 -203z" />
    <glyph glyph-name="notequal" unicode="&#x2260;" horiz-adv-x="1277" 
d="M1167 805h-319l-301 -389h620v-103h-700l-182 -233h-119l182 233h-235v103h315l301 389h-616v102h696l182 234h119l-182 -234h239v-102z" />
    <glyph glyph-name="lessequal" unicode="&#x2264;" horiz-adv-x="1277" 
d="M113 0v102h1054v-102h-1054zM1167 248l-1054 428v88l1054 428v-109l-913 -362l913 -365v-108z" />
    <glyph glyph-name="greaterequal" unicode="&#x2265;" horiz-adv-x="1277" 
d="M113 0v100h1054v-100h-1054zM113 246v110l911 363l-911 362v111l1054 -430v-86z" />
    <glyph glyph-name="lozenge" unicode="&#x25ca;" horiz-adv-x="1277" 
d="M639 111l438 585l-438 586l-438 -586zM639 -66l-565 762l565 762l565 -762z" />
    <glyph glyph-name="uniF8FF" unicode="&#xf8ff;" horiz-adv-x="1382" 
d="M592 420q147 0 147 188v109h-100q-182 0 -182 -156q0 -65 36 -103t99 -38zM1061 612q0 -238 -130 -374t-341 -136t-338 125t-127 333t132 335t380 127h102v238h322v-238h270v-305h-270v-105z" />
    <glyph glyph-name="Iacute_J.loclNLD" horiz-adv-x="1468" 
d="M893.5 -25q-193.5 0 -322.5 82v117q129 -94 293 -94t233.5 82t69.5 272v959h115v-959q0 -240 -97.5 -349.5t-291 -109.5zM209 0v1393h115v-1393h-115zM1085 1554l242 287h131l-260 -287h-113zM129 1554l242 287h131l-260 -287h-113z" />
    <glyph glyph-name="iacute_j.loclNLD" horiz-adv-x="974" 
d="M561 -403q-45 0 -80 8v98q27 -8 68 -8q127 0 127 143v1182h110v-1176q0 -127 -55 -187t-170 -60zM188 0v1020h111v-1020h-111zM592 1202l242 287h131l-260 -287h-113zM104 1202l242 287h131l-260 -287h-113z" />
    <glyph glyph-name="i.loclTRK" horiz-adv-x="487" 
d="M188 0v1020h111v-1020h-111zM182 1262v149h125v-149h-125z" />
    <glyph glyph-name="germandbls.calt" horiz-adv-x="1359" 
d="M852 -25q-160 0 -277 58v112q119 -66 265 -65q344 0 344 319q0 340 -414 340h-108v88l403 461h-741v-1288h-115v1393h1005v-93h3l-402 -456q483 -16 483 -445q0 -207 -114 -315t-332 -109z" />
    <glyph glyph-name="zero.pf" horiz-adv-x="1374" 
d="M688 76q213 0 310 147t98 473q0 326 -98 473t-310 147q-213 0 -310 -146q-97 -148 -97 -474t97 -473t310 -147zM688 -25q-270 0 -396 173t-126 548t126 548t396 173t395 -173t125 -548t-125 -548t-395 -173z" />
    <glyph glyph-name="one.pf" horiz-adv-x="1075" 
d="M240 0v100h319v1168l-356 -197v111l379 211h90v-1293h317v-100h-749z" />
    <glyph glyph-name="two.pf" horiz-adv-x="1208" 
d="M1075 104v-104h-981v92h-2l492 412q214 180 290 286t76 228q0 299 -350 299q-268 0 -463 -189v125q182 164 471 164q453 0 453 -395q0 -154 -86 -279t-338 -329l-377 -310h815z" />
    <glyph glyph-name="three.pf" horiz-adv-x="1247" 
d="M582 -25q-326 0 -469 144v123q156 -166 465 -166q418 0 417 307q0 283 -368 283h-275v100h246q344 0 344 275t-344 276q-270 0 -438 -156v121q166 135 450 135q442 0 443 -370q0 -250 -207 -320v-2q262 -66 262 -346q0 -404 -526 -404z" />
    <glyph glyph-name="four.pf" horiz-adv-x="1282" 
d="M225 453h680l4 788zM905 0v352h-817v97l823 944h107v-940h201v-101h-201v-352h-113z" />
    <glyph glyph-name="five.pf" horiz-adv-x="1196" 
d="M1096 430q0 -455 -548 -455q-278 0 -419 131v125q152 -156 434 -155q418 0 418 349t-414 349q-215 0 -399 -92v711h856v-105h-750v-467q143 53 314 53q250 0 379 -112t129 -332z" />
    <glyph glyph-name="six.pf" horiz-adv-x="1329" 
d="M700 76q180 0 278 95q97 95 97 267t-88 260t-254 88q-311 0 -446 -278q40 -432 413 -432zM700 -25q-535 0 -534 687q0 373 155 564t455 191q219 0 332 -78v-114q-125 92 -330 92q-246 0 -372 -161t-125 -472v-20q160 225 460 225q213 0 331 -115t118 -333t-128 -342
t-362 -124z" />
    <glyph glyph-name="seven.pf" horiz-adv-x="1146" 
d="M78 1288v105h997v-101l-739 -1292h-133l745 1288h-870z" />
    <glyph glyph-name="eight.pf" horiz-adv-x="1351" 
d="M676 76q424 0 424 289q0 141 -104 215t-320 86q-216 -12 -320 -86t-104 -215q0 -289 424 -289zM305 1042q1 -130 91 -198t280 -80q371 23 373 278q0 274 -372 274t-372 -274zM676 -25q-264 1 -402 97t-137 282q0 146 81 240t233 123v4q-123 29 -191 115t-67 217
q0 178 123 271q124 93 358 93t360 -93q125 -93 125 -271q-1 -129 -69 -216t-189 -116v-4q152 -29 233 -123t80 -240q0 -186 -137 -282t-401 -97z" />
    <glyph glyph-name="nine.pf" horiz-adv-x="1329" 
d="M588 606q318 0 456 279q-41 432 -415 432q-181 0 -277 -95q-96 -96 -96 -268t87 -260t245 -88zM555 -25q-219 0 -332 78v115q121 -92 328 -92q246 0 373 161t127 472v22q-160 -227 -461 -227q-215 0 -332 114t-117 333q0 218 128 342t362 124q535 0 534 -686
q-1 -373 -155 -565t-455 -191z" />
    <glyph glyph-name="zero.numr" 
d="M428 610q131 0 188 83q58 83 58 273t-58 275q-58 84 -188 84q-131 0 -187 -84q-57 -84 -57 -273q0 -190 56 -274t188 -84zM428 518q-178 0 -263 110t-85 340t84 340t264 110t264 -110t84 -340t-85 -340t-263 -110z" />
    <glyph glyph-name="one.numr" 
d="M203 543v92h223v647l-252 -115v97l275 129h79v-758h226v-92h-551z" />
    <glyph glyph-name="two.numr" 
d="M94 543v78l316 249q125 98 168 156t43 131q0 168 -205 168q-174 0 -295 -108v104q119 96 307 96q297 0 297 -252q0 -96 -54 -172t-206 -194l-211 -164h479v-92h-639z" />
    <glyph glyph-name="three.numr" 
d="M408 518q-213 0 -320 84v105q109 -96 313 -97q250 0 250 168q0 154 -229 154h-182v90h163q111 0 162 37t51 115q0 152 -210 151q-170 0 -291 -86v98q119 80 307 80q295 0 295 -231q0 -152 -125 -197v-4q162 -43 162 -213q0 -254 -346 -254z" />
    <glyph glyph-name="four.numr" 
d="M199 834h393l2 434zM592 543v202h-520v80l522 568h100v-559h125v-89h-125v-202h-102z" />
    <glyph glyph-name="five.numr" 
d="M414 518q-195 0 -295 76v102q106 -86 291 -86q256 0 256 195q0 184 -250 184q-156 0 -275 -59v463h582v-93h-487v-256q92 37 213 37q319 0 319 -276q0 -287 -354 -287z" />
    <glyph glyph-name="six.numr" 
d="M461 610q217 0 217 193q0 92 -53 140t-154 48q-186 0 -268 -147q18 -234 258 -234zM457 518q-360 0 -361 432q0 467 410 467q150 0 221 -47v-96q-87 51 -233 51q-295 0 -293 -362v-7q102 125 291 125q139 1 215 -71q75 -72 75 -207t-84 -210t-241 -75z" />
    <glyph glyph-name="seven.numr" 
d="M90 1300v93h682v-84l-475 -766h-123l477 757h-561z" />
    <glyph glyph-name="eight.numr" 
d="M174 768q0 -158 255 -158t255 158q0 152 -254 166q-256 -14 -256 -166zM651 1178q0 147 -221 147t-221 -147q0 -140 221 -158q221 18 221 158zM786 756q0 -238 -357 -238t-357 238q0 88 50 146t144 79v2q-158 41 -157 203q0 231 320 231t321 -231q0 -162 -158 -203v-2
q94 -21 144 -79t50 -146z" />
    <glyph glyph-name="nine.numr" 
d="M385 944q188 0 270 148q-18 233 -258 233q-217 0 -217 -192q0 -92 53 -141q54 -48 152 -48zM352 518q-147 0 -223 47v97q87 -52 233 -52q297 -1 295 363v6q-102 -125 -290 -125q-139 0 -215 72t-76 206t84 210q84 75 239 75q362 0 363 -432q0 -467 -410 -467z" />
    <glyph glyph-name="zero.dnom" 
d="M428 68q131 0 188 83t58 273q0 190 -58 274t-188 84q-131 0 -187 -84q-57 -84 -57 -273t56 -273t188 -84zM428 -25q-178 0 -263 110t-85 340t84 340q84 109 264 109t264 -110t84 -339q0 -230 -85 -340t-263 -110z" />
    <glyph glyph-name="one.dnom" 
d="M203 0v92h223v647l-252 -114v96l275 129h79v-758h226v-92h-551z" />
    <glyph glyph-name="two.dnom" 
d="M94 0v78l316 250q125 98 168 156t43 130q0 168 -205 168q-174 0 -295 -108v104q119 96 307 96q297 0 297 -251q0 -96 -54 -172t-206 -195l-211 -164h479v-92h-639z" />
    <glyph glyph-name="three.dnom" 
d="M408 -25q-213 0 -320 84v105q109 -96 313 -96q250 0 250 168q0 154 -229 153h-182v90h163q111 0 162 37t51 115q0 152 -210 151q-170 0 -291 -86v99q119 80 307 79q295 0 295 -231q0 -152 -125 -197v-4q162 -43 162 -213q0 -254 -346 -254z" />
    <glyph glyph-name="four.dnom" 
d="M199 291h393l2 434zM592 0v203h-520v80l522 567h100v-559h125v-88h-125v-203h-102z" />
    <glyph glyph-name="five.dnom" 
d="M414 -25q-195 0 -295 76v103q106 -86 291 -86q256 0 256 194q0 184 -250 184q-156 0 -275 -59v463h582v-92h-487v-256q92 37 213 37q319 0 319 -277q0 -287 -354 -287z" />
    <glyph glyph-name="six.dnom" 
d="M678 260q0 187 -207 189q-186 0 -268 -148q18 -233 258 -233q217 0 217 192zM457 -25q-360 0 -361 433q0 467 410 466q150 0 221 -47v-96q-87 51 -233 51q-295 0 -293 -362v-6q102 125 291 125q139 0 215 -72q75 -72 75 -207t-84 -210t-241 -75z" />
    <glyph glyph-name="seven.dnom" 
d="M90 758v92h682v-84l-475 -766h-123l477 758h-561z" />
    <glyph glyph-name="eight.dnom" 
d="M174 225q0 -157 255 -157t255 157q0 152 -254 166q-256 -14 -256 -166zM651 635q0 147 -221 147t-221 -147q0 -140 221 -158q221 18 221 158zM786 213q0 -238 -357 -238t-357 238q0 88 50 146t144 79v2q-158 41 -157 203q0 231 320 231t321 -231q0 -162 -158 -203v-2
q94 -20 144 -78t50 -147z" />
    <glyph glyph-name="nine.dnom" 
d="M385 401q188 0 270 148q-18 233 -258 233q-217 0 -217 -192q0 -92 54 -140t151 -49zM352 -25q-147 0 -223 48v96q87 -51 233 -51q297 0 295 362v6q-102 -125 -290 -125q-139 0 -215 72t-76 207t84 210t239 74q362 0 363 -432q0 -467 -410 -467z" />
    <glyph glyph-name="exclamdown.case" horiz-adv-x="616" 
d="M246 0l14 1012h96l17 -1012h-127zM236 1237v156h145v-156h-145z" />
    <glyph glyph-name="questiondown.case" horiz-adv-x="925" 
d="M451 -25q-189 -1 -289 89t-101 262q0 102 44 174t159 155l113 82q83 59 109 111t26 147v17h98v-27q0 -117 -32 -183t-125 -132l-109 -80q-98 -74 -134 -128t-36 -134q0 -252 283 -252q246 0 405 182v-125q-153 -158 -411 -158zM489 1237v156h146v-156h-146z" />
    <glyph glyph-name="at.case" horiz-adv-x="1628" 
d="M768 406q146 0 248 131v135q-86 18 -180 18q-213 0 -213 -147q-1 -137 145 -137zM856 -57q-737 0 -737 741q0 374 186 570t545 196q666 0 666 -672q0 -223 -76 -344t-224 -121t-182 131q-111 -131 -280 -131q-118 -1 -180 59t-62 169q0 231 307 231q100 0 197 -16v35
q0 117 -48 165t-177 48t-226 -70v102q104 62 262 62t229 -69t70 -224v-252q0 -143 101 -143q182 0 182 354q0 590 -563 590q-305 0 -463 -170t-158 -498q0 -647 635 -647q264 0 457 111v-109q-201 -98 -461 -98z" />
    <glyph glyph-name="parenleft.case" horiz-adv-x="628" 
d="M139 696q0 268 92 500t252 369h125q-172 -145 -265 -369t-93 -500t93 -499t265 -369h-125q-160 136 -252 368t-92 500z" />
    <glyph glyph-name="parenright.case" horiz-adv-x="628" 
d="M379 696q0 276 -93 500t-266 369h125q160 -137 252 -369t92 -500t-92 -499t-252 -369h-125q172 144 266 368t93 500z" />
    <glyph glyph-name="braceleft.case" horiz-adv-x="628" 
d="M492 -172q-139 0 -203 76q-63 76 -64 241v344q0 94 -35 128t-129 34v90q94 0 129 34t35 128v344q-1 166 63 242t204 76h96v-90h-78q-94 1 -136 -53t-42 -173v-338q0 -180 -113 -213v-4q113 -33 113 -213v-338q0 -119 42 -172t136 -53h78v-90h-96z" />
    <glyph glyph-name="braceright.case" horiz-adv-x="628" 
d="M41 -172v90h78q94 0 136 53t42 172v338q0 180 113 213v4q-113 33 -113 213v338q0 119 -42 172t-136 54h-78v90h96q139 0 203 -76t63 -242v-344q0 -94 35 -128t129 -34v-90q-94 0 -129 -34t-35 -128v-344q0 -165 -63 -241t-203 -76h-96z" />
    <glyph glyph-name="bracketleft.case" horiz-adv-x="628" 
d="M221 -172v1737h367v-90h-260v-1557h260v-90h-367z" />
    <glyph glyph-name="bracketright.case" horiz-adv-x="628" 
d="M41 -172v90h260v1557h-260v90h367v-1737h-367z" />
    <glyph glyph-name="bar.case" horiz-adv-x="567" 
d="M231 -328v2048h105v-2048h-105z" />
    <glyph glyph-name="brokenbar.case" horiz-adv-x="567" 
d="M231 -328v820h105v-820h-105zM231 901v819h105v-819h-105z" />
    <glyph glyph-name="periodcentered.case" horiz-adv-x="563" 
d="M209 618v156h147v-156h-147z" />
    <glyph glyph-name="bullet.case" horiz-adv-x="1064" 
d="M375 535v321h317v-321h-317z" />
    <glyph glyph-name="hyphen.case" horiz-adv-x="743" 
d="M72 639v113h600v-113h-600z" />
    <glyph glyph-name="uni00AD.case" horiz-adv-x="743" 
d="M72 639v113h600v-113h-600z" />
    <glyph glyph-name="figuredash.case" horiz-adv-x="1271" 
d="M72 647v96h1128v-96h-1128z" />
    <glyph glyph-name="endash.case" horiz-adv-x="1064" 
d="M72 647v96h921v-96h-921z" />
    <glyph glyph-name="emdash.case" horiz-adv-x="1884" 
d="M72 647v96h1740v-96h-1740z" />
    <glyph glyph-name="guillemotleft.case" horiz-adv-x="847" 
d="M688 322l-264 374l264 377h117l-260 -377l260 -374h-117zM307 322l-264 374l264 377h117l-260 -377l260 -374h-117z" />
    <glyph glyph-name="guillemotright.case" horiz-adv-x="847" 
d="M424 322l260 374l-260 377h117l264 -377l-264 -374h-117zM43 322l260 374l-260 377h117l264 -377l-264 -374h-117z" />
    <glyph glyph-name="guilsinglleft.case" horiz-adv-x="466" 
d="M307 322l-264 374l264 377h117l-260 -377l260 -374h-117z" />
    <glyph glyph-name="guilsinglright.case" horiz-adv-x="466" 
d="M43 322l260 374l-260 377h117l264 -377l-264 -374h-117z" />
    <glyph glyph-name="caron.alt" horiz-adv-x="284" 
d="M55 1092l88 403h109l-113 -403h-84z" />
    <glyph glyph-name="ringacute" horiz-adv-x="1064" 
d="M532 1212q39 0 64 26t25 67t-25 67t-64 25q-40 0 -64 -26q-24 -27 -24 -67t24 -66t64 -26zM532 1130q-78 0 -126 50t-50 125q0 76 50 125t126 49q78 0 127 -49t49 -125q0 -75 -48 -125q-50 -50 -128 -50zM393 1554l242 287h131l-260 -287h-113z" />
    <glyph glyph-name="NULL" horiz-adv-x="0" 
 />
    </font>
</defs>
</svg>
