<svg width="40" height="40" viewBox="0 0 40 40" fill="none" xmlns="http://www.w3.org/2000/svg">
<path fill-rule="evenodd" clip-rule="evenodd" d="M40 20C40 31.0457 31.0457 40 20 40C8.9543 40 0 31.0457 0 20C0 8.95431 8.9543 0 20 0C31.0457 0 40 8.95431 40 20ZM20.2042 20.1647L22.7454 17.6236C22.9826 17.3862 22.9826 17.0004 22.7454 16.763L22.1098 16.1276C21.8808 15.8984 21.4784 15.8984 21.2494 16.1276L18.7082 18.6687L16.167 16.1276C15.938 15.8984 15.5356 15.8984 15.3066 16.1276L14.671 16.763C14.4338 17.0004 14.4338 17.3862 14.671 17.6236L17.2122 20.1647L14.671 22.7059C14.4338 22.9432 14.4338 23.3291 14.671 23.5664L15.3066 24.2019C15.4211 24.3165 15.5739 24.3795 15.7368 24.3795C15.8997 24.3795 16.0525 24.3165 16.167 24.2019L18.7082 21.6607L21.2494 24.2019C21.3639 24.3165 21.5167 24.3795 21.6796 24.3795C21.8425 24.3795 21.9953 24.3165 22.1098 24.2019L22.7454 23.5664C22.9826 23.3291 22.9826 22.9432 22.7454 22.7059L20.2042 20.1647ZM30.8432 20.274V20.0383V18.1231C30.8432 17.6007 30.1053 16.9935 29.1539 16.9935C28.4141 16.9935 27.417 17.4929 26.8162 17.8522V22.4605C27.4234 22.8249 28.4112 23.3187 29.1539 23.3187C30.1053 23.3187 30.8432 22.7116 30.8432 22.1892V20.274ZM25.2967 16.5426C25.5092 16.3917 27.4236 15.0685 29.1539 15.0685C31.113 15.0685 32.7682 16.4673 32.7682 18.1231V20.0383V20.274V22.1892C32.7682 23.845 31.113 25.2438 29.1539 25.2438C28.3515 25.2438 27.5097 24.9592 26.8162 24.6389V27.5715H24.8912V16.8435L25.2967 16.5426ZM35.0597 23.0209C34.4461 23.0209 33.9487 23.5181 33.9487 24.1315C33.9487 24.7448 34.4461 25.2421 35.0597 25.2421C35.6732 25.2421 36.1706 24.7448 36.1706 24.1315C36.1706 23.5181 35.6732 23.0209 35.0597 23.0209ZM8.73602 15.09H9.38247C11.3363 15.09 12.987 16.485 12.987 18.1361V19.1601C12.987 19.5739 12.7218 19.9411 12.3291 20.0713L7.05135 21.8205V22.1912C7.05135 22.6817 7.70385 23.2472 8.57223 23.3116L8.73602 23.3215C9.39842 23.3215 10.0196 23.1307 10.504 22.9462C10.504 22.9462 11.5112 22.5319 11.518 22.5273L12.2563 24.3052L11.4439 24.6371C10.7988 24.9078 9.9238 25.202 8.94971 25.2374H8.73602C6.78224 25.2374 5.1316 23.8424 5.1316 22.1912V20.2812V20.0462V18.1361C5.1316 16.485 6.78224 15.09 8.73602 15.09ZM7.05135 19.798L11.0672 18.467V18.1361C11.0672 17.6152 10.3313 17.0098 9.38247 17.0098H8.73602C7.78727 17.0098 7.05135 17.6152 7.05135 18.1361V19.798Z" fill="#D03A3C"/>
</svg>
