<?xml version="1.0" encoding="UTF-8"?>
<svg width="106px" height="67px" viewBox="0 0 106 67" version="1.1" xmlns="http://www.w3.org/2000/svg" xmlns:xlink="http://www.w3.org/1999/xlink">
    <!-- Generator: Sketch 43.2 (39069) - http://www.bohemiancoding.com/sketch -->
    <title>Hello Smile Copy</title>
    <desc>Created with Sketch.</desc>
    <defs></defs>
    <g id="Page-1" stroke="none" stroke-width="1" fill="none" fill-rule="evenodd">
        <g id="Desktop-HD" transform="translate(-364.000000, -840.000000)" fill="#FFFFFF">
            <g id="Group-3" transform="translate(55.000000, 795.000000)">
                <g id="Hello-Smile-Copy" transform="translate(309.000000, 45.000000)">
                    <path d="M7.99118231,33.0195112 L7.99118231,22.5214366 C7.99118231,19.4687057 9.53633604,16.5326619 13.397338,16.5326619 C16.9593127,16.5248468 18.6305849,19.1865544 18.6233244,22.5168554 L18.6305849,33.0195112 C18.6305849,34.9218089 20.1883774,36.4664994 22.0884916,36.473506 C23.9859168,36.4797042 25.5318772,34.9115684 25.5391378,33.0195112 L25.5318772,22.1799986 C25.5391378,15.2582652 21.846742,10.2986553 15.4001756,10.3008112 C11.8462683,10.2916487 9.37283909,11.9683871 7.99118231,14.495352 L7.99763613,3.477979 C7.99118231,1.57190853 6.43204528,0.0105099319 4.53327561,0 C2.62724539,0.00781507757 1.07563782,1.57190853 1.07563782,3.46800804 L1.07563782,33.0135825 C1.07563782,34.9234258 2.62724539,36.473506 4.53327561,36.473506 C6.43204528,36.4664994 7.98338393,34.9115684 7.99118231,33.0195112" id="Fill-5"></path>
                    <path d="M42.3196256,15.7853788 C45.3652941,15.7813365 47.2049037,18.1347528 47.7195964,20.7883758 L36.6114846,20.785142 C36.9567644,17.8512541 39.1416537,15.7813365 42.3196256,15.7853788 M42.4242314,36.6564866 C46.3957552,36.6500189 48.9401765,35.557525 50.839215,34.3437626 C52.0380134,33.5954016 53.304308,32.4983264 53.3096862,30.8862645 C53.304308,29.4539494 52.2668553,28.3409746 50.5447592,28.3536404 C49.5003148,28.3366628 48.8175537,28.8581171 48.0006068,29.5003009 C46.690211,30.5326996 44.9094926,31.1676073 42.7098133,31.1716496 C38.7444744,31.1802731 36.8462426,28.6918446 36.5006939,25.696514 L51.8172387,25.6897769 C53.5839738,25.696514 54.2834073,24.5498535 54.2893234,23.4463107 C54.2893234,15.8955983 49.5140292,10.2404465 42.3196256,10.2404465 C34.7780599,10.2423329 29.3178534,15.8336166 29.3111307,23.4495445 C29.3178534,30.6598967 33.8056834,36.6454377 42.4242314,36.6564866" id="Fill-7"></path>
                    <path d="M61.2032672,36.5419553 C63.0703055,36.5419553 64.5842657,35.0236744 64.5842657,33.1512896 L64.5926019,4.20100842 C64.5926019,2.33643871 63.0641206,0.815732407 61.2110655,0.8084563 C59.3429515,0.8084563 57.8233442,2.32485083 57.8155458,4.20424225 L57.8155458,33.1512896 C57.8104365,35.0153203 59.3381112,36.5362961 61.2032672,36.5419553" id="Fill-9"></path>
                    <path d="M73.297995,36.5309134 C75.1580417,36.5309134 76.6841029,35.0199086 76.6841029,33.1421341 L76.6841029,4.1958952 C76.6913634,2.32539681 75.1687981,0.804690509 73.3036421,0.808463305 C71.450587,0.813583529 69.9164586,2.33051703 69.9164586,4.19320035 L69.9164586,33.1494102 C69.9226435,35.0061648 71.4435954,36.5252542 73.297995,36.5309134" id="Fill-11"></path>
                    <path d="M92.7829053,30.7862854 C88.890172,30.7900582 86.5202729,27.5152712 86.5202729,23.7236112 C86.5251133,19.9389577 88.890172,16.6698299 92.7756447,16.6652487 C96.6761764,16.6652487 99.0406972,19.9389577 99.0406972,23.7287314 C99.0474199,27.5028749 96.6761764,30.7900582 92.7829053,30.7862854 M92.7829053,10.7794173 C85.1765324,10.7872324 79.8706799,16.6005722 79.8661084,23.7287314 C79.8706799,30.839913 85.1765324,36.666727 92.7829053,36.6621458 C100.39627,36.6559476 105.701047,30.839913 105.695131,23.7346601 C105.695131,16.6005722 100.39627,10.7872324 92.7829053,10.7794173" id="Fill-13"></path>
                    <path d="M9.98407028,66.8922133 C6.92630086,66.8922133 3.89434674,65.9740764 1.21358838,64.2372428 C0.441549327,63.7551333 0,62.9612292 0,62.0587225 C0,60.626138 1.07752019,59.5457709 2.50596722,59.5457709 C2.95612165,59.5457709 3.42241065,59.6708121 3.75532055,59.8791243 C5.9291846,61.2483798 8.20496532,62.0007832 10.1583236,62.0007832 C12.69656,62.0007832 13.0754534,60.8290605 13.0754534,60.1294763 C13.0754534,58.6758719 11.2880122,58.1460635 9.02352571,57.4766617 L8.13800687,57.2104101 C4.54645217,56.1548357 1.22300021,54.584544 1.22300021,50.2681958 C1.22300021,45.1156344 5.47096288,42.8481839 9.67858914,42.8481839 C12.0627404,42.8481839 14.5560689,43.4647666 16.8850937,44.6332554 C17.8442937,45.1140174 18.3944824,45.9844554 18.3944824,47.0257471 C18.3944824,48.4338085 17.2744745,49.5370819 15.8441451,49.5370819 C15.4009824,49.5370819 15.1167451,49.4656682 14.6727756,49.2414563 C12.6642908,48.2583735 10.8913708,47.7404225 9.54682351,47.7404225 C7.65450767,47.7404225 6.97981384,48.6380785 6.97981384,49.479951 C6.97981384,50.8370796 8.79226357,51.4531233 11.0865991,52.2322057 L11.8255622,52.4836356 C15.2157038,53.6160134 18.8319981,55.1739087 18.8319981,59.3406924 C18.8319981,64.1019611 15.523874,66.8922133 9.98407028,66.8922133" id="Fill-15"></path>
                    <path d="M54.3990384,66.6167992 C52.6452109,66.6167992 51.2183774,65.1863705 51.2183774,63.429056 L51.2183774,53.4712997 C51.2183774,50.3390705 49.8052582,48.6143637 47.2395931,48.6143637 C44.6279444,48.6143637 43.1298498,50.3840746 43.1298498,53.4712997 L43.1298498,63.429056 C43.1298498,65.1863705 41.703823,66.6167992 39.9497266,66.6167992 C38.1958991,66.6167992 36.7698723,65.1863705 36.7698723,63.429056 L36.7698723,53.4712997 C36.7698723,50.3390705 35.3564842,48.6143637 32.7900123,48.6143637 C30.1780948,48.6143637 28.6813448,50.3840746 28.6813448,53.4712997 L28.6813448,63.429056 C28.6813448,65.1863705 27.2539734,66.6167992 25.4996081,66.6167992 C23.7463184,66.6167992 22.3194849,65.1863705 22.3194849,63.429056 L22.3194849,46.2094757 C22.3194849,44.4513528 23.7463184,43.022541 25.4996081,43.022541 C27.2539734,43.022541 28.6813448,44.4513528 28.6813448,46.2094757 L28.6813448,46.8123146 L28.8902874,46.5422902 C30.2254229,44.8224342 32.2002939,42.8481839 35.6547048,42.8481839 C38.5992633,42.8481839 40.8892962,44.1390191 42.1020779,46.4808476 L42.1830196,46.6358017 L42.2956927,46.5029454 C44.3934554,44.0441603 46.8609685,42.8481839 49.8420988,42.8481839 C54.8314448,42.8481839 57.5799684,45.8491737 57.5799684,51.2965523 L57.5799684,63.429056 C57.5799684,65.1863705 56.1523281,66.6167992 54.3990384,66.6167992" id="Fill-17"></path>
                    <path d="M65.2984765,66.6124874 C63.5451868,66.6124874 62.1180843,65.1820587 62.1180843,63.4244747 L62.1180843,53.8501962 C62.1180843,52.0918038 63.5451868,50.6632615 65.2984765,50.6632615 C67.052304,50.6632615 68.4796753,52.0918038 68.4796753,53.8501962 L68.4796753,63.4244747 C68.4796753,65.1820587 67.052304,66.6124874 65.2984765,66.6124874" id="Fill-19"></path>
                    <path d="M65.3909813,47.7902773 C63.5868678,47.7902773 62.1180843,46.3183478 62.1180843,44.5103701 C62.1180843,42.7023923 63.5868678,41.2312713 65.3909813,41.2312713 C67.1950949,41.2312713 68.6638783,42.7023923 68.6638783,44.5103701 C68.6638783,46.3183478 67.1950949,47.7902773 65.3909813,47.7902773" id="Fill-21"></path>
                    <path d="M76.5934804,66.6488679 C74.8396529,66.6488679 73.4122815,65.2184392 73.4122815,63.4608552 L73.4122815,44.1484511 C73.4122815,42.3914061 74.8396529,40.9617859 76.5934804,40.9617859 C78.34677,40.9617859 79.7733347,42.3914061 79.7733347,44.1484511 L79.7733347,63.4608552 C79.7733347,65.2184392 78.34677,66.6488679 76.5934804,66.6488679" id="Fill-23"></path>
                    <path d="M94.6722631,47.8983409 C97.4457952,47.8945681 99.12137,50.0377858 99.5898103,52.4548007 L89.4737055,52.4515668 C89.7875228,49.7796188 91.7774528,47.8945681 94.6722631,47.8983409 M94.767457,66.906496 C98.3845581,66.9005673 100.701482,65.9056271 102.431377,64.8001978 C103.522342,64.1183997 104.676502,63.1191477 104.680804,61.6509911 C104.676502,60.3466816 103.731554,59.3334163 102.162736,59.3447347 C101.211334,59.3291046 100.589885,59.8042074 99.8458121,60.3889908 C98.6529298,61.3292255 97.0308679,61.9075412 95.0274925,61.9110445 C91.4157696,61.9188596 89.6869507,59.6527566 89.3723266,56.9247555 L103.321736,56.9188269 C104.931159,56.9247555 105.568205,55.8804995 105.573584,54.8753188 C105.573584,47.9985895 101.224511,42.8481839 94.6722631,42.8481839 C87.802971,42.8500703 82.8308352,47.9419976 82.8241125,54.8782832 C82.8308352,61.4453737 86.91799,66.8962555 94.767457,66.906496" id="Fill-25"></path>
                </g>
            </g>
        </g>
    </g>
</svg>